<svg xmlns="http://www.w3.org/2000/svg" viewBox="0 0 96 96"><defs><style>.cls-1{fill:#fff;}.cls-2{fill:#002b63;}</style></defs><title>13_map</title><g id="Layer_2" data-name="Layer 2"><g id="Icons"><circle class="cls-1" cx="48" cy="48" r="48"/><circle class="cls-2" cx="48" cy="48" r="42"/><path class="cls-1" d="M35,66H30.42V38.57H20.48V34.9c5.24,0,10-1.35,11-7.18H35Z"/><path class="cls-1" d="M56,44.13a6.92,6.92,0,0,0,1,.05h1c3.89,0,7.29-2.16,7.29-6.26s-2.92-6.16-6.8-6.16c-5,0-7.24,3.83-7.24,8.32H46.62c.27-7.29,4.16-12.37,11.83-12.37,6.64,0,11.66,3.19,11.66,10.26a8.62,8.62,0,0,1-5.29,7.61v.11c4.7,1,6.91,4.7,6.91,9.29,0,7.61-6,11.66-13.18,11.66-7.78,0-12.91-4.54-12.74-12.47H50.4c.16,5,2.92,8.42,8.15,8.42,4.48,0,8.32-2.81,8.32-7.4,0-4.81-3.62-7.34-8.15-7.34A22.35,22.35,0,0,0,56,48Z"/></g></g></svg>