<svg xmlns="http://www.w3.org/2000/svg" viewBox="0 0 96 96"><defs><style>.cls-1{fill:#fff;}.cls-2{fill:#002b63;}</style></defs><title>15_map</title><g id="Layer_2" data-name="Layer 2"><g id="Icons"><circle class="cls-1" cx="48" cy="48" r="48"/><circle class="cls-2" cx="48" cy="48" r="42"/><path class="cls-1" d="M35,66H30.42V38.57H20.48V34.9c5.24,0,10-1.35,11-7.18H35Z"/><path class="cls-1" d="M69.57,32.41H54.13l-2.05,11,.11.11a9.69,9.69,0,0,1,7.13-2.75c6.8,0,12.37,4.32,12.37,13.12,0,6.48-4.48,12.74-13.39,12.74-6.64,0-12-4.05-12.2-11h4.59c.27,3.94,3.46,6.91,8,6.91,4.37,0,8.1-3,8.1-9.07a8.29,8.29,0,0,0-8.64-8.69A9.11,9.11,0,0,0,51,48.45l-3.94-.21,3.56-19.87h18.9Z"/></g></g></svg>