<svg xmlns="http://www.w3.org/2000/svg" viewBox="0 0 96 96"><defs><style>.cls-1{fill:#fff;}.cls-2{fill:#002b63;}</style></defs><title>16_map</title><g id="Layer_2" data-name="Layer 2"><g id="Icons"><circle class="cls-1" cx="48" cy="48" r="48"/><circle class="cls-2" cx="48" cy="48" r="42"/><path class="cls-1" d="M35,66H30.42V38.57H20.48V34.9c5.24,0,10-1.35,11-7.18H35Z"/><path class="cls-1" d="M66.55,37.49a6.1,6.1,0,0,0-6.43-5.72c-7.78,0-9.13,8.64-9.29,14.53l.11.11c2.16-3.51,5.4-5,9.56-5,7.34,0,11.72,5.35,11.72,12.42,0,5.62-3.13,12.85-12.8,12.85C48,66.65,46.24,56.23,46.24,48.23c0-10.53,3.19-20.52,14.09-20.52,6.32,0,10.21,3.51,10.8,9.77ZM51.7,54.07c0,4.75,2.92,8.53,7.94,8.53s7.72-3.94,7.72-8.48c0-4.75-2.48-8.69-7.72-8.69S51.7,49.26,51.7,54.07Z"/></g></g></svg>