<svg xmlns="http://www.w3.org/2000/svg" viewBox="0 0 96 96"><defs><style>.cls-1{fill:#fff;}.cls-2{fill:#002b63;}</style></defs><title>18_map</title><g id="Layer_2" data-name="Layer 2"><g id="Icons"><circle class="cls-1" cx="48" cy="48" r="48"/><circle class="cls-2" cx="48" cy="48" r="42"/><path class="cls-1" d="M35,66H30.42V38.57H20.48V34.9c5.24,0,10-1.35,11-7.18H35Z"/><path class="cls-1" d="M58.93,27.71c8.37,0,11.61,4.86,11.61,9.77a8.78,8.78,0,0,1-5.29,7.94c4.59,1.46,6.8,4.81,6.8,9.56,0,7.4-5.62,11.66-12.69,11.66-7.34,0-13-3.89-13-11.66A9.6,9.6,0,0,1,53,45.43a8.57,8.57,0,0,1-5.35-7.94C47.7,31.22,53,27.71,58.93,27.71Zm.43,34.88c4.59,0,7.83-3.19,7.83-7.45,0-4.1-3.56-7.29-7.88-7.29-4.54,0-8.1,2.86-8.1,7.34S54.61,62.6,59.36,62.6Zm0-18.79c3.67,0,6.32-2.27,6.32-6.16s-2.7-5.89-6.43-5.89-6.7,2.05-6.7,5.89C52.56,41.81,55.64,43.81,59.36,43.81Z"/></g></g></svg>