<svg xmlns="http://www.w3.org/2000/svg" viewBox="0 0 96 96"><defs><style>.cls-1{fill:#fff;}.cls-2{fill:#002b63;}</style></defs><title>19_map</title><g id="Layer_2" data-name="Layer 2"><g id="Icons"><circle class="cls-1" cx="48" cy="48" r="48"/><circle class="cls-2" cx="48" cy="48" r="42"/><path class="cls-1" d="M35,66H30.42V38.57H20.48V34.9c5.24,0,10-1.35,11-7.18H35Z"/><path class="cls-1" d="M51.43,56.77c.38,3.73,3.35,5.83,7,5.83,5.62,0,8.37-4.86,8.64-14.8L67,47.69A10,10,0,0,1,58.12,53C50.29,53,46,47.75,46,40.19c0-7.34,5.18-12.47,12.58-12.47,7.13,0,13.12,3.83,13.12,18.31,0,13.23-4,20.63-13.28,20.63-6.43,0-11-3.29-11.61-9.88Zm7-25c-5.46,0-7.51,4.37-7.51,9.07,0,4.16,3.13,8.1,7.56,8.1,4.81,0,7.83-3.89,7.83-8.42C66.28,35.81,63.52,31.76,58.39,31.76Z"/></g></g></svg>