<svg xmlns="http://www.w3.org/2000/svg" viewBox="0 0 96 96"><defs><style>.cls-1{fill:#fff;}.cls-2{fill:#002b63;}</style></defs><title>20_map</title><g id="Layer_2" data-name="Layer 2"><g id="Icons"><circle class="cls-1" cx="48" cy="48" r="48"/><circle class="cls-2" cx="48" cy="48" r="42"/><path class="cls-1" d="M20.35,41.27c-.43-7.78,4.21-13.55,12.31-13.55,6.64,0,12,3.89,12,11,0,6.75-4.54,10.1-9.29,13.12-4.75,2.86-9.88,5.4-10.75,10.1H44.27V66h-25C20,57,24.62,53.58,30,50.34c6.48-4.05,9.78-6.32,9.78-11.66,0-4.16-3.35-6.91-7.4-6.91-5.35,0-7.61,4.91-7.45,9.5Z"/><path class="cls-1" d="M63,27.71c12,0,12.74,11.07,12.74,19.49S75,66.65,63,66.65s-12.74-11-12.74-19.44S51,27.71,63,27.71ZM63,62.6c7.83,0,7.88-9.72,7.88-15.44S70.84,31.76,63,31.76s-7.88,9.72-7.88,15.39S55.18,62.6,63,62.6Z"/></g></g></svg>