<svg xmlns="http://www.w3.org/2000/svg" viewBox="0 0 96 96"><defs><style>.cls-1{fill:#fff;}.cls-2{fill:#002b63;}</style></defs><title>03_map</title><g id="Layer_2" data-name="Layer 2"><g id="Icons"><circle class="cls-1" cx="48" cy="48" r="48"/><circle class="cls-2" cx="48" cy="48" r="42"/><path class="cls-1" d="M44.76,44.13a6.93,6.93,0,0,0,1,.05h1C50.65,44.18,54,42,54,37.92s-2.92-6.16-6.8-6.16c-5,0-7.24,3.83-7.24,8.32H35.42c.27-7.29,4.16-12.37,11.83-12.37,6.64,0,11.66,3.19,11.66,10.26a8.62,8.62,0,0,1-5.29,7.61v.11c4.7,1,6.91,4.7,6.91,9.29,0,7.61-6,11.66-13.18,11.66-7.78,0-12.91-4.54-12.74-12.47H39.2c.16,5,2.92,8.42,8.15,8.42,4.48,0,8.32-2.81,8.32-7.4,0-4.81-3.62-7.34-8.15-7.34a22.35,22.35,0,0,0-2.75.16Z"/></g></g></svg>