<svg xmlns="http://www.w3.org/2000/svg" viewBox="0 0 96 96"><defs><style>.cls-1{fill:#fff;}.cls-2{fill:#002b63;}</style></defs><title>05_map</title><g id="Layer_2" data-name="Layer 2"><g id="Icons"><circle class="cls-1" cx="48" cy="48" r="48"/><circle class="cls-2" cx="48" cy="48" r="42"/><path class="cls-1" d="M58.37,32.41H42.92l-2.05,11,.11.11a9.69,9.69,0,0,1,7.13-2.75c6.8,0,12.37,4.32,12.37,13.12,0,6.48-4.48,12.74-13.39,12.74-6.64,0-12-4.05-12.2-11h4.59c.27,3.94,3.46,6.91,8,6.91,4.38,0,8.1-3,8.1-9.07A8.29,8.29,0,0,0,47,44.83a9.11,9.11,0,0,0-7.13,3.62l-3.94-.21,3.56-19.87h18.9Z"/></g></g></svg>