<svg xmlns="http://www.w3.org/2000/svg" viewBox="0 0 96 96"><defs><style>.cls-1{fill:#fff;}.cls-2{fill:#002b63;}</style></defs><title>06_map</title><g id="Layer_2" data-name="Layer 2"><g id="Icons"><circle class="cls-1" cx="48" cy="48" r="48"/><circle class="cls-2" cx="48" cy="48" r="42"/><path class="cls-1" d="M55.34,37.49a6.1,6.1,0,0,0-6.43-5.72c-7.78,0-9.13,8.64-9.29,14.53l.11.11c2.16-3.51,5.4-5,9.56-5C56.64,41.38,61,46.72,61,53.8c0,5.62-3.13,12.85-12.8,12.85C36.82,66.65,35,56.23,35,48.23c0-10.53,3.19-20.52,14.09-20.52,6.32,0,10.21,3.51,10.8,9.77ZM40.49,54.07c0,4.75,2.92,8.53,7.94,8.53s7.72-3.94,7.72-8.48c0-4.75-2.48-8.69-7.72-8.69S40.49,49.26,40.49,54.07Z"/></g></g></svg>