<svg xmlns="http://www.w3.org/2000/svg" viewBox="0 0 96 96"><defs><style>.cls-1{fill:#fff;}.cls-2{fill:#002b63;}</style></defs><title>09_map</title><g id="Layer_2" data-name="Layer 2"><g id="Icons"><circle class="cls-1" cx="48" cy="48" r="48"/><circle class="cls-2" cx="48" cy="48" r="42"/><path class="cls-1" d="M40.22,56.77c.38,3.73,3.35,5.83,7,5.83,5.62,0,8.37-4.86,8.64-14.8l-.11-.11A10,10,0,0,1,46.92,53c-7.83,0-12.1-5.24-12.1-12.8,0-7.34,5.18-12.47,12.58-12.47,7.13,0,13.12,3.83,13.12,18.31,0,13.23-4,20.63-13.28,20.63-6.43,0-11-3.29-11.61-9.88Zm7-25c-5.45,0-7.51,4.37-7.51,9.07,0,4.16,3.13,8.1,7.56,8.1,4.81,0,7.83-3.89,7.83-8.42C55.07,35.81,52.32,31.76,47.19,31.76Z"/></g></g></svg>