<svg xmlns="http://www.w3.org/2000/svg" viewBox="0 0 72 72">
  <title>accessible</title>
  <g id="Layer_2" data-name="Layer 2">
    <g id="Icons">
      <g>
        <rect width="72" height="72" style="fill: #fff;opacity: 0"/>
        <g>
          <circle cx="37.48" cy="16.5" r="4.5" style="fill: #0d8585"/>
          <path d="M21,26.07,16.09,35,19,37l4-7,5-2-1,8a13.51,13.51,0,0,0-7.51,6.19A12,12,0,0,0,30,60h.18a12,12,0,0,0,10.6-17.24l1,0L49.21,54H54L45,40a9.62,9.62,0,0,0-7.61-4H37l.5-8.52h0c0-.08,0-.16,0-.24l0-.33h0A4.61,4.61,0,0,0,33,22.5H28.54ZM36.55,51.63a7.5,7.5,0,1,1-2.93-10.19A7.5,7.5,0,0,1,36.55,51.63Z" style="fill: #0d8585"/>
        </g>
      </g>
    </g>
  </g>
</svg>
