<svg xmlns="http://www.w3.org/2000/svg" viewBox="0 0 72 72">
  <title>air_quality</title>
  <g id="Layer_2" data-name="Layer 2">
    <g id="Icons">
      <g>
        <circle cx="36" cy="36" r="36" style="fill: #fff;opacity: 0"/>
        <path d="M57.87,29.8a6.4,6.4,0,0,0,.06-.88,7,7,0,0,0-12.4-4.49,15.51,15.51,0,0,0-30,5.53,16.7,16.7,0,0,0,.14,2h-.14a9.52,9.52,0,1,0,0,19c.19,0,.37,0,.56,0v0H55.73v0A10.76,10.76,0,0,0,57.87,29.8ZM35,28.85h0c5.93-3.72,13.15-1.92,19,4.15a17.69,17.69,0,0,0-17,1.15h0C31.13,37.87,23.91,36.07,18,30A17.69,17.69,0,0,0,35,28.85Zm7.95,14.23h0c-5.94,3.72-13.16,2-19-4.08a17.7,17.7,0,0,0,17-1.22h0C46.8,34.06,54,35.93,59.9,42A17.65,17.65,0,0,0,42.94,43.08Z" style="fill: #378006"/>
      </g>
    </g>
  </g>
</svg>
