<svg xmlns="http://www.w3.org/2000/svg" viewBox="0 0 72 72">
  <title>air_quality_good</title>
  <g id="Layer_2" data-name="Layer 2">
    <g id="Icons">
      <g>
        <circle cx="36" cy="36" r="36" style="fill: #fff;opacity: 0"/>
        <path d="M57.87,29.8a6.4,6.4,0,0,0,.06-.88,7,7,0,0,0-12.4-4.49,15.51,15.51,0,0,0-30,5.53,16.7,16.7,0,0,0,.14,2h-.14a9.52,9.52,0,1,0,0,19c.19,0,.37,0,.56,0v0H55.73v0A10.76,10.76,0,0,0,57.87,29.8Zm-2.78-.89L40.24,43.76,36,48,25.39,37.39l4.25-4.24L36,39.52,50.85,24.67Z" style="fill: #378006"/>
      </g>
    </g>
  </g>
</svg>
