<svg xmlns="http://www.w3.org/2000/svg" viewBox="0 0 72 72">
  <title>air_quality_alert</title>
  <g id="Layer_2" data-name="Layer 2">
    <g id="Icons">
      <g>
        <circle cx="36" cy="36" r="36" style="fill: #fff;opacity: 0"/>
        <path d="M57.87,29.8a6.4,6.4,0,0,0,.06-.88,7,7,0,0,0-12.4-4.49,15.51,15.51,0,0,0-30,5.53,16.7,16.7,0,0,0,.14,2h-.14a9.52,9.52,0,1,0,0,19c.19,0,.37,0,.56,0v0H55.73v0A10.76,10.76,0,0,0,57.87,29.8ZM32.11,47.2A3.07,3.07,0,0,1,30,48a3.12,3.12,0,0,1-2.12-.79A2.81,2.81,0,0,1,27,45a2.94,2.94,0,0,1,.86-2.12A2.89,2.89,0,0,1,30,42a3,3,0,0,1,2.14.87A2.88,2.88,0,0,1,33,45,2.84,2.84,0,0,1,32.11,47.2Zm.75-20.83-.85,10a8.16,8.16,0,0,1-.6,2.73,1.56,1.56,0,0,1-1.51,1,1.51,1.51,0,0,1-1.49-.92,9.17,9.17,0,0,1-.6-2.8l-.63-9.67c-.12-1.88-.18-3.24-.18-4.06a3.73,3.73,0,0,1,.86-2.61A3,3,0,0,1,30.14,19a2.27,2.27,0,0,1,2.28,1.2A8.15,8.15,0,0,1,33,23.66C33,24.55,33,25.45,32.86,26.37Z" style="fill: #d82121"/>
      </g>
    </g>
  </g>
</svg>
