<?xml version="1.0" encoding="iso-8859-1"?>
<!-- Generator: Adobe Illustrator 20.1.0, SVG Export Plug-In . SVG Version: 6.00 Build 0)  -->
<svg version="1.1" xmlns="http://www.w3.org/2000/svg" xmlns:xlink="http://www.w3.org/1999/xlink" x="0px" y="0px"
	 viewBox="0 0 72 72" style="enable-background:new 0 0 72 72;" xml:space="preserve">
<g id="Art_x5F_Pin">
	<rect style="opacity:0;fill:#FFFFFF;" width="72" height="72"/>
	<g>
		<rect x="18" y="24" transform="matrix(-1 1.677490e-11 -1.677490e-11 -1 72 51)" style="fill:#B35C12;" width="36" height="3"/>
	</g>
	<g>
		<rect x="15" y="57" transform="matrix(-1 2.880039e-11 -2.880039e-11 -1 72 120)" style="fill:#B35C12;" width="42" height="6"/>
	</g>
	<g>
		<polygon style="fill:#B35C12;" points="15,19.636 36,6 57,19.636 56.061,21 16.038,21 		"/>
	</g>
	<polygon style="fill:#B35C12;" points="51.073,32.112 54,30 45,30 47.927,32.112 46.643,51.81 45,54 46.5,54 52.5,54 54,54 
		52.357,51.81 	"/>
	<polygon style="fill:#B35C12;" points="24.073,32.112 27,30 18,30 20.927,32.112 19.643,51.81 18,54 19.5,54 25.5,54 27,54 
		25.357,51.81 	"/>
	<polygon style="fill:#B35C12;" points="37.573,32.112 40.5,30 31.5,30 34.427,32.112 33.143,51.81 31.5,54 33,54 39,54 40.5,54 
		38.857,51.81 	"/>
</g>
<g id="Layer_1">
</g>
</svg>
