<?xml version="1.0" encoding="iso-8859-1"?>
<!-- Generator: Adobe Illustrator 20.1.0, SVG Export Plug-In . SVG Version: 6.00 Build 0)  -->
<svg version="1.1" xmlns="http://www.w3.org/2000/svg" xmlns:xlink="http://www.w3.org/1999/xlink" x="0px" y="0px"
	 viewBox="0 0 72 72" style="enable-background:new 0 0 72 72;" xml:space="preserve">
<g id="Atm_x5F_Pin">
	<circle style="opacity:0;fill:#FFFFFF;" cx="36" cy="36" r="36"/>
	<rect x="30" y="42" style="fill:#15788C;" width="12" height="6"/>
	<path style="fill:#15788C;" d="M54,15H18c-3.314,0-6,2.686-6,6v30c0,3.314,2.686,6,6,6h36c3.314,0,6-2.686,6-6V21
		C60,17.686,57.314,15,54,15z M21,36h-6v-3h6V36z M21,30h-6v-3h6V30z M21,24h-6v-3h6V24z M48,42h-3v6v3h-3H30h-3v-3v-6h-3v-3h24V42z
		 M48,36H24V21h24V36z M57,36h-6v-3h6V36z M57,30h-6v-3h6V30z M57,24h-6v-3h6V24z"/>
</g>
<g id="Layer_1">
</g>
</svg>
