<?xml version="1.0" encoding="iso-8859-1"?>
<!-- Generator: Adobe Illustrator 20.1.0, SVG Export Plug-In . SVG Version: 6.00 Build 0)  -->
<svg version="1.1" xmlns="http://www.w3.org/2000/svg" xmlns:xlink="http://www.w3.org/1999/xlink" x="0px" y="0px"
	 viewBox="0 0 72 72" style="enable-background:new 0 0 72 72;" xml:space="preserve">
<g id="Bank_x5F_Pin">
	<circle style="opacity:0;fill:#FFFFFF;" cx="36" cy="36" r="36"/>
	<path style="fill:#15788C;" d="M35.953,5C24,5,26,10,28,12h16C46,10,48,5,35.953,5z"/>
	<path style="fill:#15788C;" d="M58,36c0-10-6-18-16-20H30c-10,2-16,10-16,20c0,12-16,24,21.953,24C74,60,58,48,58,36z M36,54.064
		c-8.837,0-16-7.163-16-16c0-8.837,7.163-16,16-16c8.836,0,16,7.163,16,16C52,46.9,44.836,54.064,36,54.064z"/>
	<path style="fill:#15788C;" d="M39,36h-2v-6h5v-3h-5v-3h-2v3h-2c-3.314,0-6,2.686-6,6s2.686,6,6,6h2v6h-8v3h8v3h2v-3h2
		c3.314,0,6-2.686,6-6S42.314,36,39,36z M33,36c-1.657,0-3-1.343-3-3s1.343-3,3-3h2v6H33z M39,45h-2v-6h2c1.657,0,3,1.343,3,3
		S40.657,45,39,45z"/>
</g>
<g id="Layer_1">
</g>
</svg>
