<svg xmlns="http://www.w3.org/2000/svg" viewBox="0 0 72 72">
  <title>bank</title>
  <g id="Layer_2" data-name="Layer 2">
    <g id="Icons">
      <g>
        <circle cx="36" cy="36" r="36" style="fill: #fff;opacity: 0"/>
        <path d="M36,4.5c-12,0-10,5.79-8,7.5H44C46,10.29,48,4.5,36,4.5Z" style="fill: #0081a1"/>
        <path d="M57,36c0-10-5.85-19-15.32-21H30.32C20.85,17,15,26,15,36c0,5.36-2.85,10.71-3,15-.18,5.32,4.05,9,24,9s24.21-3.68,24-9C59.85,46.71,57,41.36,57,36ZM36,52.56a15,15,0,1,1,15-15A15,15,0,0,1,36,52.56Z" style="fill: #0081a1"/>
        <path d="M39,36H37V30h5V27H37V24H35v3H33a6,6,0,0,0,0,12h2v6H27v3h8v3h2V48h2a6,6,0,0,0,0-12Zm-6,0a3,3,0,0,1,0-6h2v6Zm6,9H37V39h2a3,3,0,0,1,0,6Z" style="fill: #0081a1"/>
      </g>
    </g>
  </g>
</svg>
