<?xml version="1.0" encoding="iso-8859-1"?>
<!-- Generator: Adobe Illustrator 20.1.0, SVG Export Plug-In . SVG Version: 6.00 Build 0)  -->
<svg version="1.1" xmlns="http://www.w3.org/2000/svg" xmlns:xlink="http://www.w3.org/1999/xlink" x="0px" y="0px"
	 viewBox="0 0 72 72" style="enable-background:new 0 0 72 72;" xml:space="preserve">
<g id="Bed_x5F_Breakfast_x5F_Pin">
	<circle style="opacity:0;fill:#FFFFFF;" cx="36" cy="36" r="36"/>
	<polygon style="fill:#D82121;" points="51,30 54,25 18,25 21,30 	"/>
	<circle style="fill:#D82121;" cx="22.5" cy="41.5" r="4.5"/>
	<polygon style="fill:#D82121;" points="57,40 57,49.333 15,49.333 15,34 12,34 12,57 15,57 15,54 57,54 57,57 60,57 60,40 	"/>
	<path style="fill:#D82121;" d="M30,37v9h24v-1.038C54,40.565,50.379,37,45.912,37H30z"/>
	<path style="fill:#D82121;" d="M36,23c8.284,0,15-5.373,15-12H21C21,17.627,27.716,23,36,23z"/>
</g>
<g id="Layer_1">
</g>
</svg>
