<svg xmlns="http://www.w3.org/2000/svg" viewBox="0 0 72 72">
  <title>bed_breakfast</title>
  <g id="Layer_2" data-name="Layer 2">
    <g id="Icons">
      <g>
        <circle cx="36" cy="36" r="36" style="fill: #fff;opacity: 0"/>
        <polygon points="49.5 28.5 54 24 18 24 22.5 28.5 49.5 28.5" style="fill: #d82121"/>
        <circle cx="22.5" cy="40.5" r="4.5" style="fill: #d82121"/>
        <polygon points="57 39 57 48 15 48 15 33 12 33 12 57 15 57 15 54 57 54 57 57 60 57 60 39 57 39" style="fill: #d82121"/>
        <path d="M30,36v9H54V44a8,8,0,0,0-8.09-8Z" style="fill: #d82121"/>
        <path d="M36,21c8.28,0,15-5.37,15-12H21C21,15.63,27.72,21,36,21Z" style="fill: #d82121"/>
      </g>
    </g>
  </g>
</svg>
