<?xml version="1.0" encoding="iso-8859-1"?>
<!-- Generator: Adobe Illustrator 20.1.0, SVG Export Plug-In . SVG Version: 6.00 Build 0)  -->
<svg version="1.1" xmlns="http://www.w3.org/2000/svg" xmlns:xlink="http://www.w3.org/1999/xlink" x="0px" y="0px"
	 viewBox="0 0 72 72" style="enable-background:new 0 0 72 72;" xml:space="preserve">
<g id="Beer_x5F_Pin">
	<circle style="opacity:0;fill:#FFFFFF;" cx="36" cy="36" r="36"/>
	<path style="fill:#0E8A0E;" d="M50,18c0-6-2-8-2-8H24c0,0-2,2-2,8s2,14,2,14s2,14,2,16s-2,12,0,14h20c2-2,0.333-12,0.333-14
		S50,24,50,18z M44,60H28c-2-2,0-10.154,0-12c0,0-4-24-4-29c0-5.538,1.667-7,1.667-7h20.667c0,0,1.667,1.462,1.667,7c0,5-4,29-4,29
		C44,49.846,46,58,44,60z"/>
	<path style="fill:#0E8A0E;" d="M28,34c1.366,4.098,1.863,14.856,2,20c0.064,2.388,0,4,0,4h12c0,0,0-1.559,0.061-3.887
		C42.195,48.984,42.624,38.127,44,34c2-6,2-14,2-14H26C26,20,26,28,28,34z"/>
</g>
<g id="Layer_1">
</g>
</svg>
