<svg xmlns="http://www.w3.org/2000/svg" viewBox="0 0 72 72">
  <title>beer</title>
  <g id="Layer_2" data-name="Layer 2">
    <g id="Icons">
      <g>
        <circle cx="36" cy="36" r="36" style="fill: #fff;opacity: 0"/>
        <path d="M51,18c0-6-2.14-9-2.14-9H23.14S21,12,21,18s2.14,14,2.14,14,2.14,14,2.14,16-2.14,13,0,15H46.71c2.14-2,.36-13,.36-15S51,24,51,18ZM45,60H27c-2.14-2,.43-10.15.43-12,0,0-4.29-24-4.29-29,0-5.54,1.61-7,1.61-7h22.5s1.61,1.46,1.61,7c0,5-4.29,29-4.29,29C44.57,49.85,47.14,58,45,60Z" style="fill: #00856a"/>
        <path d="M27,21c0,4.38,3.75,27,3.75,27,0,1.62-2.25,7.25-.75,9H42c1.5-1.75-.75-7.38-.75-9,0,0,3.75-22.62,3.75-27Z" style="fill: #00856a"/>
      </g>
    </g>
  </g>
</svg>
