<svg xmlns="http://www.w3.org/2000/svg" viewBox="0 0 72 72">
  <title>bin</title>
  <g id="Layer_2" data-name="Layer 2">
    <g id="Icons">
      <g>
        <circle cx="36" cy="36" r="36" style="fill: #fff;opacity: 0"/>
        <g>
          <path d="M21,21V55.5A4.5,4.5,0,0,0,25.5,60h18A4.5,4.5,0,0,0,48,55.5V21ZM45,55.5A1.5,1.5,0,0,1,43.5,57h-18A1.5,1.5,0,0,1,24,55.5V24H45Z" style="fill: #404040"/>
          <path d="M34.5,54A1.5,1.5,0,0,0,36,52.5v-24a1.5,1.5,0,0,0-3,0v24A1.5,1.5,0,0,0,34.5,54Z" style="fill: #404040"/>
          <path d="M40.5,54A1.5,1.5,0,0,0,42,52.5v-24a1.5,1.5,0,0,0-3,0v24A1.5,1.5,0,0,0,40.5,54Z" style="fill: #404040"/>
          <path d="M28.5,54A1.5,1.5,0,0,0,30,52.5v-24a1.5,1.5,0,0,0-3,0v24A1.5,1.5,0,0,0,28.5,54Z" style="fill: #404040"/>
        </g>
        <path d="M48,12H39V10.5A1.5,1.5,0,0,0,37.5,9h-6A1.5,1.5,0,0,0,30,10.5V12H21a3,3,0,0,0-3,3v3H51V15A3,3,0,0,0,48,12Z" style="fill: #404040"/>
      </g>
    </g>
  </g>
</svg>
