<svg xmlns="http://www.w3.org/2000/svg" viewBox="0 0 72 72">
  <title>burgers</title>
  <g id="Layer_2" data-name="Layer 2">
    <g id="Icons">
      <g>
        <circle cx="36" cy="36" r="36" style="fill: #fff;opacity: 0"/>
        <path d="M60.5,36a7.89,7.89,0,0,0-.63-3C58,36,56,38,51,40l-6,7.33C53.93,46,60.5,42,60.5,36Z" style="fill: #00856a"/>
        <path d="M12.13,34.5a7.87,7.87,0,0,0-.63,3C11.5,44,20,48,32,49l-6-7C18,40,14,38,12.13,34.5Z" style="fill: #00856a"/>
        <path d="M42,54l-3,3.06L36,54c-14,0-22-4-24.31-9A7.6,7.6,0,0,0,11,48c0,8,11,12,25,12s25-4,25-12a7.62,7.62,0,0,0-.66-3C58,50,52,52.31,42,54Z" style="fill: #00856a"/>
        <path d="M36,12c-12,0-24,8-24,15S22,39,36,39s24-5,24-12S48,12,36,12Zm0,21c-1.66,0-4-.17-4-1s0-4,4-4,4,3.17,4,4S37.66,33,36,33Zm6-8c-1.66,0-4-.17-4-1s0-4,4-4,4,3.17,4,4S43.66,25,42,25Zm8,6c-1.66,0-4,0-4-1s0-4,4-4,4,3.17,4,4S51.66,31,50,31Z" style="fill: #00856a"/>
      </g>
    </g>
  </g>
</svg>
