<?xml version="1.0" encoding="iso-8859-1"?>
<!-- Generator: Adobe Illustrator 20.1.0, SVG Export Plug-In . SVG Version: 6.00 Build 0)  -->
<svg version="1.1" xmlns="http://www.w3.org/2000/svg" xmlns:xlink="http://www.w3.org/1999/xlink" x="0px" y="0px"
	 viewBox="0 0 72 72" style="enable-background:new 0 0 72 72;" xml:space="preserve">
<g id="Burgers_x5F_Pin">
	<circle style="opacity:0;fill:#FFFFFF;" cx="36" cy="36" r="36"/>
	<path style="fill:#99581F;" d="M60.5,34c0-1.007-0.225-2.015-0.634-3.006C58,34,56,36,51,38l-6,7.333C53.93,44.024,60.5,40,60.5,34
		z"/>
	<path style="fill:#99581F;" d="M12.135,32.496C11.726,33.487,11.5,34.494,11.5,35.5C11.5,42,20,46,32,47l-6-7
		C18,38,14,36,12.135,32.496z"/>
	<path style="fill:#99581F;" d="M42.022,52L39,55.063L35.967,52C22,52.001,14,48,11.661,42.996C11.235,43.987,11,44.994,11,46
		c0,8,11,12,25,12s25-4,25-12c0-1.007-0.235-2.015-0.66-3.006C58,48,52,50.309,42.022,52z"/>
	<path style="fill:#99581F;" d="M36,10c-11.958,0-24,8-24,15s10,12,24,12s24-5,24-12S48,10,36,10z M36,31c-1.657,0-4-0.172-4-1
		s0-4,4-4s4,3.172,4,4S37.657,31,36,31z M42,23c-1.657,0-4-0.172-4-1s0-4,4-4s4,3.172,4,4S43.657,23,42,23z M50,29c-1.657,0-4,0-4-1
		s0-4,4-4s4,3.172,4,4S51.657,29,50,29z"/>
</g>
<g id="Layer_1">
</g>
</svg>
