<svg xmlns="http://www.w3.org/2000/svg" viewBox="0 0 72 72">
  <title>bus</title>
  <g id="Layer_2" data-name="Layer 2">
    <g id="Icons">
      <g>
        <circle cx="36" cy="36" r="36" style="fill: #fff;opacity: 0"/>
        <path d="M51,12H21a6,6,0,0,0-6,6V48a6,6,0,0,0,3,5.17V60h6V54H48v6h6V53.17A6,6,0,0,0,57,48V18A6,6,0,0,0,51,12ZM27,15H45v3H27ZM21.75,49.5a3.75,3.75,0,1,1,3.75-3.75A3.75,3.75,0,0,1,21.75,49.5ZM42,51H30V48H42Zm8.25-1.5A3.75,3.75,0,1,1,54,45.75,3.75,3.75,0,0,1,50.25,49.5ZM54,36a3,3,0,0,1-3,3H21a3,3,0,0,1-3-3V24a3,3,0,0,1,3-3H51a3,3,0,0,1,3,3Z" style="fill: #e61066"/>
      </g>
    </g>
  </g>
</svg>
