<?xml version="1.0" encoding="iso-8859-1"?>
<!-- Generator: Adobe Illustrator 20.1.0, SVG Export Plug-In . SVG Version: 6.00 Build 0)  -->
<svg version="1.1" xmlns="http://www.w3.org/2000/svg" xmlns:xlink="http://www.w3.org/1999/xlink" x="0px" y="0px"
	 viewBox="0 0 72 72" style="enable-background:new 0 0 72 72;" xml:space="preserve">
<g id="Bus_x5F_Pin">
	<circle style="opacity:0;fill:#FFFFFF;" cx="36" cy="36" r="36"/>
	<path style="fill:#E01678;" d="M54.025,10.286h-36.05c-2.471,0-4.475,2.003-4.475,4.475v36.05c0,2.031,1.361,3.726,3.214,4.273
		v6.024c0,0.493,0.4,0.893,0.893,0.893h4.643c0.493,0,0.893-0.4,0.893-0.893v-5.821h25.714v5.821c0,0.493,0.4,0.893,0.893,0.893
		h4.643c0.493,0,0.893-0.4,0.893-0.893v-6.024c1.853-0.547,3.214-2.242,3.214-4.273V14.76C58.5,12.289,56.497,10.286,54.025,10.286z
		 M26,12h20v4H26V12z M20,50c-2.209,0-4-1.791-4-4s1.791-4,4-4s4,1.791,4,4S22.209,50,20,50z M46,52.071H26V50h20V52.071z M44,48H28
		v-4h16V48z M52,50c-2.209,0-4-1.791-4-4s1.791-4,4-4s4,1.791,4,4S54.209,50,52,50z M55.286,36.214c0,1.657-1.343,3-3,3H19.714
		c-1.657,0-3-1.343-3-3V22.928c0-1.657,1.343-3,3-3h32.571c1.657,0,3,1.343,3,3V36.214z"/>
</g>
<g id="Layer_1">
</g>
</svg>
