<?xml version="1.0" encoding="iso-8859-1"?>
<!-- Generator: Adobe Illustrator 20.1.0, SVG Export Plug-In . SVG Version: 6.00 Build 0)  -->
<svg version="1.1" xmlns="http://www.w3.org/2000/svg" xmlns:xlink="http://www.w3.org/1999/xlink" x="0px" y="0px"
	 viewBox="0 0 72 72" style="enable-background:new 0 0 72 72;" xml:space="preserve">
<g id="Business_x5F_Pin">
	<rect style="opacity:0;fill:#FFFFFF;" width="72" height="72"/>
	<rect x="27" y="15" style="fill:#777A00;" width="15" height="3"/>
	<rect x="27" y="18" style="fill:#777A00;" width="3" height="3"/>
	<rect x="39" y="18" style="fill:#777A00;" width="3" height="3"/>
	<circle cx="39.25" cy="31" r="0"/>
	<g>
		<path style="fill:#777A00;" d="M51.121,36H39v3h-9v-3H17.879L12,30.152v20.816C12,52.626,13.374,54,15.031,54h38.938
			C55.626,54,57,52.626,57,50.969V30.152L51.121,36z"/>
		<path style="fill:#777A00;" d="M19.121,33H30v-3h9v3h10.879L57,25.91v-1.879C57,22.374,55.626,21,53.969,21H15.031
			C13.374,21,12,22.374,12,24.031v1.879L19.121,33z"/>
	</g>
	<rect x="33" y="33" style="fill:#777A00;" width="3" height="3"/>
</g>
<g id="Layer_1">
</g>
</svg>
