<svg xmlns="http://www.w3.org/2000/svg" viewBox="0 0 72 72">
  <title>camping</title>
  <g id="Layer_2" data-name="Layer 2">
    <g id="Icons">
      <g>
        <circle cx="36" cy="36" r="36" style="fill: #fff;opacity: 0"/>
        <path d="M45,28.5,49.5,21,51,27l7.5-1.5-9-18C45.18,16,36,30,36,30Z" style="fill: #d82121"/>
        <path d="M46.5,6s-13.5,7.5-27,7.5l-9,12,21,4.5S42.79,11.84,46.5,6Z" style="fill: #d82121"/>
        <circle cx="28.5" cy="61.5" r="4.5" style="fill: #d82121"/>
        <path d="M57,54v3H51.66A8.93,8.93,0,0,0,54,51V42a9,9,0,0,0-9-9H24a9,9,0,0,0-9,9v2.25a2.25,2.25,0,0,0-4.5,0v7.5a2.25,2.25,0,0,0,4.5,0V54a6,6,0,0,0,6,6h.15a7.5,7.5,0,0,1,14.7,0H60V54ZM33,48H21V39H33Zm15,0H39V39h9Z" style="fill: #d82121"/>
      </g>
    </g>
  </g>
</svg>
