<?xml version="1.0" encoding="iso-8859-1"?>
<!-- Generator: Adobe Illustrator 20.1.0, SVG Export Plug-In . SVG Version: 6.00 Build 0)  -->
<svg version="1.1" xmlns="http://www.w3.org/2000/svg" xmlns:xlink="http://www.w3.org/1999/xlink" x="0px" y="0px"
	 viewBox="0 0 72 72" style="enable-background:new 0 0 72 72;" xml:space="preserve">
<g id="Camping_x5F_Pin">
	<circle style="opacity:0;fill:#FFFFFF;" cx="36" cy="36" r="36"/>
	<path style="fill:#D82121;" d="M45,29l4-9l2,8l8-1L48.9,7C44.58,15.537,36,30,36,30L45,29z"/>
	<path style="fill:#D82121;" d="M45.2,7c0,0-15.2,6-26.2,6l-9,13l22,4C32,30,41.486,12.839,45.2,7z"/>
	<circle style="fill:#D82121;" cx="26" cy="60" r="4"/>
	<path style="fill:#D82121;" d="M55,57h-4c1-1,1-1,1-2.258V40c0-4-2-6-6-6H20c-4,0-6,2-6,6v5.552C14,44.695,12.857,44,12,44h-0.096
		C11.047,44,10,44.695,10,45.552v6.496c0,0.857,1.047,1.552,1.904,1.552H12c0.857,0,2-0.695,2-1.552v2.694
		C14,57.634,16.766,60,19.658,60H20c0-3.529,2.471-6.5,6-6.5s6,2.971,6,6.5h3.6h10.742H54.8H58v-3.2V54h-3V57z M32,48H20v-8h12V48z
		 M46,48h-8v-8h8V48z"/>
</g>
<g id="Layer_1">
</g>
</svg>
