<svg xmlns="http://www.w3.org/2000/svg" viewBox="0 0 72 72">
  <title>casino</title>
  <g id="Layer_2" data-name="Layer 2">
    <g id="Icons">
      <g>
        <circle cx="36" cy="36" r="36" style="fill: #fff;opacity: 0"/>
        <g>
          <path d="M36,22.5,29,31c-.86,1-2,2.54-2,4,0,6,7,4,7,4l-2,6h8l-2-6s7,2,7-4c0-1.46-1.11-3-2-4Z" style="fill: #068037"/>
          <path d="M53,13a4,4,0,0,0-4-4H22a4,4,0,0,0-4,4V53a4,4,0,0,0,2.31,3.6A4,4,0,0,0,24.19,60H53a4,4,0,0,0,4-4V17A4,4,0,0,0,53,13ZM51,52.09A1.92,1.92,0,0,1,49.06,54H22.94A1.92,1.92,0,0,1,21,52.09V13.91A1.92,1.92,0,0,1,22.94,12H49.06A1.92,1.92,0,0,1,51,13.91Z" style="fill: #068037"/>
        </g>
      </g>
    </g>
  </g>
</svg>
