<?xml version="1.0" encoding="iso-8859-1"?>
<!-- Generator: Adobe Illustrator 20.1.0, SVG Export Plug-In . SVG Version: 6.00 Build 0)  -->
<svg version="1.1" xmlns="http://www.w3.org/2000/svg" xmlns:xlink="http://www.w3.org/1999/xlink" x="0px" y="0px"
	 viewBox="0 0 72 72" style="enable-background:new 0 0 72 72;" xml:space="preserve">
<g id="Casino_x5F_Gambling_x5F_Pin">
	<circle style="opacity:0;fill:#8C18FF;" cx="36" cy="36" r="36"/>
	<path style="fill:#386B05;" d="M24.964,36c0-1.458,1.181-2.971,2.036-4l7-8l7,8c0.855,1.029,1.964,2.542,1.964,4
		c0,6-6.964,4-6.964,4l2,6h-8l2-6C32,40,24.964,42,24.964,36z"/>
	<g>
		<g>
			<path style="fill:#386B05;" d="M50,14c0-2.209-1.791-4-4-4H22c-2.209,0-4,1.791-4,4v40c0,2.209,1.791,4,4,4c0,2.209,1.791,4,4,4
				h24c2.209,0,4-1.791,4-4V18C54,15.791,52.209,14,50,14z M20,54V14c0-1.105,0.896-2,2-2h24c1.104,0,2,0.895,2,2v40
				c0,1.105-0.896,2-2,2H22C20.896,56,20,55.105,20,54z"/>
		</g>
	</g>
</g>
<g id="Layer_1">
</g>
</svg>
