<?xml version="1.0" encoding="iso-8859-1"?>
<!-- Generator: Adobe Illustrator 20.1.0, SVG Export Plug-In . SVG Version: 6.00 Build 0)  -->
<svg version="1.1" xmlns="http://www.w3.org/2000/svg" xmlns:xlink="http://www.w3.org/1999/xlink" x="0px" y="0px"
	 viewBox="0 0 72 72" style="enable-background:new 0 0 72 72;" xml:space="preserve">
<g id="Charge_x5F_Point_x5F_Pin">
	<circle style="opacity:0;fill:#FFFFFF;" cx="36" cy="36" r="36"/>
	<rect x="21" y="18" style="fill:none;" width="15" height="9"/>
	<path style="fill:#E01678;" d="M59,27v-9h-2v-6h-2.99v6H51v-6h-2.99v6H46v9h5v4c0,0,2.833,21.833,3,23c0.167,1.167-0.417,3-3,3
		c-2.625,0-2.966-1.597-3-3c0,0,0-16.75,0-19.5c0-2.344-2.125-4.5-4.5-4.5H39V15c0-1.65-1.35-3-3-3H21c-1.65,0-3,1.35-3,3v42
		c0,1.65,1.35,3,3,3h15c1.65,0,3-1.35,3-3V33c0.924,0,1.968,0,3,0c2.94,0,3,3,3,3s0,17.157,0,18c0,2.125,0.369,6,6,6
		c6.938,0,6-6,6-6l-3-23v-4H59z M26,56h-2l4-12h-6l2-12h10l-4.012,8H36L26,56z M36,27H21v-9h15V27z"/>
</g>
<g id="Layer_1">
</g>
</svg>
