<svg xmlns="http://www.w3.org/2000/svg" viewBox="0 0 72 72">
  <title>charge_point</title>
  <g id="Layer_2" data-name="Layer 2">
    <g id="Icons">
      <g>
        <circle cx="36" cy="36" r="36" style="fill: #fff;opacity: 0"/>
        <path d="M59,27V18H57V12H54v6H51V12H48v6H46v9h5v4s2.83,21.83,3,23-.42,3-3,3-3-1.6-3-3V34.5A4.67,4.67,0,0,0,43.5,30H39V15a3,3,0,0,0-3-3H21a3,3,0,0,0-3,3V57a3,3,0,0,0,3,3H36a3,3,0,0,0,3-3V33h3a3,3,0,0,1,3,3V54c0,2.13.37,6,6,6,6.94,0,6-6,6-6L54,31V27ZM26,56H24l4-12H22l2-12H34l-4,8h6ZM36,27H21V18H36Z" style="fill: #e61066"/>
      </g>
    </g>
  </g>
</svg>
