<?xml version="1.0" encoding="iso-8859-1"?>
<!-- Generator: Adobe Illustrator 20.1.0, SVG Export Plug-In . SVG Version: 6.00 Build 0)  -->
<svg version="1.1" xmlns="http://www.w3.org/2000/svg" xmlns:xlink="http://www.w3.org/1999/xlink" x="0px" y="0px"
	 viewBox="0 0 72 72" style="enable-background:new 0 0 72 72;" xml:space="preserve">
<g id="Childcare_x5F_Pin">
	<circle style="opacity:0;fill:#FFFFFF;" cx="36" cy="36" r="36"/>
	<path style="fill:#CC1FCC;" d="M8,50h22V28H8V50z M12.837,35.217c1.488-0.479,2.643-1.055,3.466-1.728
		c0.823-0.672,1.467-1.502,1.932-2.49h3.616v16H17.43V36.516c-0.715,0.544-1.408,0.984-2.076,1.32
		c-0.669,0.336-1.508,0.658-2.516,0.966V35.217z"/>
	<path style="fill:#CC1FCC;" d="M58,13.49L37.314,6l-7.49,20.686l20.686,7.49L58,13.49z M49.413,21.366
		c-0.825,0.629-2.112,1.183-3.86,1.661c-1.034,0.272-1.733,0.472-2.095,0.6c-0.362,0.128-0.798,0.308-1.309,0.542l6.417,2.323
		l-1.213,3.35l-12.33-4.464c0.582-1.166,1.426-2.156,2.53-2.97c1.105-0.814,2.907-1.593,5.406-2.339
		c1.528-0.459,2.544-0.859,3.049-1.202c0.504-0.342,0.832-0.722,0.983-1.139c0.163-0.451,0.136-0.896-0.081-1.336
		c-0.217-0.44-0.578-0.751-1.083-0.934c-0.525-0.19-1.013-0.18-1.465,0.029c-0.452,0.209-0.887,0.71-1.303,1.503l-3.996-1.823
		c0.58-1.099,1.203-1.894,1.869-2.388c0.666-0.493,1.453-0.771,2.362-0.834c0.909-0.063,2.056,0.157,3.442,0.659
		c1.446,0.524,2.512,1.096,3.196,1.716c0.684,0.621,1.134,1.356,1.347,2.205c0.214,0.85,0.167,1.698-0.14,2.546
		C50.814,19.971,50.238,20.736,49.413,21.366z"/>
	<path style="fill:#CC1FCC;" d="M54.152,34l-20.967,6.662l6.662,20.967l20.967-6.662L54.152,34z M52.694,53.696
		c-0.71,0.694-1.752,1.26-3.126,1.697c-1.341,0.426-2.449,0.605-3.324,0.536c-0.875-0.069-1.658-0.328-2.351-0.776
		c-0.692-0.448-1.319-1.089-1.879-1.922l3.921-1.844c0.423,0.774,0.854,1.266,1.294,1.477c0.44,0.211,0.921,0.233,1.444,0.067
		c0.55-0.175,0.944-0.521,1.181-1.04c0.238-0.518,0.25-1.113,0.037-1.784c-0.217-0.684-0.562-1.158-1.033-1.421
		c-0.471-0.264-1.009-0.3-1.612-0.108c-0.322,0.102-0.739,0.323-1.251,0.663l-0.719-2.994c0.239-0.039,0.422-0.079,0.549-0.119
		c0.536-0.17,0.93-0.484,1.18-0.94c0.25-0.456,0.301-0.919,0.151-1.388c-0.143-0.449-0.391-0.765-0.744-0.948
		c-0.353-0.183-0.765-0.2-1.234-0.051c-0.483,0.153-0.829,0.424-1.038,0.811s-0.251,0.964-0.126,1.729l-4.093,0.536
		c-0.07-1.336,0.248-2.478,0.955-3.426c0.707-0.948,1.898-1.688,3.574-2.221c1.925-0.611,3.43-0.695,4.516-0.25
		c1.086,0.445,1.802,1.21,2.147,2.297c0.202,0.637,0.211,1.269,0.027,1.896c-0.185,0.627-0.567,1.247-1.148,1.86
		c0.615-0.04,1.103-0.014,1.464,0.077c0.585,0.146,1.092,0.423,1.52,0.829s0.751,0.952,0.968,1.636
		c0.273,0.858,0.31,1.753,0.111,2.684C53.858,52.189,53.403,53.002,52.694,53.696z"/>
</g>
<g id="Layer_1">
</g>
</svg>
