<svg xmlns="http://www.w3.org/2000/svg" viewBox="0 0 72 72">
  <title>childcare</title>
  <g id="Layer_2" data-name="Layer 2">
    <g id="Icons">
      <g>
        <circle cx="36" cy="36" r="36" style="fill: #fff;opacity: 0"/>
        <path d="M31.08,25.91,51,32.58l6.66-19.91L37.75,6ZM47,15.79A1.74,1.74,0,0,0,44.72,15a2.75,2.75,0,0,0-1.14,1.35l-4-1.32a7.86,7.86,0,0,1,2-2.42,3.94,3.94,0,0,1,2.1-.86,7.35,7.35,0,0,1,3.11.42,8.14,8.14,0,0,1,2.85,1.55,3.91,3.91,0,0,1,1.22,2,4.2,4.2,0,0,1,0,2.4,5,5,0,0,1-1.61,2.16A10.53,10.53,0,0,1,45.86,22q-1.38.44-1.87.63t-1.16.55l5.76,1.93-1.05,3.15-11.06-3.7A7.9,7.9,0,0,1,38.7,21.7a16.8,16.8,0,0,1,4.81-2.36,11.54,11.54,0,0,0,2.71-1.22A2.33,2.33,0,0,0,47.09,17,1.57,1.57,0,0,0,47,15.79Z" style="fill: #cc14a6"/>
        <path d="M54,33,34.08,40.09,40.75,60l19.91-6.66Zm-.09,16.88a4.37,4.37,0,0,1-1.2,2.29,6.93,6.93,0,0,1-2.82,1.61,8,8,0,0,1-3,.52,4.54,4.54,0,0,1-2.17-.71,6.77,6.77,0,0,1-1.79-1.87l3.58-1.67a3.16,3.16,0,0,0,1.22,1.37,1.71,1.71,0,0,0,1.32.05,1.68,1.68,0,0,0,1.06-1,2.3,2.3,0,0,0,0-1.67,2.24,2.24,0,0,0-1-1.32,1.76,1.76,0,0,0-1.48-.09,1.68,1.68,0,0,0-.77.34l-1.08-2.51a3.73,3.73,0,0,0,.5-.12,1.76,1.76,0,0,0,1.06-.89,1.61,1.61,0,0,0,.11-1.3,1.45,1.45,0,0,0-.7-.88,1.41,1.41,0,0,0-1.13,0,1.53,1.53,0,0,0-.93.77,2.64,2.64,0,0,0-.08,1.62l-3.73.53a4.79,4.79,0,0,1,.8-3.21,6.19,6.19,0,0,1,3.22-2.1A6.11,6.11,0,0,1,49,39.37a3.36,3.36,0,0,1,2,2.13,3,3,0,0,1,.06,1.77,4.29,4.29,0,0,1-1,1.75,4.42,4.42,0,0,1,1.34.06,3.11,3.11,0,0,1,1.41.77,3.62,3.62,0,0,1,.92,1.52A4.94,4.94,0,0,1,53.91,49.88Z" style="fill: #cc14a6"/>
        <path d="M9,51H30V30H9Zm4.5-13.83a10,10,0,0,0,3.23-1.84A6.48,6.48,0,0,0,18.5,33H21V48H18V38a15.7,15.7,0,0,1-2.15,1.38,15.32,15.32,0,0,1-2.35.9Z" style="fill: #cc14a6"/>
      </g>
    </g>
  </g>
</svg>
