<svg xmlns="http://www.w3.org/2000/svg" viewBox="0 0 72 72">
  <title>chinese_thai</title>
  <g id="Layer_2" data-name="Layer 2">
    <g id="Icons">
      <g>
        <circle cx="36" cy="36" r="36" style="fill: #fff;opacity: 0"/>
        <g>
          <path d="M27,38.79c0,.07,0,.14,0,.21s0-.14,0-.22Z" style="fill: #00856a"/>
          <path d="M24,38.78c0,.07,0,.14,0,.22s0-.14,0-.21Z" style="fill: #00856a"/>
          <path d="M45,39H42a9,9,0,0,0-8-8.9,9,9,0,0,0-17,0,9,9,0,0,0-8,8.9H6A19.53,19.53,0,0,0,18,55.5V60H33V55.49A19.52,19.52,0,0,0,45,39ZM16.49,33.21a5.44,5.44,0,0,1,3,0c0-.07,0-.14,0-.22a5.92,5.92,0,0,1,.67-2.71,6,6,0,0,1,10.69,0A5.92,5.92,0,0,1,31.52,33c0,.08,0,.14,0,.22A6,6,0,0,1,39,39H12A6,6,0,0,1,16.49,33.21Z" style="fill: #00856a"/>
        </g>
        <polygon points="63.42 20.02 59.4 18 54 29.68 54 12 49.5 12 50.3 37.68 39.84 60.32 42.52 61.66 50.55 45.66 51 60 54 60 54 38.79 63.42 20.02" style="fill: #00856a"/>
        <path d="M30,9a4.27,4.27,0,0,1,1.49-6A4.12,4.12,0,0,0,27,7.5,9.75,9.75,0,0,0,28.52,12s2.77,3.88-1.52,6c0,0,5.85.33,6-3C33.08,13.24,31.68,11.88,30,9Z" style="fill: #00856a"/>
        <path d="M21,13.8C23.2,10.74,19.49,9,19.49,9S24,8.7,24,12.6a6.92,6.92,0,0,1-1.52,3.6S19.71,19.3,24,21c0,0-5.85.26-6-2.4C17.92,17.19,19.32,16.1,21,13.8Z" style="fill: #00856a"/>
      </g>
    </g>
  </g>
</svg>
