<svg xmlns="http://www.w3.org/2000/svg" viewBox="0 0 72 72">
  <title>cinema</title>
  <g id="Layer_2" data-name="Layer 2">
    <g id="Icons">
      <g>
        <circle cx="36" cy="36" r="36" style="fill: #fff;opacity: 0"/>
        <g>
          <path d="M54,22.5A10.5,10.5,0,1,0,43.5,33,10.5,10.5,0,0,0,54,22.5ZM43.5,27A4.5,4.5,0,1,1,48,22.5,4.5,4.5,0,0,1,43.5,27Z" style="fill: #068037"/>
          <path d="M33,22.5A10.5,10.5,0,1,0,22.5,33,10.5,10.5,0,0,0,33,22.5ZM22.5,27A4.5,4.5,0,1,1,27,22.5,4.5,4.5,0,0,1,22.5,27Z" style="fill: #068037"/>
          <path d="M51,39a6,6,0,0,0-6-6H18a6,6,0,0,0-6,6V51a6,6,0,0,0,6,6H45a6,6,0,0,0,6-6V48l12,3V36Z" style="fill: #068037"/>
        </g>
      </g>
    </g>
  </g>
</svg>
