<?xml version="1.0" encoding="iso-8859-1"?>
<!-- Generator: Adobe Illustrator 20.1.0, SVG Export Plug-In . SVG Version: 6.00 Build 0)  -->
<svg version="1.1" xmlns="http://www.w3.org/2000/svg" xmlns:xlink="http://www.w3.org/1999/xlink" x="0px" y="0px"
	 viewBox="0 0 72 72" style="enable-background:new 0 0 72 72;" xml:space="preserve">
<g id="Cinema_x5F_Pin">
	<circle style="opacity:0;fill:#FFFFFF;" cx="36" cy="36" r="36"/>
	<path style="fill:#386B05;" d="M50,40.235V38c0-2.2-1.8-4-4-4h-3h-1.265H19.912H16c-2.2,0-4,1.8-4,4v14c0,2.2,1.8,4,4,4h30
		c2.2,0,4-1.8,4-4v-2.412L62,54V36L50,40.235z"/>
	<path style="fill:#386B05;" d="M54,23c0-6.075-4.925-11-11-11s-11,4.925-11,11c0,6.075,4.925,11,11,11S54,29.075,54,23z M43,28
		c-2.761,0-5-2.238-5-5c0-2.761,2.239-5,5-5s5,2.238,5,5C48,25.761,45.761,28,43,28z"/>
	<path style="fill:#386B05;" d="M21,34c6.075,0,11-4.925,11-11c0-6.075-4.925-11-11-11s-11,4.925-11,11C10,29.075,14.925,34,21,34z
		 M21,18c2.761,0,5,2.238,5,5c0,2.762-2.239,5-5,5s-5-2.238-5-5C16,20.238,18.239,18,21,18z"/>
</g>
<g id="Layer_1">
</g>
</svg>
