<svg xmlns="http://www.w3.org/2000/svg" viewBox="0 0 72 72">
  <title>co_two_detector</title>
  <g id="Layer_2" data-name="Layer 2">
    <g id="Icons">
      <g>
        <circle cx="36" cy="36" r="36" style="fill: #fff;opacity: 0"/>
        <path d="M59.84,26.94A13.42,13.42,0,0,0,41.34,16a18,18,0,0,0-29,10.79A14.91,14.91,0,0,0,25.16,53.34a17.91,17.91,0,0,0,21.69,0A14.84,14.84,0,0,0,51,54a15,15,0,0,0,8.84-27.06Zm-40.47,14a4.8,4.8,0,0,0,3.93,1.65,10.37,10.37,0,0,0,2.15-.22c.69-.15,1.42-.34,2.17-.57v2.45A13.16,13.16,0,0,1,23,45a7.45,7.45,0,0,1-5.9-2.33Q15,40.35,15,36a10.75,10.75,0,0,1,1-4.77,7.11,7.11,0,0,1,2.89-3.13A8.74,8.74,0,0,1,23.32,27a11,11,0,0,1,5,1.12l-1,2.38a15.27,15.27,0,0,0-1.87-.74,6.75,6.75,0,0,0-2.08-.32,4.71,4.71,0,0,0-3.87,1.75A7.46,7.46,0,0,0,18,36,7.51,7.51,0,0,0,19.37,40.91ZM43,42.63A6.77,6.77,0,0,1,37.51,45a6.81,6.81,0,0,1-5.57-2.35A10.22,10.22,0,0,1,30,36q0-4.33,2-6.65A6.89,6.89,0,0,1,37.53,27,6.75,6.75,0,0,1,43,29.36,10.13,10.13,0,0,1,45,36,10.16,10.16,0,0,1,43,42.63ZM57,42v3H48V43.2l3.61-3.83a31.82,31.82,0,0,0,2.12-2.45,6,6,0,0,0,.76-1.36,3.85,3.85,0,0,0,.24-1.37,2.14,2.14,0,0,0-.57-1.58A2.11,2.11,0,0,0,52.59,32a4,4,0,0,0-1.56.31,7.2,7.2,0,0,0-1.74,1.13l-1.22-1.57a7.81,7.81,0,0,1,2.27-1.48A6.34,6.34,0,0,1,52.69,30a4.46,4.46,0,0,1,3.13,1.08A3.74,3.74,0,0,1,57,34a5.34,5.34,0,0,1-.34,1.9,7.88,7.88,0,0,1-1,1.86,24.53,24.53,0,0,1-2.34,2.58L51.75,42Z" style="fill: #378006"/>
        <path d="M37.53,29.45A4.1,4.1,0,0,0,34,31.11,8.29,8.29,0,0,0,32.78,36,8.38,8.38,0,0,0,34,40.89a4.07,4.07,0,0,0,3.54,1.67A4.07,4.07,0,0,0,41,40.91,8.43,8.43,0,0,0,42.22,36,8.43,8.43,0,0,0,41,31.11,4,4,0,0,0,37.53,29.45Z" style="fill: #378006"/>
      </g>
    </g>
  </g>
</svg>
