<svg xmlns="http://www.w3.org/2000/svg" viewBox="0 0 72 72">
  <title>coffee</title>
  <g id="Layer_2" data-name="Layer 2">
    <g id="Icons">
      <g>
        <circle cx="36" cy="36" r="36" style="fill: #fff;opacity: 0"/>
        <polygon points="15 57 57 57 60 51 12 51 15 57" style="fill: #00856a"/>
        <path d="M36,30c-2,0-2-4-2-4,0-4,2-4,2-8s-4-6-4-6a8.76,8.76,0,0,1,2,6c0,4-4,4-4,8S36,30,36,30Z" style="fill: #00856a"/>
        <path d="M39,24s6,0,6-4-4-4-4-8a8.76,8.76,0,0,1,2-6s-4,2-4,6,2,4,2,8C41,20,41,24,39,24Z" style="fill: #00856a"/>
        <path d="M57.22,33H18c0,10,8.06,15,18,15h0a21.71,21.71,0,0,0,11.64-3h7.15a6,6,0,0,0,5.37-3.32l1.09-2.17A4.5,4.5,0,0,0,57.22,33Zm1.7,5.17-1.09,2.17A3,3,0,0,1,55.15,42H51a13.23,13.23,0,0,0,2.69-6h3.86A1.5,1.5,0,0,1,58.91,38.17Z" style="fill: #00856a"/>
      </g>
    </g>
  </g>
</svg>
