<?xml version="1.0" encoding="iso-8859-1"?>
<!-- Generator: Adobe Illustrator 20.1.0, SVG Export Plug-In . SVG Version: 6.00 Build 0)  -->
<svg version="1.1" xmlns="http://www.w3.org/2000/svg" xmlns:xlink="http://www.w3.org/1999/xlink" x="0px" y="0px"
	 viewBox="0 0 72 72" style="enable-background:new 0 0 72 72;" xml:space="preserve">
<g id="Coffee_x5F_Pin">
	<circle style="opacity:0;fill:#FFFFFF;" cx="36" cy="36" r="36"/>
	<path style="fill:#0E8A0E;" d="M16,57h40c0,0,4-3,4-5H12C12,54,16,57,16,57z"/>
	<path style="fill:#0E8A0E;" d="M36,50c4.811,0,9.17-1.416,12.399-4c1.041,0,2.226,0,3.601,0c8,0,8-8,8-8c0-2-2-2-2-2h-4.12
		c0.074-0.649,0.12-1.313,0.12-2H18C18,44,26.059,50,36,50z M56,38c0,0,2,0,1,2c0,0-1,4-5,4c-0.556,0-1.063,0-1.542,0
		c1.436-1.685,2.491-3.694,3.056-6H56z"/>
	<path style="fill:#0E8A0E;" d="M36,32c-2,0-2-4-2-4c0-4,2-4,2-8s-4-6-4-6s2,2,2,6s-4,4-4,8S36,32,36,32z"/>
	<path style="fill:#0E8A0E;" d="M38,24c0,0,6,0,6-4s-4-4-4-8s2-6,2-6s-4,2-4,6s2,4,2,8C40,20,40,24,38,24z"/>
</g>
<g id="Layer_1">
</g>
</svg>
