<svg xmlns="http://www.w3.org/2000/svg" viewBox="0 0 72 72">
  <title>collaboration_space</title>
  <g id="Layer_2" data-name="Layer 2">
    <g id="Icons">
      <g>
        <circle cx="36" cy="36" r="36" style="fill: #fff;opacity: 0"/>
        <path d="M16.5,42C12.36,42,9,43.88,9,46V52c0,1.2,3.36,2,7.5,2s7.5-.66,7.5-2V46C24,44.06,20.64,42,16.5,42Z" style="fill: #6a17e6"/>
        <circle cx="18" cy="33" r="6" style="fill: #6a17e6"/>
        <path d="M36,48c-5,0-9,2.48-9,5.26V63.37C27,65,31,66,36,66s9-.88,9-2.63V53.26C45,50.73,41,48,36,48Z" style="fill: #6a17e6"/>
        <circle cx="36" cy="39" r="6" style="fill: #6a17e6"/>
        <path d="M55.5,42c-4.14,0-7.5,1.88-7.5,4V52c0,1.2,3.36,2,7.5,2s7.5-.66,7.5-2V46C63,44.06,59.64,42,55.5,42Z" style="fill: #6a17e6"/>
        <circle cx="54" cy="33" r="6" style="fill: #6a17e6"/>
        <path d="M36,6c-9.94,0-18,4-18,9,0,1.84,1.11,3.55,3,5v7l4.65-4.65A31.55,31.55,0,0,0,36,24c1,0,2-.05,3-.14V30l6.43-7.34.93-.3L51,27V20c1.89-1.42,3-3.13,3-5C54,10,45.94,6,36,6ZM27,18a3,3,0,1,1,3-3A3,3,0,0,1,27,18Zm9,0a3,3,0,1,1,3-3A3,3,0,0,1,36,18Zm9-6a3,3,0,1,1-3,3A3,3,0,0,1,45,12Z" style="fill: #6a17e6"/>
      </g>
    </g>
  </g>
</svg>
