<?xml version="1.0" encoding="iso-8859-1"?>
<!-- Generator: Adobe Illustrator 20.1.0, SVG Export Plug-In . SVG Version: 6.00 Build 0)  -->
<svg version="1.1" xmlns="http://www.w3.org/2000/svg" xmlns:xlink="http://www.w3.org/1999/xlink" x="0px" y="0px"
	 viewBox="0 0 72 72" style="enable-background:new 0 0 72 72;" xml:space="preserve">
<g id="Cycling_x5F_Pin">
	<circle style="opacity:0;fill:#FFFFFF;" cx="36" cy="36" r="36"/>
	<path style="fill:#8C24F2;" d="M52,34c-0.586,0-1.158,0.056-1.721,0.137L49.208,29h1.878c0,0,0.914-1,0-3H43L32,16l-6,12
		c0,0-2,2,2,4c1.573,0.786,3.141,1.571,4.471,2.235l-6.514,1.357C24.2,34.585,22.17,34,20,34c-6.627,0-12,5.373-12,12
		c0,6.627,5.373,12,12,12s12-5.373,12-12c0-3.23-1.282-6.156-3.358-8.313l7.256-1.382L32,48c0,0,0.306,2.681,4,2l4-12
		c0,0,0.581-1.175,0.483-2.568l7.04-1.341l0.179,0.716C43.2,36.537,40,40.889,40,46c0,6.627,5.373,12,12,12s12-5.373,12-12
		C64,39.373,58.627,34,52,34z M20,54c-4.418,0-8-3.582-8-8s3.582-8,8-8s8,3.582,8,8S24.418,54,20,54z M39.229,32.827
		C38.901,32.528,38.497,32.249,38,32c-4-2-4-2-4-2l2-6l5,5h5.25l0.562,2.247L39.229,32.827z M52,54c-4.418,0-8-3.582-8-8
		s3.582-8,8-8s8,3.582,8,8S56.418,54,52,54z"/>
	<circle style="fill:#8C24F2;" cx="37" cy="12" r="5"/>
</g>
<g id="Layer_1">
</g>
</svg>
