<svg xmlns="http://www.w3.org/2000/svg" viewBox="0 0 72 72">
  <title>cycling</title>
  <g id="Layer_2" data-name="Layer 2">
    <g id="Icons">
      <g>
        <circle cx="36" cy="36" r="36" style="fill: #fff;opacity: 0"/>
        <circle cx="37.5" cy="10.5" r="4.5" style="fill: #a714cc"/>
        <path d="M51,33a12,12,0,0,0-1.72.14h0L48,27h3V24H42L30,15,24,27s-.23,2.35,3,4c1.56.8,3.14,1.57,4.47,2.24L24,34.59a12,12,0,1,0,2.69,2.09l8.26-1.38L31.5,48H36l3-11a5.56,5.56,0,0,0,.48-2.57l7-1.43.18.81A12,12,0,1,0,51,33ZM18,53.25A8.25,8.25,0,1,1,26.25,45,8.25,8.25,0,0,1,18,53.25ZM38.23,31.83A5.35,5.35,0,0,0,37,31l-4-2,2-5,4,3h6l.81,3ZM51,53.25A8.25,8.25,0,1,1,59.25,45,8.25,8.25,0,0,1,51,53.25Z" style="fill: #a714cc"/>
      </g>
    </g>
  </g>
</svg>
