<svg xmlns="http://www.w3.org/2000/svg" viewBox="0 0 72 72">
  <title>defibrillator</title>
  <g id="Layer_2" data-name="Layer 2">
    <g id="Icons">
      <g>
        <rect width="72" height="72" style="fill: #fff;opacity: 0"/>
        <g>
          <path d="M24.31,39a1.5,1.5,0,0,1,1.19.59l1.29,1.68L32.7,29.33a1.5,1.5,0,0,1,2.83.48l2.11,16.6L43.08,34a1.5,1.5,0,0,1,1.38-.9h0a1.5,1.5,0,0,1,1.37,1l1.91,5h9.91A13.34,13.34,0,0,0,60,31.47,13.5,13.5,0,0,0,36,23a13.5,13.5,0,0,0-24,8.46A13.34,13.34,0,0,0,14.33,39Z" style="fill: #e62e2e"/>
          <path d="M46.73,42a1.5,1.5,0,0,1-1.4-1l-1-2.53L38.21,52.6a1.5,1.5,0,0,1-1.37.9l-.21,0a1.5,1.5,0,0,1-1.28-1.3L33.18,35.12l-4.77,9.64a1.5,1.5,0,0,1-2.54.25l-2.3-3H17L36,61,55,42Z" style="fill: #e62e2e"/>
        </g>
      </g>
    </g>
  </g>
</svg>
