<svg xmlns="http://www.w3.org/2000/svg" viewBox="0 0 72 72">
  <title>dentist</title>
  <g id="Layer_2" data-name="Layer 2">
    <g id="Icons">
      <g>
        <path d="M36,0A36,36,0,1,0,72,36,36,36,0,0,0,36,0Z" style="fill: #fff;opacity: 0"/>
        <path d="M35.43,36c.2,0,.38,0,.57,0s.37,0,.57,0Z" style="fill: #1a77d6"/>
        <path d="M39,36" style="fill: #c00"/>
        <path d="M15,25.5S14.65,13.76,24,12l3-.75S36.75,13.5,39.75,22.5c0,0,1-7.18-.75-12L45,9s12,3,12,18a22.73,22.73,0,0,1-2.25,9S54.11,50.44,51,57c0,0-2.58,6-6,6-3,0-5.92-19.12-6-19.5a3.12,3.12,0,0,0-6,0S29.92,63,25.5,63c-2.82,0-6.82-9.78-7.5-15a61.6,61.6,0,0,1-.75-12A23.22,23.22,0,0,1,15,25.5Z" style="fill: #276ed9"/>
      </g>
    </g>
  </g>
</svg>
