<?xml version="1.0" encoding="iso-8859-1"?>
<!-- Generator: Adobe Illustrator 20.1.0, SVG Export Plug-In . SVG Version: 6.00 Build 0)  -->
<svg version="1.1" xmlns="http://www.w3.org/2000/svg" xmlns:xlink="http://www.w3.org/1999/xlink" x="0px" y="0px"
	 viewBox="0 0 72 72" style="enable-background:new 0 0 72 72;" xml:space="preserve">
<g id="Dentist_x5F_Pin">
	<path style="opacity:0;fill:#FFFFFF;" d="M36,0C16.118,0,0,16.118,0,36s16.118,36,36,36s36-16.118,36-36S55.882,0,36,0z"/>
	<path style="fill:#1A77D6;" d="M35.433,41.362c0.2-0.006,0.381,0.011,0.567,0.022c0.186-0.011,0.367-0.028,0.567-0.022H35.433z"/>
	<path style="fill:#1C77D4;" d="M52,12c-4-4-8-4-8-4s-2.953,0.627-5.397,1.717C41.318,15.408,40,22,40,22
		c-3.469-8.674-11.448-11.327-13.505-11.879C24.456,10.388,20.754,11.246,18,14c-4,4-6,14-2,20c0,0,0,14,4,22s6,6,6,6s2,0,4-8
		s2-10,2-10s0-4,4-4s4,4,4,4l2,10c2,8,4,8,4,8s2,2,6-6c0,0,4-8,4-22c0,0,2-4,2-8C58,18,54,14,52,12z"/>
</g>
<g id="Layer_1">
</g>
</svg>
