<svg xmlns="http://www.w3.org/2000/svg" viewBox="0 0 72 72">
  <title>department</title>
  <g id="Layer_2" data-name="Layer 2">
    <g id="Icons">
      <g>
        <rect width="72" height="72" style="fill: #fff;opacity: 0"/>
        <circle cx="13.5" cy="27" r="6" style="fill: #1a77d6"/>
        <path d="M36,27c3.31,0,6-.71,6-2.14V20.77c0-2.06-2.69-4.27-6-4.27s-6,2-6,4.27v4.09C30,26.15,32.69,27,36,27Z" style="fill: #1a77d6"/>
        <circle cx="36" cy="10.5" r="4.5" style="fill: #1a77d6"/>
        <path d="M36,51c-5,0-9,2.07-9,4.38v8.43C27,65.13,31,66,36,66s9-.73,9-2.19V55.38C45,53.27,41,51,36,51Z" style="fill: #1a77d6"/>
        <circle cx="36" cy="40.5" r="7.5" style="fill: #1a77d6"/>
        <path d="M58.5,36c-4.14,0-7.5,2.11-7.5,4.46v6.81c0,1.35,3.36,2.23,7.5,2.23s7.5-.74,7.5-2.23V40.46C66,38.31,62.64,36,58.5,36Z" style="fill: #1a77d6"/>
        <path d="M13.5,36C9.36,36,6,38.11,6,40.46v6.81c0,1.35,3.36,2.23,7.5,2.23s7.5-.74,7.5-2.23V40.46C21,38.31,17.64,36,13.5,36Z" style="fill: #1a77d6"/>
        <circle cx="58.5" cy="27" r="6" style="fill: #1a77d6"/>
      </g>
    </g>
  </g>
</svg>
