<svg xmlns="http://www.w3.org/2000/svg" viewBox="0 0 72 72">
  <title>desk</title>
  <g id="Layer_2" data-name="Layer 2">
    <g id="Icons">
      <g>
        <rect width="72" height="72" rx="36" ry="36" style="fill: #fff;opacity: 0"/>
        <g>
          <path d="M33,30V27h9V9H18V27h9v3H9v6h3V57h6V36H45V57h3V54H60v3h3V36h1V30ZM21,24V12H39V24ZM60,51H48V45H60Zm0-9H48V36H60Z" style="fill: #907300"/>
          <path d="M53.5,40h1a1.5,1.5,0,1,0,0-3h-1a1.5,1.5,0,0,0,0,3Z" style="fill: #907300"/>
          <path d="M53.5,49h1a1.5,1.5,0,1,0,0-3h-1a1.5,1.5,0,0,0,0,3Z" style="fill: #907300"/>
        </g>
      </g>
    </g>
  </g>
</svg>
