<svg xmlns="http://www.w3.org/2000/svg" viewBox="0 0 72 72">
  <title>digital_sign</title>
  <g id="Layer_2" data-name="Layer 2">
    <g id="Icons">
      <g>
        <circle cx="36" cy="36" r="36" style="fill: #fff;opacity: 0"/>
        <path d="M55.5,18h-39A4.5,4.5,0,0,0,12,22.5v27A4.5,4.5,0,0,0,16.5,54h39A4.5,4.5,0,0,0,60,49.5v-27A4.5,4.5,0,0,0,55.5,18ZM48,27a3,3,0,1,1-3,3A3,3,0,0,1,48,27Zm-6-6a3,3,0,1,1-3,3A3,3,0,0,1,42,21ZM18,39a3,3,0,1,1,3-3A3,3,0,0,1,18,39Zm9,0a3,3,0,1,1,3-3A3,3,0,0,1,27,39Zm9,0a3,3,0,1,1,3-3A3,3,0,0,1,36,39Zm6,12a3,3,0,1,1,3-3A3,3,0,0,1,42,51Zm6-6a3,3,0,1,1,3-3A3,3,0,0,1,48,45Zm6-6a3,3,0,1,1,3-3A3,3,0,0,1,54,39Z" style="fill: #378006"/>
      </g>
    </g>
  </g>
</svg>
