<svg xmlns="http://www.w3.org/2000/svg" viewBox="0 0 144 144"><defs><style>.cls-1,.cls-2{fill:#fff;}.cls-1{opacity:0;}.cls-3{fill:#002b63;}</style></defs><title>route_end_map</title><g id="Layer_2" data-name="Layer 2"><g id="Icons"><rect class="cls-1" width="144" height="144"/><path class="cls-2" d="M71.88,3C48.73,3.13,30,22.56,30,45.75c0,6,2.57,13.4,5.17,19.29L72,141l36.83-76c2.59-5.9,5.17-13.28,5.17-19.29C114,22.56,95.27,3.13,72.12,3Z"/><path class="cls-3" d="M72.09,9h0A36.23,36.23,0,0,0,36,45c0,5.12,2.49,11.72,4.7,16.73L72,125.93l0,.07,0-.07,31.42-64.19c2.2-5,4.54-11.62,4.54-16.73A36.1,36.1,0,0,0,72.09,9ZM72,69C58.87,69,48,57.84,48,44.69A24,24,0,1,1,72,69Z"/><circle class="cls-3" cx="72" cy="45" r="12"/></g></g></svg>