<svg xmlns="http://www.w3.org/2000/svg" viewBox="0 0 144 144"><defs><style>.cls-1{fill:#fff;}.cls-2{fill:#002b63;}</style></defs><title>enter_directions_map</title><g id="Layer_2" data-name="Layer 2"><g id="Icons"><circle class="cls-1" cx="72" cy="72" r="72"/><circle class="cls-2" cx="72" cy="72" r="63"/><polygon class="cls-1" points="72 93 93 105 93 36 72 48 72 93"/><polygon class="cls-1" points="72 99 57 114 66 114 66 126 78 126 78 114 87 114 72 99"/><path class="cls-1" d="M102,24H42a3.13,3.13,0,0,0-3,3v78h9l.11-72H95.89L96,105h9V27A3.13,3.13,0,0,0,102,24Z"/><path class="cls-2" d="M77,75.33c0,1.72-1,2.88-2,2.63-.88-.2-1.51-1.37-1.51-2.63S74.07,72.9,75,72.7C76,72.46,77,73.62,77,75.33Z"/></g></g></svg>