<svg xmlns="http://www.w3.org/2000/svg" viewBox="0 0 144 144"><defs><style>.cls-1{fill:#002b63;}.cls-2{fill:#fff;}</style></defs><title>elevator_directions_map</title><g id="Layer_2" data-name="Layer 2"><g id="Icons"><circle class="cls-1" cx="72" cy="72" r="72"/><polygon class="cls-2" points="72 36 36 36 54 18 54 18 72 36"/><polygon class="cls-2" points="72 18 108 18 90 36 90 36 72 18"/><rect class="cls-2" x="36" y="42" width="72" height="84" rx="1" ry="1"/><rect class="cls-1" x="48" y="54" width="48" height="60"/><path class="cls-2" d="M72,111c-6.63,0-12-1.46-12-3.68v-22C60,81.48,65.37,78,72,78s12,3.82,12,7.37v22C84,109.77,78.63,111,72,111Z"/><circle class="cls-2" cx="72" cy="66" r="9"/></g></g></svg>