<svg xmlns="http://www.w3.org/2000/svg" viewBox="0 0 72 72">
  <title>donuts</title>
  <g id="Layer_2" data-name="Layer 2">
    <g id="Icons">
      <g>
        <circle cx="36" cy="36" r="36" style="fill: #fff;opacity: 0"/>
        <path d="M36,12C19,12,7,22.91,7,36S19,60,36,60,65,49.09,65,36,53,12,36,12ZM57,36a12.67,12.67,0,0,1-1.38,2.88,3.91,3.91,0,0,1,.81.64c1.76,1.94,2.33,5.45.57,7.39s-5.18,1.58-6.94-.36a6.27,6.27,0,0,1-1-1.78,25.07,25.07,0,0,1-6.21,2.41A5.71,5.71,0,0,1,43,49.09c0,3.68-2,6.55-5,6.55s-5.67-2.62-5.67-6.3a7.41,7.41,0,0,1,.26-1.55,26,26,0,0,1-10.13-3.27A7.45,7.45,0,0,1,21,46.91a3.25,3.25,0,0,1-5,0,4.41,4.41,0,0,1,0-5.74,6,6,0,0,1,1.46-.84,14,14,0,0,1-2.54-4.45,2.68,2.68,0,0,1-.67.11c-2,0-4.25-1.06-4.25-3.27C10,29.45,12.25,28,14.25,28a2.68,2.68,0,0,1,.67.11,16,16,0,0,1,6.59-8A5.28,5.28,0,0,1,23,16.36c1.76-1.4,4.45-.73,6.4.39A29,29,0,0,1,36,16a28.57,28.57,0,0,1,8.28,1.21l0,0c1.42-1.56,4.27-1.28,5.69.28.73.8.51,1.58.49,2.64a14.81,14.81,0,0,1,5.17,5A14.44,14.44,0,0,1,60,27.27a5.47,5.47,0,0,1,1,6.55A3.82,3.82,0,0,1,57,36Z" style="fill: #00856a"/>
        <path d="M43,25.39c-.34-.16-.71-.3-1.09-.43A18.1,18.1,0,0,0,36,24a19.7,19.7,0,0,0-2.82.21,16.54,16.54,0,0,0-3.31.81C26.93,26.1,25,27.92,25,30c0,3.31,4.92,6,11,6s11-2.69,11-6C47,28.14,45.46,26.49,43,25.39Z" style="fill: #00856a"/>
      </g>
    </g>
  </g>
</svg>
