<?xml version="1.0" encoding="iso-8859-1"?>
<!-- Generator: Adobe Illustrator 20.1.0, SVG Export Plug-In . SVG Version: 6.00 Build 0)  -->
<svg version="1.1" xmlns="http://www.w3.org/2000/svg" xmlns:xlink="http://www.w3.org/1999/xlink" x="0px" y="0px"
	 viewBox="0 0 72 72" style="enable-background:new 0 0 72 72;" xml:space="preserve">
<g id="Donuts_x5F_Pin">
	<circle style="opacity:0;fill:#FFFFFF;" cx="36" cy="36" r="36"/>
	<path style="fill:#99581F;" d="M36,14C19,14,7,24,7,36s12,22,29,22s29-10,29-22S53,14,36,14z M57,36
		c-0.353,0.941-0.775,1.777-1.383,2.635c0.332,0.19,0.615,0.386,0.814,0.586C58.19,41.001,58.759,44.221,57,46
		s-5.181,1.445-6.94-0.335c-0.342-0.346-0.672-0.928-0.981-1.634c-1.862,0.948-3.95,1.702-6.21,2.21C43.101,46.999,43,47.462,43,48
		c0,3.375-1.997,6-5,6s-5.667-2.403-5.667-5.778c0-0.402,0.123-0.886,0.259-1.42c-3.792-0.403-7.258-1.457-10.131-3.002
		C22.126,44.729,21.398,45.598,21,46c-1.416,1.432-3.584,1.432-5,0c-1.416-1.432-1.416-3.827,0-5.259
		c0.265-0.268,0.927-0.526,1.458-0.769c-1.134-1.249-1.995-2.618-2.535-4.077C14.676,35.957,14.444,36,14.25,36
		C12.248,36,10,35.025,10,33c0-3,2.248-4.333,4.25-4.333c0.194,0,0.426,0.043,0.673,0.105c1.07-2.888,3.402-5.431,6.588-7.355
		C21.481,20.451,21.994,18.737,23,18c1.755-1.286,4.449-0.666,6.404,0.358c2.081-0.446,4.295-0.691,6.596-0.691
		c2.935,0,5.73,0.397,8.284,1.108c0.009-0.01,0.018-0.024,0.027-0.034C45.727,17.309,48.584,17.568,50,19
		c0.729,0.738,0.514,1.452,0.492,2.418c3.404,1.999,3.712,2.836,5.175,4.582c1.462,0.437,3.744,1.411,4.333,2c2,2,2,4,1,6
		S57.938,36.067,57,36z"/>
	<path style="fill:#99581F;" d="M43.03,26.271c-0.345-0.143-0.711-0.274-1.089-0.395C40.227,25.324,38.191,25,36,25
		c-0.977,0-1.919,0.07-2.821,0.189c-1.194,0.158-2.314,0.409-3.312,0.745C26.932,26.922,25,28.598,25,30.5c0,3.038,4.925,5.5,11,5.5
		s11-2.462,11-5.5C47,28.799,45.455,27.28,43.03,26.271z"/>
</g>
<g id="Layer_1">
</g>
</svg>
