<svg xmlns="http://www.w3.org/2000/svg" viewBox="0 0 72 72">
  <title>driveway</title>
  <g id="Layer_2" data-name="Layer 2">
    <g id="Icons">
      <g>
        <circle cx="36" cy="36" r="36" style="fill: #fff;opacity: 0"/>
        <polygon points="36 4.5 24 12 24 16.5 36 9 48 16.5 48 12 36 4.5" style="fill: #6a17e6"/>
        <g>
          <polygon points="39 24 39 30 45 30 45 18 36 12 27 18 27 30 33 30 33 24 39 24" style="fill: #6a17e6"/>
          <path d="M42,48c0-6.71,6-9,6-12s-7.5-6-9-6H33c.92.42,6,3,3,6s-9,6-12.19,9.07C21.46,47.33,15.4,53.48,15,60H57C51,57,42,54,42,48Z" style="fill: #6a17e6"/>
        </g>
      </g>
    </g>
  </g>
</svg>
