<?xml version="1.0" encoding="iso-8859-1"?>
<!-- Generator: Adobe Illustrator 20.1.0, SVG Export Plug-In . SVG Version: 6.00 Build 0)  -->
<svg version="1.1" xmlns="http://www.w3.org/2000/svg" xmlns:xlink="http://www.w3.org/1999/xlink" x="0px" y="0px"
	 viewBox="0 0 72 72" style="enable-background:new 0 0 72 72;" xml:space="preserve">
<g id="University_x5F_Pin">
	<circle style="opacity:0;fill:#FFFFFF;" cx="36" cy="36" r="36"/>
	<path style="fill:#404040;" d="M20,36v10c0,2.761,7.716,6,16,6c8.284,0,16-3.239,16-6V36l-16,6L20,36z"/>
	<path style="fill:#404040;" d="M64,42c0-1.477-0.809-2.752-2-3.445v-9.221L66,28L36,18L6,28l30,10l22-7.333v7.888
		c-1.191,0.693-2,1.968-2,3.445c0,1.345,0.669,2.528,1.687,3.253L56,52h8l-1.864-6.629C63.253,44.662,64,43.422,64,42z"/>
</g>
<g id="Layer_1">
</g>
</svg>
