<svg xmlns="http://www.w3.org/2000/svg" viewBox="0 0 72 72">
  <title>electricity_meter</title>
  <g id="Layer_2" data-name="Layer 2">
    <g id="Icons">
      <g>
        <circle cx="36" cy="36" r="36" style="fill: #fff;opacity: 0"/>
        <path d="M45,45H27a3,3,0,0,0,0,6H45a3,3,0,0,0,0-6Z" style="fill: #378006"/>
        <polygon points="32 42 34 42 44 26 37.99 26 42 18 32 18 30 30 36 30 32 42" style="fill: #378006"/>
        <path d="M36,6A30,30,0,1,0,66,36,30,30,0,0,0,36,6ZM60,37.5h2.92a26.82,26.82,0,0,1-2.85,10.67L57.53,46.7A1.5,1.5,0,0,0,56,49.3l2.55,1.47a27.12,27.12,0,0,1-7.81,7.81L49.3,56a1.5,1.5,0,0,0-2.6,1.5l1.47,2.54A26.82,26.82,0,0,1,37.5,62.92V60a1.5,1.5,0,0,0-3,0v2.92a26.82,26.82,0,0,1-10.67-2.85l1.47-2.54A1.5,1.5,0,1,0,22.7,56l-1.47,2.55a27.12,27.12,0,0,1-7.81-7.81L16,49.3a1.5,1.5,0,0,0-1.5-2.6l-2.54,1.47A26.82,26.82,0,0,1,9.08,37.5H12a1.5,1.5,0,0,0,0-3H9.08a26.82,26.82,0,0,1,2.85-10.67l2.54,1.47A1.5,1.5,0,1,0,16,22.7l-2.55-1.47a27.12,27.12,0,0,1,7.81-7.81L22.7,16a1.5,1.5,0,1,0,2.6-1.5l-1.47-2.54A26.82,26.82,0,0,1,34.5,9.08V12a1.5,1.5,0,0,0,3,0V9.08a26.82,26.82,0,0,1,10.67,2.85L46.7,14.47A1.5,1.5,0,1,0,49.3,16l1.47-2.55a27.12,27.12,0,0,1,7.81,7.81L56,22.7a1.5,1.5,0,1,0,1.5,2.6l2.54-1.47A26.82,26.82,0,0,1,62.92,34.5H60a1.5,1.5,0,0,0,0,3Z" style="fill: #378006"/>
      </g>
    </g>
  </g>
</svg>
