<svg xmlns="http://www.w3.org/2000/svg" viewBox="0 0 72 72">
  <title>elevator</title>
  <g id="Layer_2" data-name="Layer 2">
    <g id="Icons">
      <g>
        <rect width="72" height="72" style="fill: #fff;opacity: 0"/>
        <polygon points="42 12 30 12 36 4.5 42 12" style="fill: #d81308"/>
        <polygon points="42 60 30 60 36 67.5 42 60" style="fill: #d81308"/>
        <path d="M51,15H21a3,3,0,0,0-3,3V54a3,3,0,0,0,3,3H51a3,3,0,0,0,3-3V18A3,3,0,0,0,51,15ZM31.5,18h9a1.5,1.5,0,0,1,0,3h-9a1.5,1.5,0,0,1,0-3Zm3,36H21V24H34.5ZM51,54H37.5V24H51Z" style="fill: #d81308"/>
      </g>
    </g>
  </g>
</svg>
