<?xml version="1.0" encoding="iso-8859-1"?>
<!-- Generator: Adobe Illustrator 20.1.0, SVG Export Plug-In . SVG Version: 6.00 Build 0)  -->
<svg version="1.1" xmlns="http://www.w3.org/2000/svg" xmlns:xlink="http://www.w3.org/1999/xlink" x="0px" y="0px"
	 viewBox="0 0 72 72" style="enable-background:new 0 0 72 72;" xml:space="preserve">
<g id="EmergencyExit">
	<rect style="opacity:0;fill:#FFFFFF;" width="72" height="72"/>
	<g>
		<path style="fill:#12B047;" d="M55.778,26.942H54V12H21v28.239h-0.777c-2.535,0-3.491,1.968-3.9,2.813l-0.795,1.272l-0.241,0.475
			c-0.493,1.231-0.359,2.6,0.358,3.66c0.73,1.079,1.974,1.723,3.327,1.723H21V55.5l-4.85,4.458h23.796l2.997-3.171
			c0.649-0.597,1.087-0.508,1.943-0.419l1.666-0.012c0.686,0.129,0.578,0.837-0.071,1.435l-2.029,2.167h4.418L54,55.5V36.11h1.778
			c2.427,0,4.401-1.974,4.401-4.4v-0.367C60.179,28.917,58.205,26.942,55.778,26.942z M42.766,15.016c2.071,0,3.75,1.679,3.75,3.75
			c0,2.071-1.679,3.75-3.75,3.75c-2.071,0-3.75-1.679-3.75-3.75C39.016,16.695,40.695,15.016,42.766,15.016z M57.179,31.709
			c0,0.773-0.627,1.401-1.401,1.401h-8.606c-0.524-0.009-0.858-0.163-1.114-0.472l-3.888-4.292l-3.789,6.977
			c0.051,0.057,0.114,0.099,0.155,0.166l8.311,17.885c0.367,0.596,0.14,1.302-0.607,1.431l-1.66-0.011
			c-0.898,0.089-1.378,0.178-1.745-0.418l-8.148-17.197l-1.973,8.644v0.092c0,0.7-0.567,1.267-1.267,1.267H18.973
			c-0.7,0-1.182-0.563-0.901-1.267l0.88-1.408c0.395-0.811,0.571-1.267,1.271-1.267h8.996l1.912-9.186l0.03,0.017l4.243-8.201
			h-5.695l-2.872,4.975c-0.387,0.67-1.243,0.899-1.913,0.513l-0.318-0.183c-0.67-0.387-0.899-1.243-0.513-1.913l3.367-5.831
			c0.233-0.403,0.636-0.643,1.066-0.689v-0.039h10.47c0.117-0.006,0.237-0.005,0.36,0c0.661,0.029,1.403,0.221,2.122,0.597
			c0.409,0.214,0.77,0.474,1.08,0.757c0.228,0.208,0.426,0.429,0.593,0.654l4.74,5.232h7.888c0.773,0,1.401,0.627,1.401,1.401
			V31.709z"/>
	</g>
</g>
<g id="Layer_1">
</g>
</svg>
