<?xml version="1.0" encoding="iso-8859-1"?>
<!-- Generator: Adobe Illustrator 20.0.0, SVG Export Plug-In . SVG Version: 6.00 Build 0)  -->
<svg version="1.1" xmlns="http://www.w3.org/2000/svg" xmlns:xlink="http://www.w3.org/1999/xlink" x="0px" y="0px"
	 viewBox="0 0 108 108" style="enable-background:new 0 0 108 108;" xml:space="preserve">
<g id="EnterBuilding_x5F_Icon_x5F_108">
	<rect style="opacity:0.01;fill:#FFFFFF;" width="108" height="108"/>
	<path style="fill:#FFFFFF;" d="M108,54c0,29.824-24.176,54-54,54S0,83.824,0,54S24.176,0,54,0S108,24.176,108,54"/>
	<path style="fill:#1256B0;" d="M99,54c0,24.852-20.148,45-45,45S9,78.852,9,54S29.148,9,54,9S99,29.148,99,54"/>
	<polygon style="fill:#FFFFFF;" points="69,75 69,27 54,36 54,66 	"/>
	<path style="fill:#1256B0;" d="M58.5,52.75c0,1.127-0.845,1.888-1.729,1.729c-0.746-0.134-1.271-0.9-1.271-1.729
		c0-0.828,0.525-1.595,1.271-1.729C57.655,50.862,58.5,51.623,58.5,52.75"/>
	<polygon style="fill:#FFFFFF;" points="54,72 42,84 49.5,84 49.5,93 58.5,93 58.5,84 66,84 	"/>
	<path style="fill:#FFFFFF;" d="M75,18H33c-1.65,0-3,1.35-3,3v3v51h6V24h36v51h6V24v-3C78,19.35,76.65,18,75,18z"/>
</g>
<g id="Layer_1">
</g>
</svg>
