<svg xmlns="http://www.w3.org/2000/svg" viewBox="0 0 72 72">
  <title>entertainment</title>
  <g id="Layer_2" data-name="Layer 2">
    <g id="Icons">
      <g>
        <rect width="72" height="72" style="fill: #fff;opacity: 0"/>
        <g>
          <path d="M56.56,13.91,56,12.8l-1.2-.33A13.28,13.28,0,0,0,51.19,12c-8.34,0-17.71,7-18.1,7.26l-3.56,2.68,1,.63a37.06,37.06,0,0,0-9.23-1.07h0a48.61,48.61,0,0,0-6.89.47l-2.12.33-.37,2.17c-3.49,20.77-3,22.25-2.72,23,1,2.94,3.67,10.75,10.35,12.27a8.48,8.48,0,0,0,1.88.21C28,60,34.29,52.54,35,51.69l.43-.52.17-.66L37.28,44c1.38,1.35,7.55,7.09,13.09,7.09a7.5,7.5,0,0,0,2.57-.44A16.26,16.26,0,0,0,62.78,38C64.37,28.21,56.88,14.49,56.56,13.91ZM20.22,34.37c4.57,1.54,1.4,5.12,1.4,5.12l-7-1.92S15.65,32.83,20.22,34.37Zm.36,20.68c-6.52-1.22-6.4-11.86-6.4-11.86,10.6,6.07,16.93,4.31,16.93,4.31S27.09,56.27,20.57,55.06ZM33.91,43.13l-7-1.92s1-4.74,5.59-3.2S33.91,43.13,33.91,43.13ZM59.84,37.5A13.3,13.3,0,0,1,52,47.74a4.6,4.6,0,0,1-1.58.26c-4.87,0-11.22-6.42-11.22-6.42S42.43,30.73,42.38,28c0-1.48-7.53-6.29-7.53-6.29s8.88-6.68,16.35-6.68a10.36,10.36,0,0,1,2.78.36S61.27,28.66,59.84,37.5Z" style="fill: #068037"/>
          <path d="M50.11,27.21c4.51,0,3.23-4.69,3.23-4.69l-6.24,0S45.61,27.16,50.11,27.21Z" style="fill: #068037"/>
          <path d="M46.13,33.51c-4.71,3.37-2.28,10-2.28,10s2.28-10,13.48-6.73C57.33,36.75,51.67,29.54,46.13,33.51Z" style="fill: #068037"/>
        </g>
      </g>
    </g>
  </g>
</svg>
