<?xml version="1.0" encoding="iso-8859-1"?>
<!-- Generator: Adobe Illustrator 20.1.0, SVG Export Plug-In . SVG Version: 6.00 Build 0)  -->
<svg version="1.1" xmlns="http://www.w3.org/2000/svg" xmlns:xlink="http://www.w3.org/1999/xlink" x="0px" y="0px"
	 viewBox="0 0 72 72" style="enable-background:new 0 0 72 72;" xml:space="preserve">
<g id="Entertainment_x5F_Pin">
	<rect style="opacity:0;fill:#FFFFFF;" width="72" height="72"/>
	<g>
		<g>
			<path style="fill:#386B05;" d="M56.003,13.553l-0.618-1.088l-1.208-0.327c-1.114-0.301-2.321-0.454-3.588-0.454
				c-8.409,0-17.85,6.822-18.248,7.112l-3.588,2.62l0.994,0.619c-3.131-0.797-6.428-1.047-9.307-1.047h-0.001h-0.001
				c-3.885,0-6.818,0.442-6.94,0.461l-2.134,0.327l-0.368,2.127C7.473,44.24,7.982,45.689,8.256,46.467
				c1.012,2.879,3.699,10.525,10.429,12.009c0.61,0.134,1.246,0.203,1.89,0.203c6.641,0,12.979-7.304,13.68-8.137l0.43-0.511
				l0.173-0.645l1.711-6.391c1.387,1.322,7.615,6.939,13.195,6.939c0.911,0,1.781-0.144,2.586-0.427
				c5.102-1.882,8.979-6.729,9.918-12.363C63.866,27.549,56.325,14.12,56.003,13.553z M19.368,33.586
				c4.606,1.512,1.411,5.01,1.411,5.01l-7.048-1.876C13.731,36.72,14.763,32.074,19.368,33.586z M19.727,53.838
				c-6.568-1.191-6.454-11.612-6.454-11.612c10.689,5.943,17.069,4.215,17.069,4.215S26.295,55.029,19.727,53.838z M33.172,42.16
				l-7.048-1.876c0,0,1.031-4.646,5.637-3.134C36.366,38.662,33.172,42.16,33.172,42.16z M59.308,36.651
				c-0.77,4.622-4.014,8.573-7.956,10.026c-0.503,0.177-1.037,0.257-1.59,0.257c-4.908,0-11.309-6.289-11.309-6.289
				s3.303-10.62,3.248-13.27c-0.03-1.449-7.591-6.157-7.591-6.157s8.952-6.535,16.479-6.535c0.965,0,1.908,0.108,2.804,0.35
				C53.394,15.033,60.75,27.995,59.308,36.651z"/>
		</g>
		<g>
			<path style="fill:#386B05;" d="M49.502,26.571c4.542,0.046,3.253-4.596,3.253-4.596l-6.288-0.037
				C46.466,21.937,44.96,26.525,49.502,26.571z"/>
		</g>
		<g>
			<path style="fill:#386B05;" d="M45.483,32.745c-4.747,3.299-2.297,9.756-2.297,9.756s2.297-9.756,13.584-6.589
				C56.77,35.913,51.074,28.86,45.483,32.745z"/>
		</g>
	</g>
</g>
<g id="Layer_1">
</g>
</svg>
