<svg xmlns="http://www.w3.org/2000/svg" viewBox="0 0 72 72">
  <title>events</title>
  <g id="Layer_2" data-name="Layer 2">
    <g id="Icons">
      <g>
        <circle cx="36" cy="36" r="36" style="fill: #fff;opacity: 0"/>
        <g>
          <polygon points="36 42.91 28.58 48 31.5 39.5 24 34.5 33 34.5 36 25.5 39 34.5 48 34.5 40.5 39.5 43.42 48 36 42.91" style="fill: #2e2ee6"/>
          <path d="M51,15V10.51A1.5,1.5,0,0,0,49.49,9l-6,0A1.5,1.5,0,0,0,42,10.56V15H30V10.5A1.5,1.5,0,0,0,28.53,9H22.46A1.5,1.5,0,0,0,21,10.5V15H12V57H60V15Zm-6-3h3v9H45ZM24,12h3v9H24ZM57,24V52.5H15V24" style="fill: #2e2ee6"/>
        </g>
      </g>
    </g>
  </g>
</svg>
