<svg xmlns="http://www.w3.org/2000/svg" viewBox="0 0 72 72">
  <title>farm</title>
  <g id="Layer_2" data-name="Layer 2">
    <g id="Icons">
      <g>
        <circle cx="36" cy="36" r="36" style="fill: #fff;opacity: 0"/>
        <path d="M34.87,36.09" style="fill: #cc14a6"/>
        <path d="M21,33A12,12,0,1,0,33,45,12,12,0,0,0,21,33Zm0,18.75A6.75,6.75,0,1,1,27.75,45,6.75,6.75,0,0,1,21,51.75Z" style="fill: #cc14a6"/>
        <path d="M54,39a9,9,0,1,0,9,9A9,9,0,0,0,54,39Zm0,14.25A5.25,5.25,0,1,1,59.25,48,5.25,5.25,0,0,1,54,53.25Z" style="fill: #cc14a6"/>
        <path d="M63,36V27L42,24V15h3V12H15v3h3v9H9L6,27v3H9v6.08A15,15,0,0,1,36,45h6.42a11.93,11.93,0,0,1,21.91-3H66l3-3V36ZM39,26l-4-4,1-2-1-1-5,5,1,1,2-1,3,3v6L24,24V15H39Z" style="fill: #cc14a6"/>
      </g>
    </g>
  </g>
</svg>
