<?xml version="1.0" encoding="iso-8859-1"?>
<!-- Generator: Adobe Illustrator 20.1.0, SVG Export Plug-In . SVG Version: 6.00 Build 0)  -->
<svg version="1.1" xmlns="http://www.w3.org/2000/svg" xmlns:xlink="http://www.w3.org/1999/xlink" x="0px" y="0px"
	 viewBox="0 0 72 72" style="enable-background:new 0 0 72 72;" xml:space="preserve">
<g id="Farm_x5F_Pin">
	<circle style="opacity:0;fill:#FFFFFF;" cx="36" cy="36" r="36"/>
	<path style="fill:#CC1FCC;stroke:#000000;stroke-width:6.2618;stroke-linecap:round;stroke-miterlimit:10;" d="M31.867,39.088"/>
	<path style="fill:#CC1FCC;" d="M20,34.5c-6.627,0-12,5.373-12,12s5.373,12,12,12s12-5.373,12-12S26.627,34.5,20,34.5z M20,53.5
		c-3.866,0-7-3.134-7-7s3.134-7,7-7s7,3.134,7,7S23.866,53.5,20,53.5z"/>
	<path style="fill:#CC1FCC;" d="M49,40.5c-4.971,0-9,4.029-9,9c0,4.97,4.029,9,9,9s9-4.03,9-9C58,44.529,53.971,40.5,49,40.5z
		 M49,55c-3.038,0-5.5-2.462-5.5-5.5S45.962,44,49,44s5.5,2.462,5.5,5.5S52.038,55,49,55z"/>
	<path style="fill:#CC1FCC;" d="M34,48h4c0-6,6-10,11.167-10C54,38,60,42,60,48h3l3-3v-6h-6v-9l-21-3v-9h3v-3H12v3h3v9H8v11
		c2-3,6-6,12-6C20,32,34,32,34,48z M36,29l-4-4l1-2l-1-1l-5,5l1,1l2-1l3,3v6l-12-9v-9h15V29z"/>
</g>
<g id="Layer_1">
</g>
</svg>
