<?xml version="1.0" encoding="iso-8859-1"?>
<!-- Generator: Adobe Illustrator 20.1.0, SVG Export Plug-In . SVG Version: 6.00 Build 0)  -->
<svg version="1.1" xmlns="http://www.w3.org/2000/svg" xmlns:xlink="http://www.w3.org/1999/xlink" x="0px" y="0px"
	 viewBox="0 0 72 72" style="enable-background:new 0 0 72 72;" xml:space="preserve">
<g id="Ferry_x5F_Pin">
	<circle style="opacity:0;fill:#FFFFFF;" cx="36" cy="36" r="36"/>
	<path style="opacity:0.5;fill:#E01678;" d="M10.576,51.92c0.008,0.012,0.016,0.025,0.024,0.037C11.043,51.982,11.503,52,12,52
		C11.523,52,11.047,51.97,10.576,51.92z"/>
	<rect x="32.786" y="5.75" style="fill:#E01678;" width="6.429" height="4.286"/>
	<rect x="26.357" y="13.786" style="fill:#E01678;" width="19.286" height="2.679"/>
	<path style="fill:#E01678;" d="M52.071,29.306v-9.091H19.929v9.091c4.228-2.899,10.501-6.413,16.071-6.413
		S47.843,26.407,52.071,29.306z"/>
	<path style="fill:#E01678;" d="M28,46c4,2,8,2,8,2s4,0,8-2c3.156-1.578,6.304-0.668,7.495-0.213l4.005-9.502
		c0,0-10.02-9.643-19.5-9.643s-19.5,9.643-19.5,9.643l4.005,9.502C21.696,45.332,24.844,44.422,28,46z"/>
	<path style="fill:#E01678;" d="M60,52c-4,0-8-2-8-2s-4-2-8,0s-8,2-8,2s-4,0-8-2s-8,0-8,0s-4,2-8,2c-0.497,0-0.957-0.018-1.4-0.043
		c0.88,1.398,1.871,2.718,2.962,3.948C16.979,55.509,20,54,20,54s4-2,8,0s8,2,8,2s4,0,8-2s8,0,8,0s3.021,1.509,6.438,1.905
		c1.104-1.243,2.104-2.578,2.991-3.993C60.979,51.968,60.506,52,60,52z"/>
	<path style="fill:#E01678;" d="M44,58c-4,2-8,2-8,2s-4,0-8-2s-8,0-8,0s-1.25,0.624-3.05,1.175c1.149,0.946,2.372,1.805,3.655,2.574
		C21.867,61.285,24.93,60.465,28,62c4,2,8,2,8,2s4,0,8-2c3.07-1.535,6.133-0.715,7.395-0.25c1.283-0.769,2.506-1.628,3.655-2.574
		C53.25,58.624,52,58,52,58S48,56,44,58z"/>
</g>
<g id="Layer_1">
</g>
</svg>
