<svg xmlns="http://www.w3.org/2000/svg" viewBox="0 0 72 72">
  <title>fireplace</title>
  <g id="Layer_2" data-name="Layer 2">
    <g id="Icons">
      <g>
        <circle cx="36" cy="36" r="36" style="fill: #fff;opacity: 0"/>
        <g>
          <polygon points="34 52 31 58 32 60 40 60 41 58 38 52 34 52" style="fill: #6a17e6"/>
          <polygon points="40 52 44 50 52 52 52 54 48 58 46 58 40 52" style="fill: #6a17e6"/>
          <polygon points="32 52 28 50 20 52 20 54 24 58 26 58 32 52" style="fill: #6a17e6"/>
        </g>
        <path d="M54,15H18a6,6,0,0,0-6,6V54h3V21a3,3,0,0,1,3-3H54a3,3,0,0,1,3,3V54h3V21A6,6,0,0,0,54,15Z" style="fill: #6a17e6"/>
        <path d="M45.06,30s0,6-3,6c0,0-6-6,0-15,0,0-12,3-12,15,0,0-3,0-3-9,0,0-12,21,5.25,21h.75a9.07,9.07,0,0,1-1.5-4.5c0-2.9,2.64-6,4.5-6s4.5,4.6,4.5,7.5a4.68,4.68,0,0,1-1.5,3C42.87,47.66,55.28,45.33,45.06,30Z" style="fill: #6a17e6"/>
      </g>
    </g>
  </g>
</svg>
