<svg xmlns="http://www.w3.org/2000/svg" viewBox="0 0 72 72">
  <title>fire</title>
  <g id="Layer_2" data-name="Layer 2">
    <g id="Icons">
      <g>
        <rect width="72" height="72" style="fill: #fff;opacity: 0"/>
        <path d="M30,57a6,6,0,0,0,12,0Z" style="fill: #e62e2e"/>
        <path d="M52.93,36h0A22.57,22.57,0,0,0,54,30a18,18,0,0,0-36,0,20.18,20.18,0,0,0,.8,6h0s.75,9-8.8,13v5H62V49A14,14,0,0,1,52.93,36ZM39.55,42a4.62,4.62,0,0,0,1.56-3c0-2.9-2.74-7.5-4.67-7.5s-4.67,3.1-4.67,6A8.85,8.85,0,0,0,33.32,42h-.78c-17.91,0-5.45-21-5.45-21,0,9,3.11,9,3.11,9,0-12,12.46-15,12.46-15-6.23,9,0,15,0,15,3.11,0,3.11-6,3.11-6C56.39,39.33,43.51,41.66,39.55,42Z" style="fill: #e62e2e"/>
      </g>
    </g>
  </g>
</svg>
