<?xml version="1.0" encoding="iso-8859-1"?>
<!-- Generator: Adobe Illustrator 20.1.0, SVG Export Plug-In . SVG Version: 6.00 Build 0)  -->
<svg version="1.1" xmlns="http://www.w3.org/2000/svg" xmlns:xlink="http://www.w3.org/1999/xlink" x="0px" y="0px"
	 viewBox="0 0 72 72" style="enable-background:new 0 0 72 72;" xml:space="preserve">
<g id="Fire_x5F_Extinguisher_x5F_Pin">
	<circle style="opacity:0;fill:#FFFFFF;" cx="36" cy="36" r="36"/>
	<path style="fill:#E62E2E;" d="M39,14.5v2h-7v-2.279c0.61-0.549,1-1.336,1-2.221c0-1.657-1.343-3-3-3s-3,1.343-3,3
		c0,0.885,0.39,1.672,1,2.221v1.911C24.414,16.518,16.983,18.034,14,24v4c2.983-5.966,10.414-8.038,14-8.707v1.866
		c-3.965,0.802-7,4.678-7,8.841v33h18V30c0-4.163-3.035-8.039-7-8.841V18.5h7v2l15,3v-12L39,14.5z"/>
</g>
<g id="Layer_1">
</g>
</svg>
