<?xml version="1.0" encoding="iso-8859-1"?>
<!-- Generator: Adobe Illustrator 20.1.0, SVG Export Plug-In . SVG Version: 6.00 Build 0)  -->
<svg version="1.1" xmlns="http://www.w3.org/2000/svg" xmlns:xlink="http://www.w3.org/1999/xlink" x="0px" y="0px"
	 viewBox="0 0 72 72" style="enable-background:new 0 0 72 72;" xml:space="preserve">
<g id="First_x5F_Aid_x5F_Pin">
	<circle style="opacity:0;fill:#FFFFFF;" cx="36" cy="36" r="36"/>
	<polygon style="fill:#1C77D4;" points="42,13 30,13 27,13 27,16 27,21 30,21 30,16 42,16 42,21 45,21 45,16 45,13 	"/>
	<g>
		<g>
			<path style="fill:#1C77D4;" d="M15,19c-1.65,0-3,1.35-3,3v30c0,1.65,1.35,3,3,3h42c1.65,0,3-1.35,3-3V22c0-1.65-1.35-3-3-3H15z
				 M36,52c-8.284,0-15-6.716-15-15c0-8.284,6.716-15,15-15s15,6.716,15,15C51,45.284,44.284,52,36,52z"/>
		</g>
	</g>
	<polygon style="fill:#E62E2E;" points="39,28 33,28 33,34 27,34 27,40 33,40 33,46 39,46 39,40 45,40 45,34 39,34 	"/>
</g>
<g id="Layer_1">
</g>
</svg>
