<?xml version="1.0" encoding="iso-8859-1"?>
<!-- Generator: Adobe Illustrator 20.1.0, SVG Export Plug-In . SVG Version: 6.00 Build 0)  -->
<svg version="1.1" xmlns="http://www.w3.org/2000/svg" xmlns:xlink="http://www.w3.org/1999/xlink" x="0px" y="0px"
	 viewBox="0 0 72 72" style="enable-background:new 0 0 72 72;" xml:space="preserve">
<g id="Fishing_x5F_Pin">
	<circle style="opacity:0;fill:#FFFFFF;" cx="36" cy="36" r="36"/>
	<path style="fill:#8C24F2;" d="M38,50h6v4c0,0,0,6-6,6s-6-6-6-6V21.413c2.931-1.187,5-4.057,5-7.413c0-4.418-3.582-8-8-8
		s-8,3.582-8,8c0,3.357,2.069,6.226,5,7.413V54c0,0,0,12,12,12s12-12,12-12V34L38,50z M29,10c2.209,0,4,1.791,4,4
		c0,2.209-1.791,4-4,4s-4-1.791-4-4C25,11.791,26.791,10,29,10z"/>
</g>
<g id="Layer_1">
</g>
</svg>
