<svg xmlns="http://www.w3.org/2000/svg" viewBox="0 0 72 72">
  <title>florist</title>
  <g id="Layer_2" data-name="Layer 2">
    <g id="Icons">
      <g>
        <circle cx="36" cy="36" r="36" style="fill: #fff;opacity: 0"/>
        <polygon points="40.5 43.5 43.5 52.5 43.5 66 48 63 48 51 45 39 40.5 43.5" style="fill: #2e2ee6"/>
        <path d="M33,18.68a7.18,7.18,0,0,1,2.85.59A16.28,16.28,0,0,0,38,11.85C38,6,33,6,33,6s-5,0-5,5.85a16.29,16.29,0,0,0,2.17,7.42A7.18,7.18,0,0,1,33,18.68Z" style="fill: #2e2ee6"/>
        <path d="M33,32.33a7.18,7.18,0,0,1-2.85-.59A16.29,16.29,0,0,0,28,39.15C28,45,33,45,33,45s5,0,5-5.85a16.28,16.28,0,0,0-2.17-7.42A7.18,7.18,0,0,1,33,32.33Z" style="fill: #2e2ee6"/>
        <path d="M18.31,22.9A17.56,17.56,0,0,0,26,24.78,6.78,6.78,0,0,1,28.87,20a16.89,16.89,0,0,0-5.53-5.53c-5.22-2.92-7.73,1.3-7.73,1.3S13.09,20,18.31,22.9Z" style="fill: #2e2ee6"/>
        <path d="M47.69,28.1A17.56,17.56,0,0,0,40,26.22,6.77,6.77,0,0,1,37.13,31a16.89,16.89,0,0,0,5.53,5.53c5.22,2.92,7.73-1.3,7.73-1.3S52.91,31,47.69,28.1Z" style="fill: #2e2ee6"/>
        <path d="M26,26.22a17.56,17.56,0,0,0-7.7,1.89C13.09,31,15.6,35.25,15.6,35.25s2.51,4.22,7.73,1.3A16.89,16.89,0,0,0,28.87,31,6.78,6.78,0,0,1,26,26.22Z" style="fill: #2e2ee6"/>
        <path d="M40,24.78a17.56,17.56,0,0,0,7.7-1.89c5.22-2.93,2.71-7.15,2.71-7.15s-2.51-4.22-7.73-1.3A16.89,16.89,0,0,0,37.13,20,6.77,6.77,0,0,1,40,24.78Z" style="fill: #2e2ee6"/>
        <path d="M34.85,23.16A3.17,3.17,0,1,0,36,25.07,3,3,0,0,0,34.85,23.16Z" style="fill: #2e2ee6"/>
      </g>
    </g>
  </g>
</svg>
