<?xml version="1.0" encoding="iso-8859-1"?>
<!-- Generator: Adobe Illustrator 20.1.0, SVG Export Plug-In . SVG Version: 6.00 Build 0)  -->
<svg version="1.1" xmlns="http://www.w3.org/2000/svg" xmlns:xlink="http://www.w3.org/1999/xlink" x="0px" y="0px"
	 viewBox="0 0 72 72" style="enable-background:new 0 0 72 72;" xml:space="preserve">
<g id="Florist_x5F_Pin">
	<circle style="opacity:0;fill:#FFFFFF;" cx="36" cy="36" r="36"/>
	<polygon style="fill:#CC1FCC;" points="39,42 42,50 42,66 46,64 46,50 43,40 	"/>
	<path style="fill:#CC1FCC;" d="M32.078,19c1.013,0,1.973,0.22,2.842,0.607c1.126-2.163,2.158-4.882,2.158-7.607c0-6-5-6-5-6
		s-5,0-5,6c0,2.725,1.032,5.444,2.158,7.607C30.105,19.22,31.066,19,32.078,19z"/>
	<path style="fill:#CC1FCC;" d="M32.078,33c-1.013,0-1.973-0.22-2.842-0.607c-1.126,2.163-2.158,4.882-2.158,7.607c0,6,5,6,5,6
		s5,0,5-6c0-2.725-1.032-5.444-2.158-7.607C34.051,32.78,33.091,33,32.078,33z"/>
	<path style="fill:#CC1FCC;" d="M17.454,23.33c2.359,1.362,5.228,1.828,7.663,1.934c0.211-2.022,1.287-3.782,2.847-4.919
		c-1.31-2.057-3.149-4.312-5.51-5.675c-5.196-3-7.696,1.33-7.696,1.33S12.258,20.33,17.454,23.33z"/>
	<path style="fill:#CC1FCC;" d="M46.703,28.67c-2.359-1.362-5.228-1.828-7.664-1.934c-0.211,2.022-1.287,3.782-2.847,4.919
		c1.31,2.057,3.149,4.312,5.51,5.675c5.196,3,7.696-1.33,7.696-1.33S51.899,31.67,46.703,28.67z"/>
	<path style="fill:#CC1FCC;" d="M25.117,26.736c-2.435,0.107-5.304,0.572-7.663,1.934c-5.196,3-2.696,7.33-2.696,7.33
		s2.5,4.33,7.696,1.33c2.361-1.363,4.2-3.618,5.51-5.675C26.405,30.518,25.329,28.758,25.117,26.736z"/>
	<path style="fill:#CC1FCC;" d="M39.039,25.264c2.436-0.107,5.305-0.572,7.664-1.934c5.196-3,2.696-7.33,2.696-7.33
		s-2.5-4.33-7.696-1.33c-2.361,1.363-4.2,3.618-5.51,5.675C37.752,21.482,38.828,23.242,39.039,25.264z"/>
	<path style="fill:#CC1FCC;" d="M35.166,22.095c-0.377-0.299-0.789-0.553-1.243-0.734C33.351,21.134,32.731,21,32.078,21
		s-1.273,0.134-1.845,0.361c-0.454,0.181-0.866,0.435-1.243,0.734c-0.976,0.773-1.651,1.893-1.839,3.183
		c-0.035,0.238-0.073,0.475-0.073,0.722s0.038,0.484,0.073,0.722c0.188,1.29,0.863,2.409,1.839,3.183
		c0.377,0.299,0.789,0.553,1.243,0.734C30.805,30.866,31.425,31,32.078,31s1.273-0.134,1.845-0.361
		c0.454-0.181,0.866-0.435,1.243-0.734c0.976-0.773,1.651-1.893,1.839-3.183c0.035-0.238,0.073-0.475,0.073-0.722
		s-0.038-0.484-0.073-0.722C36.817,23.988,36.143,22.869,35.166,22.095z"/>
</g>
<g id="Layer_1">
</g>
</svg>
