<?xml version="1.0" encoding="iso-8859-1"?>
<!-- Generator: Adobe Illustrator 20.1.0, SVG Export Plug-In . SVG Version: 6.00 Build 0)  -->
<svg version="1.1" xmlns="http://www.w3.org/2000/svg" xmlns:xlink="http://www.w3.org/1999/xlink" x="0px" y="0px"
	 viewBox="0 0 72 72" style="enable-background:new 0 0 72 72;" xml:space="preserve">
<g id="FoodAndDrink_x5F_Pin">
	<path style="fill:#0E8A0E;" d="M37,22V8h-3v16h-4.5V8h-3v16H22V8h-3v14c0,8,5,12,7.516,12L25,63c0,0.552,0.448,1,1,1l4,0
		c0.552,0,1-0.448,1-1l-1.515-29C32,34,37,30,37,22z"/>
	<path style="fill:#0E8A0E;" d="M48,63V11c0-1,0-3-1-3c-3,0-6,12-6,30h2l-1,25c0,0.552,0.448,1,1,1l4,0C47,64,48,64,48,63z"/>
	<rect style="opacity:0.01;fill:#FFFFFF;" width="72" height="72"/>
</g>
<g id="Layer_1">
</g>
</svg>
