<?xml version="1.0" encoding="iso-8859-1"?>
<!-- Generator: Adobe Illustrator 20.1.0, SVG Export Plug-In . SVG Version: 6.00 Build 0)  -->
<svg version="1.1" xmlns="http://www.w3.org/2000/svg" xmlns:xlink="http://www.w3.org/1999/xlink" x="0px" y="0px"
	 viewBox="0 0 72 72" style="enable-background:new 0 0 72 72;" xml:space="preserve">
<g id="Football_x5F_Pin">
	<circle style="opacity:0;fill:#FFFFFF;" cx="36" cy="36" r="36"/>
	<circle style="fill:#8C24F2;" cx="35" cy="11" r="5"/>
	<circle style="fill:#8C24F2;" cx="28" cy="61" r="5"/>
	<path style="fill:#8C24F2;" d="M52,14c0-2-2-2-2-2l-6,4l-14,3l-8,5l-2,9.329c1.51,1.51,2.833,0,2.833,0L26,26l5-2l3,10l-7,10
		l2.414,1.379L29,46H18c0,0-2,0-2,2s2,2,2,2h13l1.95-2.6L34,48l3-4v6h3v14c0,0,0,2,2,2s2-2,2-2V50h1V34l-3-12l4-2L52,14z"/>
</g>
<g id="Layer_1">
</g>
</svg>
