<?xml version="1.0" encoding="iso-8859-1"?>
<!-- Generator: Adobe Illustrator 20.1.0, SVG Export Plug-In . SVG Version: 6.00 Build 0)  -->
<svg version="1.1" xmlns="http://www.w3.org/2000/svg" xmlns:xlink="http://www.w3.org/1999/xlink" x="0px" y="0px"
	 viewBox="0 0 72 72" style="enable-background:new 0 0 72 72;" xml:space="preserve">
<g id="Forest_x5F_pin">
	<circle style="opacity:0;fill:#FFFFFF;" cx="36" cy="36" r="36"/>
	<path style="fill:#0E610E;" d="M60,40h4l-6-10h4l-7-14l-6.077,12.154L50,30h2l-3.273,5.455L52,42h-3.2l-0.467,0.778L51.429,50H52
		v1.333L54,56h-2v2h4.388c0.558-0.517,1.095-1.055,1.612-1.612V50h4.533c0.561-1.061,1.059-2.16,1.492-3.292L60,40z"/>
	<path style="fill:#0E610E;" d="M20,42l3.273-6.545L20,30h2l1.077-1.846L17,16l-7,14h4L8,40h4l-4.025,6.708
		C8.408,47.84,8.906,48.939,9.467,50H14v6.388c0.517,0.557,1.054,1.095,1.612,1.612H20v-2h-2l2-4.667V50h0.571l3.095-7.222L23.2,42
		H20z"/>
	<polygon style="fill:#0E610E;" points="46,40 40,28 44,28 36,12 28,28 32,28 26,40 30,40 24,54 32,54 32,62 40,62 40,54 48,54 
		42,40 	"/>
</g>
<g id="Layer_1">
</g>
</svg>
