<svg xmlns="http://www.w3.org/2000/svg" viewBox="0 0 72 72">
  <title>forest</title>
  <g id="Layer_2" data-name="Layer 2">
    <g id="Icons">
      <g>
        <circle cx="36" cy="36" r="36" style="fill: #fff;opacity: 0"/>
        <path d="M52,51.33,54,56H52v2h4.39q.84-.78,1.61-1.61V50h4.53A29.85,29.85,0,0,0,64,46.71L60,40h4L58,30h4L55,16,48.92,28.15,50,30h2l-3.27,5.45L52,42H48.8l-.47.78L51.43,50Z" style="fill: #0e610e"/>
        <path d="M20.57,50l3.1-7.22L23.2,42H20l3.27-6.55L20,30h2l1.08-1.85L17,16,10,30h4L8,40h4L8,46.71A29.85,29.85,0,0,0,9.47,50H14v6.39q.78.84,1.61,1.61H20V56H18l2-4.67Z" style="fill: #0e610e"/>
        <polygon points="46 40 40 28 44 28 36 12 28 28 32 28 26 40 30 40 24 54 32 54 32 62 40 62 40 54 48 54 42 40 46 40" style="fill: #0e610e"/>
      </g>
    </g>
  </g>
</svg>
