<?xml version="1.0" encoding="iso-8859-1"?>
<!-- Generator: Adobe Illustrator 20.1.0, SVG Export Plug-In . SVG Version: 6.00 Build 0)  -->
<svg version="1.1" xmlns="http://www.w3.org/2000/svg" xmlns:xlink="http://www.w3.org/1999/xlink" x="0px" y="0px"
	 viewBox="0 0 72 72" style="enable-background:new 0 0 72 72;" xml:space="preserve">
<g id="Fuel_x5F_Petrol_x5F_Station_x5F_Gas_x5F_Station_x5F_Pin">
	<circle style="opacity:0;fill:#FFFFFF;" cx="36" cy="36" r="36"/>
	<path style="fill:#E01678;" d="M57,54l-3-21v-5.5l3-3.5v-9L42,6l-3,3l6,4.363c0,1.508,0,3.829,0,4.637c0,3.314,2.686,6,6,6v2.5v1
		V33c0,0,2.833,19.833,3,21c0.167,1.167-0.417,3-3,3c-2.625,0-2.965-1.597-3-3c0,0,0-16.75,0-19.5c0-2.344-2.125-4.5-4.5-4.5H39V15
		c0-1.65-1.35-3-3-3H21c-1.65,0-3,1.35-3,3v42c0,1.65,1.35,3,3,3h15c1.65,0,3-1.35,3-3V33c0.924,0,1.968,0,3,0c2.94,0,3,3,3,3
		s0,17.157,0,18c0,2.125,0.369,6,6,6C57.938,60,57,54,57,54z M51,22.5c-2.485,0-4.5-2.015-4.5-4.5c0-0.484,0-2.109,0-3.546
		l0.757,0.551L51,18V22.5z M36,27H21v-9h15V27z"/>
</g>
<g id="Layer_1">
</g>
</svg>
