<svg xmlns="http://www.w3.org/2000/svg" viewBox="0 0 72 72">
  <title>gallery</title>
  <g id="Layer_2" data-name="Layer 2">
    <g id="Icons">
      <g>
        <circle cx="36" cy="36" r="36" style="fill: #fff;opacity: 0"/>
        <path d="M31,39a10.39,10.39,0,0,1,.49,3H42.4A10.43,10.43,0,0,1,41,39Z" style="fill: #068037"/>
        <path d="M18,15H54V26a10.43,10.43,0,0,1,3,1.41V12H15V33.4A10.43,10.43,0,0,1,18,32Z" style="fill: #068037"/>
        <path d="M45,18l-9,9-6-6-9,9v1.5A10.48,10.48,0,0,1,29.6,36H40.5A10.5,10.5,0,0,1,51,25.5V24Z" style="fill: #068037"/>
        <path d="M51,42a6,6,0,0,0,3-11.17A5.94,5.94,0,0,0,51,30a6,6,0,0,0-6,6,6.07,6.07,0,0,0,6,6Z" style="fill: #068037"/>
        <path d="M21,48a6,6,0,0,0,6-6,6,6,0,0,0-12,0A6,6,0,0,0,21,48Z" style="fill: #068037"/>
        <path d="M51,45c-5,0-9,2.62-9,5.55V65.4A30,30,0,0,0,60,53.95v-3.4C60,47.88,56,45,51,45Z" style="fill: #068037"/>
        <path d="M23.85,50.5A12.55,12.55,0,0,0,21,50.14a13.5,13.5,0,0,0-2.94.32c-2.82.63-5,2.13-5.75,3.9A30,30,0,0,0,30,65.4v-9.7C30,53.56,27.41,51.32,23.85,50.5Z" style="fill: #068037"/>
      </g>
    </g>
  </g>
</svg>
