<svg xmlns="http://www.w3.org/2000/svg" viewBox="0 0 72 72">
  <title>google+</title>
  <g id="Layer_2" data-name="Layer 2">
    <g id="Icons">
      <g>
        <circle cx="36" cy="36" r="36" style="fill: #fff;opacity: 0"/>
        <path d="M29.19,32.56h0a2.64,2.64,0,0,0,2.06-.94,5.42,5.42,0,0,0,1-4.22c-.39-3-2.53-5.49-4.76-5.56h-.09a2.64,2.64,0,0,0-2,.94,5.24,5.24,0,0,0-1,4.13c.39,3,2.57,5.59,4.76,5.65Z" style="fill: #ff3a21"/>
        <path d="M31.64,41.6,31,41.13a7.66,7.66,0,0,0-2.17-.33h-.09c-3.44,0-6.46,2.09-6.46,4.47,0,2.59,2.58,4.62,5.88,4.62,4.35,0,6.56-1.5,6.56-4.47a3.82,3.82,0,0,0-.1-.86C34.28,43.4,33.23,42.69,31.64,41.6Z" style="fill: #ff3a21"/>
        <path d="M36,6A30,30,0,1,0,66,36,30,30,0,0,0,36,6ZM32.27,52.53a14.83,14.83,0,0,1-4.13.56,18.82,18.82,0,0,1-4.64-.56c-2.82-.71-4.9-2.06-5.87-3.8A4.87,4.87,0,0,1,17,46.35a6,6,0,0,1,.61-2.58c1.54-3.3,5.61-5.51,10.11-5.51h.13a4,4,0,0,1-.55-2,4.36,4.36,0,0,1,.14-1.07A8.12,8.12,0,0,1,19.18,27c0-3.23,2.57-6.37,6.26-7.65a10.21,10.21,0,0,1,3.33-.57h10.1a.8.8,0,0,1,.47,1.44l-2.26,1.64a.8.8,0,0,1-.47.15H35.8a7.87,7.87,0,0,1,1.66,5.05A7.55,7.55,0,0,1,34.31,33c-1.57,1.23-1.64,1.57-1.64,2.27A6.73,6.73,0,0,0,35,37.78c2.82,2,3.87,4,3.87,7.23S36.27,51.37,32.27,52.53ZM55.09,35.17a.8.8,0,0,1-.79.8H48.56v5.75a.79.79,0,0,1-.79.8H46.12a.8.8,0,0,1-.8-.8V36H39.58a.8.8,0,0,1-.79-.8V33.53a.8.8,0,0,1,.79-.8h5.74V27a.8.8,0,0,1,.8-.8h1.64a.8.8,0,0,1,.79.8v5.75H54.3a.8.8,0,0,1,.79.8Z" style="fill: #ff3a21"/>
      </g>
    </g>
  </g>
</svg>
