<?xml version="1.0" encoding="iso-8859-1"?>
<!-- Generator: Adobe Illustrator 20.1.0, SVG Export Plug-In . SVG Version: 6.00 Build 0)  -->
<svg version="1.1" xmlns="http://www.w3.org/2000/svg" xmlns:xlink="http://www.w3.org/1999/xlink" x="0px" y="0px"
	 viewBox="0 0 72 72" style="enable-background:new 0 0 72 72;" xml:space="preserve">
<g id="google_x5F_plus_x5F_pin">
	<circle style="fill:#FFFFFF;" cx="36" cy="36" r="36"/>
	<circle style="fill:#FF3A21;" cx="36.045" cy="35.955" r="30.477"/>
	<g>
		<path style="fill:#FFFFFF;" d="M46.125,42.515h1.637c0.439,0,0.794-0.355,0.794-0.795v-5.755h5.744
			c0.437,0,0.794-0.358,0.794-0.798V33.53c0-0.44-0.357-0.798-0.794-0.798h-5.744v-5.755c0-0.437-0.355-0.795-0.794-0.795h-1.637
			c-0.439,0-0.796,0.358-0.796,0.795v5.755h-5.744c-0.436,0-0.794,0.358-0.794,0.798v1.637c0,0.44,0.357,0.798,0.794,0.798h5.744
			v5.755C45.328,42.16,45.686,42.515,46.125,42.515z"/>
		<path style="fill:#FFFFFF;" d="M23.498,52.539c1.453,0.37,3.016,0.559,4.638,0.559c1.458,0,2.847-0.191,4.132-0.564
			c4.006-1.163,6.595-4.117,6.595-7.529c0-3.273-1.049-5.231-3.867-7.228c-1.208-0.857-2.307-2.112-2.327-2.5
			c0-0.703,0.062-1.039,1.637-2.269c2.036-1.595,3.157-3.695,3.157-5.914c0-2.01-0.613-3.797-1.659-5.052h0.811
			c0.169,0,0.332-0.052,0.466-0.149l2.259-1.64c0.28-0.201,0.399-0.562,0.29-0.89c-0.107-0.328-0.412-0.552-0.756-0.552H28.771
			c-1.106,0-2.23,0.194-3.331,0.574c-3.683,1.272-6.258,4.416-6.258,7.646c0,4.57,3.534,8.036,8.262,8.145
			c-0.092,0.363-0.139,0.721-0.139,1.071c0,0.703,0.179,1.372,0.546,2.015c-0.045,0.002-0.084,0.002-0.131,0.002
			c-4.504,0-8.572,2.214-10.114,5.511c-0.404,0.855-0.608,1.722-0.608,2.577c0,0.833,0.213,1.633,0.63,2.386
			C18.599,50.479,20.683,51.828,23.498,52.539z M24.398,26.908c-0.218-1.675,0.131-3.178,0.965-4.13
			c0.538-0.616,1.243-0.939,2.031-0.939l0.092,0.003c2.232,0.065,4.368,2.557,4.762,5.556c0.221,1.68-0.151,3.258-0.995,4.222
			c-0.538,0.616-1.233,0.939-2.056,0.939c0,0,0,0-0.002,0H29.16C26.972,32.494,24.79,29.902,24.398,26.908z M28.691,40.798
			l0.092,0.003c0.749,0.007,1.478,0.119,2.168,0.33c0.236,0.162,0.464,0.318,0.685,0.467c1.592,1.088,2.644,1.807,2.939,2.96
			c0.067,0.288,0.102,0.579,0.102,0.86c0,2.965-2.207,4.468-6.56,4.468c-3.301,0-5.883-2.028-5.883-4.617
			C22.233,42.888,25.251,40.798,28.691,40.798z"/>
	</g>
	<circle style="fill:#FF3A21;" cx="36.045" cy="35.955" r="30.477"/>
	<g>
		<path style="fill:#FFFFFF;" d="M46.125,42.515h1.637c0.439,0,0.794-0.355,0.794-0.795v-5.755h5.744
			c0.437,0,0.794-0.358,0.794-0.798V33.53c0-0.44-0.357-0.798-0.794-0.798h-5.744v-5.755c0-0.437-0.355-0.795-0.794-0.795h-1.637
			c-0.439,0-0.796,0.358-0.796,0.795v5.755h-5.744c-0.436,0-0.794,0.358-0.794,0.798v1.637c0,0.44,0.357,0.798,0.794,0.798h5.744
			v5.755C45.328,42.16,45.686,42.515,46.125,42.515z"/>
		<path style="fill:#FFFFFF;" d="M23.498,52.539c1.453,0.37,3.016,0.559,4.638,0.559c1.458,0,2.847-0.191,4.132-0.564
			c4.006-1.163,6.595-4.117,6.595-7.529c0-3.273-1.049-5.231-3.867-7.228c-1.208-0.857-2.307-2.112-2.327-2.5
			c0-0.703,0.062-1.039,1.637-2.269c2.036-1.595,3.157-3.695,3.157-5.914c0-2.01-0.613-3.797-1.659-5.052h0.811
			c0.169,0,0.332-0.052,0.466-0.149l2.259-1.64c0.28-0.201,0.399-0.562,0.29-0.89c-0.107-0.328-0.412-0.552-0.756-0.552H28.771
			c-1.106,0-2.23,0.194-3.331,0.574c-3.683,1.272-6.258,4.416-6.258,7.646c0,4.57,3.534,8.036,8.262,8.145
			c-0.092,0.363-0.139,0.721-0.139,1.071c0,0.703,0.179,1.372,0.546,2.015c-0.045,0.002-0.084,0.002-0.131,0.002
			c-4.504,0-8.572,2.214-10.114,5.511c-0.404,0.855-0.608,1.722-0.608,2.577c0,0.833,0.213,1.633,0.63,2.386
			C18.599,50.479,20.683,51.828,23.498,52.539z M24.398,26.908c-0.218-1.675,0.131-3.178,0.965-4.13
			c0.538-0.616,1.243-0.939,2.031-0.939l0.092,0.003c2.232,0.065,4.368,2.557,4.762,5.556c0.221,1.68-0.151,3.258-0.995,4.222
			c-0.538,0.616-1.233,0.939-2.056,0.939c0,0,0,0-0.002,0H29.16C26.972,32.494,24.79,29.902,24.398,26.908z M28.691,40.798
			l0.092,0.003c0.749,0.007,1.478,0.119,2.168,0.33c0.236,0.162,0.464,0.318,0.685,0.467c1.592,1.088,2.644,1.807,2.939,2.96
			c0.067,0.288,0.102,0.579,0.102,0.86c0,2.965-2.207,4.468-6.56,4.468c-3.301,0-5.883-2.028-5.883-4.617
			C22.233,42.888,25.251,40.798,28.691,40.798z"/>
	</g>
	<circle style="fill:#FF3A21;" cx="36.045" cy="35.955" r="30.477"/>
	<g>
		<path style="fill:#FFFFFF;" d="M46.125,42.515h1.637c0.439,0,0.794-0.355,0.794-0.795v-5.755h5.744
			c0.437,0,0.794-0.358,0.794-0.798V33.53c0-0.44-0.357-0.798-0.794-0.798h-5.744v-5.755c0-0.437-0.355-0.795-0.794-0.795h-1.637
			c-0.439,0-0.796,0.358-0.796,0.795v5.755h-5.744c-0.436,0-0.794,0.358-0.794,0.798v1.637c0,0.44,0.357,0.798,0.794,0.798h5.744
			v5.755C45.328,42.16,45.686,42.515,46.125,42.515z"/>
		<path style="fill:#FFFFFF;" d="M23.498,52.539c1.453,0.37,3.016,0.559,4.638,0.559c1.458,0,2.847-0.191,4.132-0.564
			c4.006-1.163,6.595-4.117,6.595-7.529c0-3.273-1.049-5.231-3.867-7.228c-1.208-0.857-2.307-2.112-2.327-2.5
			c0-0.703,0.062-1.039,1.637-2.269c2.036-1.595,3.157-3.695,3.157-5.914c0-2.01-0.613-3.797-1.659-5.052h0.811
			c0.169,0,0.332-0.052,0.466-0.149l2.259-1.64c0.28-0.201,0.399-0.562,0.29-0.89c-0.107-0.328-0.412-0.552-0.756-0.552H28.771
			c-1.106,0-2.23,0.194-3.331,0.574c-3.683,1.272-6.258,4.416-6.258,7.646c0,4.57,3.534,8.036,8.262,8.145
			c-0.092,0.363-0.139,0.721-0.139,1.071c0,0.703,0.179,1.372,0.546,2.015c-0.045,0.002-0.084,0.002-0.131,0.002
			c-4.504,0-8.572,2.214-10.114,5.511c-0.404,0.855-0.608,1.722-0.608,2.577c0,0.833,0.213,1.633,0.63,2.386
			C18.599,50.479,20.683,51.828,23.498,52.539z M24.398,26.908c-0.218-1.675,0.131-3.178,0.965-4.13
			c0.538-0.616,1.243-0.939,2.031-0.939l0.092,0.003c2.232,0.065,4.368,2.557,4.762,5.556c0.221,1.68-0.151,3.258-0.995,4.222
			c-0.538,0.616-1.233,0.939-2.056,0.939c0,0,0,0-0.002,0H29.16C26.972,32.494,24.79,29.902,24.398,26.908z M28.691,40.798
			l0.092,0.003c0.749,0.007,1.478,0.119,2.168,0.33c0.236,0.162,0.464,0.318,0.685,0.467c1.592,1.088,2.644,1.807,2.939,2.96
			c0.067,0.288,0.102,0.579,0.102,0.86c0,2.965-2.207,4.468-6.56,4.468c-3.301,0-5.883-2.028-5.883-4.617
			C22.233,42.888,25.251,40.798,28.691,40.798z"/>
	</g>
</g>
<g id="Layer_1">
</g>
</svg>
