<?xml version="1.0" encoding="iso-8859-1"?>
<!-- Generator: Adobe Illustrator 20.1.0, SVG Export Plug-In . SVG Version: 6.00 Build 0)  -->
<svg version="1.1" xmlns="http://www.w3.org/2000/svg" xmlns:xlink="http://www.w3.org/1999/xlink" x="0px" y="0px"
	 viewBox="0 0 72 72" style="enable-background:new 0 0 72 72;" xml:space="preserve">
<g id="Health_x5F_Pin">
	<rect style="opacity:0;fill:#FFFFFF;" width="72" height="72"/>
	<path style="fill:#1A77D6;" d="M60,27.5C60,20.044,53.956,14,46.5,14c-4.244,0-8.025,1.962-10.5,5.023
		C33.525,15.962,29.744,14,25.5,14C18.044,14,12,20.044,12,27.5c0,3.577,1.401,6.819,3.672,9.235L15.66,36.74l0.18,0.18
		c0.079,0.081,0.159,0.161,0.24,0.24L36,57.08l19.92-19.92c0.081-0.079,0.161-0.159,0.24-0.24l0.18-0.18l-0.012-0.005
		C58.599,34.319,60,31.077,60,27.5z M36,45c-6.627,0-12-5.373-12-12c0-6.627,5.373-12,12-12s12,5.373,12,12
		C48,39.627,42.627,45,36,45z"/>
	<g>
		<rect x="33" y="24" style="fill:#E62E2E;" width="6" height="18"/>
		<rect x="33" y="24" transform="matrix(5.032578e-11 1 -1 5.032578e-11 69 -3)" style="fill:#E62E2E;" width="6" height="18"/>
	</g>
</g>
<g id="Layer_1">
</g>
</svg>
