<svg xmlns="http://www.w3.org/2000/svg" viewBox="0 0 72 72">
  <title>health</title>
  <g id="Layer_2" data-name="Layer 2">
    <g id="Icons">
      <g>
        <rect width="72" height="72" style="fill: #fff;opacity: 0"/>
        <path d="M63,29.1C63,21.31,56.2,15,47.81,15A15.61,15.61,0,0,0,36,20.25,15.61,15.61,0,0,0,24.19,15C15.8,15,9,21.31,9,29.1a13.52,13.52,0,0,0,4.13,9.65h0l.2.19.27.25L36,62.92,58.41,39.19l.27-.25.2-.19h0A13.52,13.52,0,0,0,63,29.1ZM36,47.92a12,12,0,1,1,12-12A12,12,0,0,1,36,47.92Z" style="fill: #276ed9"/>
        <polygon points="45 32.92 39 32.92 39 26.92 33 26.92 33 32.92 27 32.92 27 38.92 33 38.92 33 44.92 39 44.92 39 38.92 45 38.92 45 32.92" style="fill: #e62e2e"/>
      </g>
    </g>
  </g>
</svg>
