<svg xmlns="http://www.w3.org/2000/svg" viewBox="0 0 72 72">
  <title>homeware</title>
  <g id="Layer_2" data-name="Layer 2">
    <g id="Icons">
      <g>
        <circle cx="36" cy="36" r="36" style="fill: #fff;opacity: 0"/>
        <path d="M51,33.73V12a3,3,0,0,0-6,0V33.73c-3.49,1.65-6,6-6,11.27,0,6.63,4,12,9,12s9-5.37,9-12C57,39.78,54.49,35.39,51,33.73ZM48,15a1.5,1.5,0,1,1,1.5-1.5A1.5,1.5,0,0,1,48,15Z" style="fill: #2e2ee6"/>
        <path d="M30,33H27V12c0-1.66-2.84-3-4.5-3S18,10.34,18,12V33H15a3,3,0,0,0-3,3V54a3,3,0,0,0,3,3H30a3,3,0,0,0,3-3V36A3,3,0,0,0,30,33ZM18,52.5a1.5,1.5,0,0,1-3,0v-15a1.5,1.5,0,0,1,3,0Zm6,0a1.5,1.5,0,0,1-3,0v-15a1.5,1.5,0,0,1,3,0ZM22.5,15A1.5,1.5,0,1,1,24,13.5,1.5,1.5,0,0,1,22.5,15ZM30,52.5a1.5,1.5,0,0,1-3,0v-15a1.5,1.5,0,0,1,3,0Z" style="fill: #2e2ee6"/>
      </g>
    </g>
  </g>
</svg>
