<?xml version="1.0" encoding="iso-8859-1"?>
<!-- Generator: Adobe Illustrator 20.1.0, SVG Export Plug-In . SVG Version: 6.00 Build 0)  -->
<svg version="1.1" xmlns="http://www.w3.org/2000/svg" xmlns:xlink="http://www.w3.org/1999/xlink" x="0px" y="0px"
	 viewBox="0 0 72 72" style="enable-background:new 0 0 72 72;" xml:space="preserve">
<g id="Hospital">
	<rect x="0" y="0" style="opacity:0;fill:#FFFFFF;" width="72" height="72"/>
	<path style="fill:#1575D6;" d="M52.32,12H19.68C15.438,12,12,15.438,12,19.68v32.64c0,4.242,3.438,7.68,7.68,7.68h32.64
		c4.242,0,7.68-3.438,7.68-7.68V19.68C60,15.438,56.562,12,52.32,12z M56,50.286C56,53.442,53.442,56,50.286,56H21.714
		C18.558,56,16,53.442,16,50.286V21.714C16,18.558,18.558,16,21.714,16h28.571C53.442,16,56,18.558,56,21.714V50.286z"/>
	<polygon style="fill:#E62E2E;" points="50,32 40,32 40,22 32,22 32,32 22,32 22,40 32,40 32,50 40,50 40,40 50,40 	"/>
</g>
<g id="Layer_1">
</g>
</svg>
