<svg xmlns="http://www.w3.org/2000/svg" viewBox="0 0 72 72">
  <title>hotel</title>
  <g id="Layer_2" data-name="Layer 2">
    <g id="Icons">
      <g>
        <circle cx="36" cy="36" r="36" style="fill: #fff;opacity: 0"/>
        <g>
          <path d="M42,48v9H63V24H9V57H30V48Zm9-18h6v6H51Zm0,9h6v6H51Zm0,9h6v6H51ZM39,30h6v6H39Zm0,9h6v6H39ZM27,30h6v6H27ZM21,54H15V48h6Zm0-9H15V39h6Zm0-9H15V30h6Zm6,9V39h6v6Z" style="fill: #d82121"/>
          <polygon points="30 57 30 60 27 60 27 63 24 63 27 66 45 66 48 63 45 63 45 60 42 60 42 57 30 57" style="fill: #d82121"/>
          <polygon points="42.62 21 45.53 18.88 48.44 21 47.38 17.56 50.29 15.44 46.59 15.44 45.53 12 44.47 15.44 40.77 15.44 43.68 17.56 42.62 21" style="fill: #d82121"/>
          <polygon points="52.15 21 55.06 18.88 57.97 21 56.91 17.56 59.82 15.44 56.12 15.44 55.06 12 54 15.44 50.29 15.44 53.21 17.56 52.15 21" style="fill: #d82121"/>
          <polygon points="33.09 21 36 18.88 38.91 21 37.85 17.56 40.77 15.44 37.06 15.44 36 12 34.94 15.44 31.23 15.44 34.15 17.56 33.09 21" style="fill: #d82121"/>
          <polygon points="23.56 21 26.47 18.88 29.38 21 28.32 17.56 31.23 15.44 27.53 15.44 26.47 12 25.41 15.44 21.71 15.44 24.62 17.56 23.56 21" style="fill: #d82121"/>
          <polygon points="14.03 21 16.94 18.88 19.85 21 18.79 17.56 21.71 15.44 18 15.44 16.94 12 15.88 15.44 12.18 15.44 15.09 17.56 14.03 21" style="fill: #d82121"/>
        </g>
      </g>
    </g>
  </g>
</svg>
