<svg xmlns="http://www.w3.org/2000/svg" viewBox="0 0 72 72">
  <title>humidity</title>
  <g id="Layer_2" data-name="Layer 2">
    <g id="Icons">
      <g>
        <circle cx="36" cy="36" r="36" style="fill: #fff;opacity: 0"/>
        <g>
          <path d="M53.46,39.28h0L53,38.4c-.11-.2-.2-.42-.31-.62L36,6,18.67,39h0a19.07,19.07,0,1,0,34.78.29ZM25.3,46.81A7.68,7.68,0,0,1,24,42.08a7.56,7.56,0,0,1,1.3-4.69,4.34,4.34,0,0,1,6.87,0,7.49,7.49,0,0,1,1.3,4.69,7.62,7.62,0,0,1-1.3,4.73,4.32,4.32,0,0,1-6.87,0ZM31.24,57h-2L40.37,36h2Zm15.13-1.71a4.31,4.31,0,0,1-6.87,0,7.6,7.6,0,0,1-1.3-4.73,7.46,7.46,0,0,1,1.3-4.68,4.34,4.34,0,0,1,6.87,0,7.53,7.53,0,0,1,1.3,4.68A7.66,7.66,0,0,1,46.37,55.31Z" style="fill: #378006"/>
          <path d="M42.93,46.07a2,2,0,0,0-1.77,1.12,6.79,6.79,0,0,0-.67,3.39A6.92,6.92,0,0,0,41.16,54a1.94,1.94,0,0,0,3.55,0,6.92,6.92,0,0,0,.67-3.42,6.79,6.79,0,0,0-.67-3.39A2,2,0,0,0,42.93,46.07Z" style="fill: #378006"/>
          <path d="M28.74,37.56A2,2,0,0,0,27,38.69a6.74,6.74,0,0,0-.67,3.39A6.9,6.9,0,0,0,27,45.49a1.94,1.94,0,0,0,3.55,0,6.9,6.9,0,0,0,.67-3.41,6.74,6.74,0,0,0-.67-3.39A2,2,0,0,0,28.74,37.56Z" style="fill: #378006"/>
        </g>
      </g>
    </g>
  </g>
</svg>
