<svg xmlns="http://www.w3.org/2000/svg" viewBox="0 0 72 72">
  <title>hvac_unit</title>
  <g id="Layer_2" data-name="Layer 2">
    <g id="Icons">
      <g>
        <circle cx="36" cy="36" r="36" style="fill: #fff;opacity: 0"/>
        <circle cx="36" cy="36" r="6" style="fill: #378006"/>
        <g>
          <path d="M38.78,44.56a8.9,8.9,0,0,1-4.12.31L32.54,59a6,6,0,0,0,6.62,6.87A29.71,29.71,0,0,0,51,62a6,6,0,0,0,1.32-9.45l-10-10.15A8.9,8.9,0,0,1,38.78,44.56Z" style="fill: #378006"/>
          <path d="M33.22,27.44a8.9,8.9,0,0,1,4.12-.31L39.46,13a6,6,0,0,0-6.62-6.87A29.7,29.7,0,0,0,21,10a6,6,0,0,0-1.32,9.45l10,10.15A8.9,8.9,0,0,1,33.22,27.44Z" style="fill: #378006"/>
          <path d="M44.56,33.22a8.9,8.9,0,0,1,.31,4.12L59,39.46a6,6,0,0,0,6.87-6.62A29.7,29.7,0,0,0,62,21a6,6,0,0,0-9.45-1.32l-10.15,10A8.9,8.9,0,0,1,44.56,33.22Z" style="fill: #378006"/>
          <path d="M19.46,52.29l10.15-10a8.68,8.68,0,0,1-2.48-7.63L13,32.54a6,6,0,0,0-6.87,6.62A29.7,29.7,0,0,0,10,51,6,6,0,0,0,19.46,52.29Z" style="fill: #378006"/>
        </g>
      </g>
    </g>
  </g>
</svg>
