<svg xmlns="http://www.w3.org/2000/svg" viewBox="0 0 72 72">
  <title>indian</title>
  <g id="Layer_2" data-name="Layer 2">
    <g id="Icons">
      <g>
        <circle cx="36" cy="36" r="36" style="fill: #fff;opacity: 0"/>
        <path d="M39,12a4.27,4.27,0,0,1,1.49-6A4.12,4.12,0,0,0,36,10.5,9.75,9.75,0,0,0,37.52,15s2.77,3.88-1.52,6c0,0,5.85.33,6-3C42.08,16.24,40.68,14.88,39,12Z" style="fill: #00856a"/>
        <path d="M30,16.8C32.2,13.74,28.49,12,28.49,12S33,11.7,33,15.6a6.92,6.92,0,0,1-1.52,3.6S28.71,22.3,33,24c0,0-5.85.26-6-2.4C26.92,20.19,28.32,19.1,30,16.8Z" style="fill: #00856a"/>
        <path d="M64.94,34.06c-1.76-1.76-5.08-1.28-7.42,1.06a7.21,7.21,0,0,0-2,3.48c-1.5-2.94-5-4.83-9.09-5.21C45,29.68,40.87,27,36,27s-9,2.68-10.47,6.39c-4.13.38-7.57,2.27-9.08,5.2a7.21,7.21,0,0,0-2-3.47c-2.34-2.34-5.67-2.82-7.42-1.06s-1.28,5.08,1.06,7.42a7,7,0,0,0,4.15,2.08A22.16,22.16,0,0,0,26.74,60H45.26c7.59-2.69,13.17-9.2,14.47-16.42a7,7,0,0,0,4.15-2.08C66.22,39.14,66.7,35.82,64.94,34.06ZM13.42,40.42c-.88.88-2.54.64-3.71-.53s-1.41-2.83-.53-3.71,2.54-.64,3.71.53S14.3,39.55,13.42,40.42ZM52.66,42H18c0-3.31,4-6,9-6h1.65a5.6,5.6,0,0,1,.77-2.41A7.6,7.6,0,0,1,36,30.14a7.6,7.6,0,0,1,6.58,3.45A5.6,5.6,0,0,1,43.34,36H45c5,0,9,2.69,9,6Zm9.62-2.11c-1.17,1.17-2.83,1.41-3.71.53s-.64-2.54.53-3.71,2.83-1.41,3.71-.53S63.46,38.72,62.29,39.89Z" style="fill: #00856a"/>
      </g>
    </g>
  </g>
</svg>
