<?xml version="1.0" encoding="iso-8859-1"?>
<!-- Generator: Adobe Illustrator 20.1.0, SVG Export Plug-In . SVG Version: 6.00 Build 0)  -->
<svg version="1.1" xmlns="http://www.w3.org/2000/svg" xmlns:xlink="http://www.w3.org/1999/xlink" x="0px" y="0px"
	 viewBox="0 0 72 72" style="enable-background:new 0 0 72 72;" xml:space="preserve">
<g id="Indoor_x5F_Bathroom">
	<circle style="opacity:0;fill:#FFFFFF;" cx="36" cy="36" r="36"/>
	<polygon style="fill:#15788C;" points="14,60 12,60 14,40 14,32 8,40 6,40 14,24 24,24 32,40 30,40 24,32 24,40 26,60 24,60 
		19,40.5 	"/>
	<path style="fill:#15788C;" d="M14,17c0-2.762,2.24-5,5-5c2.76,0,5,2.238,5,5s-2.24,5-5,5C16.24,22,14,19.762,14,17"/>
	<polygon style="fill:#15788C;" points="62,50 58,50 58,60 56,60 54,50 52,50 50,60 48,60 48,50 44,50 48.667,36 48,30 42,38 40,38 
		48,24 58,24 66,38 64,38 58,30 57,36 	"/>
	<path style="fill:#15788C;" d="M48,17c0-2.762,2.24-5,5-5c2.76,0,5,2.238,5,5s-2.24,5-5,5C50.24,22,48,19.762,48,17"/>
	<rect x="35" y="8" style="fill:#15788C;" width="2" height="56"/>
</g>
<g id="Layer_1">
</g>
</svg>
