<?xml version="1.0" encoding="iso-8859-1"?>
<!-- Generator: Adobe Illustrator 20.1.0, SVG Export Plug-In . SVG Version: 6.00 Build 0)  -->
<svg version="1.1" xmlns="http://www.w3.org/2000/svg" xmlns:xlink="http://www.w3.org/1999/xlink" x="0px" y="0px"
	 viewBox="0 0 72 72" style="enable-background:new 0 0 72 72;" xml:space="preserve">
<g id="Indoors_x5F_Stationary">
	<rect style="opacity:0;fill:#FFFFFF;" width="72" height="72"/>
	<g>
		<defs>
			<path id="SVGID_1_" d="M12.745,28.587c6.917-1.994,22.467-6.472,25.714-7.366c3.637-1.005,6.032-2.652,7.398-3.857
				c1.078,1.392,2.976,3.341,5.873,4.685l7.107,3.297L24.993,35.869L12.745,28.587z M44.859,14.106
				c-0.021,0.028-2.162,2.835-7.198,4.223c-4.201,1.159-28.828,8.265-29.077,8.336c-0.574,0.167-0.995,0.657-1.072,1.25
				c-0.076,0.594,0.207,1.175,0.721,1.48l15.802,9.395C24.269,38.928,24.533,39,24.8,39c0.15,0,0.3-0.022,0.446-0.067l38.199-11.879
				c0.593-0.185,1.01-0.714,1.052-1.333c0.041-0.619-0.304-1.199-0.866-1.46l-10.637-4.934c-3.885-1.802-5.568-4.993-5.581-5.02
				c-0.236-0.467-0.698-0.777-1.22-0.818c-0.039-0.003-0.078-0.004-0.116-0.004C45.596,13.485,45.143,13.713,44.859,14.106"/>
		</defs>
		<clipPath id="SVGID_2_">
			<use xlink:href="#SVGID_1_"  style="overflow:visible;"/>
		</clipPath>
		
			<linearGradient id="SVGID_3_" gradientUnits="userSpaceOnUse" x1="-691.8129" y1="770.9551" x2="-690.8127" y2="770.9551" gradientTransform="matrix(0 43.2502 43.2502 0 -33307.9766 29934.6582)">
			<stop  offset="0" style="stop-color:#0D5FB0"/>
			<stop  offset="1" style="stop-color:#0D5FB0"/>
		</linearGradient>
		<rect x="7.435" y="13.485" style="clip-path:url(#SVGID_2_);fill:url(#SVGID_3_);" width="57.103" height="25.515"/>
	</g>
	<path style="fill:#0D5FB0;" d="M24.801,45c-0.268,0-0.533-0.071-0.768-0.211l-15.8-9.395c-0.712-0.423-0.946-1.344-0.522-2.056
		c0.424-0.713,1.344-0.948,2.055-0.523l15.227,9.053l37.563-11.681c0.789-0.246,1.632,0.196,1.877,0.987
		c0.246,0.791-0.195,1.632-0.986,1.878l-38.2,11.879C25.1,44.979,24.949,45,24.801,45"/>
	<path style="fill:#0D5FB0;" d="M24.825,51c-0.267,0-0.53-0.07-0.765-0.209L8.239,41.434c-0.713-0.422-0.949-1.342-0.526-2.055
		c0.422-0.714,1.342-0.947,2.053-0.527l15.248,9.017l37.535-11.771c0.789-0.248,1.631,0.192,1.879,0.983
		c0.248,0.791-0.191,1.633-0.981,1.881l-38.172,11.97C25.127,50.979,24.977,51,24.825,51"/>
	<path style="fill:#0D5FB0;" d="M24.801,57c-0.268,0-0.533-0.071-0.768-0.211l-15.8-9.395c-0.712-0.423-0.946-1.344-0.522-2.056
		c0.424-0.712,1.344-0.947,2.055-0.523l15.227,9.053l37.563-11.681c0.789-0.244,1.632,0.197,1.877,0.987
		c0.246,0.791-0.195,1.632-0.986,1.878l-38.2,11.879C25.1,56.979,24.949,57,24.801,57"/>
</g>
<g id="Layer_1">
</g>
</svg>
