<?xml version="1.0" encoding="iso-8859-1"?>
<!-- Generator: Adobe Illustrator 20.1.0, SVG Export Plug-In . SVG Version: 6.00 Build 0)  -->
<svg version="1.1" xmlns="http://www.w3.org/2000/svg" xmlns:xlink="http://www.w3.org/1999/xlink" x="0px" y="0px"
	 viewBox="0 0 72 72" style="enable-background:new 0 0 72 72;" xml:space="preserve">
<g id="Indoor_x5F_Stairs">
	<rect style="opacity:0;fill:#FFFFFF;" width="72" height="72"/>
	<path style="fill:#A63251;" d="M52.5,16.5H48h-3c-1.243,0-2.25,1.007-2.25,2.25c0,1.243,1.007,2.25,2.25,2.25l0,0v4.5h-4.5H36
		c-1.243,0-2.25,1.007-2.25,2.25c0,1.243,1.007,2.25,2.25,2.25h-0.063v4.5h-4.5h-4.5v0.006c-1.214,0.034-2.187,1.022-2.187,2.244
		c0,1.222,0.974,2.21,2.187,2.244V39H27v4.5h-4.5H18c-1.243,0-2.25,1.007-2.25,2.25c0,1.243,1.007,2.25,2.25,2.25h0.062v4.5V57
		h4.375v-4.5V48H22.5H27h4.375v-4.5V39h0.062h4.5h4.375v-4.5V30H40.5H45h4.375v-4.5V21H52.5H57v-4.5H52.5z"/>
</g>
<g id="Layer_1">
</g>
</svg>
