<svg xmlns="http://www.w3.org/2000/svg" viewBox="0 0 72 72">
  <title>islam</title>
  <g id="Layer_2" data-name="Layer 2">
    <g id="Icons">
      <g>
        <circle cx="36" cy="36" r="36" style="fill: #fff;opacity: 0"/>
        <path d="M6,36a30,30,0,1,0,60,0,28.67,28.67,0,0,0-.24-3.71,25,25,0,1,1-25-25.05,25.31,25.31,0,0,1,5.79.67A30,30,0,0,0,6,36Z" style="fill: #0081a1"/>
        <polygon points="48.84 34.23 52.17 27.69 59.43 28.84 54.24 23.64 57.58 17.1 51.03 20.43 45.84 15.23 46.98 22.49 40.44 25.82 47.69 26.98 48.84 34.23" style="fill: #0081a1"/>
      </g>
    </g>
  </g>
</svg>
