<?xml version="1.0" encoding="iso-8859-1"?>
<!-- Generator: Adobe Illustrator 20.1.0, SVG Export Plug-In . SVG Version: 6.00 Build 0)  -->
<svg version="1.1" xmlns="http://www.w3.org/2000/svg" xmlns:xlink="http://www.w3.org/1999/xlink" x="0px" y="0px"
	 viewBox="0 0 72 72" style="enable-background:new 0 0 72 72;" xml:space="preserve">
<g id="Islam_x5F_Pin">
	<circle style="opacity:0;fill:#FFFFFF;" cx="36" cy="36" r="36"/>
	<path style="fill:#15788C;" d="M6.002,35.995C6.002,52.565,19.427,66,35.997,66c16.57,0,30.005-13.435,30.005-30.005
		c0-1.26-0.079-2.491-0.238-3.711c-0.03,13.792-11.212,24.955-25.004,24.955c-13.812,0-25.014-11.192-25.014-25.004
		S26.948,7.23,40.76,7.23c1.994,0,3.939,0.238,5.795,0.675C43.27,6.675,39.708,6,35.997,6C19.427,6,6.002,19.425,6.002,35.995z"/>
	<polygon style="fill:#15788C;" points="48.836,34.233 52.175,27.689 59.431,28.842 54.239,23.644 57.579,17.1 51.03,20.431 
		45.838,15.233 46.983,22.49 40.435,25.822 47.691,26.976 	"/>
</g>
<g id="Layer_1">
</g>
</svg>
