<svg xmlns="http://www.w3.org/2000/svg" viewBox="0 0 72 72">
  <title>judaism</title>
  <g id="Layer_2" data-name="Layer 2">
    <g id="Icons">
      <g>
        <circle cx="36" cy="36" r="36" style="fill: #fff;opacity: 0"/>
        <path d="M54.67,36,64,20H45.33L36,4,26.67,20H8l9.33,16L8,52H26.67L36,68l9.33-16H64ZM56,24l-4.06,7.32L47.67,24ZM49.33,36,42.67,48H29.33L22.67,36l6.67-12H42.67ZM36,12l4.44,8H31.56ZM16,24h8.33l-4.27,7.32Zm0,24,4.06-7.32L24.33,48ZM36,60l-4.44-8h8.89ZM51.94,40.68,56,48H47.67Z" style="fill: #0081a1"/>
      </g>
    </g>
  </g>
</svg>
