<?xml version="1.0" encoding="iso-8859-1"?>
<!-- Generator: Adobe Illustrator 20.1.0, SVG Export Plug-In . SVG Version: 6.00 Build 0)  -->
<svg version="1.1" xmlns="http://www.w3.org/2000/svg" xmlns:xlink="http://www.w3.org/1999/xlink" x="0px" y="0px"
	 viewBox="0 0 72 72" style="enable-background:new 0 0 72 72;" xml:space="preserve">
<g id="Judaism_x5F_Pin">
	<circle style="opacity:0;fill:#FFFFFF;" cx="36" cy="36" r="36"/>
	<path style="fill:#15788C;" d="M54.667,36L64,20H45.333L36,4l-9.333,16H8l9.333,16L8,52h18.667L36,68l9.333-16H64L54.667,36z
		 M56,24l-4.065,7.317L47.667,24H56z M49.333,36l-6.667,12H29.333l-6.667-12l6.667-12h13.333L49.333,36z M36,12l4.444,8h-8.889
		L36,12z M16,24h8.333l-4.268,7.317L16,24z M16,48l4.065-7.317L24.333,48H16z M36,60l-4.444-8h8.889L36,60z M51.935,40.683L56,48
		h-8.333L51.935,40.683z"/>
</g>
<g id="Layer_1">
</g>
</svg>
