<svg xmlns="http://www.w3.org/2000/svg" viewBox="0 0 72 72">
  <title>kitchen</title>
  <g id="Layer_2" data-name="Layer 2">
    <g id="Icons">
      <g>
        <circle cx="36" cy="36" r="36" style="fill: #fff;opacity: 0"/>
        <path d="M57,30H54V24H18v6H15a3,3,0,0,0,0,6h3V48a8.91,8.91,0,0,0,1.28,4.56c.09-.09.14-.19.23-.27C22,50.13,27,50.79,31,53.64c1.07-2.49,2.92-4.14,5-4.14s4,1.66,5,4.14c4-2.85,8.91-3.51,11.45-1.36.09.08.15.18.23.27A8.91,8.91,0,0,0,54,48V36h3a3,3,0,0,0,0-6Z" style="fill: #6a17e6"/>
        <path d="M49,56c-1.17-1.17-3.55-.7-5.3,1.06A5.71,5.71,0,0,0,42.07,60H38.82A6.48,6.48,0,0,0,39,58.5C39,56,37.66,54,36,54s-3,2-3,4.5a6.48,6.48,0,0,0,.18,1.5H29.93a5.71,5.71,0,0,0-1.63-2.95C26.54,55.3,24.16,54.82,23,56s-.7,3.55,1.06,5.3A5.71,5.71,0,0,0,27,62.93V66H45V62.93a5.71,5.71,0,0,0,2.95-1.63C49.7,59.54,50.18,57.16,49,56Z" style="fill: #6a17e6"/>
        <path d="M42,12a4.27,4.27,0,0,1,1.49-6A4.12,4.12,0,0,0,39,10.5,9.75,9.75,0,0,0,40.52,15s2.77,3.88-1.52,6c0,0,5.85.33,6-3C45.08,16.24,43.68,14.88,42,12Z" style="fill: #6a17e6"/>
        <path d="M36,15.6c0-3.9-4.51-3.6-4.51-3.6S35.2,13.74,33,16.8c-1.67,2.3-3.06,3.39-3,4.79.15,2.66,6,2.4,6,2.4-4.29-1.69-1.52-4.79-1.52-4.79A6.92,6.92,0,0,0,36,15.6Z" style="fill: #6a17e6"/>
      </g>
    </g>
  </g>
</svg>
