<svg xmlns="http://www.w3.org/2000/svg" viewBox="0 0 72 72">
  <title>lake</title>
  <g id="Layer_2" data-name="Layer 2">
    <g id="Icons">
      <g>
        <circle cx="36" cy="36" r="36" style="fill: #fff;opacity: 0"/>
        <polygon points="51 9 44 21 48 21 42 31 46 31 40 41 48 41 48 45 54 45 54 41 62 41 56 31 60 31 54 21 58 21 51 9" style="fill: #0e610e"/>
        <polygon points="26 6 22 13 24 13 20 19 22 19 18 25 24 25 24 27 28 27 28 25 34 25 30 19 32 19 28 13 30 13 26 6" style="fill: #0e610e"/>
        <path d="M36,66A30,30,0,0,0,60.25,53.65a25.37,25.37,0,0,0-7.58-3.6c-6.67-2.05-20-4-20-4S22,44,28.67,41.73c0,0,9.33-3.73,4-7.73-3.75-2.81-15.31-5.09-25.83-5.06A30,30,0,0,0,36,66Z" style="fill: #276ed9"/>
      </g>
    </g>
  </g>
</svg>
