<?xml version="1.0" encoding="iso-8859-1"?>
<!-- Generator: Adobe Illustrator 20.1.0, SVG Export Plug-In . SVG Version: 6.00 Build 0)  -->
<svg version="1.1" xmlns="http://www.w3.org/2000/svg" xmlns:xlink="http://www.w3.org/1999/xlink" x="0px" y="0px"
	 viewBox="0 0 72 72" style="enable-background:new 0 0 72 72;" xml:space="preserve">
<g id="Lake_x5F_pin">
	<circle style="opacity:0;fill:#FFFFFF;" cx="36" cy="36" r="36"/>
	<polygon style="fill:#0E610E;" points="51,10 44,22 48,22 42,32 46,32 40,42 48,42 48,46 54,46 54,42 62,42 56,32 60,32 54,22 
		58,22 	"/>
	<polygon style="fill:#0E610E;" points="26,8 22,14 24,14 20,20 22,20 18,26 24,26 24,28 28,28 28,26 34,26 30,20 32,20 28,14 
		30,14 	"/>
	<path style="fill:#1C77D4;" d="M36,66c9.968,0,18.796-4.866,24.251-12.347c-1.963-1.457-4.579-2.68-7.581-3.602
		c-6.67-2.05-20-4-20-4S22,44,28.67,41.734c0,0,9.33-3.734,4-7.734c-3.75-2.814-15.31-5.087-25.826-5.065
		C6.297,31.202,6,33.565,6,36C6,52.569,19.431,66,36,66z"/>
</g>
<g id="Layer_1">
</g>
</svg>
