<?xml version="1.0" encoding="UTF-8" standalone="no"?>
<!-- Generator: Adobe Illustrator 21.0.0, SVG Export Plug-In . SVG Version: 6.00 Build 0)  -->

<svg
   xmlns:dc="http://purl.org/dc/elements/1.1/"
   xmlns:cc="http://creativecommons.org/ns#"
   xmlns:rdf="http://www.w3.org/1999/02/22-rdf-syntax-ns#"
   xmlns:svg="http://www.w3.org/2000/svg"
   xmlns="http://www.w3.org/2000/svg"
   xmlns:sodipodi="http://sodipodi.sourceforge.net/DTD/sodipodi-0.dtd"
   xmlns:inkscape="http://www.inkscape.org/namespaces/inkscape"
   version="1.1"
   x="0px"
   y="0px"
   viewBox="0 0 72 72"
   style="enable-background:new 0 0 72 72;"
   xml:space="preserve"
   id="svg2"
   inkscape:version="0.91 r13725"
   sodipodi:docname="Lamppost_Pin.svg"><metadata
     id="metadata22"><rdf:RDF><cc:Work
         rdf:about=""><dc:format>image/svg+xml</dc:format><dc:type
           rdf:resource="http://purl.org/dc/dcmitype/StillImage" /></cc:Work></rdf:RDF></metadata><defs
     id="defs20" /><sodipodi:namedview
     pagecolor="#ffffff"
     bordercolor="#666666"
     borderopacity="1"
     objecttolerance="10"
     gridtolerance="10"
     guidetolerance="10"
     inkscape:pageopacity="0"
     inkscape:pageshadow="2"
     inkscape:window-width="1680"
     inkscape:window-height="988"
     id="namedview18"
     showgrid="false"
     inkscape:zoom="3.2777778"
     inkscape:cx="36"
     inkscape:cy="36"
     inkscape:window-x="-8"
     inkscape:window-y="-8"
     inkscape:window-maximized="1"
     inkscape:current-layer="Lamppost_x5F_Pin" /><g
     id="Lamppost_x5F_Pin"><polygon
       style="fill:#15788C;"
       points="30,24 27,24 27,24 30,24  "
       id="polygon7" /><path
       style="fill:#15788C;"
       d="M43.5,12h-6h-3c-3.855,0-7.5,3.645-7.5,7.5V48c-1.657,0-3,1.343-3,3v12h9V51c0-1.657-1.343-3-3-3   V19.5c0-2.187,2.313-4.5,4.5-4.5v1.5c0,1.654,1.346,3,3,3h6c1.654,0,3-1.346,3-3V15H48v-3H43.5z M43.5,18h-6   c-0.825,0-1.5-0.675-1.5-1.5s0.675-1.5,1.5-1.5h6c0.825,0,1.5,0.675,1.5,1.5S44.325,18,43.5,18z"
       id="path9" /><path
       style="fill:#15788C;"
       d="M40.5,27L40.5,27c-0.828,0-1.5-0.672-1.5-1.5v-3c0-0.828,0.672-1.5,1.5-1.5h0   c0.828,0,1.5,0.672,1.5,1.5v3C42,26.328,41.328,27,40.5,27z"
       id="path11" /><path
       style="fill:#15788C;"
       d="M47.799,25.448L47.799,25.448c-0.717,0.414-1.635,0.168-2.049-0.549l-1.5-2.598   c-0.414-0.717-0.168-1.635,0.549-2.049l0,0c0.717-0.414,1.635-0.168,2.049,0.549l1.5,2.598   C48.762,24.116,48.516,25.034,47.799,25.448z"
       id="path13" /><path
       style="fill:#15788C;"
       d="M33.201,25.446L33.201,25.446c0.717,0.414,1.635,0.168,2.049-0.549l1.5-2.598   c0.414-0.717,0.168-1.635-0.549-2.049l0,0c-0.717-0.414-1.635-0.168-2.049,0.549l-1.5,2.598   C32.238,24.115,32.484,25.032,33.201,25.446z"
       id="path15" /></g><g
     id="Layer_1" /></svg>