<svg xmlns="http://www.w3.org/2000/svg" viewBox="0 0 72 72">
  <title>lifeguard</title>
  <g id="Layer_2" data-name="Layer 2">
    <g id="Icons">
      <g>
        <circle cx="36" cy="36" r="36" style="fill: #fff;opacity: 0"/>
        <path d="M36,6A30,30,0,1,0,66,36,30,30,0,0,0,36,6Zm0,3a26.91,26.91,0,0,1,10.61,2.17L43.12,19.5a18,18,0,0,0-14.25,0l-3.45-8.32A26.91,26.91,0,0,1,36,9ZM11.26,46.93a27,27,0,0,1-.48-20.69l8.33,3.45a17.81,17.81,0,0,0,.47,13.79ZM36,63A26.91,26.91,0,0,1,25.9,61.07l3.45-8.33a17.86,17.86,0,0,0,13.29,0L46.09,61A26.91,26.91,0,0,1,36,63ZM49.56,42.3A14.82,14.82,0,1,1,51,36,15,15,0,0,1,49.56,42.3Zm2.77,1.15a17.81,17.81,0,0,0,.47-13.73l8.33-3.45a27,27,0,0,1-.47,20.63Z" style="fill: #276ed9"/>
      </g>
    </g>
  </g>
</svg>
