<?xml version="1.0" encoding="iso-8859-1"?>
<!-- Generator: Adobe Illustrator 20.1.0, SVG Export Plug-In . SVG Version: 6.00 Build 0)  -->
<svg version="1.1" xmlns="http://www.w3.org/2000/svg" xmlns:xlink="http://www.w3.org/1999/xlink" x="0px" y="0px"
	 viewBox="0 0 72 72" style="enable-background:new 0 0 72 72;" xml:space="preserve">
<g id="Lifeguard_x5F_Pin">
	<circle style="opacity:0;fill:#FFFFFF;" cx="36" cy="36" r="36"/>
	<path style="fill:#1C77D4;" d="M35.957,6.015c-16.569,0-30,13.431-30,30c0,16.568,13.431,30,30,30c16.569,0,30-13.432,30-30
		C65.957,19.446,52.525,6.015,35.957,6.015z M35.957,9.015c3.766,0,7.351,0.773,10.608,2.166l-3.447,8.323
		c-2.196-0.954-4.615-1.489-7.161-1.489c-2.518,0-4.913,0.521-7.089,1.454l-3.447-8.321C28.659,9.775,32.219,9.015,35.957,9.015z
		 M11.264,46.934c-1.479-3.34-2.307-7.031-2.307-10.919c0-3.447,0.653-6.74,1.83-9.771l8.333,3.452
		c-0.739,1.969-1.163,4.092-1.163,6.319c0,2.668,0.596,5.191,1.637,7.469L11.264,46.934z M35.957,63.015
		c-3.556,0-6.948-0.694-10.057-1.943l3.449-8.325c2.048,0.81,4.273,1.269,6.608,1.269c2.364,0,4.615-0.468,6.683-1.296l3.448,8.324
		C42.959,62.31,39.541,63.015,35.957,63.015z M49.561,42.305c-1.608,3.472-4.497,6.222-8.068,7.642
		c-1.714,0.682-3.578,1.068-5.535,1.068c-1.929,0-3.767-0.377-5.46-1.04c-3.595-1.408-6.507-4.158-8.129-7.64
		c-0.896-1.923-1.41-4.059-1.41-6.32c0-1.82,0.341-3.557,0.934-5.171c1.42-3.86,4.368-6.978,8.125-8.601
		c1.822-0.787,3.829-1.228,5.94-1.228c2.14,0,4.171,0.455,6.012,1.262c3.732,1.636,6.658,4.748,8.065,8.598
		c0.587,1.605,0.923,3.332,0.923,5.14C50.957,38.264,50.448,40.39,49.561,42.305z M52.334,43.453
		c1.033-2.27,1.623-4.783,1.623-7.439c0-2.215-0.419-4.328-1.152-6.288l8.333-3.452c1.17,3.022,1.818,6.305,1.818,9.74
		c0,3.876-0.823,7.557-2.293,10.889L52.334,43.453z"/>
</g>
<g id="Layer_1">
</g>
</svg>
