<?xml version="1.0" encoding="iso-8859-1"?>
<!-- Generator: Adobe Illustrator 20.1.0, SVG Export Plug-In . SVG Version: 6.00 Build 0)  -->
<svg version="1.1" xmlns="http://www.w3.org/2000/svg" xmlns:xlink="http://www.w3.org/1999/xlink" x="0px" y="0px"
	 viewBox="0 0 72 72" style="enable-background:new 0 0 72 72;" xml:space="preserve">
<g id="Limo_x5F_Pin">
	<circle style="opacity:0;fill:#FFFFFF;" cx="36" cy="36" r="36"/>
	<circle style="fill:#E01678;" cx="19" cy="46" r="5"/>
	<path style="fill:#FFFFFF;stroke:#000000;stroke-width:6.2618;stroke-linecap:round;stroke-miterlimit:10;" d="M34.867,39.088"/>
	<path style="fill:#E01678;" d="M67.931,34H56v-9h9.665c-0.416-1.027-0.881-3.029-1.398-4H24L12,33H4.145
		C4.053,33.988,4,34.988,4,36c0,3.126,0.456,6.144,1.292,9H11c1-5,5-7,8-7s7,2,8,7h39.708C67.544,42.144,68,39.126,68,36
		C68,35.328,67.972,34.662,67.931,34z M52,34H20l8-9h24V34z"/>
</g>
<g id="Layer_1">
</g>
</svg>
