<?xml version="1.0" encoding="iso-8859-1"?>
<!-- Generator: Adobe Illustrator 20.1.0, SVG Export Plug-In . SVG Version: 6.00 Build 0)  -->
<svg version="1.1" xmlns="http://www.w3.org/2000/svg" xmlns:xlink="http://www.w3.org/1999/xlink" x="0px" y="0px"
	 viewBox="0 0 72 72" style="enable-background:new 0 0 72 72;" xml:space="preserve">
<g id="link_x5F_pin">
	<circle style="fill:#FFFFFF;" cx="36" cy="36" r="36"/>
	<linearGradient id="SVGID_1_" gradientUnits="userSpaceOnUse" x1="36" y1="5.4783" x2="36" y2="66.5217">
		<stop  offset="0" style="stop-color:#B85DA9"/>
		<stop  offset="1" style="stop-color:#923082"/>
	</linearGradient>
	<circle style="fill:url(#SVGID_1_);" cx="36" cy="36" r="30.522"/>
	<g>
		<g>
			<path style="fill:#FFFFFF;" d="M34.806,43.272c-0.17,0.837-0.573,1.634-1.219,2.28l-4.245,4.245
				c-1.751,1.751-4.617,1.751-6.368,0c-1.751-1.751-1.751-4.617,0-6.368l4.245-4.245c0.645-0.645,1.443-1.049,2.28-1.219
				l4.018-4.018c-3.195-1.17-6.928-0.501-9.482,2.052l-4.245,4.245c-3.502,3.502-3.502,9.233,0,12.736
				c3.502,3.502,9.233,3.502,12.736,0l4.245-4.245c2.554-2.554,3.222-6.286,2.052-9.481L34.806,43.272z"/>
			<path style="fill:#FFFFFF;" d="M53.752,19.019c-3.502-3.502-9.233-3.502-12.736,0l-4.245,4.245
				c-2.554,2.554-3.222,6.286-2.052,9.481l4.018-4.018c0.17-0.837,0.573-1.634,1.219-2.28l4.245-4.245
				c1.751-1.751,4.617-1.751,6.368,0c1.751,1.751,1.751,4.617,0,6.368l-4.245,4.245c-0.645,0.645-1.443,1.049-2.28,1.219
				l-4.018,4.018c3.195,1.17,6.928,0.501,9.482-2.052l4.245-4.245C57.254,28.252,57.254,22.521,53.752,19.019z"/>
		</g>
		<path style="fill:#FFFFFF;" d="M45.262,30.693L31.465,44.49c-0.876,0.876-2.308,0.876-3.184,0l0,0
			c-0.876-0.876-0.876-2.308,0-3.184L42.078,27.51c0.876-0.876,2.308-0.876,3.184,0l0,0C46.137,28.385,46.137,29.818,45.262,30.693z
			"/>
	</g>
</g>
<g id="Layer_1">
</g>
</svg>
