<?xml version="1.0" encoding="iso-8859-1"?>
<!-- Generator: Adobe Illustrator 20.1.0, SVG Export Plug-In . SVG Version: 6.00 Build 0)  -->
<svg version="1.1" xmlns="http://www.w3.org/2000/svg" xmlns:xlink="http://www.w3.org/1999/xlink" x="0px" y="0px"
	 viewBox="0 0 72 72" style="enable-background:new 0 0 72 72;" xml:space="preserve">
<g id="Lodge_x5F_Pin">
	<circle style="opacity:0;fill:#FFFFFF;" cx="36" cy="36" r="36"/>
	<polygon style="fill:#D82121;" points="39.333,11.5 44,8 40,6 36,9 32,6 28,8 32.667,11.5 8,30 12,32 36,14 60,32 64,30 	"/>
	<path style="fill:#D82121;" d="M51.765,29.824L36,18L20.258,29.807C22.482,30.979,24,33.311,24,36c0,1.962-0.824,3.714-2.129,4.979
		C23.182,42.251,24,44.029,24,46c0,1.962-0.824,3.714-2.129,4.979C23.182,52.251,24,54.029,24,56c0,1.496-0.485,2.868-1.288,4
		h26.576C48.485,58.868,48,57.496,48,56c0-1.974,0.82-3.749,2.136-5.014C48.827,49.721,48,47.966,48,46
		c0-1.974,0.82-3.749,2.136-5.014C48.827,39.721,48,37.966,48,36C48,33.305,49.531,30.986,51.765,29.824z M42,54H30V36h12V54z"/>
	<path style="fill:#D82121;" d="M55,32c-0.204,0-0.4,0.031-0.596,0.06c-0.952,0.144-1.794,0.621-2.404,1.308
		c-0.621,0.701-1,1.62-1,2.632c0,1.01,0.38,1.926,1,2.626c0.253,0.286,0.546,0.533,0.871,0.737c0.128,0.081,0.259,0.16,0.396,0.226
		C53.793,39.845,54.376,40,55,40s1.207-0.155,1.734-0.41c0.149-0.072,0.291-0.156,0.429-0.245C58.264,38.634,59,37.408,59,36
		C59,33.791,57.209,32,55,32z"/>
	<path style="fill:#D82121;" d="M57.136,42.64c-0.13-0.083-0.262-0.162-0.402-0.23C56.207,42.155,55.624,42,55,42
		s-1.207,0.155-1.733,0.41c-0.14,0.068-0.272,0.147-0.402,0.23c-0.322,0.204-0.613,0.45-0.865,0.734c-0.62,0.7-1,1.616-1,2.626
		c0,1.01,0.38,1.926,1,2.626c0.253,0.286,0.546,0.533,0.871,0.737c0.128,0.081,0.259,0.16,0.396,0.226
		C53.793,49.845,54.376,50,55,50s1.207-0.155,1.734-0.41c0.149-0.072,0.291-0.156,0.429-0.245C58.264,48.634,59,47.408,59,46
		C59,44.58,58.252,43.348,57.136,42.64z"/>
	<path style="fill:#D82121;" d="M57.136,52.64c-0.13-0.083-0.262-0.162-0.402-0.23C56.207,52.155,55.624,52,55,52
		s-1.207,0.155-1.733,0.41c-0.14,0.068-0.272,0.147-0.402,0.23c-0.322,0.204-0.613,0.45-0.865,0.734c-0.62,0.7-1,1.616-1,2.626
		c0,1.007,0.385,1.917,1,2.62c0.733,0.839,1.798,1.38,3,1.38c2.209,0,4-1.791,4-4C59,54.58,58.252,53.348,57.136,52.64z"/>
	<path style="fill:#D82121;" d="M17,32c-0.204,0-0.4,0.031-0.596,0.06C14.48,32.35,13,33.995,13,36c0,1.422,0.751,2.656,1.871,3.363
		c0.128,0.081,0.259,0.16,0.396,0.226C15.793,39.845,16.376,40,17,40s1.207-0.155,1.734-0.41c0.149-0.072,0.291-0.156,0.429-0.245
		c0.311-0.201,0.593-0.442,0.837-0.718c0.62-0.7,1-1.616,1-2.626c0-1.008-0.385-1.917-1-2.621C19.267,32.541,18.202,32,17,32z"/>
	<path style="fill:#D82121;" d="M19.136,42.64c-0.13-0.083-0.262-0.162-0.402-0.23C18.207,42.155,17.624,42,17,42
		s-1.207,0.155-1.733,0.41c-0.14,0.068-0.272,0.147-0.402,0.23C13.749,43.348,13,44.58,13,46c0,1.422,0.751,2.656,1.871,3.363
		c0.128,0.081,0.259,0.16,0.396,0.226C15.793,49.845,16.376,50,17,50s1.207-0.155,1.734-0.41c0.149-0.072,0.291-0.156,0.429-0.245
		c0.311-0.201,0.593-0.442,0.837-0.718c0.62-0.7,1-1.616,1-2.626c0-1.01-0.38-1.926-1-2.626
		C19.749,43.09,19.457,42.844,19.136,42.64z"/>
	<path style="fill:#D82121;" d="M19.136,52.64c-0.13-0.083-0.262-0.162-0.402-0.23C18.207,52.155,17.624,52,17,52
		s-1.207,0.155-1.733,0.41c-0.14,0.068-0.272,0.147-0.402,0.23C13.749,53.348,13,54.58,13,56c0,2.209,1.791,4,4,4
		c1.202,0,2.267-0.541,3-1.38c0.615-0.703,1-1.613,1-2.62c0-1.01-0.38-1.926-1-2.626C19.749,53.09,19.457,52.844,19.136,52.64z"/>
</g>
<g id="Layer_1">
</g>
</svg>
