<svg xmlns="http://www.w3.org/2000/svg" viewBox="0 0 72 72">
  <title>lodge</title>
  <g id="Layer_2" data-name="Layer 2">
    <g id="Icons">
      <g>
        <circle cx="36" cy="36" r="36" style="fill: #fff;opacity: 0"/>
        <polygon points="40.8 9 43.5 7.31 38.7 4.31 36 6 33.3 4.31 28.5 7.31 31.2 9 12 21 12 27 36 12 60 27 60 21 40.8 9" style="fill: #d82121"/>
        <path d="M55,32a4,4,0,0,0-.6.06A4,4,0,0,0,52,33.37a4,4,0,0,0,0,5.26,4.36,4.36,0,0,0,1.27,1,3.87,3.87,0,0,0,3.47,0,4.06,4.06,0,0,0,.43-.25A4,4,0,0,0,55,32Z" style="fill: #d82121"/>
        <path d="M57.14,42.64a4,4,0,0,0-.4-.23,3.87,3.87,0,0,0-3.47,0,4.34,4.34,0,0,0-1.27,1,3.95,3.95,0,0,0,0,5.25,4.36,4.36,0,0,0,1.27,1,3.87,3.87,0,0,0,3.47,0,4.06,4.06,0,0,0,.43-.25,4,4,0,0,0,0-6.7Z" style="fill: #d82121"/>
        <path d="M57.14,52.64a4,4,0,0,0-.4-.23,3.87,3.87,0,0,0-3.47,0,4.34,4.34,0,0,0-1.27,1A4,4,0,0,0,55,60a4,4,0,0,0,2.14-7.36Z" style="fill: #d82121"/>
        <path d="M17,32a4,4,0,0,0-2.13,7.36,4,4,0,0,0,.4.23,3.87,3.87,0,0,0,3.47,0,4.22,4.22,0,0,0,1.27-1A4,4,0,0,0,17,32Z" style="fill: #d82121"/>
        <path d="M19.14,42.64a4,4,0,0,0-.4-.23,3.87,3.87,0,0,0-3.47,0,4,4,0,0,0-.4.23,4,4,0,0,0,0,6.72,4,4,0,0,0,.4.23,3.87,3.87,0,0,0,3.47,0,4.22,4.22,0,0,0,1.27-1,3.95,3.95,0,0,0,0-5.25A4,4,0,0,0,19.14,42.64Z" style="fill: #d82121"/>
        <path d="M19.14,52.64a4,4,0,0,0-.4-.23,3.87,3.87,0,0,0-3.47,0,4,4,0,0,0-.4.23,4,4,0,1,0,5.14.73A4,4,0,0,0,19.14,52.64Z" style="fill: #d82121"/>
        <path d="M36,18,21,27v3.34A6.87,6.87,0,0,1,21.87,41a6.94,6.94,0,0,1,0,10A7,7,0,0,1,24,56a6.88,6.88,0,0,1-1.29,4H30V45H42V60h7.29a6.91,6.91,0,0,1,.85-9,6.92,6.92,0,0,1,0-10A6.91,6.91,0,0,1,48,36a6.83,6.83,0,0,1,1.65-4.4A7,7,0,0,1,51,30.36V27Z" style="fill: #d82121"/>
      </g>
    </g>
  </g>
</svg>
