<svg xmlns="http://www.w3.org/2000/svg" viewBox="0 0 72 72">
  <title>logistics</title>
  <g id="Layer_2" data-name="Layer 2">
    <g id="Icons">
      <g>
        <g style="opacity: 0">
          <rect width="72" height="72" rx="36" ry="36" style="fill: #fff"/>
        </g>
        <g>
          <path d="M60,45V36L54,24H42V45H28.49a7.48,7.48,0,0,1,3,6h12a7.5,7.5,0,0,1,15,0H63V45ZM45,36V27h7.32L57,36Z" style="fill: #e61066"/>
          <path d="M24,45a6,6,0,1,0,6,6A6,6,0,0,0,24,45Zm0,9a3,3,0,1,1,3-3A3,3,0,0,1,24,54Z" style="fill: #e61066"/>
          <path d="M51,45a6,6,0,1,0,6,6A6,6,0,0,0,51,45Zm0,9a3,3,0,1,1,3-3A3,3,0,0,1,51,54Z" style="fill: #e61066"/>
          <path d="M39,18H9V42H39ZM24,39V33H15V27h9V21l12,9Z" style="fill: #e61066"/>
          <path d="M19.51,45H9v6h7.5A7.48,7.48,0,0,1,19.51,45Z" style="fill: #e61066"/>
        </g>
      </g>
    </g>
  </g>
</svg>
