<svg xmlns="http://www.w3.org/2000/svg" viewBox="0 0 72 72">
  <title>message</title>
  <g id="Layer_2" data-name="Layer 2">
    <g id="Icons">
      <g>
        <circle cx="36" cy="36" r="36" style="fill: #fff;opacity: 0"/>
        <g>
          <path d="M36,15C21.09,15,9,23.06,9,33c0,8.74,9.35,16,21.75,17.65A22.1,22.1,0,0,1,27,63s14.15-2.38,19.44-13.4C56.17,46.88,63,40.47,63,33,63,23.06,50.91,15,36,15ZM47,45.55a31,31,0,0,1-4,1C39.8,55.09,33,57,33,57a29.13,29.13,0,0,0,2-9.74c-1.43-.06-3.14-.16-4.09-.29-10-1.45-18.13-7.3-18.13-14,0-7.77,10.82-14.25,23.25-14.25S59.25,25.23,59.25,33C59.25,38.27,53.85,43.15,47,45.55Z" style="fill: #202020"/>
          <rect x="21" y="30" width="6" height="6" style="fill: #202020"/>
          <rect x="33" y="30" width="6" height="6" style="fill: #202020"/>
          <rect x="45" y="30" width="6" height="6" style="fill: #202020"/>
        </g>
      </g>
    </g>
  </g>
</svg>
