<?xml version="1.0" encoding="UTF-8" standalone="no"?>
<!-- Generator: Adobe Illustrator 21.0.0, SVG Export Plug-In . SVG Version: 6.00 Build 0)  -->

<svg
   xmlns:dc="http://purl.org/dc/elements/1.1/"
   xmlns:cc="http://creativecommons.org/ns#"
   xmlns:rdf="http://www.w3.org/1999/02/22-rdf-syntax-ns#"
   xmlns:svg="http://www.w3.org/2000/svg"
   xmlns="http://www.w3.org/2000/svg"
   xmlns:sodipodi="http://sodipodi.sourceforge.net/DTD/sodipodi-0.dtd"
   xmlns:inkscape="http://www.inkscape.org/namespaces/inkscape"
   version="1.1"
   x="0px"
   y="0px"
   viewBox="0 0 72 72"
   style="enable-background:new 0 0 72 72;"
   xml:space="preserve"
   id="svg2"
   inkscape:version="0.91 r13725"
   sodipodi:docname="Meter_Pin.svg"><metadata
     id="metadata44"><rdf:RDF><cc:Work
         rdf:about=""><dc:format>image/svg+xml</dc:format><dc:type
           rdf:resource="http://purl.org/dc/dcmitype/StillImage" /></cc:Work></rdf:RDF></metadata><defs
     id="defs42" /><sodipodi:namedview
     pagecolor="#ffffff"
     bordercolor="#666666"
     borderopacity="1"
     objecttolerance="10"
     gridtolerance="10"
     guidetolerance="10"
     inkscape:pageopacity="0"
     inkscape:pageshadow="2"
     inkscape:window-width="690"
     inkscape:window-height="480"
     id="namedview40"
     showgrid="false"
     inkscape:zoom="3.2777778"
     inkscape:cx="36"
     inkscape:cy="36"
     inkscape:window-x="0"
     inkscape:window-y="0"
     inkscape:window-maximized="0"
     inkscape:current-layer="Meter_x5F_Pin" /><g
     id="Meter_x5F_Pin"><path
       style="fill:#1B1BB3;"
       d="M36,66C19.458,66,6,52.542,6,36S19.458,6,36,6s30,13.458,30,30S52.542,66,36,66z M36,9   C21.112,9,9,21.112,9,36s12.112,27,27,27s27-12.112,27-27S50.888,9,36,9z"
       id="path7" /><path
       style="fill:#1B1BB3;"
       d="M36,12l-6,24c0,3.314,2.686,6,6,6s6-2.686,6-6L36,12z M36,39c-1.657,0-3-1.343-3-3s1.343-3,3-3   s3,1.343,3,3S37.657,39,36,39z"
       id="path9" /><path
       style="fill:#1B1BB3;"
       d="M45,51H27c-1.65,0-3-1.35-3-3v0c0-1.65,1.35-3,3-3h18c1.65,0,3,1.35,3,3v0C48,49.65,46.65,51,45,51z   "
       id="path11" /><g
       id="g13"><path
         style="fill:#1B1BB3;"
         d="M36,7.5c-0.828,0-1.5,0.672-1.5,1.5v3c0,0.828,0.672,1.5,1.5,1.5s1.5-0.672,1.5-1.5V9    C37.5,8.172,36.828,7.5,36,7.5z"
         id="path15" /><path
         style="fill:#1B1BB3;"
         d="M36,58.5c-0.828,0-1.5,0.672-1.5,1.5v3c0,0.828,0.672,1.5,1.5,1.5s1.5-0.672,1.5-1.5v-3    C37.5,59.172,36.828,58.5,36,58.5z"
         id="path17" /><path
         style="fill:#1B1BB3;"
         d="M63,34.5h-3c-0.828,0-1.5,0.672-1.5,1.5s0.672,1.5,1.5,1.5h3c0.828,0,1.5-0.672,1.5-1.5    S63.828,34.5,63,34.5z"
         id="path19" /><path
         style="fill:#1B1BB3;"
         d="M13.5,36c0-0.828-0.672-1.5-1.5-1.5H9c-0.828,0-1.5,0.672-1.5,1.5s0.672,1.5,1.5,1.5h3    C12.828,37.5,13.5,36.828,13.5,36z"
         id="path21" /><path
         style="fill:#1B1BB3;"
         d="M49.299,56.034c-0.414-0.719-1.332-0.963-2.049-0.549c-0.718,0.414-0.963,1.331-0.549,2.049    l1.5,2.599c0.277,0.481,0.782,0.75,1.3,0.75c0.255,0,0.513-0.064,0.749-0.201c0.718-0.414,0.963-1.331,0.549-2.049L49.299,56.034z    "
         id="path23" /><path
         style="fill:#1B1BB3;"
         d="M23.799,11.867c-0.414-0.719-1.332-0.964-2.049-0.549c-0.718,0.414-0.963,1.331-0.549,2.049    l1.5,2.599c0.277,0.481,0.782,0.75,1.3,0.75c0.255,0,0.513-0.064,0.749-0.201c0.718-0.414,0.963-1.331,0.549-2.049L23.799,11.867z    "
         id="path25" /><path
         style="fill:#1B1BB3;"
         d="M56.785,25.5c0.255,0,0.513-0.064,0.749-0.201l2.599-1.5c0.718-0.414,0.963-1.331,0.549-2.049    c-0.414-0.719-1.332-0.963-2.049-0.549l-2.599,1.5c-0.718,0.414-0.963,1.331-0.549,2.049C55.763,25.231,56.268,25.5,56.785,25.5z"
         id="path27" /><path
         style="fill:#1B1BB3;"
         d="M14.466,46.701l-2.599,1.5c-0.718,0.414-0.963,1.331-0.549,2.049c0.277,0.481,0.782,0.75,1.3,0.75    c0.255,0,0.513-0.064,0.749-0.201l2.599-1.5c0.718-0.414,0.963-1.331,0.549-2.049C16.101,46.531,15.183,46.287,14.466,46.701z"
         id="path29" /><path
         style="fill:#1B1BB3;"
         d="M60.133,48.201l-2.599-1.5c-0.716-0.414-1.635-0.17-2.049,0.549    c-0.414,0.718-0.169,1.635,0.549,2.049l2.599,1.5C58.869,50.936,59.127,51,59.382,51c0.518,0,1.022-0.269,1.3-0.75    C61.096,49.532,60.851,48.615,60.133,48.201z"
         id="path31" /><path
         style="fill:#1B1BB3;"
         d="M15.966,22.701l-2.599-1.5c-0.717-0.414-1.635-0.17-2.049,0.549    c-0.414,0.718-0.169,1.635,0.549,2.049l2.599,1.5c0.236,0.137,0.494,0.201,0.749,0.201c0.518,0,1.022-0.269,1.3-0.75    C16.929,24.032,16.684,23.115,15.966,22.701z"
         id="path33" /><path
         style="fill:#1B1BB3;"
         d="M50.25,11.318c-0.717-0.415-1.635-0.17-2.049,0.549l-1.5,2.599    c-0.414,0.718-0.169,1.635,0.549,2.049c0.236,0.137,0.494,0.201,0.749,0.201c0.518,0,1.022-0.269,1.3-0.75l1.5-2.599    C51.213,12.649,50.968,11.732,50.25,11.318z"
         id="path35" /><path
         style="fill:#1B1BB3;"
         d="M24.75,55.485c-0.717-0.414-1.635-0.17-2.049,0.549l-1.5,2.599    c-0.414,0.718-0.169,1.635,0.549,2.049c0.236,0.137,0.494,0.201,0.749,0.201c0.518,0,1.022-0.269,1.3-0.75l1.5-2.599    C25.713,56.816,25.468,55.899,24.75,55.485z"
         id="path37" /></g></g><g
     id="Layer_1" /></svg>