<?xml version="1.0" encoding="iso-8859-1"?>
<!-- Generator: Adobe Illustrator 20.1.0, SVG Export Plug-In . SVG Version: 6.00 Build 0)  -->
<svg version="1.1" xmlns="http://www.w3.org/2000/svg" xmlns:xlink="http://www.w3.org/1999/xlink" x="0px" y="0px"
	 viewBox="0 0 72 72" style="enable-background:new 0 0 72 72;" xml:space="preserve">
<g id="Mountain_x5F_pin">
	<path style="fill:#006600;" d="M16.345,58.654c-0.122-0.106-0.245-0.209-0.365-0.316C16.1,58.445,16.224,58.549,16.345,58.654z"/>
	<path style="fill:#006600;" d="M13.484,55.814c-0.103-0.117-0.206-0.236-0.307-0.355C13.278,55.578,13.38,55.696,13.484,55.814z"/>
	<path style="fill:#006600;" d="M17.667,59.739c-0.138-0.107-0.276-0.214-0.412-0.324C17.392,59.524,17.529,59.632,17.667,59.739z"
		/>
	<path style="fill:#006600;" d="M10.866,52.372c-0.076-0.117-0.152-0.235-0.226-0.353C10.715,52.137,10.79,52.255,10.866,52.372z"/>
	<polygon style="fill:#006600;" points="9.65,50.35 9.65,50.351 9.65,50.35 	"/>
	<path style="fill:#006600;" d="M8.926,48.936c-0.01-0.02-0.018-0.041-0.028-0.061C8.908,48.895,8.917,48.915,8.926,48.936z"/>
	<path style="fill:#006600;" d="M8.295,47.517C8.258,47.43,8.225,47.34,8.19,47.252C8.225,47.34,8.258,47.43,8.295,47.517z"/>
	<path style="fill:#006600;" d="M8.19,47.252c-0.16-0.397-0.315-0.797-0.459-1.202C7.875,46.455,8.029,46.855,8.19,47.252z"/>
	<path style="fill:#006600;" d="M13.484,55.814c0.783,0.889,1.615,1.733,2.496,2.524c-0.407-0.365-0.807-0.738-1.193-1.125
		C14.336,56.763,13.905,56.293,13.484,55.814z"/>
	<path style="fill:#006600;" d="M8.899,48.874c-0.212-0.446-0.414-0.899-0.604-1.357C8.485,47.976,8.686,48.428,8.899,48.874z"/>
	<path style="fill:#006600;" d="M9.65,50.35c-0.253-0.464-0.494-0.936-0.723-1.414C9.155,49.414,9.396,49.886,9.65,50.35z"/>
	<path style="fill:#006600;" d="M10.64,52.019c-0.345-0.546-0.679-1.099-0.99-1.668C9.961,50.92,10.295,51.473,10.64,52.019z"/>
	<path style="fill:#006600;" d="M13.177,55.459c-0.834-0.977-1.606-2.007-2.31-3.087C11.571,53.452,12.343,54.482,13.177,55.459z"/>
	<path style="fill:#006600;" d="M17.255,59.415c-0.309-0.247-0.611-0.502-0.91-0.761C16.644,58.913,16.947,59.168,17.255,59.415z"/>
	<circle style="opacity:0;fill:#FFFFFF;" cx="36" cy="36" r="36"/>
	<polygon style="fill:#006600;" points="12,54 12,54 12,54 	"/>
	<polygon style="fill:#006600;" points="12,54 12,54 12,54 	"/>
	<path style="fill:#0E610E;" d="M48,18L37.5,28.5L24,15L6.168,32.832C6.058,33.874,6,34.93,6,36c0,6.754,2.233,12.986,6,18h0l0,0
		c1.707,2.272,3.728,4.293,6,6c1.531,1.15,3.175,2.156,4.913,3c3.955,1.921,8.395,3,13.088,3s9.132-1.079,13.088-3
		c1.738-0.844,3.382-1.85,4.913-3c2.272-1.707,4.293-3.728,6-6c0.431-0.574,0.837-1.168,1.227-1.773C64.243,47.548,66,41.981,66,36
		L48,18z M27,33l-3,3l-12-3l12-12l15,15L27,33z M51,36l-3,3l-7.5-7.5L48,24l15,15L51,36z"/>
</g>
<g id="Layer_1">
</g>
</svg>
