<svg xmlns="http://www.w3.org/2000/svg" viewBox="0 0 72 72">
  <title>mountain</title>
  <g id="Layer_2" data-name="Layer 2">
    <g id="Icons">
      <g>
        <path d="M16.35,58.65,16,58.34Z" style="fill: #060"/>
        <path d="M13.48,55.81l-.31-.35Z" style="fill: #060"/>
        <path d="M17.67,59.74l-.41-.32Z" style="fill: #060"/>
        <path d="M10.87,52.37,10.64,52Z" style="fill: #060"/>
        <path d="M13.48,55.81A30.19,30.19,0,0,0,16,58.34c-.41-.36-.81-.74-1.19-1.12S13.91,56.29,13.48,55.81Z" style="fill: #060"/>
        <path d="M10.64,52c-.35-.55-.68-1.1-1-1.67C10,50.92,10.29,51.47,10.64,52Z" style="fill: #060"/>
        <path d="M13.18,55.46a30.1,30.1,0,0,1-2.31-3.09A30.09,30.09,0,0,0,13.18,55.46Z" style="fill: #060"/>
        <path d="M17.26,59.42q-.46-.37-.91-.76Q16.79,59,17.26,59.42Z" style="fill: #060"/>
        <circle cx="36" cy="36" r="36" style="fill: #fff;opacity: 0"/>
        <polygon points="12 54 12 54 12 54 12 54" style="fill: #060"/>
        <polygon points="12 54 12 54 12 54 12 54" style="fill: #060"/>
        <path d="M48,18,37.5,28.5,24,15,6.17,32.83A30.3,30.3,0,0,0,6,36a29.87,29.87,0,0,0,6,18h0a30.1,30.1,0,0,0,10.91,9A30,30,0,0,0,60,54c.43-.57.84-1.17,1.23-1.77A29.85,29.85,0,0,0,66,36ZM27,33l-3,3L12,33,24,21,39,36Zm24,3-3,3-7.5-7.5L48,24,63,39Z" style="fill: #0e610e"/>
      </g>
    </g>
  </g>
</svg>
