<?xml version="1.0" encoding="iso-8859-1"?>
<!-- Generator: Adobe Illustrator 20.1.0, SVG Export Plug-In . SVG Version: 6.00 Build 0)  -->
<svg version="1.1" xmlns="http://www.w3.org/2000/svg" xmlns:xlink="http://www.w3.org/1999/xlink" x="0px" y="0px"
	 viewBox="0 0 72 72" style="enable-background:new 0 0 72 72;" xml:space="preserve">
<g id="Music_x5F_Pin">
	<circle style="opacity:0;fill:#FFFFFF;" cx="36" cy="36" r="36"/>
	<path style="fill:#386B05;" d="M22,18v4v4v20.197C21.36,46.073,20.692,46,20,46c-4.418,0-8,2.686-8,6s3.582,6,8,6s8-2.686,8-6v0
		l0,0V24.941l22-3.882v19.138C49.36,40.073,48.692,40,48,40c-4.418,0-8,2.686-8,6s3.582,6,8,6s8-2.686,8-6v0l0,0V20v-4v-4L22,18z"/>
</g>
<g id="Layer_1">
</g>
</svg>
