<svg xmlns="http://www.w3.org/2000/svg" viewBox="0 0 72 72">
  <title>night_time</title>
  <g id="Layer_2" data-name="Layer 2">
    <g id="Icons">
      <g>
        <circle cx="36" cy="36" r="36" style="fill: #fff;opacity: 0"/>
        <path d="M51,18H45a9,9,0,0,0-18,0H21L15,56.58A3,3,0,0,0,18,60H54a3,3,0,0,0,3-3.42ZM36,12a6,6,0,0,1,6,6H30A6,6,0,0,1,36,12ZM25.94,31.59,27.35,27l1.41,4.59h4.94l-3.88,2.82L31.24,39l-3.88-2.82L23.47,39l1.41-4.59L21,31.59ZM36,54A13.49,13.49,0,0,1,22.84,43.42,10.5,10.5,0,1,0,33.68,27.23,13.48,13.48,0,1,1,36,54Z" style="fill: #2e2ee6"/>
      </g>
    </g>
  </g>
</svg>
