<svg xmlns="http://www.w3.org/2000/svg" viewBox="0 0 72 72">
  <title>observatory</title>
  <g id="Layer_2" data-name="Layer 2">
    <g id="Icons">
      <g>
        <circle cx="36" cy="36" r="36" style="fill: #fff;opacity: 0"/>
        <g>
          <path d="M48.86,35.77A20.86,20.86,0,0,1,51,45h6a20.93,20.93,0,0,0-6.06-14.75,6.83,6.83,0,0,1-1.85,5.33C49,35.66,48.93,35.7,48.86,35.77Z" style="fill: #068037"/>
          <path d="M35.55,24a22.32,22.32,0,0,0-2.55.2,20.88,20.88,0,0,1,2.22.45A6.4,6.4,0,0,1,35.55,24Z" style="fill: #068037"/>
          <path d="M17.14,45H45a20.82,20.82,0,0,0-1.47-7.58,9.88,9.88,0,0,1-6-2.91,9.49,9.49,0,0,1-3-7.58,20.8,20.8,0,0,0-4.55-2,15.73,15.73,0,0,0-2.57-.64C18.71,25.7,12,34.42,12,45h5.14Z" style="fill: #068037"/>
          <rect x="12" y="48" width="45" height="9" style="fill: #068037"/>
          <path d="M57.73,14.27c-2.51-2.51-6.07-3-8-1.14l-7.93,7.93L39,23.94c-.08.08-.13.18-.2.26A3.83,3.83,0,0,0,38,25.62a6,6,0,0,0,.75,4.47,8.28,8.28,0,0,0,1.35,1.8,8.48,8.48,0,0,0,.8.69c2.18,1.7,4.86,2.06,6.6.87a3.63,3.63,0,0,0,.55-.42l2.83-2.83,0,.05s0-.07,0-.1l7.93-7.93C60.75,20.34,60.24,16.78,57.73,14.27Zm-.42,6.33c-1.24,1.24-3.59.91-5.25-.75s-2-4-.75-5.25,3.59-.91,5.25.75S58.55,19.36,57.3,20.61Z" style="fill: #068037"/>
        </g>
      </g>
    </g>
  </g>
</svg>
