<?xml version="1.0" encoding="iso-8859-1"?>
<!-- Generator: Adobe Illustrator 20.1.0, SVG Export Plug-In . SVG Version: 6.00 Build 0)  -->
<svg version="1.1" xmlns="http://www.w3.org/2000/svg" xmlns:xlink="http://www.w3.org/1999/xlink" x="0px" y="0px"
	 viewBox="0 0 72 72" style="enable-background:new 0 0 72 72;" xml:space="preserve">
<g id="Town_x5F_Hall_x5F_Pin">
	<circle style="opacity:0;fill:#FFFFFF;" cx="36" cy="36" r="36"/>
	<path style="fill:#15788C;" d="M54,57V30H42V9H18v48h-3v3h21h18h3v-3H54z M39,42h3h9v6h-9h-3V42z M51,33v6h-9h-3v-6h3H51z M21,15
		h18v6H21V15z M21,24h18v6h-3H21V24z M21,33h15v6H21V33z M21,42h15v6H21V42z M27,57v-6h6v6H27z M42,57v-6h6v6H42z"/>
</g>
<g id="Layer_1">
</g>
</svg>
