<?xml version="1.0" encoding="iso-8859-1"?>
<!-- Generator: Adobe Illustrator 20.1.0, SVG Export Plug-In . SVG Version: 6.00 Build 0)  -->
<svg version="1.1" xmlns="http://www.w3.org/2000/svg" xmlns:xlink="http://www.w3.org/1999/xlink" x="0px" y="0px"
	 viewBox="0 0 72 72" style="enable-background:new 0 0 72 72;" xml:space="preserve">
<g id="Park_x5F_Pin">
	<circle style="opacity:0;fill:#FFFFFF;" cx="36" cy="36" r="36"/>
	<path style="fill:#0E610E;" d="M61.386,32.632C61.775,31.836,62,30.945,62,30c0-3.314-2.686-6-6-6c0-3.314-2.686-6-6-6
		c0-3.314-2.686-6-6-6c-0.902,0-1.754,0.205-2.521,0.561C40.544,10.464,38.444,9,36,9s-4.544,1.464-5.479,3.561
		C29.754,12.205,28.902,12,28,12c-3.314,0-6,2.686-6,6c-3.314,0-6,2.686-6,6c-3.314,0-6,2.686-6,6c0,0.945,0.225,1.836,0.614,2.632
		C9.064,33.481,8,35.108,8,37c0,2.761,2.239,5,5,5c1.504,0,2.838-0.678,3.754-1.73C17.709,41.901,19.474,43,21.5,43
		c1.005,0,1.944-0.274,2.755-0.745L32,50v8h-6v4h20v-4h-6v-8l8.611-8.611C49.606,42.384,50.981,43,52.5,43
		c1.565,0,2.974-0.657,3.976-1.707C57.219,41.731,58.075,42,59,42c2.761,0,5-2.239,5-5C64,35.108,62.936,33.481,61.386,32.632z
		 M31.401,41.97C31.598,41.989,31.798,42,32,42c1.539,0,2.938-0.584,4-1.537C37.062,41.416,38.461,42,40,42
		c0.202,0,0.402-0.011,0.599-0.03L36,47.053L31.401,41.97z"/>
</g>
<g id="Layer_1">
</g>
</svg>
