<svg xmlns="http://www.w3.org/2000/svg" viewBox="0 0 72 72">
  <title>park</title>
  <g id="Layer_2" data-name="Layer 2">
    <g id="Icons">
      <g>
        <circle cx="36" cy="36" r="36" style="fill: #fff;opacity: 0"/>
        <path d="M61.39,32.63A6,6,0,0,0,56,24a6,6,0,0,0-6-6,6,6,0,0,0-8.52-5.44,6,6,0,0,0-11,0A6,6,0,0,0,22,18a6,6,0,0,0-6,6,6,6,0,0,0-5.39,8.63,5,5,0,1,0,6.14,7.64,5.48,5.48,0,0,0,7.5,2L31.5,49.5v9H26V63H46V58.5H40.5v-9l8.11-8.11a5.49,5.49,0,0,0,7.86-.1,5,5,0,1,0,4.91-8.66ZM31.4,42c.2,0,.4,0,.6,0a6,6,0,0,0,4-1.54A6,6,0,0,0,40,42c.2,0,.4,0,.6,0L36,47.05Z" style="fill: #0e610e"/>
      </g>
    </g>
  </g>
</svg>
