<?xml version="1.0" encoding="iso-8859-1"?>
<!-- Generator: Adobe Illustrator 20.1.0, SVG Export Plug-In . SVG Version: 6.00 Build 0)  -->
<svg version="1.1" xmlns="http://www.w3.org/2000/svg" xmlns:xlink="http://www.w3.org/1999/xlink" x="0px" y="0px"
	 viewBox="0 0 72 72" style="enable-background:new 0 0 72 72;" xml:space="preserve">
<g id="payphone_x5F_Pin">
	<circle style="opacity:0;fill:#FFFFFF;" cx="36" cy="36" r="36"/>
	<path style="fill:#15788C;" d="M20.914,12.558c1.405-0.739,4.693-0.673,6.7-0.213c2.235,0.512,2.864,4.762,3.014,7.034
		c0.24,3.617,0.6,6.642-0.906,7.746c-1.043,0.764-1.958,1.348-2.856,1.767c-1.449,0.676-2.291,1.66-1.515,3.412
		c2.279,5.146,5.817,10.232,8.774,13.379c1.598,1.7,3.781,2.513,5.618,0.862c1.041-0.936,1.505-1.962,3.358-2.124
		c1.709-0.15,4.295,1.082,6.525,2.233c2.305,1.189,5.375,2.659,5.373,5.067c-0.001,1.53-0.552,2.901-1.545,4.379
		c-0.999,1.487-1.578,2.824-3.877,2.891c-4.393,0.127-9.915-0.978-16.071-4.907c-8.358-5.333-14.543-16.06-15.591-21.541
		C15.502,19.918,18.336,13.874,20.914,12.558z"/>
</g>
<g id="Layer_1">
</g>
</svg>
