<svg xmlns="http://www.w3.org/2000/svg" viewBox="0 0 72 72">
  <title>payphone</title>
  <g id="Layer_2" data-name="Layer 2">
    <g id="Icons">
      <g>
        <circle cx="36" cy="36" r="36" style="fill: #fff;opacity: 0"/>
        <path d="M19,12.57c1.44-.76,4.82-.69,6.88-.22,2.29.52,2.94,4.86,3.09,7.18.25,3.69.62,6.78-.93,7.91a17.71,17.71,0,0,1-2.93,1.8c-1.49.69-2.35,1.69-1.55,3.48a52.49,52.49,0,0,0,9,13.66c1.64,1.74,3.88,2.57,5.77.88,1.07-1,1.54-2,3.45-2.17s4.41,1.11,6.7,2.28S54,50.11,54,52.57A7.85,7.85,0,0,1,52.41,57c-1,1.52-1.62,2.88-4,3-4.51.13-10.18-1-16.49-5-8.58-5.45-14.93-16.4-16-22C13.46,20.09,16.37,13.91,19,12.57Z" style="fill: #0081a1"/>
      </g>
    </g>
  </g>
</svg>
