<svg xmlns="http://www.w3.org/2000/svg" viewBox="0 0 108 108">
  <title>Penguin</title>
  <g id="Layer_2" data-name="Layer 2">
    <g id="Icons">
      <g>
        <circle cx="54" cy="54" r="54" style="fill: #fff;opacity: 0"/>
        <path d="M57,99v-.11C56,99,55,99,54,99Z" style="fill: #cc14a6"/>
        <g>
          <circle cx="54" cy="54" r="54" style="fill: #fff;opacity: 0"/>
          <g>
            <path d="M24.05,21.43c0-.83,12.7-3.94,12.7-3.94S42.09,9.69,50,9.69s14.3,5.87,18.15,13,3.41,15.58,3.31,18.46.85,30.42,1.7,35.43S77.2,87.93,78.8,89.53s2.56,1.92,2.13,2.56-3.84-.86-5.23-1.39-5-2.08-8.18-3.74l-.78-.42c-3.31-1.82-22.2-15.8-23-28.07S48.92,35.63,49,31c.06-2.44-2.6-4-5.94-4.68-2.94-.6-6.21-1.32-8.57-1.84C34.51,24.52,24.05,21.88,24.05,21.43Z" style="fill: #ea5b0c;stroke: #fff;stroke-miterlimit: 10;stroke-width: 1.5px"/>
            <path d="M32.85,58c0,11.83,9.16,22.32,16.08,29.25-3.31,2.07-8.81,3.2-8.71,5.42,0,.48,1.1,1,2.84,1,6.34,0,21,0,23,0,.88,0,1.44-2.49,1.44-2.49V87h0l-.78-.42c-3.31-1.82-22.2-15.8-23-28.07S48.92,35.63,49,31c.06-2.44-4.71-4.24-5.94-4.68C37.7,36.77,32.85,46.16,32.85,58Z" style="fill: #ea5b0c;stroke: #fff;stroke-miterlimit: 10;stroke-width: 1.5px"/>
            <circle cx="45.63" cy="18.31" r="2.25" style="fill: #fff"/>
          </g>
        </g>
      </g>
    </g>
  </g>
</svg>
