<svg xmlns="http://www.w3.org/2000/svg" viewBox="0 0 72 72">
  <title>petrol_station</title>
  <g id="Layer_2" data-name="Layer 2">
    <g id="Icons">
      <g>
        <circle cx="36" cy="36" r="36" style="fill: #fff;opacity: 0"/>
        <path d="M57,54,54,33V27.5L57,24V15L42,6,39,9l6,4.36V18a6,6,0,0,0,6,6v9l3,21c.17,1.17-.42,3-3,3s-3-1.6-3-3V34.5A4.67,4.67,0,0,0,43.5,30H39V15a3,3,0,0,0-3-3H21a3,3,0,0,0-3,3V57a3,3,0,0,0,3,3H36a3,3,0,0,0,3-3V33h3a3,3,0,0,1,3,3V54c0,2.13.37,6,6,6C57.94,60,57,54,57,54ZM51,22.5A4.5,4.5,0,0,1,46.5,18V14.45l.76.55L51,18ZM36,27H21V18H36Z" style="fill: #e61066"/>
      </g>
    </g>
  </g>
</svg>
