<?xml version="1.0" encoding="iso-8859-1"?>
<!-- Generator: Adobe Illustrator 20.1.0, SVG Export Plug-In . SVG Version: 6.00 Build 0)  -->
<svg version="1.1" xmlns="http://www.w3.org/2000/svg" xmlns:xlink="http://www.w3.org/1999/xlink" x="0px" y="0px"
	 viewBox="0 0 72 72" style="enable-background:new 0 0 72 72;" xml:space="preserve">
<g id="Pharmacy_x5F_Pin">
	<circle style="opacity:0;fill:#FFFFFF;" cx="36" cy="36" r="36"/>
	<path style="fill:none;" d="M35.936,10.9c-3.231,0-5.85,2.619-5.85,5.85h11.7C41.786,13.519,39.167,10.9,35.936,10.9z"/>
	<path style="fill:#1B1BB3;" d="M52.25,16.75h-6.564c0-5.363-4.388-9.75-9.75-9.75s-9.75,4.387-9.75,9.75H19.75L16.5,59h39
		L52.25,16.75z M35.936,10.9c3.231,0,5.85,2.619,5.85,5.85h-11.7C30.086,13.519,32.705,10.9,35.936,10.9z M45.75,42.75h-6.5v6.5
		h-6.5v-6.5h-6.5v-6.5h6.5v-6.5h6.5v6.5h6.5V42.75z"/>
</g>
<g id="Layer_1">
</g>
</svg>
