<svg xmlns="http://www.w3.org/2000/svg" viewBox="0 0 72 72">
  <title>picasa</title>
  <g id="Layer_2" data-name="Layer 2">
    <g id="Icons">
      <g>
        <circle cx="36" cy="36" r="36" style="fill: #fff;opacity: 0"/>
        <path d="M36,6A30,30,0,1,0,66,36,30,30,0,0,0,36,6Zm-.07,10.9a18.84,18.84,0,0,1,7.85,1.71V31.33L29.28,18.14A18.83,18.83,0,0,1,35.93,16.9ZM16.9,36A19,19,0,0,1,27.25,19l7.2,6.55L17.59,40.92A19,19,0,0,1,16.9,36Zm9.23,16.29A19.13,19.13,0,0,1,18.27,43l7.86-7.16ZM37.66,55H34.17a18.91,18.91,0,0,1-6-1.6v-9.1H53A19.11,19.11,0,0,1,37.66,55ZM53.88,42.25h-8.1V19.7a19,19,0,0,1,8.1,22.55Z" style="fill: #bf39b6"/>
      </g>
    </g>
  </g>
</svg>
