<?xml version="1.0" encoding="iso-8859-1"?>
<!-- Generator: Adobe Illustrator 20.1.0, SVG Export Plug-In . SVG Version: 6.00 Build 0)  -->
<svg version="1.1" xmlns="http://www.w3.org/2000/svg" xmlns:xlink="http://www.w3.org/1999/xlink" x="0px" y="0px"
	 viewBox="0 0 72 72" style="enable-background:new 0 0 72 72;" xml:space="preserve">
<g id="picasa_x5F_pin">
	<circle style="fill:#FFFFFF;" cx="36" cy="36" r="36"/>
	<circle style="fill:#C685C1;" cx="35.928" cy="35.927" r="30.449"/>
	<g>
		<path style="fill:#FFFFFF;" d="M29.281,18.143c0.505,0.457,13.844,12.591,14.494,13.182c0-0.877,0-12.447,0-12.718
			c-2.485-1.13-5.123-1.711-7.848-1.711C33.657,16.897,31.428,17.336,29.281,18.143z"/>
		<path style="fill:#FFFFFF;" d="M26.131,52.257c0-0.745,0-15.519,0-16.398c-0.636,0.579-7.645,6.96-7.864,7.161
			C19.794,46.854,22.576,50.102,26.131,52.257z"/>
		<path style="fill:#FFFFFF;" d="M34.457,25.563c-0.321-0.291-6.984-6.351-7.203-6.55c-6.388,3.285-10.357,9.765-10.357,16.959
			c0,1.634,0.245,3.3,0.693,4.953C18.102,40.453,34.127,25.865,34.457,25.563z"/>
		<path style="fill:#FFFFFF;" d="M28.131,53.357c1.933,0.871,3.96,1.408,6.041,1.602h3.49c6.575-0.613,12.443-4.675,15.361-10.702
			c-0.688,0-24.484,0-24.892,0C28.131,44.654,28.131,53.084,28.131,53.357z"/>
		<path style="fill:#FFFFFF;" d="M54.958,35.971c0-6.63-3.516-12.817-9.178-16.268c0,0.755,0,22.141,0,22.545
			c0.39,0,7.797,0,8.099,0C54.586,40.214,54.958,38.104,54.958,35.971z"/>
	</g>
	<circle style="fill:#C685C1;" cx="35.928" cy="35.927" r="30.449"/>
	<g>
		<path style="fill:#FFFFFF;" d="M29.281,18.143c0.505,0.457,13.844,12.591,14.494,13.182c0-0.877,0-12.447,0-12.718
			c-2.485-1.13-5.123-1.711-7.848-1.711C33.657,16.897,31.428,17.336,29.281,18.143z"/>
		<path style="fill:#FFFFFF;" d="M26.131,52.257c0-0.745,0-15.519,0-16.398c-0.636,0.579-7.645,6.96-7.864,7.161
			C19.794,46.854,22.576,50.102,26.131,52.257z"/>
		<path style="fill:#FFFFFF;" d="M34.457,25.563c-0.321-0.291-6.984-6.351-7.203-6.55c-6.388,3.285-10.357,9.765-10.357,16.959
			c0,1.634,0.245,3.3,0.693,4.953C18.102,40.453,34.127,25.865,34.457,25.563z"/>
		<path style="fill:#FFFFFF;" d="M28.131,53.357c1.933,0.871,3.96,1.408,6.041,1.602h3.49c6.575-0.613,12.443-4.675,15.361-10.702
			c-0.688,0-24.484,0-24.892,0C28.131,44.654,28.131,53.084,28.131,53.357z"/>
		<path style="fill:#FFFFFF;" d="M54.958,35.971c0-6.63-3.516-12.817-9.178-16.268c0,0.755,0,22.141,0,22.545
			c0.39,0,7.797,0,8.099,0C54.586,40.214,54.958,38.104,54.958,35.971z"/>
	</g>
	<circle style="fill:#BF39B6;" cx="35.928" cy="35.927" r="30.449"/>
	<g>
		<path style="fill:#FFFFFF;" d="M29.281,18.143c0.505,0.457,13.844,12.591,14.494,13.182c0-0.877,0-12.447,0-12.718
			c-2.485-1.13-5.123-1.711-7.848-1.711C33.657,16.897,31.428,17.336,29.281,18.143z"/>
		<path style="fill:#FFFFFF;" d="M26.131,52.257c0-0.745,0-15.519,0-16.398c-0.636,0.579-7.645,6.96-7.864,7.161
			C19.794,46.854,22.576,50.102,26.131,52.257z"/>
		<path style="fill:#FFFFFF;" d="M34.457,25.563c-0.321-0.291-6.984-6.351-7.203-6.55c-6.388,3.285-10.357,9.765-10.357,16.959
			c0,1.634,0.245,3.3,0.693,4.953C18.102,40.453,34.127,25.865,34.457,25.563z"/>
		<path style="fill:#FFFFFF;" d="M28.131,53.357c1.933,0.871,3.96,1.408,6.041,1.602h3.49c6.575-0.613,12.443-4.675,15.361-10.702
			c-0.688,0-24.484,0-24.892,0C28.131,44.654,28.131,53.084,28.131,53.357z"/>
		<path style="fill:#FFFFFF;" d="M54.958,35.971c0-6.63-3.516-12.817-9.178-16.268c0,0.755,0,22.141,0,22.545
			c0.39,0,7.797,0,8.099,0C54.586,40.214,54.958,38.104,54.958,35.971z"/>
	</g>
</g>
<g id="Layer_1">
</g>
</svg>
