<?xml version="1.0" encoding="iso-8859-1"?>
<!-- Generator: Adobe Illustrator 20.1.0, SVG Export Plug-In . SVG Version: 6.00 Build 0)  -->
<svg version="1.1" xmlns="http://www.w3.org/2000/svg" xmlns:xlink="http://www.w3.org/1999/xlink" x="0px" y="0px"
	 viewBox="0 0 72 72" style="enable-background:new 0 0 72 72;" xml:space="preserve">
<g id="PIN_x5F_Pin">
	<rect style="opacity:0;fill:#FFFFFF;" width="72" height="72"/>
	<path style="fill:#0D8549;" d="M54,24c0-9.941-8.059-18-18-18s-18,8.059-18,18c0,2.572,0.549,5.014,1.521,7.227l-0.01,0
		l0.407,0.824c0.098,0.195,0.186,0.396,0.29,0.587L36.2,65l16.163-33.5l-0.015,0C53.398,29.214,54,26.68,54,24z M36,39
		c-8.284,0-15-6.716-15-15c0-8.284,6.716-15,15-15s15,6.716,15,15C51,32.284,44.284,39,36,39z"/>
	<circle style="fill:#0E8C4D;" cx="36" cy="24" r="6"/>
</g>
<g id="Layer_1">
</g>
</svg>
