<?xml version="1.0" encoding="iso-8859-1"?>
<!-- Generator: Adobe Illustrator 20.1.0, SVG Export Plug-In . SVG Version: 6.00 Build 0)  -->
<svg version="1.1" xmlns="http://www.w3.org/2000/svg" xmlns:xlink="http://www.w3.org/1999/xlink" x="0px" y="0px"
	 viewBox="0 0 72 72" style="enable-background:new 0 0 72 72;" xml:space="preserve">
<g id="Pizza_x5F_Pin">
	<circle style="opacity:0;fill:#FFFFFF;" cx="36" cy="36" r="36"/>
	<path style="fill:#99581F;" d="M64,38.049C54,20,40,11,20,11v7c18,0,30.019,8.123,38,23.333L64,38V38.049z"/>
	<path style="fill:#99581F;" d="M55,42.84c-0.005-0.01-0.012-0.02-0.017-0.03l0,0L55,42.84z"/>
	<path style="fill:#99581F;" d="M55,43c-6.983-12.809-19-22-35-22v41L55,43z M28,38c-2.209,0-4-1.791-4-4s1.791-4,4-4s4,1.791,4,4
		S30.209,38,28,38z M42,44c-2.209,0-4-1.791-4-4s1.791-4,4-4s4,1.791,4,4S44.209,44,42,44z M30,52c-2.209,0-4-1.791-4-4s1.791-4,4-4
		s4,1.791,4,4S32.209,52,30,52z"/>
</g>
<g id="Layer_1">
</g>
</svg>
