<svg xmlns="http://www.w3.org/2000/svg" viewBox="0 0 72 72">
  <title>place_of_worship</title>
  <g id="Layer_2" data-name="Layer 2">
    <g id="Icons">
      <g>
        <circle cx="36" cy="36" r="36" style="fill: #fff;opacity: 0"/>
        <circle cx="38" cy="15" r="6" style="fill: #0081a1"/>
        <path d="M26,29,22,39s-2,4,2,6,10,6,10,6H20a2,2,0,0,0-2,2v2a2,2,0,0,0,2,2H42s4,0,4-4c0-2-2-4-2-4L32,41l8-12,12-2,2-10V13a2,2,0,0,0-4,0v2l-3,8H34A8.75,8.75,0,0,0,26,29Z" style="fill: #0081a1"/>
      </g>
    </g>
  </g>
</svg>
