<?xml version="1.0" encoding="iso-8859-1"?>
<!-- Generator: Adobe Illustrator 20.1.0, SVG Export Plug-In . SVG Version: 6.00 Build 0)  -->
<svg version="1.1" xmlns="http://www.w3.org/2000/svg" xmlns:xlink="http://www.w3.org/1999/xlink" x="0px" y="0px"
	 viewBox="0 0 72 72" style="enable-background:new 0 0 72 72;" xml:space="preserve">
<g id="Playing_x5F_Field_x5F_Pin">
	<circle style="opacity:0;fill:#FFFFFF;" cx="36" cy="36" r="36"/>
	<path style="fill:#0E8A0E;" d="M26.438,36c0-4.737,3.448-8.659,7.969-9.419v-9.706H10.5v6.375h12.75v25.5H10.5v6.375h23.906v-9.706
		C29.885,44.659,26.438,40.737,26.438,36z"/>
	<path style="fill:#0E8A0E;" d="M37.594,16.875v9.706c4.521,0.76,7.969,4.682,7.969,9.419c0,4.737-3.448,8.659-7.969,9.419v9.706
		H61.5V48.75H48.75v-25.5H61.5v-6.375H37.594z"/>
	<rect x="10.5" y="26.438" style="fill:#0E8A0E;" width="9.563" height="19.125"/>
	<rect x="51.938" y="26.438" style="fill:#0E8A0E;" width="9.563" height="19.125"/>
	<path style="fill:#0E8A0E;" d="M29.625,36c0,2.969,2.033,5.457,4.781,6.166V29.834C31.658,30.543,29.625,33.031,29.625,36z"/>
	<path style="fill:#0E8A0E;" d="M42.375,36c0-2.969-2.033-5.457-4.781-6.166v12.332C40.342,41.457,42.375,38.969,42.375,36z"/>
</g>
<g id="Layer_1">
</g>
</svg>
