<?xml version="1.0" encoding="iso-8859-1"?>
<!-- Generator: Adobe Illustrator 20.1.0, SVG Export Plug-In . SVG Version: 6.00 Build 0)  -->
<svg version="1.1" xmlns="http://www.w3.org/2000/svg" xmlns:xlink="http://www.w3.org/1999/xlink" x="0px" y="0px"
	 viewBox="0 0 72 72" style="enable-background:new 0 0 72 72;" xml:space="preserve">
<g id="Police_x5F_Pin">
	<circle style="opacity:0;fill:#FFFFFF;" cx="36" cy="36" r="36"/>
	<line style="fill:#404040;" x1="59.733" y1="45.096" x2="13.73" y2="45.096"/>
	<path style="fill:#404040;" d="M54,15L36,9l-18,6l-9,9l3,9h6v6h6v-6h6v6h6v-6h6v6h6v-6h6v6h6v-6l3-9L54,15z M41.523,29.483
		L36,26.58l-5.523,2.903l1.055-6.15l-4.468-4.355l6.174-0.897L36,12.486l2.761,5.595l6.174,0.897l-4.468,4.355L41.523,29.483z"/>
	<path style="fill:#404040;" d="M54,45v-6h-6v6h-6v-6h-6v6h-6v-6h-6v6h-6v-6h-6v6c0,8.471,10.744,15,24,15s24-6.529,24-15H54z"/>
</g>
<g id="Layer_1">
</g>
</svg>
