<?xml version="1.0" encoding="iso-8859-1"?>
<!-- Generator: Adobe Illustrator 20.1.0, SVG Export Plug-In . SVG Version: 6.00 Build 0)  -->
<svg version="1.1" xmlns="http://www.w3.org/2000/svg" xmlns:xlink="http://www.w3.org/1999/xlink" x="0px" y="0px"
	 viewBox="0 0 72 72" style="enable-background:new 0 0 72 72;" xml:space="preserve">
<g id="Post_x5F_Office_x5F_Post_x5F_Box_x5F_Pin">
	<circle style="opacity:0;fill:#FFFFFF;" cx="36" cy="36" r="36"/>
	<path style="fill:#15788C;" d="M9,19v34h54V19H9z M60,26l-2-2v3l2,2v3l-2-2v3l2,2v3l-2-2v3l2,2v3l-2-2v3l2,2v1v2h-2l2-2h-3l-2,2h-3
		l2-2h-3l-2,2h-3l2-2h-3l-2,2h-3l2-2h-3l-2,2h-3l2-2h-3l-2,2h-3l2-2h-3l-2,2h-3l2-2h-3l-2,2h-3l2-2h-3l-2,2h-1v-4l2,2v-3l-2-2v-3
		l2,2v-3l-2-2v-3l2,2v-3l-2-2v-3l2,2v-3l-2-2v-1v-2h2l-2,2h3l2-2h3l-2,2h3l2-2h3l-2,2h3l2-2h3l-2,2h3l2-2h3l-2,2h3l2-2h3l-2,2h3l2-2
		h3l-2,2h3l2-2h3l-2,2h3l2-2h1V26z"/>
	<rect x="50" y="26" style="fill:#15788C;" width="6" height="10"/>
	<rect x="18" y="30" style="fill:#15788C;" width="24" height="3"/>
	<rect x="18" y="36" style="fill:#15788C;" width="24" height="3"/>
</g>
<g id="Layer_1">
</g>
</svg>
