<svg xmlns="http://www.w3.org/2000/svg" viewBox="0 0 72 72">
  <title>printer</title>
  <g id="Layer_2" data-name="Layer 2">
    <g id="Icons">
      <g>
        <rect width="72" height="72" style="fill: #fff;opacity: 0"/>
        <g>
          <rect x="27" y="45" width="18" height="3" style="fill: #569ad5"/>
          <rect x="27" y="51" width="18" height="3" style="fill: #569ad5"/>
          <path d="M60,27H51V15H30l-9,9v3H12V51h9v9H51V51h9ZM48,18v9H24V24h6V18ZM19.5,45a1.5,1.5,0,0,1,0-3H21v3ZM48,57H24V42H48V57Zm4.5-12H51V42h1.5a1.5,1.5,0,0,1,0,3ZM54,36a3,3,0,1,1,3-3A3,3,0,0,1,54,36Z" style="fill: #569ad5"/>
        </g>
      </g>
    </g>
  </g>
</svg>
