<?xml version="1.0" encoding="iso-8859-1"?>
<!-- Generator: Adobe Illustrator 20.1.0, SVG Export Plug-In . SVG Version: 6.00 Build 0)  -->
<svg version="1.1" xmlns="http://www.w3.org/2000/svg" xmlns:xlink="http://www.w3.org/1999/xlink" x="0px" y="0px"
	 viewBox="0 0 72 72" style="enable-background:new 0 0 72 72;" xml:space="preserve">
<g id="Race_x5F_Track_x5F_Pin">
	<circle style="opacity:0;fill:#FFFFFF;" cx="36" cy="36" r="36"/>
	<path style="fill:#0E8A0E;" d="M63.169,37.742c-0.754-2.816-3.315-4.892-6.369-4.892c-1.902,0-3.611,0.809-4.815,2.096L43.6,32.85
		H40c0-2.85-2-4.4-4.65-4.4c-0.582,0-0.831,0.106-1.35,0.269V26c-1.309,0.07-7,0-7,0l-11,5v-4L5,23v13h3
		c-0.563,0.972-0.7,2.246-0.7,3.45c0,3.645,2.955,6.6,6.6,6.6c2.442,0,4.568-1.329,5.71-3.3h31.48c1.142,1.971,3.268,3.3,5.71,3.3
		c2.441,0,4.568-1.329,5.71-3.3H68v-3.3L63.169,37.742z M10.6,39.45c0-1.078,0.525-2.026,1.324-2.628
		c0.552-0.416,1.232-0.672,1.976-0.672c1.823,0,3.3,1.477,3.3,3.3c0,1.823-1.477,3.3-3.3,3.3C12.077,42.75,10.6,41.273,10.6,39.45z
		 M53.5,39.45c0-1.823,1.477-3.3,3.3-3.3h0c0.541,0,1.045,0.143,1.496,0.374c1.067,0.547,1.804,1.645,1.804,2.926
		c0,1.823-1.477,3.3-3.3,3.3S53.5,41.273,53.5,39.45z"/>
</g>
<g id="Layer_1">
</g>
</svg>
