<svg xmlns="http://www.w3.org/2000/svg" viewBox="0 0 72 72">
  <title>race_track</title>
  <g id="Layer_2" data-name="Layer 2">
    <g id="Icons">
      <g>
        <circle cx="36" cy="36" r="36" style="fill: #fff;opacity: 0"/>
        <path d="M63.3,37.1A7.08,7.08,0,0,0,51.06,33L42,30l-1.24-1.24A6,6,0,0,0,36.51,27H33V24H27.74a4.54,4.54,0,0,0-1.43.23L18,27V24l-6-3H6v9a3,3,0,0,0,3,3h1.53a7.47,7.47,0,1,0,11.93,9h28A7.09,7.09,0,0,0,62,42h7V39ZM16.5,42A4.5,4.5,0,1,1,21,37.5,4.5,4.5,0,0,1,16.5,42Zm39.75-.37A3.75,3.75,0,1,1,60,37.88,3.75,3.75,0,0,1,56.25,41.63Z" style="fill: #068037"/>
      </g>
    </g>
  </g>
</svg>
