<?xml version="1.0" encoding="iso-8859-1"?>
<!-- Generator: Adobe Illustrator 20.1.0, SVG Export Plug-In . SVG Version: 6.00 Build 0)  -->
<svg version="1.1" xmlns="http://www.w3.org/2000/svg" xmlns:xlink="http://www.w3.org/1999/xlink" x="0px" y="0px"
	 viewBox="0 0 72 72" style="enable-background:new 0 0 72 72;" xml:space="preserve">
<g id="Religion_x5F_Place_x5F_of_x5F_Worship_x5F_Pin">
	<circle style="opacity:0;fill:#FFFFFF;" cx="36" cy="36" r="36"/>
	<circle style="fill:#15788C;" cx="36" cy="16" r="6"/>
	<path style="fill:#15788C;" d="M24,30l-4,10c0,0-2,4,2,6s10,6,10,6H18c0,0-2,0-2,2s0,2,0,2s0,2,2,2s22,0,22,0s4,0,4-4c0-2-2-4-2-4
		l-12-8l8-12l12-2l2-10v-4c0,0,0-2-2-2s-2,2-2,2v2l-3,8h-9h-4C32,24,26,24,24,30z"/>
</g>
<g id="Layer_1">
</g>
</svg>
