<svg xmlns="http://www.w3.org/2000/svg" viewBox="0 0 72 72">
  <title>remote_control</title>
  <g id="Layer_2" data-name="Layer 2">
    <g id="Icons">
      <g>
        <circle cx="36" cy="36" r="36" style="fill: #fff;opacity: 0"/>
        <path d="M36,6a23.93,23.93,0,0,0-17,7l2.91,2.91a20.91,20.91,0,0,1,28.13,0L53,13A23.93,23.93,0,0,0,36,6Z" style="fill: #668000"/>
        <path d="M36,15a16.42,16.42,0,0,0-10.88,4.12l3,3a13.32,13.32,0,0,1,15.8,0l3-3A16.42,16.42,0,0,0,36,15Z" style="fill: #668000"/>
        <path d="M45,27H27a3,3,0,0,0-3,3V63a3,3,0,0,0,3,3H45a3,3,0,0,0,3-3V30A3,3,0,0,0,45,27ZM28.5,31.5H33V36H28.5Zm0,9H33V45H28.5Zm0,9H33V54H28.5ZM36,63a3,3,0,1,1,3-3A3,3,0,0,1,36,63Zm7.5-9H39V49.5h4.5Zm0-9H39V40.5h4.5Zm0-9H39V31.5h4.5Z" style="fill: #668000"/>
      </g>
    </g>
  </g>
</svg>
