<?xml version="1.0" encoding="iso-8859-1"?>
<!-- Generator: Adobe Illustrator 20.1.0, SVG Export Plug-In . SVG Version: 6.00 Build 0)  -->
<svg version="1.1" xmlns="http://www.w3.org/2000/svg" xmlns:xlink="http://www.w3.org/1999/xlink" x="0px" y="0px"
	 viewBox="0 0 72 72" style="enable-background:new 0 0 72 72;" xml:space="preserve">
<g id="River_x5F_pin">
	<circle style="opacity:0;fill:#FFFFFF;" cx="36" cy="36" r="36"/>
	<path style="fill:#0E610E;" d="M16,32h34l2-4l-16-8l-8,4l-10-8l-9.793,8.705C7.27,27.008,6.613,29.453,6.273,32H16z"/>
	<path style="fill:#1C77D4;" d="M36,66c11.194,0,20.949-6.135,26.105-15.223C53.711,50.581,45.068,49.227,42,48c-10-4,0-6,0-10
		s-26-6-26-6H6.273c-0.021,0.16-0.042,0.319-0.061,0.479C23.13,36.151,27.427,37.287,22,40c-3.768,1.884-9.309,3.77-13.283,8.473
		C13.452,58.813,23.884,66,36,66z"/>
	<path style="fill:#0E610E;" d="M64,32l-4.025-8H62l-4-8l-4,8h2l-4,8h2l-4,8h6v6h3.975v-6h5.751
		c0.019-0.144,0.038-0.289,0.055-0.434L61.975,32H64z"/>
</g>
<g id="Layer_1">
</g>
</svg>
