<?xml version="1.0" encoding="iso-8859-1"?>
<!-- Generator: Adobe Illustrator 20.1.0, SVG Export Plug-In . SVG Version: 6.00 Build 0)  -->
<svg version="1.1" xmlns="http://www.w3.org/2000/svg" xmlns:xlink="http://www.w3.org/1999/xlink" x="0px" y="0px"
	 viewBox="0 0 72 72" style="enable-background:new 0 0 72 72;" xml:space="preserve">
<g id="S_x5F_Indoor_x5F_MeetingRoomUnavailable">
	<rect style="opacity:0;fill:#FFFFFF;" width="72" height="72"/>
	<path style="fill:#D1021A;" d="M51.599,24H48v-6.005C48,10.745,43.5,6,36,6c-7.958,0-11.995,4.912-11.995,11.995L24.002,24h-3.602
		c-2.973,0-5.391,3.027-5.391,6v24.594c0,2.973,2.419,5.391,5.391,5.391H51.5c3.688,0,5.49-2.428,5.49-5.391V30
		C56.99,27.027,54.572,24,51.599,24z M40.5,51h-9l1.377-6.884C31.154,43.062,30,41.168,30,39c0-3.314,2.686-6,6-6s6,2.686,6,6
		c0,2.168-1.154,4.062-2.877,5.116L40.5,51z M42,24H29.995v-6.005c0-4.5,2.047-6.005,6.005-6.005c3.417,0,6.083,2.213,6,6.005V24z"
		/>
</g>
<g id="Layer_1">
</g>
</svg>
