<?xml version="1.0" encoding="iso-8859-1"?>
<!-- Generator: Adobe Illustrator 20.1.0, SVG Export Plug-In . SVG Version: 6.00 Build 0)  -->
<svg version="1.1" xmlns="http://www.w3.org/2000/svg" xmlns:xlink="http://www.w3.org/1999/xlink" x="0px" y="0px"
	 viewBox="0 0 72 72" style="enable-background:new 0 0 72 72;" xml:space="preserve">
<g id="S_x5F_Indoor_x5F_Offices">
	<path style="fill:#555569;" d="M57,57V30H39V9H15v45h-1.5v3H15h9v-6h6v6h1.5v3H33h9v-6h6v6h9h1.5v-3H57z M16.5,15h21v6h-21V15z
		 M16.5,24h21v6H33H16.5V24z M16.5,33H33v6H16.5V33z M16.5,48v-6H33v6H16.5z M55.5,51h-21v-3v-3h21V51z M55.5,42h-21v-3v-3h21V42z"
		/>
	<rect style="opacity:0;fill:#FFFFFF;" width="72" height="72"/>
</g>
<g id="Layer_1">
</g>
</svg>
