<?xml version="1.0" encoding="iso-8859-1"?>
<!-- Generator: Adobe Illustrator 20.1.0, SVG Export Plug-In . SVG Version: 6.00 Build 0)  -->
<svg version="1.1" xmlns="http://www.w3.org/2000/svg" xmlns:xlink="http://www.w3.org/1999/xlink" x="0px" y="0px"
	 viewBox="0 0 72 72" style="enable-background:new 0 0 72 72;" xml:space="preserve">
<g id="S_x5F_Indoor_x5F_WorkingGroup">
	<rect style="opacity:0;fill:#FFFFFF;" width="72" height="72"/>
	<g>
		<path style="fill:#008A00;" d="M13.5,34C9.358,34,6,36.19,6,38.637v7.07c0,1.398,3.358,2.318,7.5,2.318s7.5-0.773,7.5-2.318v-7.07
			C21,36.404,17.642,34,13.5,34z"/>
		<circle style="fill:#008A00;" cx="13.5" cy="25.5" r="6"/>
		<path style="fill:#008A00;" d="M36,22.75c3.316,0,6.004-0.58,6.004-1.739v-3.327c0-1.674-2.688-3.478-6.004-3.478
			s-6.004,1.642-6.004,3.478v3.327C29.996,22.06,32.684,22.75,36,22.75z"/>
		<circle style="fill:#008A00;" cx="36" cy="7.5" r="4.5"/>
		<path style="fill:#008A00;" d="M36,47c-4.97,0-9,2.737-9,5.796v11.145c0,1.748,4.03,2.898,9,2.898s9-0.966,9-2.898V52.796
			C45,50.005,40.97,47,36,47z"/>
		<circle style="fill:#008A00;" cx="36" cy="37.5" r="7.5"/>
		<path style="fill:#008A00;" d="M58.5,33.992c-4.142,0-7.5,2.19-7.5,4.637v7.07c0,1.398,3.358,2.318,7.5,2.318s7.5-0.773,7.5-2.318
			v-7.07C66,36.397,62.642,33.992,58.5,33.992z"/>
		<circle style="fill:#008A00;" cx="58.5" cy="25.5" r="6"/>
	</g>
</g>
<g id="Layer_1">
</g>
</svg>
