<?xml version="1.0" encoding="iso-8859-1"?>
<!-- Generator: Adobe Illustrator 20.1.0, SVG Export Plug-In . SVG Version: 6.00 Build 0)  -->
<svg version="1.1" xmlns="http://www.w3.org/2000/svg" xmlns:xlink="http://www.w3.org/1999/xlink" x="0px" y="0px"
	 viewBox="0 0 72 72" style="enable-background:new 0 0 72 72;" xml:space="preserve">
<g id="S_x5F_Indoor_x5F_MeetingRoomGeneric">
	<rect style="opacity:0;fill:#FFFFFF;" width="72" height="72"/>
	<linearGradient id="SVGID_1_" gradientUnits="userSpaceOnUse" x1="36" y1="15.0917" x2="36" y2="46.3235">
		<stop  offset="0" style="stop-color:#5B02FF"/>
		<stop  offset="1" style="stop-color:#4A02D1"/>
	</linearGradient>
	<circle style="fill:url(#SVGID_1_);" cx="36" cy="21" r="6"/>
	<linearGradient id="SVGID_2_" gradientUnits="userSpaceOnUse" x1="13.4725" y1="15.0917" x2="13.4725" y2="46.3235">
		<stop  offset="0" style="stop-color:#5B02FF"/>
		<stop  offset="1" style="stop-color:#4A02D1"/>
	</linearGradient>
	<circle style="fill:url(#SVGID_2_);" cx="13.473" cy="21" r="6"/>
	<linearGradient id="SVGID_3_" gradientUnits="userSpaceOnUse" x1="13.5" y1="15.2875" x2="13.5" y2="50.9951">
		<stop  offset="0" style="stop-color:#5B02FF"/>
		<stop  offset="1" style="stop-color:#4A02D1"/>
	</linearGradient>
	<path style="fill:url(#SVGID_3_);" d="M15.115,51.136L21,38.693v-3.937c0-2.378-3.358-4.939-7.5-4.939S6,32.149,6,34.756v13.957
		c0,1.49,3.358,2.47,7.5,2.47C14.056,51.183,14.594,51.165,15.115,51.136z"/>
	
		<linearGradient id="SVGID_4_" gradientUnits="userSpaceOnUse" x1="3034.4727" y1="15.0917" x2="3034.4727" y2="46.3235" gradientTransform="matrix(-1 0 0 1 3093 0)">
		<stop  offset="0" style="stop-color:#5B02FF"/>
		<stop  offset="1" style="stop-color:#4A02D1"/>
	</linearGradient>
	<circle style="fill:url(#SVGID_4_);" cx="58.527" cy="21" r="6"/>
	
		<linearGradient id="SVGID_5_" gradientUnits="userSpaceOnUse" x1="3034.5" y1="15.2875" x2="3034.5" y2="50.9951" gradientTransform="matrix(-1 0 0 1 3093 0)">
		<stop  offset="0" style="stop-color:#5B02FF"/>
		<stop  offset="1" style="stop-color:#4A02D1"/>
	</linearGradient>
	<path style="fill:url(#SVGID_5_);" d="M56.885,51.136L51,38.693v-3.937c0-2.378,3.358-4.939,7.5-4.939s7.5,2.332,7.5,4.939v13.957
		c0,1.49-3.358,2.47-7.5,2.47C57.944,51.183,57.406,51.165,56.885,51.136z"/>
	<linearGradient id="SVGID_6_" gradientUnits="userSpaceOnUse" x1="36" y1="23.7085" x2="36" y2="62.682">
		<stop  offset="0" style="stop-color:#5B02FF"/>
		<stop  offset="1" style="stop-color:#4A02D1"/>
	</linearGradient>
	<polygon style="fill:url(#SVGID_6_);" points="55.5,63 16.5,63 25.554,45 46.446,45 	"/>
	<g>
		<linearGradient id="SVGID_7_" gradientUnits="userSpaceOnUse" x1="31.4758" y1="24.1553" x2="31.4758" y2="38.9223">
			<stop  offset="0" style="stop-color:#5B02FF"/>
			<stop  offset="1" style="stop-color:#4A02D1"/>
		</linearGradient>
		<path style="fill:url(#SVGID_7_);" d="M26.952,35.008V39H36l-2.209-8.836C29.864,30.735,26.952,32.769,26.952,35.008z"/>
		<linearGradient id="SVGID_8_" gradientUnits="userSpaceOnUse" x1="40.5242" y1="24.1781" x2="40.5242" y2="38.9225">
			<stop  offset="0" style="stop-color:#5B02FF"/>
			<stop  offset="1" style="stop-color:#4A02D1"/>
		</linearGradient>
		<path style="fill:url(#SVGID_8_);" d="M38.206,30.178L36,39h9.048v-3.992C45.048,32.965,42.135,30.794,38.206,30.178z"/>
	</g>
</g>
<g id="Layer_1">
</g>
</svg>
