<?xml version="1.0" encoding="iso-8859-1"?>
<!-- Generator: Adobe Illustrator 20.1.0, SVG Export Plug-In . SVG Version: 6.00 Build 0)  -->
<svg version="1.1" xmlns="http://www.w3.org/2000/svg" xmlns:xlink="http://www.w3.org/1999/xlink" x="0px" y="0px"
	 viewBox="0 0 72 72" style="enable-background:new 0 0 72 72;" xml:space="preserve">
<g id="S_x5F_Indoor_x5F_MeetingRoomAvailable">
	<rect style="opacity:0;fill:#FFFFFF;" width="72" height="72"/>
	<path style="fill:#009934;" d="M51,18V9l-8.973,0.068v9l-12-0.068V9h-9.068v9H12v39h48V18H51z M45,12h3v9h-3V12z M24,12h3v9h-3V12z
		 M24,34.5h-9V27h9V34.5z M35,34.5h-9V27h9V34.5z M46,34.5h-9V27h9V34.5z M57,34.5h-9V27h9V34.5z M24,43.5h-9V36h9V43.5z M35,43.5
		h-9V36h9V43.5z M46,43.5h-9V36h9V43.5z M57,43.5h-9V36h9V43.5z M24,52.5h-9V45h9V52.5z M35,52.5h-9V45h9V52.5z M46,52.5h-9V45h9
		V52.5z M57,52.5h-9V45h9V52.5z"/>
</g>
<g id="Layer_1">
</g>
</svg>
