<?xml version="1.0" encoding="iso-8859-1"?>
<!-- Generator: Adobe Illustrator 20.1.0, SVG Export Plug-In . SVG Version: 6.00 Build 0)  -->
<svg version="1.1" xmlns="http://www.w3.org/2000/svg" xmlns:xlink="http://www.w3.org/1999/xlink" x="0px" y="0px"
	 viewBox="0 0 72 72" style="enable-background:new 0 0 72 72;" xml:space="preserve">
<g id="Sailing_x5F_Pin">
	<circle style="opacity:0;fill:#FFFFFF;" cx="36" cy="36" r="36"/>
	<path style="fill:#8C24F2;" d="M58,40c2-16-8-32-8-32L30,40C30,40,57.256,45.954,58,40z"/>
	<path style="fill:#8C24F2;" d="M16.44,51.324C18.508,50.743,20,50,20,50s4-2,8,0s8,2,8,2s4,0,8-2s8,0,8,0s1.806,0.9,4.201,1.492
		C57.129,50.298,58,48.933,58,48L8,38C8.449,40.191,11.918,48.67,16.44,51.324z"/>
	<path style="fill:#8C24F2;" d="M52,54c0,0-0.46-0.226-1.214-0.451c-0.023-0.007-0.044-0.013-0.067-0.02
		c-0.412-0.12-0.906-0.234-1.463-0.313c-0.005-0.001-0.01-0.001-0.015-0.002C47.773,53.006,45.889,53.055,44,54c-4,2-8,2-8,2
		s-4,0-8-2s-8,0-8,0s-3.021,1.509-6.438,1.905c1.043,1.175,2.174,2.272,3.388,3.271C18.75,58.624,20,58,20,58s4-2,8,0s8,2,8,2
		s4,0,8-2s8,0,8,0s1.25,0.624,3.05,1.175c1.214-0.999,2.344-2.095,3.388-3.271C55.021,55.509,52,54,52,54z"/>
	<path style="fill:#8C24F2;" d="M44,62c-4,2-8,2-8,2s-4,0-8-2c-3.07-1.535-6.133-0.715-7.395-0.25C25.106,64.446,30.371,66,36,66
		s10.894-1.554,15.395-4.25C50.133,61.285,47.07,60.465,44,62z"/>
</g>
<g id="Layer_1">
</g>
</svg>
