<svg xmlns="http://www.w3.org/2000/svg" viewBox="0 0 72 72">
  <title>sailing</title>
  <g id="Layer_2" data-name="Layer 2">
    <g id="Icons">
      <g>
        <circle cx="36" cy="36" r="36" style="fill: #fff;opacity: 0"/>
        <path d="M56,39.48C59.9,24,51,9,51,9L30,39S54.59,45.3,56,39.48Z" style="fill: #a714cc"/>
        <path d="M16.44,51.32A22.38,22.38,0,0,0,20,50a9.66,9.66,0,0,1,8,0,19.93,19.93,0,0,0,8,2,19.93,19.93,0,0,0,8-2,9.66,9.66,0,0,1,8,0s2.6.41,5,1a4.26,4.26,0,0,0,1-3L9,39C9.45,41.19,11.92,48.67,16.44,51.32Z" style="fill: #a714cc"/>
        <path d="M52,54a8.54,8.54,0,0,0-1.21-.45l-.07,0a10.71,10.71,0,0,0-1.46-.31h0A8.83,8.83,0,0,0,44,54a19.93,19.93,0,0,1-8,2,19.93,19.93,0,0,1-8-2,9.66,9.66,0,0,0-8,0,22,22,0,0,1-6.44,1.9A30.16,30.16,0,0,0,17,59.18,21.84,21.84,0,0,0,20,58a9.66,9.66,0,0,1,8,0,19.93,19.93,0,0,0,8,2,19.93,19.93,0,0,0,8-2,9.66,9.66,0,0,1,8,0,21.84,21.84,0,0,0,3,1.18,30.16,30.16,0,0,0,3.39-3.27A22,22,0,0,1,52,54Z" style="fill: #a714cc"/>
        <path d="M44,62a19.93,19.93,0,0,1-8,2,19.93,19.93,0,0,1-8-2,9.47,9.47,0,0,0-7.39-.25,30,30,0,0,0,30.79,0A9.47,9.47,0,0,0,44,62Z" style="fill: #a714cc"/>
      </g>
    </g>
  </g>
</svg>
