<svg xmlns="http://www.w3.org/2000/svg" viewBox="0 0 72 72">
  <title>seafood</title>
  <g id="Layer_2" data-name="Layer 2">
    <g id="Icons">
      <g>
        <circle cx="36" cy="36" r="36" style="fill: #fff;opacity: 0"/>
        <path d="M54,30s3-3,3-9S51,9,51,9V22.5l-3-6A17.52,17.52,0,0,0,48,30l-6.09,6.09a47.94,47.94,0,0,0-.64-6.23A2.89,2.89,0,0,0,42,30a3,3,0,0,0,0-6,2.92,2.92,0,0,0-1.5.46L42,7.5a1.5,1.5,0,0,0-3,0l-1.5,14a2.4,2.4,0,0,0-3,0L33,7.5a1.5,1.5,0,0,0-3,0l1.5,17A2.92,2.92,0,0,0,30,24a3,3,0,0,0,0,6,2.89,2.89,0,0,0,.73-.15,47.94,47.94,0,0,0-.64,6.23L24,30a17.52,17.52,0,0,0,0-13.5l-3,6V9s-6,6-6,12,3,9,3,9l12,9.61c0,1.13,0,2.25.1,3.38l-3.55-3.55a1.5,1.5,0,0,0-2.12,2.12l6,6c.14,1.34.32,2.64.53,3.89l-3-3a1.5,1.5,0,0,0-2.12,2.12l5.68,5.68L24,60s5.37,6,12,6,12-6,12-6l-7.51-3.76,5.68-5.68A1.5,1.5,0,0,0,44,48.44l-3,3c.2-1.25.38-2.55.53-3.89l6-6a1.5,1.5,0,0,0-2.12-2.12L41.89,43c.06-1.12.09-2.25.1-3.38Z" style="fill: #00856a"/>
      </g>
    </g>
  </g>
</svg>
