<svg xmlns="http://www.w3.org/2000/svg" viewBox="0 0 72 72">
  <title>security_camera</title>
  <g id="Layer_2" data-name="Layer 2">
    <g id="Icons">
      <g>
        <circle cx="36" cy="36" r="36" style="fill: #fff;opacity: 0"/>
        <g>
          <path d="M18,15a3,3,0,0,0-3,3V30a3,3,0,0,0,3,3H30L18,45V40a1,1,0,0,0-1-1H12V57h5a1,1,0,0,0,1-1V51L36,33H51V24l9-9Zm3,9a3,3,0,1,1,3-3A3,3,0,0,1,21,24Z" style="fill: #378006"/>
          <polygon points="54 31.5 58.5 31.5 58.5 21 54 25.5 54 31.5" style="fill: #378006"/>
        </g>
      </g>
    </g>
  </g>
</svg>
