<?xml version="1.0" encoding="iso-8859-1"?>
<!-- Generator: Adobe Illustrator 20.1.0, SVG Export Plug-In . SVG Version: 6.00 Build 0)  -->
<svg version="1.1" xmlns="http://www.w3.org/2000/svg" xmlns:xlink="http://www.w3.org/1999/xlink" x="0px" y="0px"
	 viewBox="0 0 72 72" style="enable-background:new 0 0 72 72;" xml:space="preserve">
<g id="Shooting_x5F_Pin">
	<circle style="opacity:0;fill:#FFFFFF;" cx="36" cy="36" r="36"/>
	<path style="fill:#8C24F2;" d="M36,16l-6,4l-8-2l-6,6v4h6v12l-2,22c0,0,0,2,2,2s2-2,2-2l2-22h2v22c0,0,0,2,2,2s2-2,2-2V40V28h10
		l8-8v-2h10v-2H36z M40,24l-4.667-1.867L38,20h7.333L40,24z"/>
	<circle style="fill:#8C24F2;" cx="29" cy="11" r="5"/>
</g>
<g id="Layer_1">
</g>
</svg>
