<?xml version="1.0" encoding="iso-8859-1"?>
<!-- Generator: Adobe Illustrator 20.1.0, SVG Export Plug-In . SVG Version: 6.00 Build 0)  -->
<svg version="1.1" xmlns="http://www.w3.org/2000/svg" xmlns:xlink="http://www.w3.org/1999/xlink" x="0px" y="0px"
	 viewBox="0 0 72 72" style="enable-background:new 0 0 72 72;" xml:space="preserve">
<g id="Shopping_x5F_Pin">
	<rect style="opacity:0;fill:#FFFFFF;" width="72" height="72"/>
	<path style="fill:#1B1BB3;" d="M51,21h-7.5c0-4.125-3.375-7.5-7.5-7.5s-7.5,3.375-7.5,7.5H21l-3,36h36L51,21z M36,16.5
		c2.485,0,4.5,2.015,4.5,4.5h-9C31.5,18.515,33.515,16.5,36,16.5z M42.957,28.279C41.847,31.037,39.144,33,36,33
		s-5.847-1.963-6.957-4.721c-0.762-0.36-1.293-1.13-1.293-2.029c0-1.243,1.007-2.25,2.25-2.25s2.25,1.007,2.25,2.25
		c0,0.418-0.122,0.805-0.321,1.141C32.645,28.928,34.193,30,36,30s3.355-1.072,4.071-2.609c-0.199-0.336-0.321-0.723-0.321-1.141
		c0-1.243,1.007-2.25,2.25-2.25s2.25,1.007,2.25,2.25C44.25,27.149,43.719,27.919,42.957,28.279z"/>
</g>
<g id="Layer_1">
</g>
</svg>
