<svg xmlns="http://www.w3.org/2000/svg" viewBox="0 0 72 72">
  <title>skiing</title>
  <g id="Layer_2" data-name="Layer 2">
    <g id="Icons">
      <g>
        <circle cx="36" cy="36" r="36" style="fill: #fff;opacity: 0"/>
        <g>
          <circle cx="46.5" cy="13.5" r="4.5" style="fill: #a714cc"/>
          <polygon points="40 25 45 33 54 36 54 33 48 30 45 21 36 15 21 21 34.5 27 40 25" style="fill: #a714cc"/>
          <path d="M59.36,48.39C58.81,47.56,56,48,56,48L39,43.5,42,36V33L12.44,19.72l1.81-2.47H12l-1.15,1.67L9,18H6l4.09,2.18L9,21.75,9.75,24l1.92-2.92L18,24.67V30l6.92,9L18,36H13.5l10.36,4.83-2.67,4.27L9,39H4.5L45,63a6.57,6.57,0,0,0,6-3c2.19-3-3-3-3-3L26,47.51l3-4.67L51,52a10.07,10.07,0,0,0,3,1C56,53,60.28,49.76,59.36,48.39ZM34.11,42l-3.7-1.35,1.47-2.16L28,32l8,5Z" style="fill: #a714cc"/>
        </g>
      </g>
    </g>
  </g>
</svg>
