<?xml version="1.0" encoding="iso-8859-1"?>
<!-- Generator: Adobe Illustrator 20.1.0, SVG Export Plug-In . SVG Version: 6.00 Build 0)  -->
<svg version="1.1" xmlns="http://www.w3.org/2000/svg" xmlns:xlink="http://www.w3.org/1999/xlink" x="0px" y="0px"
	 viewBox="0 0 72 72" style="enable-background:new 0 0 72 72;" xml:space="preserve">
<g id="Skiing_x5F_Pin">
	<circle style="opacity:0;fill:#FFFFFF;" cx="36" cy="36" r="36"/>
	<circle style="fill:#8C24F2;" cx="47" cy="15" r="5"/>
	<path style="fill:#8C24F2;" d="M40,26l4,8l8,4c0,0,2,0,2-2s-2-2-2-2l-6-4l-2-8l-4-3.998c0,0-2-2.002-6-0.079L22,23l12,6L40,26z"/>
	<path style="fill:#8C24F2;" d="M56,50l-18.83-6.107L41,37v-2L12.444,20.722L14,18h-2l-1.154,1.923L9,19c0,0-3-1-1,1l2.09,1.184
		L9,23l1,2l1.669-2.921L18,25.667V30l8,8l-0.804,2.01L19,38h-5l10.326,4.186l-1.751,4.378L10,40H6l38.312,24c0,0,3,0,5-2s-1-2-1-2
		l-20.94-10.931l1.944-4.86L51,53c0,0,2,1,3,1c2,0,4-2.047,4-3C58,50,56,50,56,50z M28,33l7,5l-2.233,4.465l-2.437-0.79L31,40
		v-1.901L28,33z"/>
</g>
<g id="Layer_1">
</g>
</svg>
