<svg xmlns="http://www.w3.org/2000/svg" viewBox="0 0 72 72">
  <title>smart_post</title>
  <g id="Layer_2" data-name="Layer 2">
    <g id="Icons">
      <g>
        <circle cx="36" cy="36" r="36" style="fill: #fff;opacity: 0"/>
        <path d="M40.5,22A1.5,1.5,0,0,0,39,23.5v3a1.5,1.5,0,1,0,3,0v-3A1.5,1.5,0,0,0,40.5,22Z" style="fill: #15788c"/>
        <path d="M46.85,21.8a1.5,1.5,0,0,0-2.6,1.5l1.5,2.6a1.5,1.5,0,1,0,2.6-1.5Z" style="fill: #15788c"/>
        <path d="M36.2,21.25a1.5,1.5,0,0,0-2,.55l-1.5,2.6a1.5,1.5,0,0,0,2.6,1.5l1.5-2.6A1.5,1.5,0,0,0,36.2,21.25Z" style="fill: #15788c"/>
        <path d="M43.5,12H34c-5,0-7,3.14-7,7V45a3,3,0,0,0-3,3V60h9V48a3,3,0,0,0-3-3V19a3.67,3.67,0,0,1,4-4v2a3,3,0,0,0,3,3h7a3,3,0,0,0,3-3V15h2V12ZM45,15.75A2.25,2.25,0,0,1,42.75,18h-4.5A2.25,2.25,0,0,1,36,15.75V15h9Z" style="fill: #15788c"/>
      </g>
    </g>
  </g>
</svg>
