<svg xmlns="http://www.w3.org/2000/svg" viewBox="0 0 72 72">
  <title>smoke_detector</title>
  <g id="Layer_2" data-name="Layer 2">
    <g id="Icons">
      <g>
        <circle cx="36" cy="36" r="36" style="fill: #fff;opacity: 0"/>
        <path d="M16.5,12v3.26a3,3,0,0,0,.88,2.12L28.5,28.5h15L54.62,17.38a3,3,0,0,0,.88-2.12V12ZM33,24H30l-6-6h9Zm9,0H39V18h9Z" style="fill: #378006"/>
        <path d="M37.77,47.13h0A18,18,0,0,1,37.2,33c-4,4.9-5.45,10.92-3,15.87h0A18,18,0,0,1,34.8,63C38.85,58.1,40.25,52.08,37.77,47.13Z" style="fill: #378006"/>
        <path d="M49.77,50.31h0A11.77,11.77,0,0,1,49.2,39c-4,3.92-5.45,8.74-3,12.69h0A11.77,11.77,0,0,1,46.8,63C50.85,59.08,52.25,54.26,49.77,50.31Z" style="fill: #378006"/>
        <path d="M25.77,50.31h0A11.77,11.77,0,0,1,25.2,39c-4,3.92-5.45,8.74-3,12.69h0A11.77,11.77,0,0,1,22.8,63C26.85,59.08,28.25,54.26,25.77,50.31Z" style="fill: #378006"/>
      </g>
    </g>
  </g>
</svg>
