<svg xmlns="http://www.w3.org/2000/svg" viewBox="0 0 72 72">
  <title>solar_panels</title>
  <g id="Layer_2" data-name="Layer 2">
    <g id="Icons">
      <g>
        <circle cx="36" cy="36" r="36" style="fill: #fff;opacity: 0"/>
        <path d="M54,12H18a6,6,0,0,0-6,6V54a6,6,0,0,0,6,6H54a6,6,0,0,0,6-6V18A6,6,0,0,0,54,12Zm3,42a3,3,0,0,1-3,3H18a3,3,0,0,1-3-3V18a3,3,0,0,1,3-3H54a3,3,0,0,1,3,3Z" style="fill: #006e00"/>
        <rect x="18" y="18" width="9" height="9" style="fill: #006e00"/>
        <rect x="30" y="18" width="12" height="9" style="fill: #006e00"/>
        <rect x="45" y="18" width="9" height="9" style="fill: #006e00"/>
        <rect x="18" y="30" width="9" height="12" style="fill: #006e00"/>
        <rect x="30" y="30" width="12" height="12" style="fill: #006e00"/>
        <rect x="45" y="30" width="9" height="12" style="fill: #006e00"/>
        <rect x="18" y="45" width="9" height="9" style="fill: #006e00"/>
        <rect x="30" y="45" width="12" height="9" style="fill: #006e00"/>
        <rect x="45" y="45" width="9" height="9" style="fill: #006e00"/>
      </g>
    </g>
  </g>
</svg>
