<?xml version="1.0" encoding="iso-8859-1"?>
<!-- Generator: Adobe Illustrator 20.1.0, SVG Export Plug-In . SVG Version: 6.00 Build 0)  -->
<svg version="1.1" xmlns="http://www.w3.org/2000/svg" xmlns:xlink="http://www.w3.org/1999/xlink" x="0px" y="0px"
	 viewBox="0 0 72 72" style="enable-background:new 0 0 72 72;" xml:space="preserve">
<g id="Spa_x5F_Pin">
	<circle style="opacity:0;fill:#FFFFFF;" cx="36" cy="36" r="36"/>
	<g>
		<path style="fill:#8C24F2;" d="M15,45c-1.657,0-3,1.343-3,3v3h6v9h3l3-9h6v-6H15z"/>
	</g>
	<g>
		<path style="fill:#8C24F2;" d="M42,44v7h9l3,9h3V48l9-18l-2-1c-1.435-0.828-3.172-0.435-4,1l-4.5,9H45L42,44z M52.5,45H44l2-3h8
			L52.5,45z"/>
	</g>
	<g>
		<path style="fill:#8C24F2;" d="M57,21c1.657,0,3-1.343,3-3L36,9l-24,9c0,1.657,1.343,3,3,3h18v39h6V21H57z"/>
	</g>
</g>
<g id="Layer_1">
</g>
</svg>
