<?xml version="1.0" encoding="iso-8859-1"?>
<!-- Generator: Adobe Illustrator 20.1.0, SVG Export Plug-In . SVG Version: 6.00 Build 0)  -->
<svg version="1.1" xmlns="http://www.w3.org/2000/svg" xmlns:xlink="http://www.w3.org/1999/xlink" x="0px" y="0px"
	 viewBox="0 0 72 72" style="enable-background:new 0 0 72 72;" xml:space="preserve">
<g id="Sports_x5F_Field_x5F_Pin">
	<circle style="opacity:0;fill:#FFFFFF;" cx="36" cy="36" r="36"/>
	<path style="fill:#8C24F2;" d="M58.606,38.043C59.502,35.527,60,32.823,60,30C60,16.745,49.255,6,36,6S12,16.745,12,30
		c0,2.823,0.497,5.528,1.393,8.044c0.753-0.611,1.57-1.211,2.447-1.792c-0.642-1.9-1.034-3.916-1.113-6.017
		c1.796-1.426,3.615-2.857,4.797-3.785l2.055,0.668l4.252,1.381l0.761,2.855C29.595,30.506,32.779,30,36,30
		c3.232,0,6.426,0.51,9.438,1.363l0.767-2.855l4.28-1.391l1.332-0.433c1.3,1.02,3.441,2.704,5.457,4.308
		c-0.134,1.837-0.514,3.601-1.084,5.277C57.055,36.845,57.861,37.439,58.606,38.043z M34.686,14.664v5.582L26.767,26l-4.351-1.414
		l-1.97-0.64c-0.447-1.675-1.204-4.465-1.89-6.746c2.58-3.677,6.288-6.495,10.626-7.963c2.055,1.361,4.179,2.783,5.505,3.674V14.664
		z M51.012,24.143l-1.364,0.443l-4.369,1.42l-7.927-5.759v-5.569v-1.729c1.403-0.909,3.662-2.387,5.556-3.693
		c4.118,1.406,7.658,4.033,10.207,7.453C52.387,19.056,51.517,22.252,51.012,24.143z"/>
	<path style="fill:#8C24F2;" d="M36,34c-6.829,0-13.491,2.263-18.605,5.281c2.648,9.212,0.826,18.167-0.024,21.424
		C22.488,63.729,29.161,66,36,66c6.817,0,13.468-2.255,18.578-5.264c-2.629-8.536-0.766-18.021,0.072-21.428
		C49.531,36.277,42.849,34,36,34z M49,51.5h-3.5V55h-3v-3.5h-5V55h-3v-3.5h-5V55h-3v-3.5H23v-3h3.5V45h3v3.5h5V45h3v3.5h5V45h3v3.5
		H49V51.5z"/>
	<path style="fill:#8C24F2;" d="M8,50c0,2.64,2.643,6.055,6.825,9.051c1.7-7.322,0.758-14.268-0.055-18.065
		C10.62,43.974,8,47.371,8,50z"/>
	<path style="fill:#8C24F2;" d="M57.256,41.005c-1.622,7.706-0.79,14.359-0.028,18.009C61.38,56.027,64,52.629,64,50
		C64,47.376,61.392,43.988,57.256,41.005z"/>
</g>
<g id="Layer_1">
</g>
</svg>
