<?xml version="1.0" encoding="iso-8859-1"?>
<!-- Generator: Adobe Illustrator 20.1.0, SVG Export Plug-In . SVG Version: 6.00 Build 0)  -->
<svg version="1.1" xmlns="http://www.w3.org/2000/svg" xmlns:xlink="http://www.w3.org/1999/xlink" x="0px" y="0px"
	 viewBox="0 0 72 72" style="enable-background:new 0 0 72 72;" xml:space="preserve">
<g id="Sports_x5F_Pin">
	<rect style="opacity:0;fill:#FFFFFF;" width="72" height="72"/>
	<g>
		<path style="fill:#8C24F2;" d="M36,9C21.088,9,9,21.088,9,36s12.088,27,27,27s27-12.088,27-27S50.912,9,36,9z M47.711,50.645
			l-3.695-5.086l3.443-10.595l4.815-1.565l1.498-0.487c1.467,1.151,3.883,3.051,6.156,4.86c-0.343,4.689-2.026,9.006-4.678,12.562
			C52.678,50.395,49.632,50.542,47.711,50.645z M24.312,50.652c-1.882-0.101-4.953-0.251-7.561-0.315
			c-2.813-3.77-4.538-8.395-4.728-13.413c2.027-1.61,4.085-3.228,5.419-4.275l2.312,0.751l4.783,1.554l3.455,10.633L24.312,50.652z
			 M55.244,21.657c-0.821,2.643-1.806,6.259-2.377,8.395l-1.534,0.499l-4.915,1.597L37.5,25.668v-6.265v-1.945
			c1.582-1.025,4.133-2.694,6.267-4.166C48.389,14.873,52.378,17.819,55.244,21.657z M28.292,13.272
			c2.317,1.534,4.714,3.139,6.208,4.143v1.973v6.28l-8.909,6.473l-4.895-1.591l-2.217-0.72c-0.503-1.887-1.358-5.033-2.13-7.601
			C19.25,18.097,23.418,14.925,28.292,13.272z M29.097,58.987c-0.911-2.443-1.821-4.917-2.404-6.509l3.687-5.075h11.267l3.593,4.945
			c-0.583,1.593-1.524,4.154-2.465,6.675C40.626,59.655,38.354,60,36,60C33.6,60,31.284,59.643,29.097,58.987z"/>
	</g>
</g>
<g id="Layer_1">
</g>
</svg>
