<svg xmlns="http://www.w3.org/2000/svg" viewBox="0 0 72 72">
  <title>sports_field</title>
  <g id="Layer_2" data-name="Layer 2">
    <g id="Icons">
      <g>
        <circle cx="36" cy="36" r="36" style="fill: #fff;opacity: 0"/>
        <path d="M58.61,38a24,24,0,1,0-45.21,0c.75-.61,1.57-1.21,2.45-1.79a21.24,21.24,0,0,1-1.11-6l4.8-3.78,2.06.67,4.25,1.38.76,2.86A34.74,34.74,0,0,1,36,30a34.75,34.75,0,0,1,9.44,1.36l.77-2.85,4.28-1.39,1.33-.43c1.3,1,3.44,2.7,5.46,4.31a21.14,21.14,0,0,1-1.08,5.28C57.06,36.84,57.86,37.44,58.61,38ZM34.69,14.66v5.58L26.77,26l-4.35-1.41-2-.64c-.45-1.68-1.2-4.46-1.89-6.75a21.36,21.36,0,0,1,10.63-8c2.06,1.36,4.18,2.78,5.5,3.67ZM51,24.14l-1.36.44L45.28,26l-7.93-5.76v-7.3c1.4-.91,3.66-2.39,5.56-3.69a21.35,21.35,0,0,1,10.21,7.45C52.39,19.06,51.52,22.25,51,24.14Z" style="fill: #a714cc"/>
        <path d="M9,50c0,2.64,1.64,6.05,5.83,9.05A42.68,42.68,0,0,0,14.77,41C10.62,44,9,47.37,9,50Z" style="fill: #a714cc"/>
        <path d="M57.26,41a44.65,44.65,0,0,0,0,18C61.38,56,63,52.63,63,50S61.39,44,57.26,41Z" style="fill: #a714cc"/>
        <path d="M54.65,39.31A37.59,37.59,0,0,0,36,34a37.58,37.58,0,0,0-18.61,5.28c2.65,9.21.83,18.17,0,21.42A37.59,37.59,0,0,0,36,66a37.58,37.58,0,0,0,18.58-5.26C51.95,52.2,53.81,42.72,54.65,39.31ZM48,51H45v3H42V51H37.5v3h-3V51H30v3H27V51H24V48h3V45h3v3h4.5V45h3v3H42V45h3v3h3Z" style="fill: #a714cc"/>
      </g>
    </g>
  </g>
</svg>
