<svg xmlns="http://www.w3.org/2000/svg" viewBox="0 0 72 72">
  <title>sports</title>
  <g id="Layer_2" data-name="Layer 2">
    <g id="Icons">
      <g>
        <rect width="72" height="72" style="fill: #fff;opacity: 0"/>
        <path d="M36,9A27,27,0,1,0,63,36,27,27,0,0,0,36,9ZM47.71,50.64,44,45.56,47.46,35l4.82-1.56,1.5-.49c1.47,1.15,3.88,3.05,6.16,4.86a23.87,23.87,0,0,1-4.68,12.56C52.68,50.39,49.63,50.54,47.71,50.64Zm-23.4,0c-1.88-.1-5-.25-7.56-.32A23.88,23.88,0,0,1,12,36.92c2-1.61,4.08-3.23,5.42-4.28l2.31.75L24.54,35,28,45.59Zm30.93-29c-.82,2.64-1.81,6.26-2.38,8.4l-1.53.5-4.91,1.6L37.5,25.67V17.46c1.58-1,4.13-2.69,6.27-4.17A24,24,0,0,1,55.24,21.66Zm-27-8.38c2.32,1.53,4.71,3.14,6.21,4.14v8.25l-8.91,6.47-4.9-1.59-2.22-.72c-.5-1.89-1.36-5-2.13-7.6A24,24,0,0,1,28.29,13.27ZM29.1,59c-.91-2.44-1.82-4.92-2.4-6.51l3.69-5.07H41.65l3.59,4.94c-.58,1.59-1.52,4.15-2.46,6.68A24,24,0,0,1,29.1,59Z" style="fill: #a714cc"/>
      </g>
    </g>
  </g>
</svg>
