<?xml version="1.0" encoding="iso-8859-1"?>
<!-- Generator: Adobe Illustrator 20.1.0, SVG Export Plug-In . SVG Version: 6.00 Build 0)  -->
<svg version="1.1" xmlns="http://www.w3.org/2000/svg" xmlns:xlink="http://www.w3.org/1999/xlink" x="0px" y="0px"
	 viewBox="0 0 72 72" style="enable-background:new 0 0 72 72;" xml:space="preserve">
<g id="Subway_x5F_Underground_x5F_Pin">
	<circle style="opacity:0;fill:#FFFFFF;" cx="36" cy="36" r="36"/>
	<path style="fill:#404040;" d="M36,4.071c-12.428,0-22.5,7.697-22.5,17.194v38.792L36,60l22.5,0.058V21.266
		C58.5,11.768,48.428,4.071,36,4.071z M55.286,52.286h-9.643l6.429,6.429h-6.429l-3.214-6.429H30.107l-3.75,6.429h-6.429
		l6.964-6.429H16.714V23.357c0-6.412,5.847-12.857,12.857-12.857h12.857c7.01,0,12.857,6.445,12.857,12.857V52.286z"/>
	<path style="fill:#E01678;" d="M41.494,13.722H30.506c-5.842,0-10.577,5.14-10.577,10.484v24.873h32.143V24.206
		C52.071,18.863,47.336,13.722,41.494,13.722z M30,16h12v4H30V16z M28,46c-2.209,0-4-1.791-4-4s1.791-4,4-4c2.209,0,4,1.791,4,4
		S30.209,46,28,46z M44,46c-2.209,0-4-1.791-4-4s1.791-4,4-4c2.209,0,4,1.791,4,4S46.209,46,44,46z M48.857,33.214
		c0,1.657-1.343,3-3,3H26.143c-1.657,0-3-1.343-3-3v-6.857c0-1.657,1.343-3,3-3h19.714c1.657,0,3,1.343,3,3V33.214z"/>
</g>
<g id="Layer_1">
</g>
</svg>
