<svg xmlns="http://www.w3.org/2000/svg" viewBox="0 0 72 72">
  <title>subway</title>
  <g id="Layer_2" data-name="Layer 2">
    <g id="Icons">
      <g>
        <circle cx="36" cy="36" r="36" style="fill: #fff;opacity: 0"/>
        <path d="M36,6C24,6,15,12,15,21V60H57V21C57,12,48,6,36,6ZM54,52.5H46.5l6,6H45l-3-6H30.11L27,58.5H19.5l6-6H18V24c0-9,6-13.5,15-13.5h6c9,0,15,4.5,15,13.5Z" style="fill: #404040"/>
        <path d="M41.49,15h-11C24.66,15,21,18.86,21,24.21V48H51V24.21C51,18.86,47.34,15,41.49,15ZM30,18H42v3H30ZM27.75,45.75A3.75,3.75,0,1,1,31.5,42,3.75,3.75,0,0,1,27.75,45.75Zm16.5,0A3.75,3.75,0,1,1,48,42,3.75,3.75,0,0,1,44.25,45.75ZM48,33a3,3,0,0,1-3,3H27a3,3,0,0,1-3-3V27a3,3,0,0,1,3-3H45a3,3,0,0,1,3,3Z" style="fill: #e61066"/>
      </g>
    </g>
  </g>
</svg>
