<svg xmlns="http://www.w3.org/2000/svg" viewBox="0 0 72 72">
  <title>sushi</title>
  <g id="Layer_2" data-name="Layer 2">
    <g id="Icons">
      <g>
        <circle cx="36" cy="36" r="36" style="fill: #fff;opacity: 0"/>
        <g>
          <ellipse cx="25.5" cy="33" rx="4.5" ry="3" style="fill: #00856a"/>
          <path d="M39,38V33L61.5,19.5,57,15,37.21,28.6C34.9,25.87,30.55,24,25.5,24,18,24,12,28,12,33V45.94L7.5,49.5,9,51l3.17-1.9a8,8,0,0,0,3.12,4.71ZM25.5,27C31.3,27,36,29.69,36,33s-4.7,6-10.5,6S15,36.31,15,33,19.7,27,25.5,27Z" style="fill: #00856a"/>
          <path d="M64.5,25.5,15,57l1.5,1.5,4.74-2A18.92,18.92,0,0,0,25.5,57C33,57,39,53,39,48V46.59L66,31.5Z" style="fill: #00856a"/>
        </g>
      </g>
    </g>
  </g>
</svg>
