<?xml version="1.0" encoding="iso-8859-1"?>
<!-- Generator: Adobe Illustrator 20.1.0, SVG Export Plug-In . SVG Version: 6.00 Build 0)  -->
<svg version="1.1" xmlns="http://www.w3.org/2000/svg" xmlns:xlink="http://www.w3.org/1999/xlink" x="0px" y="0px"
	 viewBox="0 0 72 72" style="enable-background:new 0 0 72 72;" xml:space="preserve">
<g id="Taxi_x5F_Pin">
	<circle style="opacity:0;fill:#FFFFFF;" cx="36" cy="36" r="36"/>
	<rect x="27" y="40" style="fill:none;" width="18" height="4"/>
	<rect x="29" y="47" style="fill:none;" width="14" height="3"/>
	<circle style="fill:none;" cx="20" cy="42" r="4"/>
	<path style="fill:none;" d="M50,24c0,0-0.333-2-2-2s-24,0-24,0c-2,0-2,2-2,2l-2,10c8.396,0,23.564,0,32,0L50,24z"/>
	<circle style="fill:none;" cx="52" cy="42" r="4"/>
	<path style="fill:#15788C;" d="M58,34c-0.22,0-0.923,0-2,0c0,0-1.949-7.796-3-12c-1-4-3-4-3-4s-0.755,0-2,0c0-2.506,0-6.639,0-8
		c0-2-2-2-2-2S28,8,26,8s-2,2-2,2v8c-1.048,0-1.768,0-2,0c0,0-2,0-3,4l-3,12c-1.267,0-2,0-2,0s-2,0-2,2s0,16,0,16s0,2,2,2h2
		c0,2.526,0,5.09,0,6h6v-6h28c0,2.526,0,5.09,0,6h6v-6h2c0,0,2,0,2-2s0-16,0-16S60,34,58,34z M26,14h4v-4h4v4h4v-4h4v4h4v4h-4v-4h-4
		v4h-4v-4h-4v4h-4V14z M22,24c0,0,0-2,2-2c0,0,22.333,0,24,0s2,2,2,2l2,10c-8.436,0-23.604,0-32,0L22,24z M20,46
		c-2.209,0-4-1.791-4-4c0-2.209,1.791-4,4-4s4,1.791,4,4C24,44.209,22.209,46,20,46z M43,50H29v-3h14V50z M45,44H27v-4h18V44z
		 M52,46c-2.209,0-4-1.791-4-4c0-2.209,1.791-4,4-4s4,1.791,4,4C56,44.209,54.209,46,52,46z"/>
</g>
<g id="Layer_1">
</g>
</svg>
