<svg xmlns="http://www.w3.org/2000/svg" viewBox="0 0 72 72">
  <title>taxi</title>
  <g id="Layer_2" data-name="Layer 2">
    <g id="Icons">
      <g>
        <circle cx="36" cy="36" r="36" style="fill: #fff;opacity: 0"/>
        <path d="M58,36h-2L52.88,24c-1-3-3.05-3-3.05-3H48V12a3,3,0,0,0-3-3H27a3,3,0,0,0-3,3v9H22.18s-2.25,0-3.05,3L16.07,36H14a2,2,0,0,0-2,2V52a2,2,0,0,0,2,2h1v6h6V54H51v6h6V54h1a2,2,0,0,0,2-2V38A2,2,0,0,0,58,36ZM28.5,16.5V12H33v4.5h4.5V12H42v4.5h4.5V21H42V16.5H37.5V21H33V16.5H28.5V21h-3V16.5Zm-6.18,9A2,2,0,0,1,24.21,24H47.79a2,2,0,0,1,1.89,1.53L51.86,36H20.14Zm-2.07,21A3.75,3.75,0,1,1,24,42.75,3.75,3.75,0,0,1,20.25,46.5ZM42,51H30V48H42Zm3-6H27V42H45Zm6.75,1.5a3.75,3.75,0,1,1,3.75-3.75A3.75,3.75,0,0,1,51.75,46.5Z" style="fill: #e61066"/>
      </g>
    </g>
  </g>
</svg>
