<svg xmlns="http://www.w3.org/2000/svg" viewBox="0 0 72 72">
  <title>technology</title>
  <g id="Layer_2" data-name="Layer 2">
    <g id="Icons">
      <g>
        <circle cx="36" cy="36" r="36" style="fill: #fff;opacity: 0"/>
        <path d="M63,27V21H56.45A9,9,0,0,0,51,15.55V9H45v6H39V9H33v6H27V9H21v6.55A9,9,0,0,0,15.55,21H9v6h6v6H9v6h6v6H9v6h6.55A9,9,0,0,0,21,56.45V63h6V57h6v6h6V57h6v6h6V56.45A9,9,0,0,0,56.45,51H63V45H57V39h6V33H57V27ZM54,48a6,6,0,0,1-6,6H24a6,6,0,0,1-6-6V24a6,6,0,0,1,6-6H48a6,6,0,0,1,6,6Z" style="fill: #2e2ee6"/>
        <rect x="27" y="27" width="18" height="18" style="fill: #2e2ee6"/>
      </g>
    </g>
  </g>
</svg>
