<svg xmlns="http://www.w3.org/2000/svg" viewBox="0 0 72 72">
  <title>telephone_booth</title>
  <g id="Layer_2" data-name="Layer 2">
    <g id="Icons">
      <g>
        <circle cx="36" cy="36" r="36" style="fill: #fff;opacity: 0"/>
        <path d="M51,15h3c0-5-8.06-9-18-9s-18,4-18,9h3V60H18v3H54V60H51ZM47,52.15c-.63.95-1,1.8-2.45,1.84a17.66,17.66,0,0,1-10.15-3.13c-5.28-3.4-9.19-10.25-9.85-13.75-1.52-8.06.27-11.92,1.89-12.76a7.8,7.8,0,0,1,4.23-.14c1.41.33,1.81,3,1.9,4.49.15,2.31.38,4.24-.57,4.94a10.87,10.87,0,0,1-1.8,1.13c-.92.43-1.45,1.06-1,2.18a32.86,32.86,0,0,0,5.54,8.54c1,1.09,2.39,1.6,3.55.55.66-.6,1-1.25,2.12-1.36s2.71.69,4.12,1.42S48,47.82,48,49.35A5,5,0,0,1,47,52.15ZM48,18H24V15H48Z" style="fill: #0081a1"/>
      </g>
    </g>
  </g>
</svg>
