<svg xmlns="http://www.w3.org/2000/svg" viewBox="0 0 72 72">
  <title>temperature_low</title>
  <g id="Layer_2" data-name="Layer 2">
    <g id="Icons">
      <g>
        <circle cx="36" cy="36" r="36" style="fill: #fff;opacity: 0"/>
        <path d="M45,42.46V15a9,9,0,0,0-18,0V42.46a13.5,13.5,0,1,0,18,0ZM36,63a10.49,10.49,0,0,1-7.34-18A9.52,9.52,0,0,1,30,43.89V15a6,6,0,0,1,12,0V43.89A9.52,9.52,0,0,1,43.34,45,10.49,10.49,0,0,1,36,63Z" style="fill: #0068ff"/>
        <path d="M33,38v9.31h0a6,6,0,1,0,5.92,0h0V38" style="fill: #0068ff"/>
        <line x1="39" y1="42" x2="33" y2="42" style="fill: #378006"/>
        <rect x="6" y="24" width="18" height="6" style="fill: #0068ff"/>
      </g>
    </g>
  </g>
</svg>
