<svg xmlns="http://www.w3.org/2000/svg" viewBox="0 0 72 72">
  <title>thermostat</title>
  <g id="Layer_2" data-name="Layer 2">
    <g id="Icons">
      <g>
        <circle cx="36" cy="36" r="36" style="fill: #fff;opacity: 0"/>
        <rect width="72" height="72" style="fill: #fff;opacity: 0"/>
        <path d="M63,33H56.76a20.84,20.84,0,0,0-1.27-4.79l5.39-3.11a3,3,0,1,0-3-5.2L52.49,23a21.09,21.09,0,0,0-3.5-3.5l3.12-5.4a3,3,0,1,0-5.2-3l-3.11,5.39A20.84,20.84,0,0,0,39,15.24V9a3,3,0,0,0-6,0v6l-4.5-4.5a2.12,2.12,0,0,0-3,3L33,21v9.8l-8.49-4.9L21.76,15.66a2.12,2.12,0,1,0-4.1,1.1l1.65,6.15-5.2-3a3,3,0,0,0-3,5.2l5.2,3-6.15,1.65a2.12,2.12,0,1,0,1.1,4.1L21.51,31.1,30,36l-8.49,4.9L11.26,38.16a2.12,2.12,0,1,0-1.1,4.1l6.15,1.65-5.2,3a3,3,0,0,0,3,5.2l5.2-3-1.65,6.15a2.12,2.12,0,0,0,4.1,1.1L24.51,46.1,33,41.2V51l-7.5,7.5a2.12,2.12,0,0,0,3,3L33,57v6a3,3,0,0,0,6,0V56.76a20.84,20.84,0,0,0,4.79-1.27l3.11,5.39a3,3,0,1,0,5.2-3L49,52.49a21.09,21.09,0,0,0,3.5-3.5l5.4,3.12a3,3,0,1,0,3-5.2l-5.39-3.11A20.84,20.84,0,0,0,56.76,39H63a3,3,0,0,0,0-6Z" style="fill: #006e00"/>
      </g>
    </g>
  </g>
</svg>
