<svg xmlns="http://www.w3.org/2000/svg" width="72" height="72" viewBox="0 0 72 72">
  <g id="Group_9403" data-name="Group 9403" transform="translate(-2864 -837.275)">
    <rect id="Rectangle_5615" data-name="Rectangle 5615" width="72" height="72" transform="translate(2864 837.275)" fill="none"/>
    <g id="Group_9402" data-name="Group 9402" transform="translate(2875.916 846.458)">
      <path id="Rectangle_5597" data-name="Rectangle 5597" d="M0,0H9.782a3.45,3.45,0,0,1,3.45,3.45V26.59a0,0,0,0,1,0,0H0a0,0,0,0,1,0,0V0A0,0,0,0,1,0,0Z" transform="translate(2.094 0)" fill="#0081a1"/>
      <path id="Rectangle_5598" data-name="Rectangle 5598" d="M0,0H42.816a0,0,0,0,1,0,0V5.137a8,8,0,0,1-8,8H4a4,4,0,0,1-4-4V0A0,0,0,0,1,0,0Z" transform="translate(2.676 30.922)" fill="#0081a1"/>
      <rect id="Rectangle_5599" data-name="Rectangle 5599" width="48.168" height="2.189" transform="translate(0 29.219)" fill="#0081a1"/>
      <rect id="Rectangle_5600" data-name="Rectangle 5600" width="24.084" height="10.947" transform="translate(8.028 41.23)" fill="#0081a1"/>
      <rect id="Rectangle_5601" data-name="Rectangle 5601" width="29.436" height="4.379" transform="translate(5.352 49.987)" fill="#0081a1"/>
      <path id="Rectangle_5602" data-name="Rectangle 5602" d="M1,0H25.76a1,1,0,0,1,1,1V4.379a0,0,0,0,1,0,0H0a0,0,0,0,1,0,0V1A1,1,0,0,1,1,0Z" transform="translate(18.732 21.129)" fill="#0081a1"/>
    </g>
  </g>
</svg>
