<?xml version="1.0" encoding="iso-8859-1"?>
<!-- Generator: Adobe Illustrator 20.1.0, SVG Export Plug-In . SVG Version: 6.00 Build 0)  -->
<svg version="1.1" xmlns="http://www.w3.org/2000/svg" xmlns:xlink="http://www.w3.org/1999/xlink" x="0px" y="0px"
	 viewBox="0 0 72 72" style="enable-background:new 0 0 72 72;" xml:space="preserve">
<g id="ToiletLadies_x5F_Pin">
	<circle style="opacity:0;fill:#FFFFFF;" cx="36" cy="36" r="36"/>
	<polygon style="fill:#15788C;" points="34.5,54 33,66 30,66 30,54 24,54 30,36 30,30 23,40 20,40 30,21 42,21 52,40 49,40 42,30 
		42,36 48,54 42,54 42,66 39,66 37.5,54 	"/>
	<path style="fill:#15788C;" d="M30,12c0-3.314,2.687-6,6-6c3.313,0,6,2.686,6,6s-2.687,6-6,6C32.687,18,30,15.314,30,12"/>
</g>
<g id="Layer_1">
</g>
</svg>
