<?xml version="1.0" encoding="iso-8859-1"?>
<!-- Generator: Adobe Illustrator 20.1.0, SVG Export Plug-In . SVG Version: 6.00 Build 0)  -->
<svg version="1.1" xmlns="http://www.w3.org/2000/svg" xmlns:xlink="http://www.w3.org/1999/xlink" x="0px" y="0px"
	 viewBox="0 0 72 72" style="enable-background:new 0 0 72 72;" xml:space="preserve">
<g id="TouristInfo_x5F_Pin">
	<rect style="opacity:0;fill:#FFFFFF;" width="72" height="72"/>
	<g>
		<path style="fill:#CC1FCC;" d="M37.549,27c2.05,0,3.804-0.745,5.264-2.236c1.456-1.491,2.189-3.261,2.189-5.311
			c0-2.05-0.714-3.804-2.143-5.264C41.428,12.73,39.658,12,37.549,12c-2.112,0-3.901,0.73-5.357,2.189
			c-1.46,1.46-2.189,3.214-2.189,5.264c0,2.05,0.745,3.82,2.236,5.311C33.729,26.255,35.499,27,37.549,27z"/>
		<polygon style="fill:#CC1FCC;" points="45.002,55.5 45.002,30 45,30 30.002,30 24,30 24,34.5 30.002,34.5 30.002,55.5 24,55.5 
			24,60 30.002,60 45.002,60 51,60 51,55.5 		"/>
	</g>
</g>
<g id="Layer_1">
</g>
</svg>
