<svg xmlns="http://www.w3.org/2000/svg" viewBox="0 0 72 72">
  <title>tourist_info</title>
  <g id="Layer_2" data-name="Layer 2">
    <g id="Icons">
      <g>
        <rect width="72" height="72" style="fill: #fff;opacity: 0"/>
        <g>
          <path d="M37.55,27a7.1,7.1,0,0,0,5.26-2.24A7.34,7.34,0,0,0,45,19.45a7.26,7.26,0,0,0-2.14-5.26A7.14,7.14,0,0,0,37.55,12a7.28,7.28,0,0,0-5.36,2.19A7.18,7.18,0,0,0,30,19.45a7.26,7.26,0,0,0,2.24,5.31A7.26,7.26,0,0,0,37.55,27Z" style="fill: #cc14a6"/>
          <polygon points="45 55.5 45 30 45 30 30 30 24 30 24 34.5 30 34.5 30 55.5 24 55.5 24 60 30 60 45 60 51 60 51 55.5 45 55.5" style="fill: #cc14a6"/>
        </g>
      </g>
    </g>
  </g>
</svg>
