<?xml version="1.0" encoding="iso-8859-1"?>
<!-- Generator: Adobe Illustrator 20.1.0, SVG Export Plug-In . SVG Version: 6.00 Build 0)  -->
<svg version="1.1" xmlns="http://www.w3.org/2000/svg" xmlns:xlink="http://www.w3.org/1999/xlink" x="0px" y="0px"
	 viewBox="0 0 72 72" style="enable-background:new 0 0 72 72;" xml:space="preserve">
<g id="Education_x5F_Pin">
	<circle style="opacity:0;fill:#FFFFFF;" cx="36" cy="36" r="36"/>
	<polygon style="fill:#15788C;" points="27,36 27,33 18,42 54,42 45,33 45,36 	"/>
	<polygon style="fill:#15788C;" points="18,45 18,63 21,63 21,51 24,51 24,63 27,63 27,51 30,51 30,63 42,63 42,51 45,51 45,63 
		48,63 48,51 51,51 51,63 54,63 54,45 	"/>
	<path style="fill:#15788C;" d="M42,21l-5.216-5.216v-0.786l8.196-0.024l-2.546-2.953L45,9.097l-8.216-0.089V8.273
		C37.212,8.009,37.5,7.54,37.5,7c0-0.828-0.672-1.5-1.5-1.5S34.5,6.172,34.5,7c0,0.54,0.288,1.009,0.716,1.273v7.511L30,21v12h12V21
		z M36,30c-1.657,0-3-1.343-3-3s1.343-3,3-3s3,1.343,3,3S37.657,30,36,30z"/>
</g>
<g id="Layer_1">
</g>
</svg>
