<svg xmlns="http://www.w3.org/2000/svg" viewBox="0 0 72 72">
  <title>town_hall</title>
  <g id="Layer_2" data-name="Layer 2">
    <g id="Icons">
      <g>
        <circle cx="36" cy="36" r="36" style="fill: #fff;opacity: 0"/>
        <polygon points="27 36 27 33 18 42 54 42 45 33 45 36 27 36" style="fill: #0081a1"/>
        <polygon points="18 45 18 63 21 63 21 51 24 51 24 63 27 63 27 51 30 51 30 63 42 63 42 51 45 51 45 63 48 63 48 51 51 51 51 63 54 63 54 45 18 45" style="fill: #0081a1"/>
        <path d="M42,21l-5.22-5.22V15H45l-3-3,3-3H36.78V8.27a1.5,1.5,0,1,0-1.57,0v7.51L30,21V33H42Zm-6,9a3,3,0,1,1,3-3A3,3,0,0,1,36,30Z" style="fill: #0081a1"/>
      </g>
    </g>
  </g>
</svg>
