<svg xmlns="http://www.w3.org/2000/svg" viewBox="0 0 72 72">
  <title>traffic_counter</title>
  <g id="Layer_2" data-name="Layer 2">
    <g id="Icons">
      <g>
        <circle cx="36" cy="36" r="36" style="fill: #fff;opacity: 0"/>
        <g>
          <path d="M52,39h-2L46.88,27c-1-3-3.05-3-3.05-3H16.18s-2.25,0-3.05,3L10.07,39H8a1.82,1.82,0,0,0-1.74,1A29.89,29.89,0,0,0,15,57.41V57H45v6h4c.68-.33,1.34-.67,2-1V57h1a2,2,0,0,0,2-2V41A2,2,0,0,0,52,39ZM16.32,28.5A2,2,0,0,1,18.21,27H41.79a2,2,0,0,1,1.89,1.53L45.86,39H14.14Zm-2.07,21A3.75,3.75,0,1,1,18,45.75,3.75,3.75,0,0,1,14.25,49.5ZM36,54H24V51H36Zm3-6H21V45H39Zm6.75,1.5a3.75,3.75,0,1,1,3.75-3.75A3.75,3.75,0,0,1,45.75,49.5Z" style="fill: #378006"/>
          <path d="M64.66,27.1A2.39,2.39,0,0,0,64,27h-2l-2.45-9.64A30.13,30.13,0,0,0,53.95,12H28.18s-2.25,0-3.05,3l-1.53,6h3.79l.94-4.5A2,2,0,0,1,30.21,15H53.79a2,2,0,0,1,1.89,1.53L57.86,27H50.65l2.28,9h1.9A3.67,3.67,0,0,1,54,33.75a3.75,3.75,0,1,1,3.75,3.75,3.6,3.6,0,0,1-.88-.18A2.69,2.69,0,0,1,57,38V51h5c.38-.65.72-1.31,1-2V45h1a2.63,2.63,0,0,0,.69-.13,30.16,30.16,0,0,0,0-17.81Z" style="fill: #378006"/>
        </g>
      </g>
    </g>
  </g>
</svg>
