<svg xmlns="http://www.w3.org/2000/svg" viewBox="0 0 72 72">
  <title>train</title>
  <g id="Layer_2" data-name="Layer 2">
    <g id="Icons">
      <g>
        <circle cx="36" cy="36" r="36" style="fill: #fff;opacity: 0"/>
        <polygon points="54 63 45.75 63 42 57 46 57 54 63" style="fill: #e61066"/>
        <polygon points="18 63 26 63 30 57 26 57 18 63" style="fill: #e61066"/>
        <path d="M45,12H27a9,9,0,0,0-9,9V45a9,9,0,0,0,9,9H45a9,9,0,0,0,9-9V21A9,9,0,0,0,45,12ZM30,15H42v3H30ZM24.75,49.5a3.75,3.75,0,1,1,3.75-3.75A3.75,3.75,0,0,1,24.75,49.5Zm22.5.63A3.75,3.75,0,1,1,51,46.38,3.75,3.75,0,0,1,47.25,50.13ZM51,38a1,1,0,0,1-1,1H22a1,1,0,0,1-1-1V22a1,1,0,0,1,1-1H50a1,1,0,0,1,1,1Z" style="fill: #e61066"/>
      </g>
    </g>
  </g>
</svg>
