<?xml version="1.0" encoding="iso-8859-1"?>
<!-- Generator: Adobe Illustrator 20.1.0, SVG Export Plug-In . SVG Version: 6.00 Build 0)  -->
<svg version="1.1" xmlns="http://www.w3.org/2000/svg" xmlns:xlink="http://www.w3.org/1999/xlink" x="0px" y="0px"
	 viewBox="0 0 72 72" style="enable-background:new 0 0 72 72;" xml:space="preserve">
<g id="Train_x5F_Pin">
	<circle style="opacity:0;fill:#FFFFFF;" cx="36" cy="36" r="36"/>
	<polygon style="fill:#E01678;" points="54,62 45.75,62 42,56 46,56 	"/>
	<polygon style="fill:#E01678;" points="18,62 26,62 30,56 26,56 	"/>
	<path style="fill:#E01678;" d="M46.036,8H25.964c-5.227,0-9.464,4.237-9.464,9.464v27.073c0,5.227,4.237,9.464,9.464,9.464h20.073
		c5.227,0,9.464-4.237,9.464-9.464V17.464C55.5,12.237,51.263,8,46.036,8z M26,12h20v4H26V12z M24,50c-2.209,0-4-1.791-4-4
		s1.791-4,4-4s4,1.791,4,4S26.209,50,24,50z M48,50c-2.209,0-4-1.791-4-4c0-2.209,1.791-4,4-4s4,1.791,4,4
		C52,48.209,50.209,50,48,50z M52.25,36.125c0,1.657-1.343,3-3,3h-26.5c-1.657,0-3-1.343-3-3v-13.5c0-1.657,1.343-3,3-3h26.5
		c1.657,0,3,1.343,3,3V36.125z"/>
</g>
<g id="Layer_1">
</g>
</svg>
