<?xml version="1.0" encoding="iso-8859-1"?>
<!-- Generator: Adobe Illustrator 20.1.0, SVG Export Plug-In . SVG Version: 6.00 Build 0)  -->
<svg version="1.1" xmlns="http://www.w3.org/2000/svg" xmlns:xlink="http://www.w3.org/1999/xlink" x="0px" y="0px"
	 viewBox="0 0 72 72" style="enable-background:new 0 0 72 72;" xml:space="preserve">
<g id="Tram_x5F_Pin">
	<circle style="opacity:0;fill:#FFFFFF;" cx="36" cy="36" r="36"/>
	<path style="fill:#E01678;" d="M57.361,30.286h-2.008c-0.024,0-0.044,0.012-0.068,0.014v-3.228c0-5.315-4.3-9.624-9.61-9.641
		l2.896-5.852c2.23,1.393,3.501,2.636,3.501,2.636h3.214c0,0-6.429-9.107-19.286-9.107s-19.286,9.107-19.286,9.107h3.214
		c0,0,1.272-1.244,3.503-2.637l2.926,5.851c-5.326,0-9.643,4.317-9.643,9.643v3.228c-0.024-0.001-0.044-0.014-0.068-0.014h-2.008
		c-0.629,0-1.139,0.51-1.139,1.139v7.365c0,0.629,0.51,1.139,1.139,1.139h2.008c0.024,0,0.044-0.012,0.068-0.014v6.442
		c0,5.326,4.317,9.643,9.643,9.643h19.286c5.326,0,9.643-4.317,9.643-9.643v-6.442c0.024,0.001,0.044,0.014,0.068,0.014h2.008
		c0.629,0,1.139-0.51,1.139-1.139v-7.365C58.5,30.796,57.99,30.286,57.361,30.286z M36,7.786c3.939,0,7.359,1.106,10.03,2.398
		l-3.735,7.245H29.571l-3.618-7.237C28.626,8.896,32.053,7.786,36,7.786z M26,54c-2.209,0-4-1.791-4-4c0-2.209,1.791-4,4-4
		c2.209,0,4,1.791,4,4C30,52.209,28.209,54,26,54z M46,54c-2.209,0-4-1.791-4-4c0-2.209,1.791-4,4-4c2.209,0,4,1.791,4,4
		C50,52.209,48.209,54,46,54z M52.071,39.928c0,2.367-0.847,3.214-3.214,3.214H23.143c-2.367,0-3.214-0.847-3.214-3.214V27.071
		c0-2.367,0.847-3.214,3.214-3.214h25.714c2.367,0,3.214,0.847,3.214,3.214V39.928z"/>
	<polygon style="fill:#E01678;" points="54,64 45.75,64 42,58 46,58 	"/>
	<polygon style="fill:#E01678;" points="18,64 26,64 30,58 26,58 	"/>
</g>
<g id="Layer_1">
</g>
</svg>
