<svg xmlns="http://www.w3.org/2000/svg" viewBox="0 0 72 72">
  <title>tram</title>
  <g id="Layer_2" data-name="Layer 2">
    <g id="Icons">
      <g>
        <circle cx="36" cy="36" r="36" style="fill: #fff;opacity: 0"/>
        <polygon points="54 63 45.75 63 42 57 46 57 54 63" style="fill: #e61066"/>
        <polygon points="18 63 26 63 30 57 26 57 18 63" style="fill: #e61066"/>
        <path d="M55.5,27H54V24a9,9,0,0,0-6.11-8.48l1.79-3.28A47.25,47.25,0,0,1,54,15h3S50,6,36,6s-21,9-21,9h3a47.21,47.21,0,0,1,4.31-2.76l1.81,3.27A9,9,0,0,0,18,24v3H16.5a3,3,0,0,0-3,3v3a3,3,0,0,0,3,3H18v9a9,9,0,0,0,9,9H45a9,9,0,0,0,9-9V36h1.5a3,3,0,0,0,3-3V30A3,3,0,0,0,55.5,27ZM36,8.51a27.26,27.26,0,0,1,10.92,2.36L44.56,15H27.34l-2.28-4.12A27.27,27.27,0,0,1,36,8.51ZM24.75,51a3.75,3.75,0,1,1,3.75-3.75A3.75,3.75,0,0,1,24.75,51Zm22.5,0A3.75,3.75,0,1,1,51,47.25,3.75,3.75,0,0,1,47.25,51ZM51,37.5A4.5,4.5,0,0,1,46.5,42h-21A4.5,4.5,0,0,1,21,37.5v-12A4.5,4.5,0,0,1,25.5,21h21A4.5,4.5,0,0,1,51,25.5Z" style="fill: #e61066"/>
      </g>
    </g>
  </g>
</svg>
