<?xml version="1.0" encoding="iso-8859-1"?>
<!-- Generator: Adobe Illustrator 20.1.0, SVG Export Plug-In . SVG Version: 6.00 Build 0)  -->
<svg version="1.1" xmlns="http://www.w3.org/2000/svg" xmlns:xlink="http://www.w3.org/1999/xlink" x="0px" y="0px"
	 viewBox="0 0 72 72" style="enable-background:new 0 0 72 72;" xml:space="preserve">
<g id="Transport_x5F_Pin">
	<rect style="opacity:0;fill:#FFFFFF;" width="72" height="72"/>
	<path style="fill:#E01678;" d="M52,12H20c-2.761,0-5,2.239-5,5v35c0,2.049,1.236,3.806,3,4.578V60c0,1.657,1.343,3,3,3s3-1.343,3-3
		v-3h24v3c0,1.657,1.343,3,3,3s3-1.343,3-3v-3.422c1.764-0.772,3-2.529,3-4.578V17C57,14.239,54.761,12,52,12z M28.5,15h15.3
		c0.663,0,1.2,0.537,1.2,1.2v0.3c0,0.828-0.672,1.5-1.5,1.5h-15c-0.828,0-1.5-0.672-1.5-1.5S27.672,15,28.5,15z M21,51
		c-1.657,0-3-1.343-3-3s1.343-3,3-3s3,1.343,3,3S22.657,51,21,51z M45,51H27v-2h18V51z M45,47H27v-2h18V47z M51,51
		c-1.657,0-3-1.343-3-3s1.343-3,3-3s3,1.343,3,3S52.657,51,51,51z M54,36c0,1.657-1.343,3-3,3H21c-1.657,0-3-1.343-3-3V24
		c0-1.657,1.343-3,3-3h30c1.657,0,3,1.343,3,3V36z"/>
</g>
<g id="Layer_1">
</g>
</svg>
