<?xml version="1.0" encoding="UTF-8" standalone="no"?>
<!-- Generator: Adobe Illustrator 21.0.0, SVG Export Plug-In . SVG Version: 6.00 Build 0)  -->

<svg
   xmlns:dc="http://purl.org/dc/elements/1.1/"
   xmlns:cc="http://creativecommons.org/ns#"
   xmlns:rdf="http://www.w3.org/1999/02/22-rdf-syntax-ns#"
   xmlns:svg="http://www.w3.org/2000/svg"
   xmlns="http://www.w3.org/2000/svg"
   xmlns:sodipodi="http://sodipodi.sourceforge.net/DTD/sodipodi-0.dtd"
   xmlns:inkscape="http://www.inkscape.org/namespaces/inkscape"
   version="1.1"
   x="0px"
   y="0px"
   viewBox="0 0 72 72"
   style="enable-background:new 0 0 72 72;"
   xml:space="preserve"
   id="svg2"
   inkscape:version="0.91 r13725"
   sodipodi:docname="Trash_Full_Pin.svg"><metadata
     id="metadata16"><rdf:RDF><cc:Work
         rdf:about=""><dc:format>image/svg+xml</dc:format><dc:type
           rdf:resource="http://purl.org/dc/dcmitype/StillImage" /></cc:Work></rdf:RDF></metadata><defs
     id="defs14" /><sodipodi:namedview
     pagecolor="#ffffff"
     bordercolor="#666666"
     borderopacity="1"
     objecttolerance="10"
     gridtolerance="10"
     guidetolerance="10"
     inkscape:pageopacity="0"
     inkscape:pageshadow="2"
     inkscape:window-width="690"
     inkscape:window-height="480"
     id="namedview12"
     showgrid="false"
     inkscape:zoom="3.2777778"
     inkscape:cx="36"
     inkscape:cy="36"
     inkscape:window-x="0"
     inkscape:window-y="0"
     inkscape:window-maximized="0"
     inkscape:current-layer="svg2" /><g
     id="Trash_x5F_Full_x5F_Pin"><path
       style="fill:#D1021A;"
       d="M48,12h-9v-1.5C39,9.672,38.328,9,37.5,9h-6C30.672,9,30,9.672,30,10.5V12h-9c-1.657,0-3,1.343-3,3   v3h33v-3C51,13.343,49.657,12,48,12z"
       id="path7" /><path
       style="fill:#D1021A;"
       d="M21,21v37.5c0,2.481,2.019,4.5,4.5,4.5h18c2.481,0,4.5-2.019,4.5-4.5V21H21z M30,55.5   c0,0.828-0.672,1.5-1.5,1.5S27,56.328,27,55.5v-27c0-0.828,0.672-1.5,1.5-1.5s1.5,0.672,1.5,1.5V55.5z M36,55.5   c0,0.828-0.672,1.5-1.5,1.5S33,56.328,33,55.5v-27c0-0.828,0.672-1.5,1.5-1.5s1.5,0.672,1.5,1.5V55.5z M42,55.5   c0,0.828-0.672,1.5-1.5,1.5S39,56.328,39,55.5v-27c0-0.828,0.672-1.5,1.5-1.5s1.5,0.672,1.5,1.5V55.5z"
       id="path9" /></g><g
     id="Layer_1" /></svg>