<svg xmlns="http://www.w3.org/2000/svg" viewBox="0 0 72 72">
  <title>twitter</title>
  <g id="Layer_2" data-name="Layer 2">
    <g id="Icons">
      <g>
        <circle cx="36" cy="36" r="36" style="fill: #fff;opacity: 0"/>
        <path d="M36,6A30,30,0,1,0,66,36,30,30,0,0,0,36,6ZM49.46,29l0,.91c0,9.26-7,19.93-19.76,19.93a19.5,19.5,0,0,1-10.65-3.15,14.46,14.46,0,0,0,1.66.1,13.86,13.86,0,0,0,8.63-3A7,7,0,0,1,22.87,39a6.58,6.58,0,0,0,1.31.13A7,7,0,0,0,26,38.84,7,7,0,0,1,20.43,32v-.09a6.89,6.89,0,0,0,3.15.88,7.06,7.06,0,0,1-2.15-9.35,19.66,19.66,0,0,0,14.32,7.32,7.07,7.07,0,0,1-.18-1.59,7,7,0,0,1,6.95-7,6.9,6.9,0,0,1,5.07,2.21A13.94,13.94,0,0,0,52,22.64a7,7,0,0,1-3.05,3.87,13.79,13.79,0,0,0,4-1.1A13.94,13.94,0,0,1,49.46,29Z" style="fill: #55acee"/>
      </g>
    </g>
  </g>
</svg>
