<?xml version="1.0" encoding="iso-8859-1"?>
<!-- Generator: Adobe Illustrator 20.1.0, SVG Export Plug-In . SVG Version: 6.00 Build 0)  -->
<svg version="1.1" xmlns="http://www.w3.org/2000/svg" xmlns:xlink="http://www.w3.org/1999/xlink" x="0px" y="0px"
	 viewBox="0 0 72 72" style="enable-background:new 0 0 72 72;" xml:space="preserve">
<g id="twitter_x5F_pin">
	<circle style="fill:#FFFFFF;" cx="36" cy="36" r="36"/>
	<circle style="fill:#55ACEE;" cx="36" cy="36" r="30.522"/>
	<g>
		<path style="fill:#FFFFFF;" d="M52.93,25.411c-1.247,0.558-2.583,0.935-3.989,1.105c1.436-0.867,2.532-2.242,3.053-3.874
			c-1.345,0.802-2.831,1.386-4.413,1.702c-1.268-1.364-3.071-2.214-5.07-2.214c-3.837,0-6.946,3.136-6.946,7.005
			c0,0.547,0.062,1.084,0.18,1.595c-5.773-0.292-10.89-3.081-14.317-7.319c-0.599,1.033-0.938,2.236-0.938,3.521
			c0,2.43,1.226,4.575,3.089,5.83c-1.139-0.038-2.21-0.353-3.147-0.879v0.087c0,3.394,2.395,6.226,5.572,6.87
			c-0.583,0.157-1.196,0.246-1.831,0.246c-0.448,0-0.883-0.045-1.308-0.131c0.885,2.786,3.449,4.81,6.487,4.866
			c-2.375,1.878-5.372,2.995-8.626,2.995c-0.561,0-1.112-0.034-1.656-0.097c3.074,1.992,6.725,3.153,10.646,3.153
			c12.777,0,19.763-10.675,19.763-19.932l-0.022-0.908C50.821,28.049,52.001,26.815,52.93,25.411z"/>
	</g>
</g>
<g id="Layer_1">
</g>
</svg>
