<svg xmlns="http://www.w3.org/2000/svg" viewBox="0 0 72 72">
  <title>vegan</title>
  <g id="Layer_2" data-name="Layer 2">
    <g id="Icons">
      <g>
        <circle cx="36" cy="36" r="36" style="fill: #fff;opacity: 0"/>
        <path d="M55.57,20.68h-.1l.1-.09c2.31-2.31,3.24-5.11,2.09-6.27s-4-.22-6.27,2.09l-.09.1s0-.06,0-.1C51.32,14,50,12,48.36,12s-3,2-3,4.43,1.32,4.43,3,4.43a2,2,0,0,0,.51-.16,3.64,3.64,0,0,0,0,.37l-1.68,1.68c-2.88-2.32-6.77-3.67-8.29-2.15L15.51,52.4a3,3,0,0,0,4.09,4.09l31.8-23.36c1.52-1.52.17-5.42-2.15-8.29l1.68-1.68.37,0a2,2,0,0,0-.16.51c0,1.63,2,3,4.43,3s4.43-1.32,4.43-3S58,20.68,55.57,20.68Z" style="fill: #00856a"/>
      </g>
    </g>
  </g>
</svg>
