<svg xmlns="http://www.w3.org/2000/svg" viewBox="0 0 72 72">
  <title>vet</title>
  <g id="Layer_2" data-name="Layer 2">
    <g id="Icons">
      <g>
        <circle cx="36" cy="36" r="36" style="fill: #fff;opacity: 0"/>
        <path d="M52.93,46.15A10.5,10.5,0,0,1,52.62,56c-2,3.45-6.6,7-16.62,7s-14.57-3.57-16.62-7a10.5,10.5,0,0,1-.31-9.84C21.74,40.44,28.29,30,36,30S50.26,40.44,52.93,46.15Z" style="fill: #cc14a6"/>
        <path d="M59.6,24.34c-3-1.23-6.57,1-8,4.93s-.18,8.16,2.81,9.39,6.57-1,8-4.93S62.59,25.57,59.6,24.34Z" style="fill: #cc14a6"/>
        <path d="M20.41,29.27c-1.44-4-5-6.16-8-4.93s-4.24,5.43-2.81,9.39,5,6.16,8,4.93S21.84,33.23,20.41,29.27Z" style="fill: #cc14a6"/>
        <ellipse cx="45" cy="18.04" rx="6" ry="9.04" style="fill: #cc14a6"/>
        <ellipse cx="27" cy="18.04" rx="6" ry="9.04" style="fill: #cc14a6"/>
      </g>
    </g>
  </g>
</svg>
