<?xml version="1.0" encoding="iso-8859-1"?>
<!-- Generator: Adobe Illustrator 20.1.0, SVG Export Plug-In . SVG Version: 6.00 Build 0)  -->
<svg version="1.1" xmlns="http://www.w3.org/2000/svg" xmlns:xlink="http://www.w3.org/1999/xlink" x="0px" y="0px"
	 viewBox="0 0 72 72" style="enable-background:new 0 0 72 72;" xml:space="preserve">
<g id="Vet_x5F_Pin">
	<circle style="opacity:0;fill:#FFFFFF;" cx="36" cy="36" r="36"/>
	<path style="fill:#CC1FCC;" d="M51.565,46.329c1.375,3.067,1.377,6.637-0.288,9.561c-1.909,3.354-6.151,6.638-15.483,6.638
		s-13.574-3.284-15.483-6.638c-1.664-2.924-1.662-6.494-0.288-9.561c2.489-5.552,8.591-15.592,15.77-15.592
		S49.077,40.777,51.565,46.329z"/>
	<path style="fill:#CC1FCC;" d="M58.844,26.471c-2.781-1.221-6.121,0.974-7.458,4.903c-1.338,3.93-0.167,8.105,2.614,9.327
		c2.781,1.221,6.121-0.974,7.458-4.903C62.795,31.869,61.625,27.693,58.844,26.471z"/>
	<path style="fill:#CC1FCC;" d="M20.205,31.375c-1.338-3.929-4.677-6.125-7.458-4.903c-2.781,1.222-3.952,5.397-2.614,9.327
		c1.338,3.929,4.677,6.125,7.458,4.903C20.372,39.48,21.542,35.304,20.205,31.375z"/>
	<ellipse style="fill:#CC1FCC;" cx="45.018" cy="18.999" rx="6.149" ry="8.784"/>
	<ellipse style="fill:#CC1FCC;" cx="26.572" cy="18.999" rx="6.149" ry="8.784"/>
</g>
<g id="Layer_1">
</g>
</svg>
