<svg xmlns="http://www.w3.org/2000/svg" viewBox="0 0 72 72">
  <title>video_conference</title>
  <g id="Layer_2" data-name="Layer 2">
    <g id="Icons">
      <g>
        <circle cx="36" cy="36" r="36" style="fill: #fff;opacity: 0"/>
        <path d="M60,18H42a7.5,7.5,0,1,0-12,0H12a3,3,0,0,0-3,3V48a3,3,0,0,0,3,3H33v4.5H20.25a2.25,2.25,0,0,0,0,4.5h31.5a2.25,2.25,0,0,0,0-4.5H39V51H60a3,3,0,0,0,3-3V21A3,3,0,0,0,60,18ZM36,10.5a3,3,0,1,1-3,3A3,3,0,0,1,36,10.5ZM36,21a6,6,0,1,1-6,6A6,6,0,0,1,36,21ZM48,46.5H24V42a6,6,0,0,1,6-6H42a6,6,0,0,1,6,6Z" style="fill: #378006"/>
      </g>
    </g>
  </g>
</svg>
