<svg xmlns="http://www.w3.org/2000/svg" viewBox="0 0 72 72">
  <title>vimeo</title>
  <g id="Layer_2" data-name="Layer 2">
    <g id="Icons">
      <g>
        <circle cx="36" cy="36" r="36" style="fill: #fff;opacity: 0"/>
        <path d="M36,5.91a30,30,0,1,0,30,30A30,30,0,0,0,36,5.91ZM54.8,27.34c-2.12,11.89-14,22-17.57,24.26s-6.83-.92-8-3.36c-1.35-2.78-5.41-17.84-6.47-19.08s-4.25,1.25-4.25,1.25L17,28.4s6.47-7.67,11.39-8.63c5.22-1,5.21,8,6.47,12.95,1.21,4.82,2,7.58,3.09,7.58S41,37.6,43.22,33.48s-.1-7.77-4.44-5.18C40.51,17.94,56.93,15.45,54.8,27.34Z" style="fill: #00b2de"/>
      </g>
    </g>
  </g>
</svg>
