<?xml version="1.0" encoding="iso-8859-1"?>
<!-- Generator: Adobe Illustrator 20.1.0, SVG Export Plug-In . SVG Version: 6.00 Build 0)  -->
<svg version="1.1" xmlns="http://www.w3.org/2000/svg" xmlns:xlink="http://www.w3.org/1999/xlink" x="0px" y="0px"
	 viewBox="0 0 72 72" style="enable-background:new 0 0 72 72;" xml:space="preserve">
<g id="vimeo_x5F_pin">
	<circle style="fill:#FFFFFF;" cx="36" cy="36" r="36"/>
	<circle style="fill:#00B2DE;" cx="35.976" cy="35.91" r="30.432"/>
	<g>
		<path style="fill:#FFFFFF;" d="M37.908,40.288c-1.06,0-1.877-2.758-3.091-7.579c-1.256-4.986-1.248-13.965-6.469-12.947
			c-4.923,0.961-11.392,8.634-11.392,8.634l1.543,2.013c0,0,3.187-2.494,4.25-1.248c1.062,1.248,5.116,16.306,6.469,19.085
			c1.184,2.438,4.44,5.66,8.014,3.358c3.574-2.301,15.449-12.372,17.573-24.264c2.125-11.89-14.292-9.4-16.028,0.959
			c4.344-2.593,6.664,1.054,4.441,5.179C40.998,37.601,38.97,40.288,37.908,40.288z"/>
	</g>
</g>
<g id="Layer_1">
</g>
</svg>
