<svg xmlns="http://www.w3.org/2000/svg" viewBox="0 0 72 72">
  <title>virtual_tour</title>
  <g id="Layer_2" data-name="Layer 2">
    <g id="Icons">
      <g>
        <circle cx="36" cy="36" r="36" style="fill: #fff;opacity: 0"/>
        <g>
          <path d="M60.13,18.22a29.92,29.92,0,0,0-48.25,0A47.1,47.1,0,0,1,36,12,47.1,47.1,0,0,1,60.13,18.22Z" style="fill: #668000"/>
          <path d="M11.87,53.78a29.92,29.92,0,0,0,48.25,0A47.1,47.1,0,0,1,36,60,47.1,47.1,0,0,1,11.87,53.78Z" style="fill: #668000"/>
          <polygon points="24 24 9 24 9 30 13.5 30 13.5 28.5 19.5 28.5 19.5 33 13.5 33 13.5 37.5 19.5 37.5 19.5 43.5 13.5 43.5 13.5 42 9 42 9 48 24 48 24 24" style="fill: #668000"/>
          <path d="M43.5,28.5V24h-15V48h15V33H33V28.5Zm-4.5,9v6H33v-6Z" style="fill: #668000"/>
          <path d="M48,24V48H63V24ZM58.5,43.5h-6v-15h6Z" style="fill: #668000"/>
        </g>
      </g>
    </g>
  </g>
</svg>
