<svg xmlns="http://www.w3.org/2000/svg" viewBox="0 0 72 72">
  <title>vr_experience</title>
  <g id="Layer_2" data-name="Layer 2">
    <g id="Icons">
      <g>
        <circle cx="36" cy="36" r="36" style="fill: #fff;opacity: 0"/>
        <g>
          <path d="M47,28.69a6.25,6.25,0,0,0-3.18-.63H42.45v5.67h1.44A5.51,5.51,0,0,0,47,33a2.51,2.51,0,0,0,1-2.21A2.3,2.3,0,0,0,47,28.69Z" style="fill: #668000"/>
          <path d="M66.12,35.55l-.68-9.41H61.82A20.52,20.52,0,0,0,49,13a49.58,49.58,0,0,0-10-2.16V8.5H30.79v2.35A43.06,43.06,0,0,0,21.4,13C14.77,15.4,11.16,20.26,9.18,26.14H6.06L4.88,35.55H7.44a43.25,43.25,0,0,0,1,11c1.33,5.36,4.76,10,13,10,7.7,0,9.45-4.65,10.29-5.66A5.3,5.3,0,0,1,35.5,48.7a5.21,5.21,0,0,1,3.75,2.08c.84,1,2.59,5.57,10.29,5.57,8.26,0,11.69-4.49,13-9.86a43.29,43.29,0,0,0,1-11ZM28.2,45.4H23.34l-7.13-21h4.5l4,12.49q.33,1.11.68,2.58t.44,2a36.64,36.64,0,0,1,1.08-4.62l4-12.49h4.5Zm16.62-8.05H42.45V45.4H38v-21h6.12q4.28,0,6.34,1.56a5.56,5.56,0,0,1,2.06,4.73,5.57,5.57,0,0,1-1,3.3,6.76,6.76,0,0,1-2.89,2.26q4.74,7.08,6.18,9.14H49.84Zm16,7.42a13.16,13.16,0,0,1-4.58,7.58,1.18,1.18,0,1,1-1.43-1.87,10.89,10.89,0,0,0,3.72-6.28c1.11-4.49,1.06-12,.24-15-1.2-4.38-4.07-10.12-10.91-12.58-2.58-.93-8.47-1.55-12.35-1.55s-9.77.62-12.35,1.55c-6.84,2.47-9.71,8.2-10.91,12.58-.82,3-.87,10.47.24,15a10.89,10.89,0,0,0,3.72,6.28,1.18,1.18,0,1,1-1.43,1.87,13.16,13.16,0,0,1-4.58-7.58C9,39.74,9.05,32,10,28.61c1.35-4.92,4.59-11.37,12.38-14.17,2.9-1,9.08-1.69,13.15-1.69s10.25.65,13.15,1.69c7.79,2.81,11,9.26,12.38,14.17C61.95,32,62,39.74,60.81,44.77Z" style="fill: #668000"/>
        </g>
      </g>
    </g>
  </g>
</svg>
