<svg xmlns="http://www.w3.org/2000/svg" viewBox="0 0 72 72">
  <title>warning</title>
  <g id="Layer_2" data-name="Layer 2">
    <g id="Icons">
      <g>
        <circle cx="36" cy="36" r="36" style="fill: #fff;opacity: 0"/>
        <path d="M62,43.07,42.33,9.61a7.36,7.36,0,0,0-12.66,0L10,43.07a7.14,7.14,0,0,0,0,7.28A7.26,7.26,0,0,0,16.34,54H55.66A7.26,7.26,0,0,0,62,50.35,7.14,7.14,0,0,0,62,43.07Zm-6.33,6.77H16.34a3.11,3.11,0,0,1-2.71-4.68L33.29,11.7a3.15,3.15,0,0,1,5.43,0L58.37,45.16A3.11,3.11,0,0,1,55.66,49.85Z" style="fill: #202020"/>
        <circle cx="36" cy="42.75" r="3.75" style="fill: #202020"/>
        <rect x="33" y="21" width="6" height="15" style="fill: #202020"/>
      </g>
    </g>
  </g>
</svg>
