<svg xmlns="http://www.w3.org/2000/svg" viewBox="0 0 72 72">
  <title>wikipedia</title>
  <g id="Layer_2" data-name="Layer 2">
    <g id="Icons">
      <g>
        <circle cx="36" cy="36" r="36" style="fill: #fff;opacity: 0"/>
        <path d="M36,6A30,30,0,1,0,66,36,30,30,0,0,0,36,6ZM55.08,26.64c0,.2-.08.3-.29.3a3.69,3.69,0,0,0-2.27.7,4.08,4.08,0,0,0-1.16,1.77S44.93,44.88,42.74,50c-.84,1.69-1.67,1.53-2.39,0-.91-2-2.8-6.33-4.19-9.55C34.67,43.66,32.64,48,31.63,50c-1,1.79-1.79,1.56-2.43,0-2.23-5.54-6.82-15.27-9-20.73a5.92,5.92,0,0,0-1-1.9A3.19,3.19,0,0,0,17.44,27c-.33,0-.52-.12-.52-.26v-.76l.24-.07H25.9l.35.07v.72c0,.2-.39.3-.63.3l-1.16,0c-.77,0-1.15.27-1.15.72a3,3,0,0,0,.26,1c1.72,4.41,7.65,17.57,7.65,17.57l.22.06,3.82-8-.76-1.78-2.63-5.44-.68-1.45C30,27.24,30,27.11,28.87,27c-.33,0-.5-.09-.5-.26v-.76l0-.07h6.73l0,.06v.76c0,.17,0,.26-.2.26l-.34.08c-1.25.1-1,.64-.21,2.37l2.52,5.43L39.72,29c.46-1.07.38-1.34.18-1.59a1.77,1.77,0,0,0-1.28-.4l-.3,0c-.08,0-.11,0-.19-.09s0-.12,0-.21v-.8c2,0,6.31,0,6.31,0l.05.08v.72c0,.2-.08.3-.29.3-1,0-1.22.16-1.59.73-.21.31-.62,1-1,1.74l-3.63,7.14-.1.22,4.43,9.54.27.08,7-17.44c.24-.7.19-1.2-.12-1.5A1.78,1.78,0,0,0,48,27l-.72,0a.71.71,0,0,1-.35-.09c-.07-.05-.34-.12-.34-.21v-.73l.56-.09H55l0,.09Z" style="fill: #313131"/>
      </g>
    </g>
  </g>
</svg>
