<?xml version="1.0" encoding="iso-8859-1"?>
<!-- Generator: Adobe Illustrator 20.1.0, SVG Export Plug-In . SVG Version: 6.00 Build 0)  -->
<svg version="1.1" xmlns="http://www.w3.org/2000/svg" xmlns:xlink="http://www.w3.org/1999/xlink" x="0px" y="0px"
	 viewBox="0 0 72 72" style="enable-background:new 0 0 72 72;" xml:space="preserve">
<g id="wikipedia_x5F_pin">
	<circle style="fill:#FFFFFF;" cx="36" cy="36" r="36"/>
	<circle style="fill:#313131;" cx="36" cy="35.999" r="30.522"/>
	<g>
		<path style="fill:#FFFFFF;" d="M17.443,26.955c0.904,0.054,1.51,0.203,1.793,0.458c0.283,0.253,0.591,0.898,0.989,1.902
			c2.159,5.454,6.744,15.185,8.974,20.729c0.641,1.511,1.451,1.747,2.432-0.046c1.008-1.97,3.04-6.341,4.523-9.568
			c1.391,3.22,3.279,7.573,4.193,9.547c0.725,1.578,1.552,1.735,2.394,0.048c2.193-5.139,8.614-20.61,8.614-20.61
			c0.276-0.76,0.663-1.345,1.162-1.77c0.494-0.42,1.232-0.656,2.268-0.705c0.209,0,0.291-0.1,0.291-0.295v-0.726l-0.027-0.093
			c0,0-5.921,0-7.886,0l-0.564,0.093v0.726c0,0.085,0.268,0.156,0.343,0.208c0.07,0.06,0.263,0.09,0.345,0.09l0.715,0.033
			c0.807,0.036,1.056,0.205,1.371,0.489c0.311,0.294,0.36,0.795,0.119,1.497l-6.97,17.439l-0.268-0.077l-4.429-9.544
			c0.065-0.144,0.102-0.224,0.102-0.224l3.626-7.14c0.422-0.753,0.83-1.427,1.038-1.74c0.378-0.574,0.564-0.681,1.595-0.731
			c0.209,0,0.291-0.099,0.291-0.3v-0.722l-0.052-0.077c0,0-4.334-0.016-6.309,0l0.002,0.076v0.722c0,0.087-0.05,0.157,0.02,0.211
			c0.075,0.06,0.104,0.088,0.186,0.088l0.296,0.036c0.807,0.036,1.167,0.257,1.277,0.398c0.194,0.249,0.283,0.516-0.181,1.587
			l-2.794,5.859L34.4,29.389c-0.827-1.738-1.033-2.274,0.214-2.374l0.335-0.075c0.243,0,0.201-0.09,0.201-0.263v-0.758l-0.022-0.063
			c0,0-4.622,0-6.731,0.002l-0.027,0.074v0.76c0,0.17,0.176,0.215,0.502,0.261c1.167,0.162,1.15,0.29,2.303,2.7
			c0.174,0.363,0.681,1.452,0.681,1.452l2.63,5.439c0,0,0.298,0.698,0.765,1.783l-3.82,8.029l-0.216-0.06
			c0,0-5.931-13.169-7.65-17.575c-0.181-0.453-0.258-0.794-0.258-1.003c0-0.447,0.383-0.69,1.15-0.722l1.165-0.04
			c0.241,0,0.631-0.095,0.631-0.295v-0.723l-0.35-0.074c0,0-7.268-0.007-8.736,0l-0.241,0.074V26.7
			C16.924,26.834,17.115,26.92,17.443,26.955z"/>
	</g>
	<circle style="fill:#313131;" cx="36" cy="35.999" r="30.522"/>
	<g>
		<path style="fill:#FFFFFF;" d="M17.443,26.955c0.904,0.054,1.51,0.203,1.793,0.458c0.283,0.253,0.591,0.898,0.989,1.902
			c2.159,5.454,6.744,15.185,8.974,20.729c0.641,1.511,1.451,1.747,2.432-0.046c1.008-1.97,3.04-6.341,4.523-9.568
			c1.391,3.22,3.279,7.573,4.193,9.547c0.725,1.578,1.552,1.735,2.394,0.048c2.193-5.139,8.614-20.61,8.614-20.61
			c0.276-0.76,0.663-1.345,1.162-1.77c0.494-0.42,1.232-0.656,2.268-0.705c0.209,0,0.291-0.1,0.291-0.295v-0.726l-0.027-0.093
			c0,0-5.921,0-7.886,0l-0.564,0.093v0.726c0,0.085,0.268,0.156,0.343,0.208c0.07,0.06,0.263,0.09,0.345,0.09l0.715,0.033
			c0.807,0.036,1.056,0.205,1.371,0.489c0.311,0.294,0.36,0.795,0.119,1.497l-6.97,17.439l-0.268-0.077l-4.429-9.544
			c0.065-0.144,0.102-0.224,0.102-0.224l3.626-7.14c0.422-0.753,0.83-1.427,1.038-1.74c0.378-0.574,0.564-0.681,1.595-0.731
			c0.209,0,0.291-0.099,0.291-0.3v-0.722l-0.052-0.077c0,0-4.334-0.016-6.309,0l0.002,0.076v0.722c0,0.087-0.05,0.157,0.02,0.211
			c0.075,0.06,0.104,0.088,0.186,0.088l0.296,0.036c0.807,0.036,1.167,0.257,1.277,0.398c0.194,0.249,0.283,0.516-0.181,1.587
			l-2.794,5.859L34.4,29.389c-0.827-1.738-1.033-2.274,0.214-2.374l0.335-0.075c0.243,0,0.201-0.09,0.201-0.263v-0.758l-0.022-0.063
			c0,0-4.622,0-6.731,0.002l-0.027,0.074v0.76c0,0.17,0.176,0.215,0.502,0.261c1.167,0.162,1.15,0.29,2.303,2.7
			c0.174,0.363,0.681,1.452,0.681,1.452l2.63,5.439c0,0,0.298,0.698,0.765,1.783l-3.82,8.029l-0.216-0.06
			c0,0-5.931-13.169-7.65-17.575c-0.181-0.453-0.258-0.794-0.258-1.003c0-0.447,0.383-0.69,1.15-0.722l1.165-0.04
			c0.241,0,0.631-0.095,0.631-0.295v-0.723l-0.35-0.074c0,0-7.268-0.007-8.736,0l-0.241,0.074V26.7
			C16.924,26.834,17.115,26.92,17.443,26.955z"/>
	</g>
	<circle style="fill:#313131;" cx="36" cy="35.999" r="30.522"/>
	<g>
		<path style="fill:#FFFFFF;" d="M17.443,26.955c0.904,0.054,1.51,0.203,1.793,0.458c0.283,0.253,0.591,0.898,0.989,1.902
			c2.159,5.454,6.744,15.185,8.974,20.729c0.641,1.511,1.451,1.747,2.432-0.046c1.008-1.97,3.04-6.341,4.523-9.568
			c1.391,3.22,3.279,7.573,4.193,9.547c0.725,1.578,1.552,1.735,2.394,0.048c2.193-5.139,8.614-20.61,8.614-20.61
			c0.276-0.76,0.663-1.345,1.162-1.77c0.494-0.42,1.232-0.656,2.268-0.705c0.209,0,0.291-0.1,0.291-0.295v-0.726l-0.027-0.093
			c0,0-5.921,0-7.886,0l-0.564,0.093v0.726c0,0.085,0.268,0.156,0.343,0.208c0.07,0.06,0.263,0.09,0.345,0.09l0.715,0.033
			c0.807,0.036,1.056,0.205,1.371,0.489c0.311,0.294,0.36,0.795,0.119,1.497l-6.97,17.439l-0.268-0.077l-4.429-9.544
			c0.065-0.144,0.102-0.224,0.102-0.224l3.626-7.14c0.422-0.753,0.83-1.427,1.038-1.74c0.378-0.574,0.564-0.681,1.595-0.731
			c0.209,0,0.291-0.099,0.291-0.3v-0.722l-0.052-0.077c0,0-4.334-0.016-6.309,0l0.002,0.076v0.722c0,0.087-0.05,0.157,0.02,0.211
			c0.075,0.06,0.104,0.088,0.186,0.088l0.296,0.036c0.807,0.036,1.167,0.257,1.277,0.398c0.194,0.249,0.283,0.516-0.181,1.587
			l-2.794,5.859L34.4,29.389c-0.827-1.738-1.033-2.274,0.214-2.374l0.335-0.075c0.243,0,0.201-0.09,0.201-0.263v-0.758l-0.022-0.063
			c0,0-4.622,0-6.731,0.002l-0.027,0.074v0.76c0,0.17,0.176,0.215,0.502,0.261c1.167,0.162,1.15,0.29,2.303,2.7
			c0.174,0.363,0.681,1.452,0.681,1.452l2.63,5.439c0,0,0.298,0.698,0.765,1.783l-3.82,8.029l-0.216-0.06
			c0,0-5.931-13.169-7.65-17.575c-0.181-0.453-0.258-0.794-0.258-1.003c0-0.447,0.383-0.69,1.15-0.722l1.165-0.04
			c0.241,0,0.631-0.095,0.631-0.295v-0.723l-0.35-0.074c0,0-7.268-0.007-8.736,0l-0.241,0.074V26.7
			C16.924,26.834,17.115,26.92,17.443,26.955z"/>
	</g>
</g>
<g id="Layer_1">
</g>
</svg>
