<svg xmlns="http://www.w3.org/2000/svg" viewBox="0 0 72 72">
  <title>wind_turbine</title>
  <g id="Layer_2" data-name="Layer 2">
    <g id="Icons">
      <g>
        <circle cx="36" cy="36" r="36" style="fill: #fff;opacity: 0"/>
        <g>
          <path d="M36.47,40.48c-1.08,1.41-2.39,2.95-3.86,4.55L31.5,66h9L39.11,39.62A6,6,0,0,1,36.47,40.48Z" style="fill: #006e00"/>
          <path d="M49.82,35.1a80.4,80.4,0,0,0-7.93-1.72,6,6,0,0,1-1.35,5,80.41,80.41,0,0,0,7.73,2.47c8.8,2.36,16.29,3,16.71,1.37S58.62,37.45,49.82,35.1Z" style="fill: #006e00"/>
          <path d="M32.08,30a6,6,0,0,1,5-1.35,80.4,80.4,0,0,0-1.72-7.93C33,11.88,29.84,5.09,28.24,5.52s-1,7.91,1.37,16.71A80.36,80.36,0,0,0,32.08,30Z" style="fill: #006e00"/>
          <path d="M34,40.16a6,6,0,0,1-3.69-3.69,80.4,80.4,0,0,0-6,5.46c-6.44,6.44-10.72,12.62-9.55,13.79.26.26.79.24,1.51,0,2.47-.87,7.28-4.54,12.27-9.53,1.54-1.54,3-3.07,4.21-4.52Q33.44,40.89,34,40.16Z" style="fill: #006e00"/>
          <path d="M33.38,33.07a3,3,0,0,0-.25.61l0,0s0,0,0,0a3,3,0,0,0-.1.68s0,0,0,.06a3,3,0,0,0,3,3h.06a3,3,0,0,0,.68-.1h0l0,0a3,3,0,0,0,1.74-4.42,2.69,2.69,0,0,0-1-1,3,3,0,0,0-4.17,1.12Z" style="fill: #006e00"/>
        </g>
      </g>
    </g>
  </g>
</svg>
