<svg xmlns="http://www.w3.org/2000/svg" viewBox="0 0 72 72">
  <title>youtube</title>
  <g id="Layer_2" data-name="Layer 2">
    <g id="Icons">
      <g>
        <circle cx="36" cy="36" r="36" style="fill: #fff;opacity: 0"/>
        <path d="M40.51,41.05a1.87,1.87,0,0,0-.9.24,3.06,3.06,0,0,0-.84.69V37.63h-2V51.15h2v-.76a2.53,2.53,0,0,0,.83.68,2.29,2.29,0,0,0,1,.22A1.6,1.6,0,0,0,42,50.72a2.53,2.53,0,0,0,.46-1.63V43.56a3,3,0,0,0-.49-1.87A1.67,1.67,0,0,0,40.51,41.05Zm-.11,7.77a1.12,1.12,0,0,1-.17.69.63.63,0,0,1-.53.21,1.13,1.13,0,0,1-.47-.11,1.72,1.72,0,0,1-.46-.36V43a1.43,1.43,0,0,1,.4-.31,1,1,0,0,1,.41-.1.75.75,0,0,1,.61.26,1.23,1.23,0,0,1,.2.77Z" style="fill: #ff4d3f"/>
        <path d="M33.38,48.76a2.67,2.67,0,0,1-.6.54,1.11,1.11,0,0,1-.54.21.48.48,0,0,1-.4-.16.87.87,0,0,1-.12-.51V41.17h-2v8.34a2.19,2.19,0,0,0,.34,1.34,1.2,1.2,0,0,0,1,.45A2.31,2.31,0,0,0,32.26,51a4.14,4.14,0,0,0,1.13-.92v1.09h2v-10h-2Z" style="fill: #ff4d3f"/>
        <path d="M35.66,30a1,1,0,0,0,.71-.25.93.93,0,0,0,.26-.7v-6a.72.72,0,0,0-.27-.58,1.07,1.07,0,0,0-.7-.22,1,1,0,0,0-.66.22.76.76,0,0,0-.25.58v6a1,1,0,0,0,.23.7A.86.86,0,0,0,35.66,30Z" style="fill: #ff4d3f"/>
        <path d="M36,6A30,30,0,1,0,66,36,30,30,0,0,0,36,6Zm4.65,14.63h2.19v8.43a.92.92,0,0,0,.14.56.53.53,0,0,0,.45.18,1.27,1.27,0,0,0,.62-.23,3,3,0,0,0,.68-.59V20.63h2.2v11h-2.2V30.4a4.66,4.66,0,0,1-1.27,1,2.7,2.7,0,0,1-1.27.35,1.37,1.37,0,0,1-1.15-.5,2.35,2.35,0,0,1-.39-1.47ZM32.5,23.14a2.55,2.55,0,0,1,.88-2,3.57,3.57,0,0,1,2.39-.76,3.19,3.19,0,0,1,2.24.8,2.68,2.68,0,0,1,.87,2.06v5.68A2.91,2.91,0,0,1,38,31.09a3.31,3.31,0,0,1-2.35.8,3.21,3.21,0,0,1-2.31-.83,3,3,0,0,1-.86-2.23Zm-6-6.42,1.61,6h.16l1.53-6h2.52l-2.88,8.72v6.18H27v-5.9l-2.94-9ZM55.29,48.08a7.13,7.13,0,0,1-7,7.2H23.76a7.13,7.13,0,0,1-7-7.2V42.29c0-4,3.15-7.58,7-7.58H48.24c3.89,0,7,3.6,7,7.58Z" style="fill: #ff4d3f"/>
        <polygon points="22.16 39.59 24.43 39.59 24.43 51.16 26.63 51.16 26.63 39.59 28.9 39.59 28.9 37.63 22.16 37.63 22.16 39.59" style="fill: #ff4d3f"/>
        <path d="M46.4,40.93a2.9,2.9,0,0,0-2.13.82,2.84,2.84,0,0,0-.83,2.12v4.48a3.22,3.22,0,0,0,.75,2.26,2.65,2.65,0,0,0,2.07.82,2.87,2.87,0,0,0,2.19-.77,3.24,3.24,0,0,0,.74-2.31v-.51h-2v.45A2.2,2.2,0,0,1,47,49.42a.8.8,0,0,1-.68.26.72.72,0,0,1-.66-.3,2.21,2.21,0,0,1-.19-1.09V46.41h3.73V43.86a3,3,0,0,0-.72-2.18A2.71,2.71,0,0,0,46.4,40.93Zm.77,3.93H45.45v-1a1.48,1.48,0,0,1,.2-.89.77.77,0,0,1,.67-.28.74.74,0,0,1,.65.28,1.5,1.5,0,0,1,.21.89Z" style="fill: #ff4d3f"/>
      </g>
    </g>
  </g>
</svg>
