<?xml version="1.0" encoding="iso-8859-1"?>
<!-- Generator: Adobe Illustrator 20.1.0, SVG Export Plug-In . SVG Version: 6.00 Build 0)  -->
<svg version="1.1" xmlns="http://www.w3.org/2000/svg" xmlns:xlink="http://www.w3.org/1999/xlink" x="0px" y="0px"
	 viewBox="0 0 72 72" style="enable-background:new 0 0 72 72;" xml:space="preserve">
<g id="youtube_x5F_pin">
	<circle style="fill:#FFFFFF;" cx="36" cy="36" r="36"/>
	<circle style="fill:#FF4D3F;" cx="36" cy="36" r="30.522"/>
	<g>
		<path style="fill:#FFFFFF;" d="M46.316,42.672c-0.309,0-0.532,0.091-0.665,0.276c-0.138,0.176-0.203,0.476-0.203,0.895v1.009
			h1.725v-1.009c0-0.418-0.07-0.719-0.206-0.895C46.836,42.764,46.615,42.672,46.316,42.672z"/>
		<g>
			<path style="fill:#FFFFFF;" d="M39.589,42.639c-0.138,0-0.279,0.031-0.414,0.096c-0.136,0.064-0.269,0.168-0.402,0.306v6.218
				c0.158,0.16,0.311,0.284,0.462,0.355c0.151,0.068,0.306,0.107,0.472,0.107c0.238,0,0.414-0.071,0.527-0.213
				c0.111-0.141,0.168-0.368,0.168-0.688v-5.154c0-0.339-0.068-0.593-0.203-0.768C40.056,42.726,39.852,42.639,39.589,42.639z"/>
			<g>
				<path style="fill:#FFFFFF;" d="M48.239,34.714H23.761c-3.892,0-7.046,3.6-7.046,7.578v5.789c0,3.978,3.154,7.204,7.046,7.204
					h24.479c3.892,0,7.046-3.226,7.046-7.204v-5.789C55.286,38.315,52.132,34.714,48.239,34.714z M28.904,39.594h-2.275v11.561h-2.2
					V39.594h-2.272v-1.966h6.747V39.594z M35.332,51.155h-1.951v-1.094c-0.362,0.404-0.733,0.714-1.125,0.922
					c-0.389,0.217-0.766,0.319-1.135,0.319c-0.452,0-0.789-0.148-1.017-0.447c-0.226-0.298-0.344-0.739-0.344-1.338v-8.344h1.951
					v7.657c0,0.236,0.043,0.406,0.121,0.511c0.085,0.109,0.218,0.159,0.402,0.159c0.141,0,0.324-0.069,0.545-0.209
					c0.218-0.141,0.422-0.319,0.603-0.537v-7.581h1.951V51.155z M42.414,49.095c0,0.705-0.153,1.246-0.46,1.625
					c-0.304,0.377-0.748,0.564-1.326,0.564c-0.384,0-0.723-0.071-1.022-0.217c-0.296-0.144-0.578-0.367-0.834-0.675v0.764h-1.971
					V37.628h1.971v4.357c0.266-0.303,0.545-0.535,0.836-0.692c0.299-0.162,0.598-0.239,0.902-0.239c0.618,0,1.09,0.211,1.414,0.637
					c0.326,0.425,0.49,1.047,0.49,1.865V49.095z M49.179,46.405h-3.732v1.881c0,0.525,0.063,0.89,0.191,1.094
					c0.128,0.204,0.349,0.303,0.663,0.303c0.324,0,0.547-0.086,0.678-0.258c0.126-0.175,0.193-0.552,0.193-1.139v-0.454h2.006v0.512
					c0,1.023-0.241,1.793-0.736,2.313c-0.485,0.515-1.215,0.771-2.187,0.771c-0.876,0-1.567-0.273-2.067-0.823
					c-0.5-0.544-0.753-1.3-0.753-2.262V43.86c0-0.863,0.276-1.572,0.831-2.117c0.55-0.544,1.258-0.816,2.135-0.816
					c0.894,0,1.579,0.253,2.059,0.757c0.48,0.506,0.718,1.23,0.718,2.176V46.405z"/>
				<polygon style="fill:#FFFFFF;" points="24.022,16.714 26.965,25.715 26.965,31.619 29.438,31.619 29.438,25.436 32.319,16.714 
					29.802,16.714 28.273,22.673 28.118,22.673 26.51,16.714 				"/>
				<path style="fill:#FFFFFF;" d="M33.381,21.103c-0.588,0.504-0.884,1.181-0.884,2.036v5.698c0,0.934,0.289,1.675,0.861,2.23
					c0.58,0.552,1.348,0.83,2.31,0.83c0.997,0,1.78-0.268,2.353-0.804c0.565-0.538,0.851-1.272,0.851-2.213v-5.679
					c0-0.837-0.291-1.526-0.869-2.058c-0.583-0.53-1.326-0.797-2.237-0.797C34.77,20.347,33.974,20.6,33.381,21.103z M36.635,23.054
					v5.991c0,0.294-0.09,0.526-0.264,0.696c-0.176,0.168-0.414,0.252-0.711,0.252c-0.291,0-0.515-0.08-0.671-0.249
					c-0.156-0.166-0.233-0.397-0.233-0.698v-5.991c0-0.239,0.085-0.431,0.249-0.583c0.171-0.148,0.387-0.219,0.655-0.219
					c0.291,0,0.525,0.072,0.703,0.219C36.545,22.623,36.635,22.816,36.635,23.054z"/>
				<path style="fill:#FFFFFF;" d="M46.924,31.619V20.626h-2.197v8.345c-0.203,0.239-0.429,0.435-0.676,0.592
					c-0.251,0.154-0.454,0.231-0.615,0.231c-0.206,0-0.357-0.058-0.447-0.177c-0.09-0.116-0.141-0.303-0.141-0.562v-8.428h-2.195
					v9.189c0,0.656,0.131,1.145,0.387,1.47c0.259,0.329,0.638,0.496,1.147,0.496c0.414,0,0.836-0.119,1.273-0.352
					c0.442-0.235,0.864-0.578,1.266-1.026v1.217H46.924z"/>
			</g>
		</g>
	</g>
</g>
<g id="Layer_1">
</g>
</svg>
