<svg xmlns="http://www.w3.org/2000/svg" viewBox="0 0 72 72">
  <title>zoo</title>
  <g id="Layer_2" data-name="Layer 2">
    <g id="Icons">
      <g>
        <circle cx="36" cy="36" r="36" style="fill: #fff;opacity: 0"/>
        <path d="M36,66" style="fill: #cc14a6"/>
        <path d="M20,56v5.37a26,26,0,0,0,5.5,2.91V55.5A52.08,52.08,0,0,1,20,56Z" style="fill: #cc14a6"/>
        <path d="M54.86,37.5v-2C65,35.46,65,31.39,65,31.39c-6.11,2-10.18,0-10.18,0a44.38,44.38,0,0,0-2-12.21S48.75,9,42.64,9s-8.14,4.07-8.14,4.07c-16.29-8.14-16.29,0-16.29,0a15.55,15.55,0,0,0,4.07,10.18c2,2,0,2,0,2L7.15,27.18a30.51,30.51,0,0,0,4.27,25.64A31.53,31.53,0,0,0,28.5,51.75V64.89a29.75,29.75,0,0,0,8,1.11c.68,0,1.36,0,2-.08,0-18.28,4.07-30.46,4.07-30.46a10.22,10.22,0,0,0,6.11,5.09c-4.07,18.32,8.14,19.34,8.14,19.34a6.3,6.3,0,0,0,2-4.07c-6.11,0-6.11-8.14-6.11-8.14s0-4.07,1-6.11C63,41.57,65,37.5,65,37.5,56.89,39.54,54.86,37.5,54.86,37.5Zm-6.11-9A2.25,2.25,0,1,1,51,26.25,2.25,2.25,0,0,1,48.75,28.5Z" style="fill: #cc14a6"/>
      </g>
    </g>
  </g>
</svg>
