<?xml version="1.0" encoding="iso-8859-1"?>
<!-- Generator: Adobe Illustrator 20.1.0, SVG Export Plug-In . SVG Version: 6.00 Build 0)  -->
<svg version="1.1" xmlns="http://www.w3.org/2000/svg" xmlns:xlink="http://www.w3.org/1999/xlink" x="0px" y="0px"
	 viewBox="0 0 72 72" style="enable-background:new 0 0 72 72;" xml:space="preserve">
<g id="Zoo_x5F_Pin">
	<circle style="opacity:0;fill:#FFFFFF;" cx="36" cy="36" r="36"/>
	<path style="fill:#CC1FCC;" d="M38,66c0-0.025,0-0.049,0-0.074C37.339,65.97,36.673,66,36,66H38z"/>
	<path style="fill:#CC1FCC;" d="M20,56v5.372c1.871,1.182,3.88,2.164,6,2.914V54C26,54,22,56,20,56z"/>
	<path style="fill:#CC1FCC;" d="M54,38v-2c10,0,10-4,10-4c-6,2-10,0-10,0c0-6-2-12-2-12s-4-10-10-10s-8,4-8,4c-16-8-16,0-16,0
		c0,4,2,8,4,10s0,2,0,2L7.127,27.859C6.398,30.449,6,33.177,6,36c0,6.334,1.968,12.207,5.319,17.049C20.098,55.155,28,52,28,52
		v12.913C30.548,65.616,33.228,66,36,66c0.673,0,1.339-0.03,2-0.074C38.011,47.968,42,36,42,36c2,4,6,5,6,5c-4,18,8,19,8,19
		c2-2,2-4,2-4c-6,0-6-8-6-8s0-4,1-6c9,0,11-4,11-4C56,40,54,38,54,38z M48,28c-1.104,0-2-0.895-2-2c0-1.105,0.896-2,2-2s2,0.895,2,2
		C50,27.105,49.104,28,48,28z"/>
</g>
<g id="Layer_1">
</g>
</svg>
