<svg xmlns="http://www.w3.org/2000/svg" viewBox="0 0 108 108"><defs><style>.cls-1{fill:#002b63;}.cls-2{fill:#fff;}</style></defs><title>12_panel</title><g id="Layer_2" data-name="Layer 2"><g id="Icons"><circle class="cls-1" cx="54" cy="54" r="54"/><path class="cls-2" d="M38.05,78h-6V42.44H19.22V37.68c6.79,0,13-1.75,14.28-9.31h4.55Z"/><path class="cls-2" d="M53,45.94c-.56-10.08,5.46-17.57,16-17.57,8.61,0,15.54,5,15.54,14.28,0,8.75-5.88,13.09-12,17-6.16,3.71-12.81,7-13.93,13.09H84V78H51.63c.91-11.69,6.93-16.1,13.93-20.3,8.4-5.25,12.67-8.19,12.67-15.12,0-5.39-4.34-9-9.59-9-6.93,0-9.87,6.37-9.66,12.32Z"/></g></g></svg>