<svg xmlns="http://www.w3.org/2000/svg" viewBox="0 0 108 108"><defs><style>.cls-1{fill:#002b63;}.cls-2{fill:#fff;}</style></defs><title>15_panel</title><g id="Layer_2" data-name="Layer 2"><g id="Icons"><circle class="cls-1" cx="54" cy="54" r="54"/><path class="cls-2" d="M38.05,78h-6V42.44H19.22V37.68c6.79,0,13-1.75,14.28-9.31h4.55Z"/><path class="cls-2" d="M82.85,34.46h-20L60.17,48.74l.14.14c2.17-2.45,5.88-3.57,9.24-3.57,8.82,0,16,5.6,16,17,0,8.4-5.81,16.52-17.36,16.52-8.61,0-15.61-5.25-15.82-14.21h6c.35,5.11,4.48,9,10.43,9,5.67,0,10.5-3.92,10.5-11.76,0-6.51-4.48-11.27-11.2-11.27a11.81,11.81,0,0,0-9.24,4.69L53.73,55l4.62-25.76h24.5Z"/></g></g></svg>