<svg xmlns="http://www.w3.org/2000/svg" viewBox="0 0 108 108"><defs><style>.cls-1{fill:#002b63;}.cls-2{fill:#fff;}</style></defs><title>16_panel</title><g id="Layer_2" data-name="Layer 2"><g id="Icons"><circle class="cls-1" cx="54" cy="54" r="54"/><path class="cls-2" d="M38.05,78h-6V42.44H19.22V37.68c6.79,0,13-1.75,14.28-9.31h4.55Z"/><path class="cls-2" d="M78.93,41c-.56-4.48-3.57-7.42-8.33-7.42-10.08,0-11.83,11.2-12,18.83l.14.14c2.8-4.55,7-6.51,12.39-6.51,9.52,0,15.19,6.93,15.19,16.1,0,7.28-4.06,16.66-16.59,16.66C54.92,78.84,52.61,65.33,52.61,55c0-13.65,4.13-26.6,18.27-26.6,8.19,0,13.23,4.55,14,12.67ZM59.68,62.53c0,6.16,3.78,11.06,10.29,11.06s10-5.11,10-11c0-6.16-3.22-11.27-10-11.27S59.68,56.3,59.68,62.53Z"/></g></g></svg>