<svg xmlns="http://www.w3.org/2000/svg" viewBox="0 0 108 108"><defs><style>.cls-1{fill:#002b63;}.cls-2{fill:#fff;}</style></defs><title>18_panel</title><g id="Layer_2" data-name="Layer 2"><g id="Icons"><circle class="cls-1" cx="54" cy="54" r="54"/><path class="cls-2" d="M38.05,78h-6V42.44H19.22V37.68c6.79,0,13-1.75,14.28-9.31h4.55Z"/><path class="cls-2" d="M69.06,28.36c10.85,0,15.05,6.3,15.05,12.67a11.38,11.38,0,0,1-6.86,10.29c6,1.89,8.82,6.23,8.82,12.39,0,9.59-7.28,15.12-16.45,15.12-9.52,0-16.87-5-16.87-15.12a12.44,12.44,0,0,1,8.68-12.39A11.11,11.11,0,0,1,54.5,41C54.5,32.92,61.43,28.36,69.06,28.36Zm.56,45.22c6,0,10.15-4.13,10.15-9.66,0-5.32-4.62-9.45-10.22-9.45-5.88,0-10.5,3.71-10.5,9.52S63.46,73.59,69.62,73.59Zm0-24.36c4.76,0,8.19-2.94,8.19-8s-3.5-7.63-8.33-7.63-8.68,2.66-8.68,7.63C60.8,46.64,64.79,49.23,69.62,49.23Z"/></g></g></svg>