<svg xmlns="http://www.w3.org/2000/svg" viewBox="0 0 108 108"><defs><style>.cls-1{fill:#002b63;}.cls-2{fill:#fff;}</style></defs><title>19_panel</title><g id="Layer_2" data-name="Layer 2"><g id="Icons"><circle class="cls-1" cx="54" cy="54" r="54"/><path class="cls-2" d="M38.05,78h-6V42.44H19.22V37.68c6.79,0,13-1.75,14.28-9.31h4.55Z"/><path class="cls-2" d="M59.33,66c.49,4.83,4.34,7.56,9.1,7.56,7.28,0,10.85-6.3,11.2-19.18l-.14-.14A13,13,0,0,1,68,61.13c-10.15,0-15.68-6.79-15.68-16.59,0-9.52,6.72-16.17,16.31-16.17,9.24,0,17,5,17,23.73,0,17.15-5.18,26.74-17.22,26.74-8.33,0-14.28-4.27-15.05-12.81Zm9-32.41c-7.07,0-9.73,5.67-9.73,11.76,0,5.39,4.06,10.5,9.8,10.5,6.23,0,10.15-5,10.15-10.92C78.58,38.87,75,33.62,68.36,33.62Z"/></g></g></svg>