<svg xmlns="http://www.w3.org/2000/svg" viewBox="0 0 108 108"><defs><style>.cls-1{fill:#002b63;}.cls-2{fill:#fff;}</style></defs><title>20_panel</title><g id="Layer_2" data-name="Layer 2"><g id="Icons"><circle class="cls-1" cx="54" cy="54" r="54"/><path class="cls-2" d="M18.16,45.94c-.56-10.08,5.46-17.57,16-17.57,8.61,0,15.54,5,15.54,14.28,0,8.75-5.88,13.09-12,17-6.16,3.71-12.81,7-13.93,13.09H49.17V78H16.76c.91-11.69,6.93-16.1,13.93-20.3,8.4-5.25,12.67-8.19,12.67-15.12,0-5.39-4.34-9-9.59-9-6.93,0-9.87,6.37-9.66,12.32Z"/><path class="cls-2" d="M73.46,28.36C89,28.36,90,42.72,90,53.64s-1,25.2-16.52,25.2S56.94,64.56,56.94,53.64,57.92,28.36,73.46,28.36Zm0,45.22c10.15,0,10.22-12.6,10.22-20s-.07-20-10.22-20-10.22,12.6-10.22,20S63.31,73.59,73.46,73.59Z"/></g></g></svg>