<svg xmlns="http://www.w3.org/2000/svg" viewBox="0 0 108 108"><defs><style>.cls-1{fill:#002b63;}.cls-2{fill:#fff;}</style></defs><title>03_panel</title><g id="Layer_2" data-name="Layer 2"><g id="Icons"><circle class="cls-1" cx="54" cy="54" r="54"/><path class="cls-2" d="M49.8,49.65a8.94,8.94,0,0,0,1.33.07h1.26c5,0,9.45-2.8,9.45-8.12s-3.78-8-8.82-8c-6.44,0-9.38,5-9.38,10.78h-6c.35-9.45,5.39-16,15.33-16,8.61,0,15.12,4.13,15.12,13.3,0,4.41-3,8.12-6.86,9.87v.14c6.09,1.33,9,6.09,9,12,0,9.87-7.77,15.12-17.08,15.12-10.08,0-16.73-5.88-16.52-16.17h6c.21,6.44,3.78,10.92,10.57,10.92,5.81,0,10.78-3.64,10.78-9.59,0-6.23-4.69-9.52-10.57-9.52a28.79,28.79,0,0,0-3.57.21Z"/></g></g></svg>