<svg xmlns="http://www.w3.org/2000/svg" viewBox="0 0 108 108"><defs><style>.cls-1{fill:#002b63;}.cls-2{fill:#fff;}</style></defs><title>05_panel</title><g id="Layer_2" data-name="Layer 2"><g id="Icons"><circle class="cls-1" cx="54" cy="54" r="54"/><path class="cls-2" d="M67.44,34.46h-20L44.76,48.74l.14.14c2.17-2.45,5.88-3.57,9.24-3.57,8.82,0,16,5.6,16,17,0,8.4-5.81,16.52-17.36,16.52C44.2,78.84,37.2,73.59,37,64.63h6c.35,5.11,4.48,9,10.43,9,5.67,0,10.5-3.92,10.5-11.76,0-6.51-4.48-11.27-11.2-11.27a11.8,11.8,0,0,0-9.24,4.69L38.32,55l4.62-25.76h24.5Z"/></g></g></svg>