<svg xmlns="http://www.w3.org/2000/svg" viewBox="0 0 108 108"><defs><style>.cls-1{fill:#002b63;}.cls-2{fill:#fff;}</style></defs><title>06_panel</title><g id="Layer_2" data-name="Layer 2"><g id="Icons"><circle class="cls-1" cx="54" cy="54" r="54"/><path class="cls-2" d="M63.52,41C63,36.56,60,33.62,55.19,33.62c-10.08,0-11.83,11.2-12,18.83l.14.14c2.8-4.55,7-6.51,12.39-6.51,9.52,0,15.19,6.93,15.19,16.1,0,7.28-4.06,16.66-16.59,16.66C39.51,78.84,37.2,65.33,37.2,55c0-13.65,4.13-26.6,18.27-26.6,8.19,0,13.23,4.55,14,12.67ZM44.27,62.53c0,6.16,3.78,11.06,10.29,11.06s10-5.11,10-11c0-6.16-3.22-11.27-10-11.27S44.27,56.3,44.27,62.53Z"/></g></g></svg>