<svg xmlns="http://www.w3.org/2000/svg" viewBox="0 0 108 108"><defs><style>.cls-1{fill:#002b63;}.cls-2{fill:#fff;}</style></defs><title>09_panel</title><g id="Layer_2" data-name="Layer 2"><g id="Icons"><circle class="cls-1" cx="54" cy="54" r="54"/><path class="cls-2" d="M43.92,66c.49,4.83,4.34,7.56,9.1,7.56,7.28,0,10.85-6.3,11.2-19.18l-.14-.14A13,13,0,0,1,52.6,61.13c-10.15,0-15.68-6.79-15.68-16.59,0-9.52,6.72-16.17,16.31-16.17,9.24,0,17,5,17,23.73,0,17.15-5.18,26.74-17.22,26.74C44.69,78.84,38.74,74.57,38,66Zm9-32.41c-7.07,0-9.73,5.67-9.73,11.76,0,5.39,4.06,10.5,9.8,10.5,6.23,0,10.15-5,10.15-10.92C63.17,38.87,59.6,33.62,53,33.62Z"/></g></g></svg>