<svg xmlns="http://www.w3.org/2000/svg" viewBox="0 0 108 108">
  <title>accessible</title>
  <g id="Layer_2" data-name="Layer 2">
    <g id="Icons">
      <g>
        <rect width="108" height="108" style="fill: #fff;opacity: 0"/>
        <g>
          <circle cx="56.23" cy="24.75" r="6.75" style="fill: #0d8585"/>
          <path d="M31.5,39.11,24.13,52.53l4.33,3,6-10.5L42,42,40.5,54a20.27,20.27,0,0,0-11.27,9.29A18,18,0,0,0,45,90h.27a17.95,17.95,0,0,0,15.9-25.87l1.55.07L73.82,81H81L67.5,60c-2-3.22-6.2-5.62-11.42-6-.24,0-.44,0-.65,0l.75-12.78h0c0-.12,0-.24,0-.37l0-.5h-.06a6.92,6.92,0,0,0-6.67-6.62H42.81ZM54.82,77.44a11.25,11.25,0,1,1-4.4-15.29A11.25,11.25,0,0,1,54.82,77.44Z" style="fill: #0d8585"/>
        </g>
      </g>
    </g>
  </g>
</svg>
