<svg xmlns="http://www.w3.org/2000/svg" viewBox="0 0 108 108">
  <title>air_quality_good</title>
  <g id="Layer_2" data-name="Layer 2">
    <g id="Icons">
      <g>
        <circle cx="54" cy="54" r="54" style="fill: #fff;opacity: 0"/>
        <path d="M86.8,46.2a9.53,9.53,0,0,0,.1-1.32,10.52,10.52,0,0,0-18.6-6.73A23.25,23.25,0,0,0,23.49,49.46h-.22a14.28,14.28,0,0,0,0,28.55c.29,0,.57,0,.85,0v0H83.59v0A16.13,16.13,0,0,0,86.8,46.2Z" style="fill: #378006"/>
        <polygon points="81.58 47.43 60.37 68.65 54.01 75.01 39.16 60.16 45.52 53.8 54.01 62.28 75.22 41.07 81.58 47.43" style="fill: #fff"/>
      </g>
    </g>
  </g>
</svg>
