<svg xmlns="http://www.w3.org/2000/svg" viewBox="0 0 108 108">
  <title>air_quality</title>
  <g id="Layer_2" data-name="Layer 2">
    <g id="Icons">
      <g>
        <circle cx="54" cy="54" r="54" style="fill: #fff;opacity: 0"/>
        <path d="M86.8,46.2a9.53,9.53,0,0,0,.1-1.32,10.52,10.52,0,0,0-18.6-6.73A23.25,23.25,0,0,0,23.49,49.46h-.22a14.28,14.28,0,0,0,0,28.55c.29,0,.57,0,.85,0v0H83.59v0A16.13,16.13,0,0,0,86.8,46.2ZM52.48,44.78h0C61.39,39.19,72.22,41.89,81,51A26.53,26.53,0,0,0,55.6,52.72h0C46.69,58.31,35.86,55.61,27,46.5A26.53,26.53,0,0,0,52.48,44.78ZM64.41,66.11h0c-8.91,5.58-19.74,3-28.56-6.12a26.55,26.55,0,0,0,25.44-1.83h0c8.9-5.58,19.73-2.78,28.56,6.33C81.21,60.75,72.26,61.19,64.41,66.11Z" style="fill: #378006"/>
      </g>
    </g>
  </g>
</svg>
