<svg xmlns="http://www.w3.org/2000/svg" viewBox="0 0 108 108">
  <title>air_quality_alert</title>
  <g id="Layer_2" data-name="Layer 2">
    <g id="Icons">
      <g>
        <circle cx="54" cy="54" r="54" style="fill: #fff;opacity: 0"/>
        <path d="M86.8,46.2a9.53,9.53,0,0,0,.1-1.32,10.52,10.52,0,0,0-18.6-6.73A23.25,23.25,0,0,0,23.49,49.46h-.22a14.28,14.28,0,0,0,0,28.55c.29,0,.57,0,.85,0v0H83.59v0A16.13,16.13,0,0,0,86.8,46.2ZM49.66,73.8A4.54,4.54,0,0,1,46.53,75a4.66,4.66,0,0,1-3.17-1.19A4.16,4.16,0,0,1,42,70.49,4.46,4.46,0,0,1,46.47,66a4.39,4.39,0,0,1,3.2,1.31,4.61,4.61,0,0,1,0,6.49Zm1.13-32.22L49.51,57.22a13.17,13.17,0,0,1-.89,4.29A2.35,2.35,0,0,1,46.35,63a2.24,2.24,0,0,1-2.23-1.44,15.15,15.15,0,0,1-.9-4.4L42.27,42Q42,37.52,42,35.58a6,6,0,0,1,1.3-4.11A4.32,4.32,0,0,1,46.71,30a3.4,3.4,0,0,1,3.43,1.89A13.62,13.62,0,0,1,51,37.33C51,38.73,50.93,40.14,50.79,41.58Z" style="fill: #d82121"/>
      </g>
    </g>
  </g>
</svg>
