<?xml version="1.0" encoding="UTF-8" standalone="no"?>
<!-- Generator: Adobe Illustrator 20.1.0, SVG Export Plug-In . SVG Version: 6.00 Build 0)  -->

<svg
   xmlns:dc="http://purl.org/dc/elements/1.1/"
   xmlns:cc="http://creativecommons.org/ns#"
   xmlns:rdf="http://www.w3.org/1999/02/22-rdf-syntax-ns#"
   xmlns:svg="http://www.w3.org/2000/svg"
   xmlns="http://www.w3.org/2000/svg"
   xmlns:sodipodi="http://sodipodi.sourceforge.net/DTD/sodipodi-0.dtd"
   xmlns:inkscape="http://www.inkscape.org/namespaces/inkscape"
   version="1.1"
   x="0px"
   y="0px"
   viewBox="0 0 108 108"
   style="enable-background:new 0 0 108 108;"
   xml:space="preserve"
   id="svg2"
   inkscape:version="0.91 r13725"
   sodipodi:docname="AroundMe_Menu.svg"><metadata
     id="metadata24"><rdf:RDF><cc:Work
         rdf:about=""><dc:format>image/svg+xml</dc:format><dc:type
           rdf:resource="http://purl.org/dc/dcmitype/StillImage" /></cc:Work></rdf:RDF></metadata><defs
     id="defs22" /><sodipodi:namedview
     pagecolor="#ffffff"
     bordercolor="#666666"
     borderopacity="1"
     objecttolerance="10"
     gridtolerance="10"
     guidetolerance="10"
     inkscape:pageopacity="0"
     inkscape:pageshadow="2"
     inkscape:window-width="690"
     inkscape:window-height="480"
     id="namedview20"
     showgrid="false"
     inkscape:zoom="2.1851852"
     inkscape:cx="54"
     inkscape:cy="54"
     inkscape:window-x="0"
     inkscape:window-y="0"
     inkscape:window-maximized="0"
     inkscape:current-layer="AroundMe_x5F_Menu" /><g
     id="AroundMe_x5F_Menu"><rect
       style="opacity:0.01;fill:#FFFFFF;"
       width="108"
       height="108"
       id="rect5" /><path
       style="fill:#0D8549;"
       d="M98.417,78.12c-2.793-5.9-15.407-10.416-30.89-12.11c11.856,1.585,21.297,5.188,23.487,9.815   C94.565,83.326,78.292,90,54,90s-40.565-6.674-37.014-14.175c2.19-4.627,11.631-8.229,23.487-9.815   c-15.483,1.694-28.097,6.21-30.89,12.11C5.323,87.121,24.85,96,54,96S102.678,87.121,98.417,78.12z"
       id="path7" /><path
       style="fill:#0D8549;"
       d="M83.611,73.557C81.228,68.606,68.117,65.142,54,65.142c-14.117,0-27.228,3.464-29.611,8.415   C21.549,79.458,34.567,85.142,54,85.142S86.452,79.458,83.611,73.557z M54,80.295c-14.575,0-24.339-4.263-22.209-8.688   c1.787-3.713,11.621-6.312,22.209-6.312c10.588,0,20.421,2.598,22.209,6.312C78.339,76.032,68.575,80.295,54,80.295z"
       id="path9" /><path
       style="fill:#0D8549;"
       d="M 54 36 C 45.883 36 39.283578 40.066219 39.017578 44.699219 C 39.000578 44.799219 39 44.9 39 45 L 39 58.082031 L 39 66.349609 L 39 70.949219 C 39 73.666219 45.717 75.449219 54 75.449219 C 62.283 75.449219 69 73.949219 69 70.949219 L 69 66.349609 L 69 58.082031 L 69 45 C 69 44.9 68.999422 44.799219 68.982422 44.699219 C 68.682422 40.449219 62.083 36 54 36 z "
       id="path11" /><circle
       style="fill:#0D8549;"
       cx="54"
       cy="21"
       r="12"
       id="circle13" /><g
       id="g15" /></g><g
     id="Layer_1" /></svg>