<?xml version="1.0" encoding="iso-8859-1"?>
<!-- Generator: Adobe Illustrator 20.1.0, SVG Export Plug-In . SVG Version: 6.00 Build 0)  -->
<svg version="1.1" xmlns="http://www.w3.org/2000/svg" xmlns:xlink="http://www.w3.org/1999/xlink" x="0px" y="0px"
	 viewBox="0 0 108 108" style="enable-background:new 0 0 108 108;" xml:space="preserve">
<g id="Art_x5F_Menu">
	<rect style="opacity:0;fill:#FFFFFF;" width="108" height="108"/>
	<g>
		<rect x="27" y="33" style="fill:#B35C12;" width="54" height="9"/>
		<rect x="24" y="84" style="fill:#B35C12;" width="60" height="9"/>
		<polygon style="fill:#B35C12;" points="54,9 22.5,28.091 24.057,30 84.092,30 85.5,28.091 		"/>
		<polygon style="fill:#B35C12;" points="81,45 66,45 71.101,48.312 69.251,77.099 66,81 69,81 78,81 81,81 77.749,77.099 
			75.899,48.312 		"/>
		<polygon style="fill:#B35C12;" points="61.5,45 46.5,45 51.601,48.312 49.751,77.099 46.5,81 49.5,81 58.5,81 61.5,81 
			58.249,77.099 56.399,48.312 		"/>
		<polygon style="fill:#B35C12;" points="27,81 30,81 39,81 42,81 38.749,77.099 36.899,48.312 42,45 27,45 32.101,48.312 
			30.251,77.099 		"/>
	</g>
</g>
<g id="Layer_1">
</g>
</svg>
