<?xml version="1.0" encoding="iso-8859-1"?>
<!-- Generator: Adobe Illustrator 20.1.0, SVG Export Plug-In . SVG Version: 6.00 Build 0)  -->
<svg version="1.1" xmlns="http://www.w3.org/2000/svg" xmlns:xlink="http://www.w3.org/1999/xlink" x="0px" y="0px"
	 viewBox="0 0 108 108" style="enable-background:new 0 0 108 108;" xml:space="preserve">
<g id="ATM_x5F_Menu">
	<circle style="opacity:0;fill:#FFFFFF;" cx="54" cy="54" r="54"/>
	<rect x="45" y="63" style="fill:#15788C;" width="18" height="9"/>
	<path style="fill:#15788C;" d="M81,22.5H27c-4.971,0-9,4.029-9,9v45c0,4.971,4.029,9,9,9h54c4.971,0,9-4.029,9-9v-45
		C90,26.529,85.971,22.5,81,22.5z M31.5,54h-9v-4.5h9V54z M31.5,45h-9v-4.5h9V45z M31.5,36h-9v-4.5h9V36z M72,63h-4.5v9v4.5H63H45
		h-4.5V72v-9H36v-4.5h36V63z M72,54H36V31.5h36V54z M85.5,54h-9v-4.5h9V54z M85.5,45h-9v-4.5h9V45z M85.5,36h-9v-4.5h9V36z"/>
</g>
<g id="Layer_1">
</g>
</svg>
