<svg xmlns="http://www.w3.org/2000/svg" viewBox="0 0 108 108">
  <title>bank</title>
  <g id="Layer_2" data-name="Layer 2">
    <g id="Icons">
      <g>
        <circle cx="54" cy="54" r="54" style="fill: #fff;opacity: 0"/>
        <path d="M53.93,6C36,6,39,14.57,42,18H66C69,14.57,72,6,53.93,6Z" style="fill: #0081a1"/>
        <path d="M87,54c0-15-9-27-24-30H45C30,27,21,39,21,54c0,8.29-6.07,16.59-6,23.12C15.09,84.77,23.23,90,53.93,90s39-5.25,39.07-12.91C93.07,70.57,87,62.28,87,54ZM54,81.1a24,24,0,1,1,24-24A24,24,0,0,1,54,81.1Z" style="fill: #0081a1"/>
        <path d="M58.5,54h-3V45H63V40.5H55.5V36h-3v4.5h-3a9,9,0,0,0,0,18h3v9h-12V72h12v4.5h3V72h3a9,9,0,0,0,0-18Zm-9,0a4.5,4.5,0,0,1,0-9h3v9Zm9,13.5h-3v-9h3a4.5,4.5,0,0,1,0,9Z" style="fill: #0081a1"/>
      </g>
    </g>
  </g>
</svg>
