<?xml version="1.0" encoding="iso-8859-1"?>
<!-- Generator: Adobe Illustrator 20.1.0, SVG Export Plug-In . SVG Version: 6.00 Build 0)  -->
<svg version="1.1" xmlns="http://www.w3.org/2000/svg" xmlns:xlink="http://www.w3.org/1999/xlink" x="0px" y="0px"
	 viewBox="0 0 108 108" style="enable-background:new 0 0 108 108;" xml:space="preserve">
<g id="Bank_x5F_Menu">
	<circle style="opacity:0;fill:#FFFFFF;" cx="54" cy="54" r="54"/>
	<path style="fill:#15788C;" d="M53.93,7.5C36,7.5,39,15,42,18h24C69,15,72,7.5,53.93,7.5z"/>
	<path style="fill:#15788C;" d="M87,54c0-15-9-27-24-30H45c-15,3-24,15-24,30c0,18-24,36,32.93,36C111,90,87,72,87,54z
		 M53.999,81.095c-13.255,0-24-10.745-24-24c0-13.255,10.745-24,24-24c13.255,0,24,10.745,24,24
		C77.999,70.35,67.254,81.095,53.999,81.095z"/>
	<path style="fill:#15788C;" d="M58.5,54h-3.001v-9H63v-4.5h-7.501V36h-3v4.5H49.5c-4.971,0-9,4.029-9,9s4.029,9,9,9h2.999v9H40.5
		V72h11.999v4.5h3V72H58.5c4.971,0,9-4.029,9-9S63.471,54,58.5,54z M49.5,54c-2.485,0-4.5-2.015-4.5-4.5s2.015-4.5,4.5-4.5h2.999v9
		H49.5z M58.5,67.5h-3.001v-9H58.5c2.485,0,4.5,2.015,4.5,4.5S60.985,67.5,58.5,67.5z"/>
</g>
<g id="Layer_1">
</g>
</svg>
