<?xml version="1.0" encoding="iso-8859-1"?>
<!-- Generator: Adobe Illustrator 20.1.0, SVG Export Plug-In . SVG Version: 6.00 Build 0)  -->
<svg version="1.1" xmlns="http://www.w3.org/2000/svg" xmlns:xlink="http://www.w3.org/1999/xlink" x="0px" y="0px"
	 viewBox="0 0 108 108" style="enable-background:new 0 0 108 108;" xml:space="preserve">
<g id="Bed_x5F_Breakfast_x5F_Menu">
	<circle style="opacity:0;fill:#FFFFFF;" cx="54" cy="54" r="54"/>
	<polygon style="fill:#D82121;" points="27,37.5 31.5,45 76.5,45 81,37.5 	"/>
	<circle style="fill:#D82121;" cx="33.75" cy="62.25" r="6.75"/>
	<polygon style="fill:#D82121;" points="85.5,60 85.5,74 22.5,74 22.5,51 18,51 18,85.5 22.5,85.5 22.5,81 85.5,81 85.5,85.5 
		90,85.5 90,60 	"/>
	<path style="fill:#D82121;" d="M68.868,55.5H45V69h36v-1.557C81,60.847,75.568,55.5,68.868,55.5z"/>
	<g>
		<path style="fill:#D82121;" d="M76.5,16.5c0,9.941-10.074,18-22.5,18s-22.5-8.059-22.5-18H76.5z"/>
	</g>
</g>
<g id="Layer_1">
</g>
</svg>
