<?xml version="1.0" encoding="iso-8859-1"?>
<!-- Generator: Adobe Illustrator 20.1.0, SVG Export Plug-In . SVG Version: 6.00 Build 0)  -->
<svg version="1.1" xmlns="http://www.w3.org/2000/svg" xmlns:xlink="http://www.w3.org/1999/xlink" x="0px" y="0px"
	 viewBox="0 0 108 108" style="enable-background:new 0 0 108 108;" xml:space="preserve">
<g id="Beer_x5F_menu">
	<circle style="opacity:0;fill:#FFFFFF;" cx="54" cy="54" r="54"/>
	<path style="fill:#0E8A0E;" d="M75,27c0-9-3-12-3-12H36c0,0-3,3-3,12s3,21,3,21s3,21,3,24s-3,18,0,21h30c3-3,0.5-18,0.5-21
		S75,36,75,27z M66,90H42c-3-3,0-15.231,0-18c0,0-6-36-6-43.5c0-8.308,2.5-10.5,2.5-10.5h31c0,0,2.5,2.192,2.5,10.5
		C72,36,66,72,66,72C66,74.769,69,87,66,90z"/>
	<path style="fill:#0E8A0E;" d="M39,30c0,0,0,12,3,21c2.049,6.146,2.794,22.284,3,30c0.096,3.583,0,6,0,6h18
		c0,0,0-2.339,0.091-5.831C63.292,73.477,63.937,57.19,66,51c3-9,3-21,3-21H39z"/>
</g>
<g id="Layer_1">
</g>
</svg>
