<svg xmlns="http://www.w3.org/2000/svg" viewBox="0 0 108 108">
  <title>beer</title>
  <g id="Layer_2" data-name="Layer 2">
    <g id="Icons">
      <g>
        <circle cx="54" cy="54" r="54" style="fill: #fff;opacity: 0"/>
        <g>
          <path d="M78,23.5C78,13.83,74.57,9,74.57,9H33.43S30,13.83,30,23.5s3.43,22.56,3.43,22.56,3.43,22.56,3.43,25.78-3.43,20.94,0,24.17H71.14c3.43-3.22.57-20.94.57-24.17S78,33.17,78,23.5Zm-10.5,68h-27c-3.43-3.22-.21-16.69-.21-19.67,0,0-6.86-38.67-6.86-46.72C33.43,16.19,36,13.5,36,13.5H72s2.57,2.69,2.57,11.61c0,8.06-6.86,46.72-6.86,46.72C67.71,74.81,70.93,88.28,67.5,91.5Z" style="fill: #00856a"/>
          <path d="M39,30c0,7,6,42,6,42,0,2.6-2.4,12.18,0,15H63c2.4-2.82,0-12.4,0-15,0,0,6-35,6-42" style="fill: #00856a"/>
        </g>
      </g>
    </g>
  </g>
</svg>
