<svg xmlns="http://www.w3.org/2000/svg" viewBox="0 0 108 108">
  <title>bin</title>
  <g id="Layer_2" data-name="Layer 2">
    <g id="Icons">
      <g>
        <circle cx="54" cy="54" r="54" style="fill: #fff;opacity: 0"/>
        <path d="M78,18H60V15a3,3,0,0,0-3-3H51a3,3,0,0,0-3,3v3H30a3,3,0,0,0-3,3v4.5H81V21A3,3,0,0,0,78,18Z" style="fill: #404040"/>
        <path d="M30,30V90a6,6,0,0,0,6,6H72a6,6,0,0,0,6-6V30ZM70.5,91h-33a3,3,0,0,1-3-3V35h39V88A3,3,0,0,1,70.5,91Z" style="fill: #404040"/>
        <rect x="51" y="39" width="6" height="48" rx="1" ry="1" style="fill: #404040"/>
        <rect x="63" y="39" width="6" height="48" rx="1" ry="1" style="fill: #404040"/>
        <rect x="39" y="39" width="6" height="48" rx="1" ry="1" style="fill: #404040"/>
      </g>
    </g>
  </g>
</svg>
