<svg xmlns="http://www.w3.org/2000/svg" viewBox="0 0 108 108">
  <title>burgers</title>
  <g id="Layer_2" data-name="Layer 2">
    <g id="Icons">
      <g>
        <circle cx="54" cy="54" r="54" style="fill: #fff;opacity: 0"/>
        <path d="M90.75,54a11.83,11.83,0,0,0-1-4.51C87,54,84,57,76.5,60l-9,11C80.9,69,90.75,63,90.75,54Z" style="fill: #00856a"/>
        <path d="M18.2,51.74a11.8,11.8,0,0,0-1,4.51C17.25,66,30,72,48,73.5L39,63C27,60,21,57,18.2,51.74Z" style="fill: #00856a"/>
        <path d="M63,81,58.5,85.59,54,81c-21,0-33-6-36.46-13.51a11.4,11.4,0,0,0-1,4.51C16.5,84,33,90,54,90s37.5-6,37.5-18a11.43,11.43,0,0,0-1-4.51C87,75,78,78.46,63,81Z" style="fill: #00856a"/>
        <path d="M54,18C36.06,18,18,30,18,40.5s15,18,36,18,36-7.5,36-18S72,18,54,18Zm0,31.5c-2.49,0-6-.26-6-1.5s0-6,6-6,6,4.76,6,6S56.49,49.5,54,49.5Zm9-12c-2.49,0-6-.26-6-1.5s0-6,6-6,6,4.76,6,6S65.49,37.5,63,37.5Zm12,9c-2.49,0-6,0-6-1.5s0-6,6-6,6,4.76,6,6S77.49,46.5,75,46.5Z" style="fill: #00856a"/>
      </g>
    </g>
  </g>
</svg>
