<?xml version="1.0" encoding="iso-8859-1"?>
<!-- Generator: Adobe Illustrator 20.1.0, SVG Export Plug-In . SVG Version: 6.00 Build 0)  -->
<svg version="1.1" xmlns="http://www.w3.org/2000/svg" xmlns:xlink="http://www.w3.org/1999/xlink" x="0px" y="0px"
	 viewBox="0 0 108 108" style="enable-background:new 0 0 108 108;" xml:space="preserve">
<g id="Burgers_x5F_Menu">
	<circle style="opacity:0;fill:#FFFFFF;" cx="54" cy="54" r="54"/>
	<path style="fill:#99581F;" d="M90.75,51c0-1.51-0.338-3.022-0.951-4.509C87,51,84,54,76.5,57l-9,11
		C80.895,66.037,90.75,60,90.75,51z"/>
	<path style="fill:#99581F;" d="M18.202,48.744c-0.613,1.486-0.952,2.997-0.952,4.506C17.25,63,30,69,48,70.5L39,60
		C27,57,21,54,18.202,48.744z"/>
	<path style="fill:#99581F;" d="M63.033,78L58.5,82.594L53.951,78C33,78.001,21,72,17.492,64.494C16.853,65.98,16.5,67.491,16.5,69
		C16.5,81,33,87,54,87s37.5-6,37.5-18c0-1.51-0.352-3.022-0.99-4.509C87,72,78,75.464,63.033,78z"/>
	<path style="fill:#99581F;" d="M54,15c-17.937,0-36,12-36,22.5s15,18,36,18s36-7.5,36-18S72,15,54,15z M54,46.5
		c-2.485,0-6-0.257-6-1.5s0-6,6-6s6,4.757,6,6S56.485,46.5,54,46.5z M63,34.5c-2.485,0-6-0.257-6-1.5s0-6,6-6s6,4.757,6,6
		S65.485,34.5,63,34.5z M75,43.5c-2.485,0-6,0-6-1.5s0-6,6-6s6,4.757,6,6S77.485,43.5,75,43.5z"/>
</g>
<g id="Layer_1">
</g>
</svg>
