<svg xmlns="http://www.w3.org/2000/svg" viewBox="0 0 108 108">
  <title>bus</title>
  <g id="Layer_2" data-name="Layer 2">
    <g id="Icons">
      <g>
        <circle cx="54" cy="54" r="54" style="fill: #fff;opacity: 0"/>
        <path d="M78,18H30a9,9,0,0,0-9,9V72c0,3.32,3.32,6.19,6,7.75V90h9V81H72v9h9V79.75c2.68-1.56,6-4.43,6-7.75V27A9,9,0,0,0,78,18ZM42,24H66v3H42ZM33,75a6,6,0,1,1,6-6A6,6,0,0,1,33,75Zm30,0H45V72H63Zm12,0a6,6,0,1,1,6-6A6,6,0,0,1,75,75Zm6-19.5A4.5,4.5,0,0,1,76.5,60h-45A4.5,4.5,0,0,1,27,55.5v-21A4.5,4.5,0,0,1,31.5,30h45A4.5,4.5,0,0,1,81,34.5Z" style="fill: #e61066"/>
      </g>
    </g>
  </g>
</svg>
