<?xml version="1.0" encoding="iso-8859-1"?>
<!-- Generator: Adobe Illustrator 20.1.0, SVG Export Plug-In . SVG Version: 6.00 Build 0)  -->
<svg version="1.1" xmlns="http://www.w3.org/2000/svg" xmlns:xlink="http://www.w3.org/1999/xlink" x="0px" y="0px"
	 viewBox="0 0 108 108" style="enable-background:new 0 0 108 108;" xml:space="preserve">
<g id="Bus_x5F_Menu">
	<circle style="opacity:0;fill:#FFFFFF;" cx="54" cy="54" r="54"/>
	<path style="fill:#E01678;" d="M81.038,15.428H26.962c-3.707,0-6.712,3.005-6.712,6.712v54.075c0,3.046,2.042,5.588,4.821,6.409
		v9.035c0,0.74,0.6,1.339,1.339,1.339h6.964c0.74,0,1.339-0.6,1.339-1.339v-8.732h38.571v8.732c0,0.74,0.6,1.339,1.339,1.339h6.964
		c0.74,0,1.339-0.6,1.339-1.339v-9.035c2.78-0.821,4.821-3.363,4.821-6.409V22.141C87.75,18.434,84.745,15.428,81.038,15.428z
		 M39,18h30v6H39V18z M30,75c-3.314,0-6-2.687-6-6s2.686-6,6-6s6,2.687,6,6S33.314,75,30,75z M69,78.107H39V75h30V78.107z M66,72H42
		v-6h24V72z M78,75c-3.314,0-6-2.687-6-6s2.686-6,6-6s6,2.687,6,6S81.314,75,78,75z M82.929,54.322c0,2.485-2.015,4.5-4.5,4.5
		H29.571c-2.485,0-4.5-2.015-4.5-4.5V34.393c0-2.485,2.015-4.5,4.5-4.5h48.857c2.485,0,4.5,2.015,4.5,4.5V54.322z"/>
</g>
<g id="Layer_1">
</g>
</svg>
