<?xml version="1.0" encoding="iso-8859-1"?>
<!-- Generator: Adobe Illustrator 20.1.0, SVG Export Plug-In . SVG Version: 6.00 Build 0)  -->
<svg version="1.1" xmlns="http://www.w3.org/2000/svg" xmlns:xlink="http://www.w3.org/1999/xlink" x="0px" y="0px"
	 viewBox="0 0 108 108" style="enable-background:new 0 0 108 108;" xml:space="preserve">
<g id="Business_x5F_Menu">
	<rect style="opacity:0.01;fill:#FFFFFF;" width="108" height="108"/>
	<g>
		<rect x="42" y="24" style="fill:#777A00;" width="24" height="3"/>
		<rect x="42" y="27" style="fill:#777A00;" width="3" height="6"/>
		<rect x="63" y="27" style="fill:#777A00;" width="3" height="6"/>
		<circle style="fill:#777A00;" cx="58.875" cy="47.75" r="0"/>
		<g>
			<g>
				<path style="fill:#777A00;" d="M80.742,50.879C79.576,52.045,77.271,53,75.621,53H63c-1.65,0-3,0.9-3,2s-1.35,2-3,2h-6
					c-1.65,0-3-0.9-3-2s-1.35-2-3-2H32.379c-1.65,0-3.955-0.955-5.121-2.121l-7.136-7.136C18.955,42.576,18,42.971,18,44.621V78
					c0,1.65,1.35,3,3,3h66c1.65,0,3-1.35,3-3V44.621c0-1.65-0.955-2.045-2.121-0.879L80.742,50.879z"/>
			</g>
			<g>
				<path style="fill:#777A00;" d="M21,33c-1.65,0-3,0.985-3,2.189s0.955,3.144,2.121,4.311l8.378,8.378
					C29.667,49.045,31.971,50,33.621,50H45c1.65,0,3-1.125,3-2.5s1.35-2.5,3-2.5h6c1.65,0,3,1.125,3,2.5s1.35,2.5,3,2.5h11.379
					c1.65,0,3.955-0.955,5.121-2.121l8.378-8.378C89.045,38.333,90,36.394,90,35.189S88.65,33,87,33H21z"/>
			</g>
		</g>
		<rect x="51" y="48" style="fill:#777A00;" width="6" height="6"/>
	</g>
</g>
<g id="Layer_1">
</g>
</svg>
