<svg xmlns="http://www.w3.org/2000/svg" viewBox="0 0 108 108">
  <title>camping</title>
  <g id="Layer_2" data-name="Layer 2">
    <g id="Icons">
      <g>
        <circle cx="54" cy="54" r="54" style="fill: #fff;opacity: 0"/>
        <path d="M66.75,39.75,73.5,28.5l2.25,9L87,35.25l-13.5-27C67,21.06,53.25,42,53.25,42Z" style="fill: #d82121"/>
        <path d="M69,6S48.75,17.25,28.5,17.25L15,35.25,46.5,42S63.43,14.76,69,6Z" style="fill: #d82121"/>
        <circle cx="42" cy="90" r="6" style="fill: #d82121"/>
        <path d="M85.5,81v4.5h-8a13.4,13.4,0,0,0,3.5-9V63c0-7.46-7.54-15-15-15H33c-7.46,0-15,4.54-15,12v3.38a3,3,0,1,0-6,0V76.13a3.08,3.08,0,0,0,3,3.38c1.86,0,3-1.51,3-4.5v3c0,7.59,4.55,12,12,12a12,12,0,0,1,24,0H90V81ZM48,72H27V57H48Zm24,0H57V57H72Z" style="fill: #d82121"/>
      </g>
    </g>
  </g>
</svg>
