<?xml version="1.0" encoding="iso-8859-1"?>
<!-- Generator: Adobe Illustrator 20.1.0, SVG Export Plug-In . SVG Version: 6.00 Build 0)  -->
<svg version="1.1" xmlns="http://www.w3.org/2000/svg" xmlns:xlink="http://www.w3.org/1999/xlink" x="0px" y="0px"
	 viewBox="0 0 108 108" style="enable-background:new 0 0 108 108;" xml:space="preserve">
<g id="Camping_x5F_Menu">
	<circle style="opacity:0;fill:#FFFFFF;" cx="54" cy="54" r="54"/>
	<path style="fill:#D82121;" d="M54,45c0,0,12.87-21.695,19.35-34.5l15.15,30l-12,1.5l-3-12l-6,13.5L54,45z"/>
	<path style="fill:#D82121;" d="M48,45l-33-6l13.5-19.5c16.5,0,39.3-9,39.3-9C62.229,19.258,48,45,48,45z"/>
	<circle style="fill:#D82121;" cx="39" cy="90" r="6"/>
	<path style="fill:#D82121;" d="M82.5,81v4.5h-6C78,84,78,84,78,82.113V60c0-6-3-9-9-9H30c-6,0-9,3-9,9v8.328
		C21,67.042,19.286,66,18,66h-0.144C16.57,66,15,67.042,15,68.328v9.745c0,1.286,1.57,2.328,2.856,2.328H18c1.286,0,3-1.042,3-2.328
		v4.041C21,86.451,25.149,90,29.487,90H30c0-5.294,3.707-9.75,9-9.75s9,4.456,9,9.75h5.4h16.113H82.2H87v-4.8V81H82.5z M48,72H30V60
		h18V72z M57,60h12v12H57V60z"/>
</g>
<g id="Layer_1">
</g>
</svg>
