<svg xmlns="http://www.w3.org/2000/svg" viewBox="0 0 108 108">
  <title>casino</title>
  <g id="Layer_2" data-name="Layer 2">
    <g id="Icons">
      <g>
        <circle cx="54" cy="54" r="54" style="fill: #fff;opacity: 0"/>
        <g>
          <path d="M39,54c0-2.19,1.77-4.46,3.05-6l10.5-12,10.5,12C64.34,49.54,66,51.81,66,54c0,9-10.45,6-10.45,6l3,9h-12l3-9S39,63,39,54Z" style="fill: #068037"/>
          <path d="M78,21a6,6,0,0,0-6-6H33a6,6,0,0,0-6,6V81a6,6,0,0,0,6,6,6,6,0,0,0,6,6H78a6,6,0,0,0,6-6V27A6,6,0,0,0,78,21ZM30,81V21a3,3,0,0,1,3-3H72a3,3,0,0,1,3,3V81a3,3,0,0,1-3,3H33A3,3,0,0,1,30,81Z" style="fill: #068037"/>
        </g>
      </g>
    </g>
  </g>
</svg>
