<?xml version="1.0" encoding="iso-8859-1"?>
<!-- Generator: Adobe Illustrator 20.1.0, SVG Export Plug-In . SVG Version: 6.00 Build 0)  -->
<svg version="1.1" xmlns="http://www.w3.org/2000/svg" xmlns:xlink="http://www.w3.org/1999/xlink" x="0px" y="0px"
	 viewBox="0 0 108 108" style="enable-background:new 0 0 108 108;" xml:space="preserve">
<g id="Charge_x5F_Point_x5F_Menu">
	<circle style="opacity:0;fill:#FFFFFF;" cx="54" cy="54" r="54"/>
	<path style="fill:#E01678;" d="M88.5,40.5V27h-3v-9h-4.486v9H76.5v-9h-4.486v9H69v13.5h7.5v6c0,0,4.25,32.75,4.5,34.5
		c0.25,1.75-0.625,4.5-4.5,4.5c-3.938,0-4.448-2.395-4.5-4.5c0,0,0-25.125,0-29.25c0-3.516-3.188-6.75-6.75-6.75H58.5V22.5
		c0-2.475-2.025-4.5-4.5-4.5H31.5c-2.475,0-4.5,2.025-4.5,4.5v63c0,2.475,2.025,4.5,4.5,4.5H54c2.475,0,4.5-2.025,4.5-4.5v-36
		c1.386,0,2.952,0,4.5,0c4.41,0,4.5,4.5,4.5,4.5s0,25.736,0,27c0,3.188,0.553,9,9,9c10.406,0,9-9,9-9L81,46.5v-6H88.5z M39,84h-3
		l6-18h-9l3-18h15l-6.018,12H54L39,84z M54,40.5H31.5V27H54V40.5z"/>
</g>
<g id="Layer_1">
</g>
</svg>
