<svg xmlns="http://www.w3.org/2000/svg" viewBox="0 0 108 108">
  <title>charge_point</title>
  <g id="Layer_2" data-name="Layer 2">
    <g id="Icons">
      <g>
        <circle cx="54" cy="54" r="54" style="fill: #fff;opacity: 0"/>
        <path d="M78,51s4.25,31.25,4.5,33-.63,4.5-4.5,4.5-4.45-2.4-4.5-4.5V51.75A7,7,0,0,0,66.75,45H60V22.5A4.51,4.51,0,0,0,55.5,18h-27A4.51,4.51,0,0,0,24,22.5v66A4.51,4.51,0,0,0,28.5,93h27A4.51,4.51,0,0,0,60,88.5v-39h4.5C68.91,49.5,69,54,69,54V84c0,3.19.55,9,9,9,10.41,0,9-9,9-9L82.5,51V39H90V24H87V15H82.51v9h-6V15H72v9H69V39h9ZM39,84H36l6-18H33l3-18H51L45,60h9ZM54,42H30V27H54Z" style="fill: #e61066"/>
      </g>
    </g>
  </g>
</svg>
