<?xml version="1.0" encoding="iso-8859-1"?>
<!-- Generator: Adobe Illustrator 20.1.0, SVG Export Plug-In . SVG Version: 6.00 Build 0)  -->
<svg version="1.1" xmlns="http://www.w3.org/2000/svg" xmlns:xlink="http://www.w3.org/1999/xlink" x="0px" y="0px"
	 viewBox="0 0 108 108" style="enable-background:new 0 0 108 108;" xml:space="preserve">
<g id="Childcare_x5F_Menu">
	<circle style="opacity:0;fill:#FFFFFF;" cx="54" cy="54" r="54"/>
	<path style="fill:#CC1FCC;" d="M12,75h33V42H12V75z M19.255,52.826c2.232-0.719,3.965-1.583,5.199-2.592s2.2-2.253,2.897-3.734
		h5.425v24h-6.632V54.774c-1.073,0.816-2.111,1.476-3.115,1.98c-1.003,0.504-2.262,0.987-3.775,1.449V52.826z"/>
	<path style="fill:#CC1FCC;" d="M87,20.234L55.971,9L44.737,40.029l31.029,11.234L87,20.234z M74.119,32.049
		c-1.238,0.944-3.168,1.775-5.79,2.492c-1.552,0.408-2.599,0.708-3.142,0.9c-0.543,0.191-1.197,0.462-1.963,0.813l9.626,3.485
		l-1.819,5.025l-18.495-6.696c0.873-1.75,2.138-3.235,3.796-4.455c1.657-1.22,4.36-2.39,8.11-3.509
		c2.292-0.688,3.816-1.289,4.573-1.802c0.757-0.514,1.248-1.083,1.475-1.709c0.245-0.676,0.204-1.344-0.122-2.004
		c-0.326-0.66-0.867-1.127-1.624-1.401c-0.787-0.285-1.52-0.271-2.198,0.043c-0.678,0.314-1.33,1.065-1.955,2.254l-5.994-2.735
		c0.87-1.648,1.805-2.842,2.803-3.582c0.998-0.74,2.179-1.157,3.543-1.251c1.364-0.094,3.085,0.235,5.163,0.988
		c2.169,0.785,3.767,1.644,4.794,2.575c1.027,0.931,1.7,2.034,2.021,3.308s0.25,2.547-0.21,3.819
		C76.22,29.956,75.357,31.105,74.119,32.049z"/>
	<path style="fill:#CC1FCC;" d="M81.228,51l-31.451,9.993l9.993,31.451l31.451-9.993L81.228,51z M79.041,80.544
		c-1.064,1.041-2.628,1.89-4.69,2.545c-2.012,0.639-3.674,0.907-4.986,0.803c-1.312-0.104-2.487-0.492-3.526-1.164
		c-1.039-0.672-1.978-1.633-2.818-2.884l5.882-2.766c0.635,1.161,1.282,1.899,1.941,2.215c0.66,0.316,1.382,0.35,2.167,0.101
		c0.825-0.262,1.415-0.782,1.772-1.56c0.356-0.778,0.375-1.669,0.055-2.675c-0.326-1.026-0.842-1.737-1.549-2.132
		c-0.707-0.396-1.513-0.449-2.419-0.162c-0.483,0.153-1.108,0.485-1.877,0.995l-1.078-4.491c0.358-0.058,0.633-0.118,0.824-0.179
		c0.805-0.256,1.395-0.725,1.77-1.409c0.375-0.684,0.451-1.378,0.227-2.082c-0.214-0.674-0.586-1.148-1.116-1.423
		c-0.53-0.275-1.147-0.3-1.851-0.076c-0.724,0.23-1.243,0.636-1.557,1.217s-0.377,1.446-0.189,2.593l-6.14,0.805
		c-0.105-2.004,0.372-3.717,1.432-5.139c1.06-1.422,2.847-2.532,5.362-3.331c2.887-0.917,5.145-1.042,6.774-0.375
		c1.629,0.667,2.703,1.816,3.221,3.445c0.304,0.956,0.317,1.904,0.04,2.844c-0.277,0.941-0.851,1.87-1.722,2.789
		c0.922-0.06,1.654-0.022,2.196,0.116c0.878,0.219,1.638,0.634,2.281,1.244s1.126,1.428,1.452,2.454
		c0.409,1.288,0.464,2.629,0.166,4.025C80.787,78.284,80.105,79.503,79.041,80.544z"/>
</g>
<g id="Layer_1">
</g>
</svg>
