<svg xmlns="http://www.w3.org/2000/svg" viewBox="0 0 108 108">
  <title>childcare</title>
  <g id="Layer_2" data-name="Layer 2">
    <g id="Icons">
      <g>
        <circle cx="54" cy="54" r="54" style="fill: #fff;opacity: 0"/>
        <path d="M12,45V78H45V45ZM33,75H27V57a24.54,24.54,0,0,1-3.28,2.48A27.61,27.61,0,0,1,19.5,61.1V55.5a17.93,17.93,0,0,0,5.82-3.32A11.67,11.67,0,0,0,28.5,48H33Z" style="fill: #cc14a6"/>
        <path d="M55.47,7.5,45,39,76.5,49.5,87,18Zm18,31.58-1.9,5.67L51.64,38.09a14.21,14.21,0,0,1,4-5.12,30.24,30.24,0,0,1,8.66-4.26,20.76,20.76,0,0,0,4.89-2.2,4.19,4.19,0,0,0,1.56-2,2.82,2.82,0,0,0-.15-2.23A3.13,3.13,0,0,0,66.51,21a4.94,4.94,0,0,0-2,2.43L57.35,21a14.13,14.13,0,0,1,3.6-4.35,7.08,7.08,0,0,1,3.79-1.55,13.23,13.23,0,0,1,5.59.75,14.66,14.66,0,0,1,5.13,2.79,7,7,0,0,1,2.2,3.6,7.56,7.56,0,0,1,0,4.31,8.91,8.91,0,0,1-2.91,3.89,18.94,18.94,0,0,1-6.18,3q-2.49.78-3.36,1.14t-2.1,1Z" style="fill: #cc14a6"/>
        <path d="M49.5,61.47,60,93,91.5,82.5,81,51ZM82.14,77.59A7.87,7.87,0,0,1,80,81.71a12.49,12.49,0,0,1-5.08,2.9,14.44,14.44,0,0,1-5.46.94,8.17,8.17,0,0,1-3.9-1.27,12.17,12.17,0,0,1-3.22-3.37l6.44-3A5.69,5.69,0,0,0,71,80.38a3.07,3.07,0,0,0,2.38.09,3,3,0,0,0,1.91-1.76,4.15,4.15,0,0,0,0-3,4,4,0,0,0-1.76-2.38,3.18,3.18,0,0,0-2.66-.16,3,3,0,0,0-1.38.62l-1.95-4.51a6.72,6.72,0,0,0,.9-.21,3.17,3.17,0,0,0,1.91-1.6,2.9,2.9,0,0,0,.2-2.34,2.62,2.62,0,0,0-1.26-1.59,2.54,2.54,0,0,0-2-.07,2.76,2.76,0,0,0-1.68,1.38,4.76,4.76,0,0,0-.14,2.91l-6.72,1a8.63,8.63,0,0,1,1.44-5.78,11.15,11.15,0,0,1,5.8-3.78q4.72-1.58,7.43-.48a6,6,0,0,1,3.63,3.84,5.45,5.45,0,0,1,.12,3.19,7.74,7.74,0,0,1-1.82,3.15,8,8,0,0,1,2.41.11,5.59,5.59,0,0,1,2.54,1.38,6.52,6.52,0,0,1,1.66,2.74A8.89,8.89,0,0,1,82.14,77.59Z" style="fill: #cc14a6"/>
      </g>
    </g>
  </g>
</svg>
