<svg xmlns="http://www.w3.org/2000/svg" viewBox="0 0 108 108">
  <title>chinese_thai</title>
  <g id="Layer_2" data-name="Layer 2">
    <g id="Icons">
      <g>
        <circle cx="54" cy="54" r="54" style="fill: #fff;opacity: 0"/>
        <path d="M46.52,15.6A7,7,0,0,1,48.76,6S42,5.4,42,13.2c0,3.49,2.28,7.19,2.28,7.19S48.43,26.6,42,30c0,0,8.77.53,9-4.79C51.11,22.39,49,20.21,46.52,15.6Z" style="fill: #00856a"/>
        <path d="M31.48,22.2C34.79,17.62,29.24,15,29.24,15S36,14.55,36,20.4c0,2.62-2.28,5.39-2.28,5.39S29.57,30.45,36,33c0,0-8.77.4-9-3.6C26.89,27.29,29,25.65,31.48,22.2Z" style="fill: #00856a"/>
        <path d="M63,60l.07-1.5a13.18,13.18,0,0,0-.14-1.5A13.45,13.45,0,0,0,51,45.15a13.47,13.47,0,0,0-25.52,0A13.45,13.45,0,0,0,13.56,57a13.18,13.18,0,0,0-.14,1.5l0,1.5H9A29.53,29.53,0,0,0,27,83.25V90H49.53V83.23A29.5,29.5,0,0,0,67.5,60ZM18,60c0-1.38.05-2.76.1-3a8.9,8.9,0,0,1,11.19-7.17c0-.11,0-.22,0-.33a8.88,8.88,0,0,1,1-4.06,9,9,0,0,1,16,0,8.88,8.88,0,0,1,1,4.06c0,.11,0,.22,0,.33A9,9,0,0,1,58.43,57c0,.24.07,1.62.1,3Z" style="fill: #00856a"/>
        <polygon points="96 30 90 27 81 45.9 81 18 75 18 76.55 55.24 60 90 63 93 77.01 66.25 78 90 81 90 81 58.64 96 30" style="fill: #00856a"/>
      </g>
    </g>
  </g>
</svg>
