<?xml version="1.0" encoding="iso-8859-1"?>
<!-- Generator: Adobe Illustrator 20.1.0, SVG Export Plug-In . SVG Version: 6.00 Build 0)  -->
<svg version="1.1" xmlns="http://www.w3.org/2000/svg" xmlns:xlink="http://www.w3.org/1999/xlink" x="0px" y="0px"
	 viewBox="0 0 108 108" style="enable-background:new 0 0 108 108;" xml:space="preserve">
<g id="Cinema_x5F_Menu">
	<circle style="opacity:0;fill:#FFFFFF;" cx="54" cy="54" r="54"/>
	<path style="fill:#386B05;" d="M75,60.353V57c0-3.3-2.7-6-6-6h-6.397H29.868H24c-3.3,0-6,2.7-6,6v21c0,3.3,2.7,6,6,6h45
		c3.3,0,6-2.7,6-6v-3.618L93,81V54L75,60.353z"/>
	<path style="fill:#386B05;" d="M64.5,51C73.613,51,81,43.612,81,34.5S73.613,18,64.5,18S48,25.387,48,34.5S55.387,51,64.5,51z
		 M64.5,27c4.142,0,7.5,3.358,7.5,7.5c0,4.142-3.358,7.5-7.5,7.5S57,38.642,57,34.5C57,30.358,60.358,27,64.5,27z"/>
	<path style="fill:#386B05;" d="M48,34.5C48,25.387,40.613,18,31.5,18S15,25.387,15,34.5S22.387,51,31.5,51S48,43.612,48,34.5z
		 M31.5,42c-4.142,0-7.5-3.358-7.5-7.5c0-4.142,3.358-7.5,7.5-7.5c4.142,0,7.5,3.358,7.5,7.5C39,38.642,35.642,42,31.5,42z"/>
</g>
<g id="Layer_1">
</g>
</svg>
