<svg xmlns="http://www.w3.org/2000/svg" viewBox="0 0 108 108">
  <title>cinema</title>
  <g id="Layer_2" data-name="Layer 2">
    <g id="Icons">
      <g>
        <circle cx="54" cy="54" r="54" style="fill: #fff;opacity: 0"/>
        <path d="M84,34.5A16.5,16.5,0,1,0,67.5,51,16.5,16.5,0,0,0,84,34.5ZM67.5,42A7.5,7.5,0,1,1,75,34.5,7.5,7.5,0,0,1,67.5,42Z" style="fill: #068037"/>
        <path d="M51,34.5A16.5,16.5,0,1,0,34.5,51,16.5,16.5,0,0,0,51,34.5ZM34.5,42A7.5,7.5,0,1,1,42,34.5,7.5,7.5,0,0,1,34.5,42Z" style="fill: #068037"/>
        <path d="M78,60a9,9,0,0,0-9-9H27a9,9,0,0,0-9,9V78a9,9,0,0,0,9,9H69a9,9,0,0,0,9-9V75l18,6V54Z" style="fill: #068037"/>
      </g>
    </g>
  </g>
</svg>
