<svg xmlns="http://www.w3.org/2000/svg" viewBox="0 0 108 108">
  <title>co_two_detector</title>
  <g id="Layer_2" data-name="Layer 2">
    <g id="Icons">
      <g>
        <circle cx="54" cy="54" r="54" style="fill: #fff;opacity: 0"/>
        <path d="M89.76,40.41A20.14,20.14,0,0,0,62,24,27,27,0,0,0,18.45,40.23,22.37,22.37,0,0,0,37.74,80a26.86,26.86,0,0,0,32.53,0,22.25,22.25,0,0,0,6.24,1A22.45,22.45,0,0,0,89.76,40.41ZM30.24,62.86a6.69,6.69,0,0,0,5.6,2.48A14,14,0,0,0,38.91,65q1.48-.33,3.09-.85v3.68A17.9,17.9,0,0,1,35.35,69q-5.48,0-8.41-3.49T24,55.53a16.84,16.84,0,0,1,1.42-7.16,10.51,10.51,0,0,1,4.12-4.7A12,12,0,0,1,35.88,42a15.08,15.08,0,0,1,7.06,1.69l-1.47,3.57a21.28,21.28,0,0,0-2.67-1.1,9.19,9.19,0,0,0-3-.48,6.59,6.59,0,0,0-5.53,2.62,11.6,11.6,0,0,0-2,7.23Q28.3,60.39,30.24,62.86Zm35.71,2.58Q62.81,69,57.06,69t-8.94-3.53Q45,61.95,45,55.46t3.14-10q3.14-3.48,9-3.48T66,45.53q3.13,3.53,3.13,10T65.94,65.45ZM85.5,69H72V66.38l5.25-5.26a45.38,45.38,0,0,0,3.1-3.43,8.18,8.18,0,0,0,1.11-1.9,5.19,5.19,0,0,0,.35-1.91A2.93,2.93,0,0,0,81,51.65a3.16,3.16,0,0,0-2.3-.81,6.1,6.1,0,0,0-2.27.44,10.72,10.72,0,0,0-2.54,1.59L72,50.63a11.5,11.5,0,0,1,3.4-2A9.59,9.59,0,0,1,78.83,48a6.69,6.69,0,0,1,4.58,1.51,5.12,5.12,0,0,1,1.72,4.06,7.18,7.18,0,0,1-.5,2.66,10.86,10.86,0,0,1-1.52,2.6,31.81,31.81,0,0,1-3.42,4L76.5,66h9Z" style="fill: #378006"/>
        <path d="M57.09,45.68a6.76,6.76,0,0,0-5.7,2.49q-1.92,2.49-1.92,7.32t1.92,7.35a6.71,6.71,0,0,0,5.68,2.5,6.69,6.69,0,0,0,5.65-2.48q1.91-2.48,1.91-7.37t-1.89-7.32A6.62,6.62,0,0,0,57.09,45.68Z" style="fill: #378006"/>
      </g>
    </g>
  </g>
</svg>
