<?xml version="1.0" encoding="iso-8859-1"?>
<!-- Generator: Adobe Illustrator 20.1.0, SVG Export Plug-In . SVG Version: 6.00 Build 0)  -->
<svg version="1.1" xmlns="http://www.w3.org/2000/svg" xmlns:xlink="http://www.w3.org/1999/xlink" x="0px" y="0px"
	 viewBox="0 0 108 108" style="enable-background:new 0 0 108 108;" xml:space="preserve">
<g id="Coffee_x5F_Menu">
	<circle style="opacity:0;fill:#FFFFFF;" cx="54" cy="54" r="54"/>
	<path style="fill:#0E8A0E;" d="M24,85.5h60c0,0,6-4.5,6-7.5H18C18,81,24,85.5,24,85.5z"/>
	<path style="fill:#0E8A0E;" d="M54,75c7.223,0,13.779-2.117,18.624-6c1.555,0,3.325,0,5.376,0c12,0,12-12,12-12c0-3-3-3-3-3h-6.173
		C80.938,53.028,81,52.03,81,51H27C27,66,39.088,75,54,75z M84,57c0,0,3,0,1.5,3c0,0-1.5,6-7.5,6c-0.815,0-1.57,0-2.275,0
		c2.147-2.526,3.721-5.546,4.566-9H84z"/>
	<path style="fill:#0E8A0E;" d="M54,48c-3,0-3-6-3-6c0-6,3-6,3-12s-6-9-6-9s3,3,3,9s-6,6-6,12S54,48,54,48z"/>
	<path style="fill:#0E8A0E;" d="M57,36c0,0,9,0,9-6s-6-6-6-12s3-9,3-9s-6,3-6,9s3,6,3,12C60,30,60,36,57,36z"/>
</g>
<g id="Layer_1">
</g>
</svg>
