<svg xmlns="http://www.w3.org/2000/svg" viewBox="0 0 108 108">
  <title>coffee</title>
  <g id="Layer_2" data-name="Layer 2">
    <g id="Icons">
      <g>
        <circle cx="54" cy="54" r="54" style="fill: #fff;opacity: 0"/>
        <polygon points="22.5 84 85.5 84 90 75 18 75 22.5 84" style="fill: #00856a"/>
        <path d="M54,42c-3,0-3-6-3-6,0-6,3-6,3-12s-6-9-6-9,3,3,3,9-6,6-6,12S54,42,54,42Z" style="fill: #00856a"/>
        <path d="M60,33s9,0,9-6-6-6-6-12,3-9,3-9-6,3-6,9,3,6,3,12C63,27,63,33,60,33Z" style="fill: #00856a"/>
        <path d="M85.73,48v0H27c0,15,12.09,22.5,27,22.5h0c8.6,0,16.24-2.51,21.19-7.5H82.5c3,0,5.14-4.28,6.16-6.32A9.26,9.26,0,0,0,90,52.5,4.49,4.49,0,0,0,85.73,48ZM87,54l-.67,1.34c-.11.23-.32.6-.58,1l-.38.62c-.88,1.38-2.11,3-2.87,3H77.64a20.51,20.51,0,0,0,3.17-9H84C85.66,51,87.54,51.19,87,54Z" style="fill: #00856a"/>
      </g>
    </g>
  </g>
</svg>
