<svg xmlns="http://www.w3.org/2000/svg" viewBox="0 0 108 108">
  <title>collaboration_space</title>
  <g id="Layer_2" data-name="Layer 2">
    <g id="Icons">
      <g>
        <circle cx="54" cy="54" r="54" style="fill: #fff;opacity: 0"/>
        <path d="M22.5,60C16.7,60,12,63.28,12,67V77.56C12,79.66,16.7,81,22.5,81S33,79.88,33,77.56V67C33,63.61,28.3,60,22.5,60Z" style="fill: #6a17e6"/>
        <circle cx="24" cy="48" r="9" style="fill: #6a17e6"/>
        <path d="M52.5,72C45,72,39,75.72,39,79.89V95.06C39,97.44,45,99,52.5,99S66,97.69,66,95.06V79.89C66,76.09,60,72,52.5,72Z" style="fill: #6a17e6"/>
        <circle cx="52.5" cy="58.5" r="10.5" style="fill: #6a17e6"/>
        <path d="M82.5,60c-5.8,0-10.5,3.28-10.5,7V77.55C72,79.65,76.7,81,82.5,81S93,79.87,93,77.55V66.94C93,63.59,88.3,60,82.5,60Z" style="fill: #6a17e6"/>
        <circle cx="81" cy="48" r="9" style="fill: #6a17e6"/>
        <g>
          <circle cx="66" cy="24" r="3" style="fill: none"/>
          <circle cx="54" cy="24" r="3" style="fill: none"/>
          <circle cx="42" cy="24" r="3" style="fill: none"/>
          <path d="M78,28.63a8.67,8.67,0,0,0,3-6.13C81,15,68.91,9,54,9S27,15,27,22.5a8.67,8.67,0,0,0,3,6.13V39l8.47-5.47A47.32,47.32,0,0,0,54,36c1.54,0,3,.12,4.5,0v9l9.64-11c.47-.15.94-.29,1.39-.45L78,39ZM66,21a3,3,0,1,1-3,3A3,3,0,0,1,66,21ZM54,21a3,3,0,1,1-3,3A3,3,0,0,1,54,21ZM42,21a3,3,0,1,1-3,3A3,3,0,0,1,42,21Z" style="fill: #6a17e6"/>
        </g>
      </g>
    </g>
  </g>
</svg>
