<?xml version="1.0" encoding="iso-8859-1"?>
<!-- Generator: Adobe Illustrator 20.1.0, SVG Export Plug-In . SVG Version: 6.00 Build 0)  -->
<svg version="1.1" xmlns="http://www.w3.org/2000/svg" xmlns:xlink="http://www.w3.org/1999/xlink" x="0px" y="0px"
	 viewBox="0 0 108 108" style="enable-background:new 0 0 108 108;" xml:space="preserve">
<g id="Cycling_x5F_Menu">
	<circle style="opacity:0;fill:#FFFFFF;" cx="54" cy="54" r="54"/>
	<path style="fill:#8C24F2;" d="M78,51c-0.879,0-1.737,0.084-2.582,0.206L73.813,43.5h2.817c0,0,1.37-1.5,0-4.5H64.5L48,24l-9,18
		c0,0-3,3,3,6c2.359,1.179,4.712,2.356,6.706,3.353l-9.771,2.036C36.301,51.877,33.255,51,30,51c-9.941,0-18,8.059-18,18
		c0,9.941,8.059,18,18,18s18-8.059,18-18c0-4.845-1.924-9.233-5.037-12.469l10.884-2.073L48,72c0,0,0.458,4.021,6,3l6-18
		c0,0,0.871-1.763,0.725-3.852l10.56-2.011l0.268,1.074C64.801,54.805,60,61.334,60,69c0,9.941,8.059,18,18,18s18-8.059,18-18
		C96,59.059,87.941,51,78,51z M30,81c-6.627,0-12-5.373-12-12c0-6.627,5.373-12,12-12s12,5.373,12,12C42,75.627,36.627,81,30,81z
		 M58.843,49.241C58.352,48.793,57.746,48.373,57,48c-6-3-6-3-6-3l3-9l7.5,7.5h7.875l0.843,3.371L58.843,49.241z M78,81
		c-6.627,0-12-5.373-12-12c0-6.627,5.373-12,12-12s12,5.373,12,12C90,75.627,84.627,81,78,81z"/>
	<circle style="fill:#8C24F2;" cx="55.5" cy="18" r="7.5"/>
</g>
<g id="Layer_1">
</g>
</svg>
