<svg xmlns="http://www.w3.org/2000/svg" viewBox="0 0 108 108">
  <title>cycling</title>
  <g id="Layer_2" data-name="Layer 2">
    <g id="Icons">
      <g>
        <circle cx="54" cy="54" r="54" style="fill: #fff;opacity: 0"/>
        <circle cx="58.5" cy="16.5" r="7.5" style="fill: #a714cc"/>
        <path d="M78,51a18.06,18.06,0,0,0-2.58.21h0L73.81,43.5H78V39H64.5L48,24,39,42s-.23,4.38,3,6l6.71,3.35-9.77,2a18,18,0,1,0,4,3.14l10.88-2.07L49.5,75h6L60,57a8.35,8.35,0,0,0,.72-3.85l10.56-2,.27,1.07h0A18,18,0,1,0,78,51ZM30,81A12,12,0,1,1,42,69,12,12,0,0,1,30,81ZM58.84,49.24A8,8,0,0,0,57,48l-6-3,3-7.5,7.5,6h7.88l.84,3.37ZM78,81A12,12,0,1,1,90,69,12,12,0,0,1,78,81Z" style="fill: #a714cc"/>
      </g>
    </g>
  </g>
</svg>
