<svg xmlns="http://www.w3.org/2000/svg" viewBox="0 0 108 108">
  <title>defibrillator</title>
  <g id="Layer_2" data-name="Layer 2">
    <g id="Icons">
      <g>
        <rect width="108" height="108" style="fill: #fff;opacity: 0"/>
        <g>
          <path d="M36.47,58.5a2.25,2.25,0,0,1,1.79.88l1.93,2.52L49,44a2.25,2.25,0,0,1,4.25.71l3.16,24.9,8.16-18.69a2.25,2.25,0,0,1,2.06-1.35h.05a2.25,2.25,0,0,1,2,1.44l2.87,7.47H86.51A20,20,0,0,0,90,47.21,20.25,20.25,0,0,0,54,34.52,20.25,20.25,0,0,0,18,47.21,20,20,0,0,0,21.49,58.5Z" style="fill: #e62e2e"/>
          <path d="M70.1,63A2.25,2.25,0,0,1,68,61.56l-1.46-3.79L57.31,78.9a2.25,2.25,0,0,1-2.06,1.35l-.32,0A2.25,2.25,0,0,1,53,78.28l-3.25-25.6L42.61,67.14a2.25,2.25,0,0,1-3.8.37L35.36,63H25.45L54,91.5,82.55,63Z" style="fill: #e62e2e"/>
        </g>
      </g>
    </g>
  </g>
</svg>
