<svg xmlns="http://www.w3.org/2000/svg" viewBox="0 0 108 108">
  <title>dentist</title>
  <g id="Layer_2" data-name="Layer 2">
    <g id="Icons">
      <g>
        <path d="M54,0a54,54,0,1,0,54,54A54,54,0,0,0,54,0Z" style="fill: #fff;opacity: 0"/>
        <path d="M53.15,54c.3,0,.57,0,.85,0s.55,0,.85,0Z" style="fill: #1a77d6"/>
        <path d="M58.5,54" style="fill: #c00"/>
        <path d="M21,37.67s-.55-18.25,14.14-21l4.71-1.17S55.18,19,59.89,33c0,0,1.59-11.17-1.18-18.67L68.14,12S87,16.67,87,40c0,0,.13,6-3.54,14,0,0-1,22.45-5.89,32.67,0,0-4,9.33-9.43,9.33-4.71,0-9.3-29.74-9.43-30.33a4.92,4.92,0,0,0-9.43,0S44.44,96,37.5,96c-4.44,0-10.71-15.21-11.79-23.33A94.88,94.88,0,0,1,24.54,54S21,47.72,21,37.67Z" style="fill: #276ed9"/>
      </g>
    </g>
  </g>
</svg>
