<?xml version="1.0" encoding="iso-8859-1"?>
<!-- Generator: Adobe Illustrator 20.1.0, SVG Export Plug-In . SVG Version: 6.00 Build 0)  -->
<svg version="1.1" xmlns="http://www.w3.org/2000/svg" xmlns:xlink="http://www.w3.org/1999/xlink" x="0px" y="0px"
	 viewBox="0 0 108 108" style="enable-background:new 0 0 108 108;" xml:space="preserve">
<g id="Dentist_x5F_Menu">
	<path style="opacity:0;fill:#FFFFFF;" d="M54,0C24.177,0,0,24.177,0,54s24.177,54,54,54s54-24.177,54-54S83.823,0,54,0z"/>
	<path style="fill:#1A77D6;" d="M54,62.076c0.279-0.016,0.55-0.042,0.85-0.033H53.15C53.45,62.034,53.721,62.06,54,62.076z"/>
	<path style="fill:#1C77D4;" d="M78,18c-6-6-12-6-12-6s-4.43,0.94-8.096,2.576C61.977,23.112,60,33,60,33
		c-5.204-13.01-17.173-16.991-20.258-17.818C36.683,15.582,31.131,16.869,27,21c-6,6-9,21-3,30c0,0,0,21,6,33s9,9,9,9s3,0,6-12
		s3-15,3-15s0-6,6-6s6,6,6,6l3,15c3,12,6,12,6,12s3,3,9-9c0,0,6-12,6-33c0,0,3-6,3-12C87,27,81,21,78,18z"/>
</g>
<g id="Layer_1">
</g>
</svg>
