<svg xmlns="http://www.w3.org/2000/svg" viewBox="0 0 108 108">
  <title>desk_occupied</title>
  <g id="Layer_2" data-name="Layer 2">
    <g id="Icons">
      <g>
        <circle cx="54" cy="54" r="54" style="fill: #fff"/>
        <polygon points="53.48 63.89 47.11 57.52 36 68.63 24.89 57.52 18.52 63.89 29.63 75 18.52 86.11 24.89 92.48 36 81.37 47.11 92.48 53.48 86.11 42.37 75 53.48 63.89" style="fill: #eb021d"/>
        <path d="M48,45V39H63V12H27V39H42v6H15v9h3v2.88A27,27,0,0,1,50.14,54H63V90h3V87H87v3h3V54h3V45ZM75,63h3v0a1.49,1.49,0,0,0,0-3v0H75a1.5,1.5,0,0,0,0,3Zm0,15h3v0a1.49,1.49,0,0,0,0-3v0H75a1.5,1.5,0,0,0,0,3ZM33,33V18H57V33ZM87,84H66V72H87Zm0-15H66V57H87Z" style="fill: #bf0218"/>
      </g>
    </g>
  </g>
</svg>
