<svg xmlns="http://www.w3.org/2000/svg" viewBox="0 0 108 108">
  <title>digital_sign</title>
  <g id="Layer_2" data-name="Layer 2">
    <g id="Icons">
      <g>
        <circle cx="54" cy="54" r="54" style="fill: #fff;opacity: 0"/>
        <path d="M87,24H21a6,6,0,0,0-6,6V78a6,6,0,0,0,6,6H87a6,6,0,0,0,6-6V30A6,6,0,0,0,87,24ZM73.5,39A4.5,4.5,0,1,1,69,43.5,4.5,4.5,0,0,1,73.5,39Zm-48,19.5A4.5,4.5,0,1,1,30,54,4.5,4.5,0,0,1,25.5,58.5Zm15,0A4.5,4.5,0,1,1,45,54,4.5,4.5,0,0,1,40.5,58.5ZM51,54a4.5,4.5,0,1,1,4.5,4.5A4.5,4.5,0,0,1,51,54ZM61.5,78A4.5,4.5,0,1,1,66,73.5,4.5,4.5,0,0,1,61.5,78Zm0-39A4.5,4.5,0,1,1,66,34.5,4.5,4.5,0,0,1,61.5,39Zm12,30A4.5,4.5,0,1,1,78,64.5,4.5,4.5,0,0,1,73.5,69Zm9-10.5A4.5,4.5,0,1,1,87,54,4.5,4.5,0,0,1,82.5,58.5Z" style="fill: #378006"/>
      </g>
    </g>
  </g>
</svg>
