<svg xmlns="http://www.w3.org/2000/svg" viewBox="0 0 72 72"><defs><style>.cls-1{fill:#fff;opacity:0;}.cls-2{fill:#002b63;}</style></defs><title>ferry_train</title><g id="Layer_2" data-name="Layer 2"><g id="Icons"><circle class="cls-1" cx="36" cy="36" r="36"/><path class="cls-2" d="M17.14,39H18v5.11a.89.89,0,0,0,.89.89h4.21a.89.89,0,0,0,.89-.89V39H48v5.11a.89.89,0,0,0,.89.89h4.21a.89.89,0,0,0,.89-.89V39h.86A2.14,2.14,0,0,0,57,36.86V26.14A2.14,2.14,0,0,0,54.86,24H54l-3-8c-.75-2.37-2.24-4-5-4H26c-2.76,0-4.25,1.7-5,4l-3,8h-.86A2.14,2.14,0,0,0,15,26.14V36.86A2.14,2.14,0,0,0,17.14,39ZM45,31.5H27V30H45Zm0-3H27V27H45ZM51,33a3,3,0,1,1,3-3A3,3,0,0,1,51,33ZM24,18c.63-1.82,1.37-3,3.67-3H44.33c2.3,0,3,1.13,3.67,3l2.25,6H21.75Zm-3,9a3,3,0,1,1-3,3A3,3,0,0,1,21,27Z"/><polygon class="cls-2" points="60 42 60 48 12 48 12 42 9 42 9 48 9 49 9 51 21 51 15 60 21 60 27 51 45 51 51 60 57 60 51 51 63 51 63 49 63 48 63 42 60 42"/></g></g></svg>