<svg xmlns="http://www.w3.org/2000/svg" viewBox="0 0 72 72"><defs><style>.cls-1{fill:#fff;opacity:0;}.cls-2{fill:#002b63;}</style></defs><title>route_end_panel</title><g id="Layer_2" data-name="Layer 2"><g id="Icons"><circle class="cls-1" cx="36" cy="36" r="36"/><path class="cls-2" d="M54,24.55C54,14.54,45.94,6,36,6S18,14.4,18,24.41a22.89,22.89,0,0,0,2.21,8.31L36.2,66,52.36,32.95h0A30.4,30.4,0,0,0,54,24.55Zm-6,.07A11.31,11.31,0,0,1,36.73,36H35.27A11.31,11.31,0,0,1,24,24.62V23.15A11.31,11.31,0,0,1,35.27,11.8h1.46A11.31,11.31,0,0,1,48,23.15Z"/><circle class="cls-2" cx="36" cy="24" r="6"/></g></g></svg>