<svg xmlns="http://www.w3.org/2000/svg" viewBox="0 0 72 72"><defs><style>.cls-1{fill:#002b63;}.cls-2{fill:#fff;}</style></defs><title>enter_directions_panel_h</title><g id="Layer_2" data-name="Layer 2"><g id="Icons"><circle class="cls-1" cx="36" cy="36" r="36"/><polygon class="cls-2" points="36 47.5 48 54 48 15 36 21.5 36 47.5"/><polygon class="cls-2" points="36 51 27 60 33 60 33 66 39 66 39 60 45 60 36 51"/><path class="cls-2" d="M52.45,9H19.55A1.55,1.55,0,0,0,18,10.55V54h4.56V13.56H49.44V54H54V10.55A1.55,1.55,0,0,0,52.45,9Z"/><path class="cls-1" d="M39,37.5c0,1-.56,1.62-1.15,1.48a1.72,1.72,0,0,1,0-3C38.44,35.88,39,36.53,39,37.5Z"/></g></g></svg>