<svg xmlns="http://www.w3.org/2000/svg" viewBox="0 0 72 72"><defs><style>.cls-1{fill:#fff;opacity:0;}.cls-2{fill:#002b63;}</style></defs><title>ferry_directions</title><g id="Layer_2" data-name="Layer 2"><g id="Icons"><circle class="cls-1" cx="36" cy="36" r="36"/><path class="cls-2" d="M10.58,51.92l0,0c.44,0,.9,0,1.4,0A13.46,13.46,0,0,1,10.58,51.92Z"/><rect class="cls-2" x="33" y="6" width="6" height="3"/><rect class="cls-2" x="27.04" y="12" width="17.96" height="6"/><path class="cls-2" d="M28,46a19.93,19.93,0,0,0,8,2,19.93,19.93,0,0,0,8-2,9.49,9.49,0,0,1,7.49-.21l4-9.79s-10-9-19.5-9-19.5,9-19.5,9l4,9.79A9.49,9.49,0,0,1,28,46Z"/><path class="cls-2" d="M60,52a20.69,20.69,0,0,1-8-2,9.66,9.66,0,0,0-8,0,19.93,19.93,0,0,1-8,2,19.93,19.93,0,0,1-8-2,9.66,9.66,0,0,0-8,0,20.69,20.69,0,0,1-8,2c-.5,0-1,0-1.4,0a30.11,30.11,0,0,0,3,3.95A22,22,0,0,0,20,54a9.66,9.66,0,0,1,8,0,19.93,19.93,0,0,0,8,2,19.93,19.93,0,0,0,8-2,9.66,9.66,0,0,1,8,0,22,22,0,0,0,6.44,1.9,30.09,30.09,0,0,0,3-4A11.54,11.54,0,0,1,60,52Z"/><path class="cls-2" d="M44,57.89a19.93,19.93,0,0,1-8,2,19.93,19.93,0,0,1-8-2,9.66,9.66,0,0,0-8,0,21.84,21.84,0,0,1-3,1.18,30.07,30.07,0,0,0,3.66,2.57,9.47,9.47,0,0,1,7.39.25,19.93,19.93,0,0,0,8,2,19.93,19.93,0,0,0,8-2,9.47,9.47,0,0,1,7.39-.25A30.07,30.07,0,0,0,55,59.06a21.84,21.84,0,0,1-3-1.18A9.66,9.66,0,0,0,44,57.89Z"/><path class="cls-2" d="M21,21v7.6c4.17-2.73,9.87-6.1,15-6.1s10.83,3.36,15,6.1V21Z"/></g></g></svg>