<svg xmlns="http://www.w3.org/2000/svg" viewBox="0 0 72 72"><defs><style>.cls-1{fill:#fff;opacity:0;}.cls-2{fill:#002b63;}</style></defs><title>elevator_directions_panel</title><g id="Layer_2" data-name="Layer 2"><g id="Icons"><circle class="cls-1" cx="36" cy="36" r="36"/><polygon class="cls-2" points="27 9 18 18 36 18 27 9"/><polygon class="cls-2" points="54 9 36 9 45 18 54 9"/><path class="cls-2" d="M53,21H19a1,1,0,0,0-1,1V62a1,1,0,0,0,1,1H53a1,1,0,0,0,1-1V22A1,1,0,0,0,53,21ZM48,57H24V27H48Z"/><path class="cls-2" d="M36,55.5c3.31,0,6-.61,6-1.84v-11C42,40.91,39.31,39,36,39s-6,1.74-6,3.68v11C30,54.77,32.69,55.5,36,55.5Z"/><circle class="cls-2" cx="36" cy="33" r="4.5"/></g></g></svg>