<svg xmlns="http://www.w3.org/2000/svg" viewBox="0 0 72 72"><defs><style>.cls-1{fill:#002b63;}.cls-2{fill:#fff;}</style></defs><title>elevator_directions_panel_h</title><g id="Layer_2" data-name="Layer 2"><g id="Icons"><circle class="cls-1" cx="36" cy="36" r="36"/><polygon class="cls-2" points="36 18 18 18 27 9 27 9 36 18"/><polygon class="cls-2" points="36 9 54 9 45 18 45 18 36 9"/><rect class="cls-2" x="18" y="21" width="36" height="42" rx="1" ry="1"/><rect class="cls-1" x="24" y="27" width="24" height="30"/><path class="cls-2" d="M36,55.5c-3.31,0-6-.73-6-1.84v-11C30,40.74,32.69,39,36,39s6,1.91,6,3.68v11C42,54.89,39.31,55.5,36,55.5Z"/><circle class="cls-2" cx="36" cy="33" r="4.5"/></g></g></svg>