<svg xmlns="http://www.w3.org/2000/svg" viewBox="0 0 72 72"><defs><style>.cls-1{opacity:0;}.cls-2{fill:#fff;}.cls-3{fill:#002b63;}</style></defs><title>enter_directions_panel</title><g id="Layer_2" data-name="Layer 2"><g id="Icons"><g class="cls-1"><circle class="cls-2" cx="36" cy="36" r="36"/></g><path class="cls-3" d="M36,47.5,48,54V15L36,21.5ZM37.85,36c.59-.14,1.15.52,1.15,1.48s-.56,1.62-1.15,1.48a1.72,1.72,0,0,1,0-3Z"/><polygon class="cls-3" points="36 51 27 60 33 60 33 66 39 66 39 60 45 60 36 51"/><path class="cls-3" d="M52.45,9H19.55A1.55,1.55,0,0,0,18,10.55V54h4.56V13.56H49.44V54H54V10.55A1.55,1.55,0,0,0,52.45,9Z"/></g></g></svg>