<svg xmlns="http://www.w3.org/2000/svg" viewBox="0 0 72 72"><defs><style>.cls-1{fill:#fff;opacity:0;}.cls-2,.cls-3{fill:#002b63;}.cls-3{opacity:0.45;}</style></defs><title>fork_left</title><g id="Layer_2" data-name="Layer 2"><g id="Icons"><circle class="cls-1" cx="36" cy="36" r="36"/><path class="cls-2" d="M33,15l2.33,2.12L29,23.49l5.08,5.08,3.38,3.38a21.06,21.06,0,0,1,1.32,1.86A21.16,21.16,0,0,1,42,45V63H30V45a9,9,0,0,0-1.6-5.11L26.11,37.6,20.49,32l-6.36,6.36L12,36V15Z"/><path class="cls-3" d="M30.55,40.29a21.23,21.23,0,0,1,4-8.34l3.38-3.38L43,23.49l-6.36-6.36L39,15H60V36l-2.12,2.33L51.51,32,45.89,37.6,43.6,39.89A9,9,0,0,0,42,45V63H30V45A21,21,0,0,1,30.55,40.29Z"/></g></g></svg>