<svg xmlns="http://www.w3.org/2000/svg" viewBox="0 0 72 72"><defs><style>.cls-1{fill:#fff;opacity:0;}.cls-2,.cls-3{fill:#002b63;}.cls-3{opacity:0.45;}</style></defs><title>fork_right</title><g id="Layer_2" data-name="Layer 2"><g id="Icons"><circle class="cls-1" cx="36" cy="36" r="36"/><path class="cls-2" d="M39,15l-2.33,2.12L43,23.49l-5.08,5.08-3.38,3.38A21.17,21.17,0,0,0,30,45V63H42V45a9,9,0,0,1,1.6-5.11l2.29-2.29L51.51,32l6.36,6.36L60,36V15Z"/><path class="cls-3" d="M41.45,40.29a20.85,20.85,0,0,0-2.7-6.48,21.06,21.06,0,0,0-1.32-1.86l-3.38-3.38L29,23.49l6.36-6.36L33,15H12V36l2.12,2.33L20.49,32l5.62,5.62,2.29,2.29A9,9,0,0,1,30,45V63H42V45A21,21,0,0,0,41.45,40.29Z"/></g></g></svg>