<svg xmlns="http://www.w3.org/2000/svg" viewBox="0 0 108 108">
  <title>donuts</title>
  <g id="Layer_2" data-name="Layer 2">
    <g id="Icons">
      <g>
        <circle cx="54" cy="54" r="54" style="fill: #fff;opacity: 0"/>
        <path d="M52.5,18C27,18,9,34.36,9,54S27,90,52.5,90,96,73.64,96,54,78,18,52.5,18ZM84,54a19,19,0,0,1-2.07,4.31,5.86,5.86,0,0,1,1.22,1c2.64,2.91,3.49,8.18.85,11.09s-7.77,2.36-10.41-.55a9.4,9.4,0,0,1-1.47-2.67,37.61,37.61,0,0,1-9.32,3.62,8.57,8.57,0,0,1,.2,2.88c0,5.52-3,9.82-7.5,9.82S47,79.52,47,74a11.11,11.11,0,0,1,.39-2.32,39,39,0,0,1-15.2-4.91A11.17,11.17,0,0,1,30,70.36a4.88,4.88,0,0,1-7.5,0,6.61,6.61,0,0,1,0-8.61,9,9,0,0,1,2.19-1.26,21,21,0,0,1-3.8-6.67,4,4,0,0,1-1,.17c-3,0-6.37-1.6-6.37-4.91,0-4.91,3.37-7.09,6.38-7.09a4,4,0,0,1,1,.17,24,24,0,0,1,9.88-12c0-1.58.72-4.38,2.23-5.59,2.63-2.1,6.67-1.09,9.61.59A43.46,43.46,0,0,1,52.5,24a42.85,42.85,0,0,1,12.43,1.81l0-.06c2.12-2.34,6.41-1.92,8.53.42,1.09,1.21.77,2.38.74,4,5.11,3.27,5.57,4.64,7.76,7.5,2.19.71,5.62,2.31,6.5,3.27,3,3.27,3,6.55,1.5,9.82A5.72,5.72,0,0,1,84,54Z" style="fill: #00856a"/>
        <path d="M63,38.08c-.52-.23-1.07-.45-1.63-.65A27.15,27.15,0,0,0,52.5,36a29.55,29.55,0,0,0-4.23.31,24.81,24.81,0,0,0-5,1.22C38.9,39.14,36,41.89,36,45c0,5,7.39,9,16.5,9S69,50,69,45C69,42.22,66.68,39.73,63,38.08Z" style="fill: #00856a"/>
      </g>
    </g>
  </g>
</svg>
