<?xml version="1.0" encoding="iso-8859-1"?>
<!-- Generator: Adobe Illustrator 20.1.0, SVG Export Plug-In . SVG Version: 6.00 Build 0)  -->
<svg version="1.1" xmlns="http://www.w3.org/2000/svg" xmlns:xlink="http://www.w3.org/1999/xlink" x="0px" y="0px"
	 viewBox="0 0 108 108" style="enable-background:new 0 0 108 108;" xml:space="preserve">
<g id="Donuts_x5F_Menu">
	<circle style="opacity:0;fill:#FFFFFF;" cx="54" cy="54" r="54"/>
	<path style="fill:#99581F;" d="M54,21c-25.5,0-43.5,15-43.5,33s18,33,43.5,33s43.5-15,43.5-33S79.5,21,54,21z M85.5,54
		c-0.529,1.411-1.163,2.665-2.074,3.953c0.498,0.286,0.923,0.579,1.22,0.88C87.285,61.502,88.139,66.331,85.5,69
		s-7.771,2.167-10.41-0.502c-0.514-0.519-1.008-1.392-1.471-2.45c-2.793,1.422-5.925,2.553-9.315,3.315
		C64.652,70.498,64.5,71.194,64.5,72c0,5.063-2.995,9-7.5,9s-8.5-3.604-8.5-8.667c0-0.603,0.185-1.329,0.389-2.13
		c-5.688-0.605-10.886-2.186-15.196-4.503C33.189,67.093,32.096,68.397,31.5,69c-2.124,2.148-5.377,2.148-7.5,0
		c-2.124-2.148-2.124-5.741,0-7.889c0.397-0.402,1.39-0.789,2.187-1.154c-1.701-1.873-2.992-3.927-3.803-6.115
		C22.013,53.935,21.666,54,21.375,54C18.372,54,15,52.537,15,49.5c0-4.5,3.372-6.5,6.375-6.5c0.291,0,0.638,0.065,1.009,0.158
		c1.606-4.332,5.103-8.146,9.882-11.033C32.221,30.676,32.99,28.106,34.5,27c2.633-1.929,6.674-1,9.606,0.536
		C47.228,26.867,50.549,26.5,54,26.5c4.402,0,8.595,0.596,12.426,1.662c0.014-0.015,0.027-0.037,0.041-0.051
		c2.123-2.148,6.409-1.758,8.532,0.389c1.094,1.107,0.771,2.178,0.738,3.628c5.106,2.998,5.568,4.254,7.762,6.872
		c2.192,0.655,5.616,2.116,6.5,3c3,3,3,6,1.5,9S86.906,54.1,85.5,54z"/>
	<path style="fill:#99581F;" d="M64.546,39.407c-0.517-0.215-1.066-0.41-1.634-0.593C60.34,37.986,57.286,37.5,54,37.5
		c-1.465,0-2.878,0.105-4.231,0.284c-1.791,0.237-3.47,0.613-4.968,1.117c-4.403,1.481-7.301,3.996-7.301,6.849
		C37.5,50.306,44.887,54,54,54s16.5-3.694,16.5-8.25C70.5,43.199,68.183,40.92,64.546,39.407z"/>
</g>
<g id="Layer_1">
</g>
</svg>
