<?xml version="1.0" encoding="iso-8859-1"?>
<!-- Generator: Adobe Illustrator 20.1.0, SVG Export Plug-In . SVG Version: 6.00 Build 0)  -->
<svg version="1.1" xmlns="http://www.w3.org/2000/svg" xmlns:xlink="http://www.w3.org/1999/xlink" x="0px" y="0px"
	 viewBox="0 0 108 108" style="enable-background:new 0 0 108 108;" xml:space="preserve">
<g id="University_x5F_Menu">
	<circle style="opacity:0;fill:#FFFFFF;" cx="54" cy="54" r="54"/>
	<path style="fill:#404040;" d="M30,54v15c0,4.142,11.573,9,24,9c12.426,0,24-4.858,24-9V54l-24,9L30,54z"/>
	<path style="fill:#404040;" d="M96,63c0-2.22-1.208-4.153-3-5.191V44l6-2L54,27L9,42l45,15l33-11v11.809
		c-1.792,1.038-3,2.971-3,5.191c0,2.019,1,3.8,2.528,4.888L84,78h12l-2.794-9.934C94.883,67.002,96,65.133,96,63z"/>
</g>
<g id="Layer_1">
</g>
</svg>
