<svg xmlns="http://www.w3.org/2000/svg" viewBox="0 0 108 108">
  <title>electrical_meter</title>
  <g id="Layer_2" data-name="Layer 2">
    <g id="Icons">
      <g>
        <circle cx="54" cy="54" r="54" style="fill: #fff;opacity: 0"/>
        <path d="M67.5,66h-27a4.5,4.5,0,0,0,0,9h27a4.5,4.5,0,0,0,0-9Z" style="fill: #378006"/>
        <polygon points="48 63 51 63 66 39 57 39 63 27 48 27 45 45 54 45 48 63" style="fill: #378006"/>
        <path d="M54,9A45,45,0,1,0,99,54,45,45,0,0,0,54,9ZM90,56.25h4.39a40.23,40.23,0,0,1-4.27,16l-3.82-2.2a2.25,2.25,0,0,0-2.25,3.9l3.83,2.21A40.68,40.68,0,0,1,76.16,87.88l-2.21-3.83a2.25,2.25,0,0,0-3.9,2.25l2.2,3.82a40.22,40.22,0,0,1-16,4.27V90a2.25,2.25,0,0,0-4.5,0v4.39a40.22,40.22,0,0,1-16-4.27l2.2-3.82a2.25,2.25,0,1,0-3.9-2.25l-2.21,3.83A40.68,40.68,0,0,1,20.12,76.16l3.83-2.21a2.25,2.25,0,0,0-2.25-3.9l-3.82,2.2a40.23,40.23,0,0,1-4.27-16H18a2.25,2.25,0,0,0,0-4.5H13.61a40.23,40.23,0,0,1,4.27-16l3.82,2.2a2.25,2.25,0,1,0,2.25-3.9l-3.83-2.21A40.68,40.68,0,0,1,31.84,20.12l2.21,3.83a2.25,2.25,0,1,0,3.9-2.25l-2.2-3.82a40.23,40.23,0,0,1,16-4.27V18a2.25,2.25,0,0,0,4.5,0V13.61a40.23,40.23,0,0,1,16,4.27l-2.2,3.82a2.25,2.25,0,1,0,3.9,2.25l2.21-3.83A40.68,40.68,0,0,1,87.88,31.84l-3.83,2.21a2.25,2.25,0,1,0,2.25,3.9l3.82-2.2a40.23,40.23,0,0,1,4.27,16H90a2.25,2.25,0,0,0,0,4.5Z" style="fill: #378006"/>
      </g>
    </g>
  </g>
</svg>
