<svg xmlns="http://www.w3.org/2000/svg" viewBox="0 0 108 108">
  <title>emergency_exit</title>
  <g id="Layer_2" data-name="Layer 2">
    <g id="Icons">
      <g>
        <rect width="108" height="108" style="fill: #fff;opacity: 0"/>
        <path d="M84,40.5l-3-.07V18H30V60h0c-3.81,0-5.4,1.73-6,3l-1,3-.36,1.24a5.88,5.88,0,0,0,.54,5.49,5.73,5.73,0,0,0,5,2.26H30v6l-9,9H60l4.12-4.76c.66-.66,1.48-.63,2.92-.63l2.5,0c1,.19.87,1.26-.11,2.15L66,90h9l6-6V54h3a5.62,5.62,0,0,0,6-6V46.5A5.62,5.62,0,0,0,84,40.5ZM66,21a6,6,0,1,1-6,6A6,6,0,0,1,66,21Zm-7.5,33L70,80.11a1.34,1.34,0,0,1-.91,2.15l-2.49,0A2.44,2.44,0,0,1,64,81L52.52,57,48.79,68.78l0,.14a2.41,2.41,0,0,1-2.55,1.9h-18a1.34,1.34,0,0,1-1.35-1.9L28,66c.59-1.22.95-1.5,2-1.5H43.54l3-13.5h0l6.3-12H44.28L40,46.29a2.1,2.1,0,0,1-2.87.77l-.48-.28a2.1,2.1,0,0,1-.77-2.87l5.05-8.75a2.16,2.16,0,0,1,1.6-1.09H58.76a7.89,7.89,0,0,1,4.81,2,6.89,6.89,0,0,1,.89,1L72,45H83.42a2,2,0,0,1,2.1,2v.55a2.1,2.1,0,0,1-2.1,2.1H70.5A2,2,0,0,1,68.82,49L63,42Z" style="fill: #12b047"/>
      </g>
    </g>
  </g>
</svg>
