<?xml version="1.0" encoding="iso-8859-1"?>
<!-- Generator: Adobe Illustrator 20.1.0, SVG Export Plug-In . SVG Version: 6.00 Build 0)  -->
<svg version="1.1" xmlns="http://www.w3.org/2000/svg" xmlns:xlink="http://www.w3.org/1999/xlink" x="0px" y="0px"
	 viewBox="0 0 108 108" style="enable-background:new 0 0 108 108;" xml:space="preserve">
<g id="Entertainment_x5F_Menu">
	<rect style="opacity:0.01;fill:#FFFFFF;" width="108" height="108"/>
	<g>
		<path style="fill:#386B05;" d="M85.092,21.557l-0.926-1.632l-1.812-0.49c-1.671-0.452-3.482-0.682-5.382-0.682
			c-12.614,0-26.776,10.233-27.372,10.669l-5.383,3.93l1.49,0.929c-4.697-1.195-9.642-1.571-13.961-1.571h-0.001h-0.002
			c-5.827,0-10.226,0.663-10.411,0.692l-3.201,0.49l-0.552,3.191c-5.282,30.508-4.518,32.681-4.108,33.849
			c1.518,4.318,5.549,15.787,15.644,18.013c0.915,0.202,1.869,0.304,2.835,0.304c9.961,0,19.468-10.956,20.519-12.206l0.645-0.766
			l0.259-0.967l2.566-9.586c2.081,1.982,11.422,10.409,19.792,10.409c1.366,0,2.672-0.216,3.879-0.641
			c7.654-2.823,13.469-10.093,14.877-18.544C96.886,42.553,85.575,22.408,85.092,21.557z M30.14,51.608
			c6.908,2.268,2.117,7.515,2.117,7.515l-10.573-2.815C21.684,56.308,23.232,49.34,30.14,51.608z M30.679,81.985
			c-9.852-1.787-9.681-17.418-9.681-17.418c16.033,8.914,25.604,6.323,25.604,6.323S40.53,83.772,30.679,81.985z M50.845,64.468
			l-10.573-2.815c0,0,1.547-6.968,8.456-4.7C55.636,59.221,50.845,64.468,50.845,64.468z M90.049,56.205
			c-1.155,6.934-6.022,12.859-11.933,15.04c-0.755,0.266-1.555,0.386-2.384,0.386c-7.362,0-16.964-9.433-16.964-9.433
			s4.955-15.929,4.872-19.905c-0.046-2.174-11.387-9.235-11.387-9.235s13.428-9.803,24.719-9.803c1.448,0,2.862,0.161,4.207,0.525
			C81.178,23.779,92.213,43.221,90.049,56.205z"/>
		<path style="fill:#386B05;" d="M75.34,41.085c6.812,0.069,4.879-6.894,4.879-6.894l-9.433-0.056
			C70.787,34.135,68.528,41.016,75.34,41.085z"/>
		<path style="fill:#386B05;" d="M69.313,50.346c-7.12,4.948-3.446,14.635-3.446,14.635s3.446-14.635,20.376-9.883
			C86.242,55.098,77.698,44.519,69.313,50.346z"/>
	</g>
</g>
<g id="Layer_1">
</g>
</svg>
