<svg xmlns="http://www.w3.org/2000/svg" viewBox="0 0 108 108">
  <title>entertainment</title>
  <g id="Layer_2" data-name="Layer 2">
    <g id="Icons">
      <g>
        <rect width="108" height="108" style="fill: #fff;opacity: 0"/>
        <g>
          <path d="M86.35,20.86l-.92-1.67-1.8-.5a19.92,19.92,0,0,0-5.34-.7C65.78,18,51.73,28.45,51.13,28.9l-5.34,4,1.48.95a55.59,55.59,0,0,0-13.85-1.6h0A72.91,72.91,0,0,0,23.09,33l-3.18.5-.55,3.26c-5.24,31.16-4.48,33.38-4.08,34.57,1.51,4.41,5.51,16.12,15.52,18.4a12.73,12.73,0,0,0,2.81.31C43.51,90,52.94,78.81,54,77.53l.64-.78.26-1L57.42,66C59.49,68,68.76,76.6,77.06,76.6a11.25,11.25,0,0,0,3.85-.65C88.5,73.07,94.27,65.64,95.67,57,98,42.31,86.83,21.73,86.35,20.86ZM31.83,51.56c6.85,2.32,2.1,7.68,2.1,7.68L23.44,56.36S25,49.24,31.83,51.56Zm.53,31c-9.77-1.83-9.6-17.79-9.6-17.79,15.91,9.1,25.4,6.46,25.4,6.46S42.14,84.41,32.36,82.58Zm20-17.89L41.88,61.82s1.53-7.12,8.39-4.8S52.37,64.69,52.37,64.69Zm38.9-8.44c-1.15,7.08-6,13.13-11.84,15.36a6.9,6.9,0,0,1-2.37.39c-7.3,0-16.83-9.63-16.83-9.63S65.15,46.1,65.06,42c0-2.22-11.3-9.43-11.3-9.43s13.32-10,24.52-10a15.54,15.54,0,0,1,4.17.54S93.41,43,91.27,56.25Z" style="fill: #068037"/>
          <path d="M76.67,40.81c6.76.07,4.84-7,4.84-7l-9.36-.06S69.91,40.74,76.67,40.81Z" style="fill: #068037"/>
          <path d="M70.69,50.27c-7.06,5.05-3.42,14.95-3.42,14.95s3.42-14.95,20.22-10.09C87.49,55.12,79,44.32,70.69,50.27Z" style="fill: #068037"/>
        </g>
      </g>
    </g>
  </g>
</svg>
