<svg xmlns="http://www.w3.org/2000/svg" viewBox="0 0 108 108">
  <title>farm</title>
  <g id="Layer_2" data-name="Layer 2">
    <g id="Icons">
      <g>
        <circle cx="54" cy="54" r="54" style="fill: #fff;opacity: 0"/>
        <path d="M52.3,54.13" style="fill: #cc14a6"/>
        <path d="M30,51A18,18,0,1,0,48,69,18,18,0,0,0,30,51Zm0,28.13A10.13,10.13,0,1,1,40.13,69,10.13,10.13,0,0,1,30,79.13Z" style="fill: #cc14a6"/>
        <path d="M79.5,60A13.5,13.5,0,1,0,93,73.5,13.5,13.5,0,0,0,79.5,60Zm0,21.38a7.88,7.88,0,1,1,7.88-7.87A7.87,7.87,0,0,1,79.5,81.38Z" style="fill: #cc14a6"/>
        <path d="M62.14,67.5A17.89,17.89,0,0,1,95,63h2.5l4.5-4.5V54H93V40.5L60,36V22.5h6V18H21v4.5h3V36H12L9,39v6h3v9.12A22.44,22.44,0,0,1,52.5,67.5V69h9.3ZM57,39l-6-6,1.5-3L51,28.5,43.5,36,45,37.5,48,36l6,6v9L33,36V22.5H57Z" style="fill: #cc14a6"/>
      </g>
    </g>
  </g>
</svg>
