<?xml version="1.0" encoding="iso-8859-1"?>
<!-- Generator: Adobe Illustrator 20.1.0, SVG Export Plug-In . SVG Version: 6.00 Build 0)  -->
<svg version="1.1" xmlns="http://www.w3.org/2000/svg" xmlns:xlink="http://www.w3.org/1999/xlink" x="0px" y="0px"
	 viewBox="0 0 108 108" style="enable-background:new 0 0 108 108;" xml:space="preserve">
<g id="Farm_x5F_Menu">
	<circle style="opacity:0;fill:#FFFFFF;" cx="54" cy="54" r="54"/>
	<path style="fill:#CC1FCC;" d="M47.8,58.631"/>
	<path style="fill:#CC1FCC;" d="M30,51.75c-9.941,0-18,8.059-18,18s8.059,18,18,18s18-8.059,18-18S39.941,51.75,30,51.75z M30,80.25
		c-5.799,0-10.5-4.701-10.5-10.5s4.701-10.5,10.5-10.5s10.5,4.701,10.5,10.5S35.799,80.25,30,80.25z"/>
	<path style="fill:#CC1FCC;" d="M73.5,60.75c-7.456,0-13.5,6.044-13.5,13.5c0,7.456,6.044,13.5,13.5,13.5S87,81.706,87,74.25
		C87,66.794,80.956,60.75,73.5,60.75z M73.5,82.5c-4.556,0-8.25-3.694-8.25-8.25S68.944,66,73.5,66s8.25,3.694,8.25,8.25
		S78.056,82.5,73.5,82.5z"/>
	<path style="fill:#CC1FCC;" d="M51,72h6c0-9,9-15,16.75-15C81,57,90,63,90,72h4.5l4.5-4.5v-9h-9V45l-31.5-4.5V27H63v-4.5H18V27h4.5
		v13.5H12V57c3-4.5,9-9,18-9C30,48,51,48,51,72z M54,43.5l-6-6l1.5-3L48,33l-7.5,7.5L42,42l3-1.5l4.5,4.5v9l-18-13.5V27H54V43.5z"/>
</g>
<g id="Layer_1">
</g>
</svg>
