<svg xmlns="http://www.w3.org/2000/svg" viewBox="0 0 108 108">
  <title>fashion_men</title>
  <g id="Layer_2" data-name="Layer 2">
    <g id="Icons">
      <g>
        <circle cx="54" cy="54" r="54" style="fill: #fff;opacity: 0"/>
        <path d="M81,24,66,18,58.5,60h-9L42,18,27,24,15,69l9,3,9-21V87H75V51l9,21,9-3ZM54,84a3,3,0,1,1,3-3A3,3,0,0,1,54,84Zm0-12a3,3,0,1,1,3-3A3,3,0,0,1,54,72Z" style="fill: #2e2ee6"/>
        <polygon points="58.5 19.5 54 15 49.5 19.5 49.5 24 54 60 58.5 24 58.5 19.5" style="fill: #2e2ee6"/>
      </g>
    </g>
  </g>
</svg>
