<?xml version="1.0" encoding="iso-8859-1"?>
<!-- Generator: Adobe Illustrator 20.1.0, SVG Export Plug-In . SVG Version: 6.00 Build 0)  -->
<svg version="1.1" xmlns="http://www.w3.org/2000/svg" xmlns:xlink="http://www.w3.org/1999/xlink" x="0px" y="0px"
	 viewBox="0 0 108 108" style="enable-background:new 0 0 108 108;" xml:space="preserve">
<g id="Ferry_x5F_Menu">
	<circle style="opacity:0;fill:#FFFFFF;" cx="54" cy="54" r="54"/>
	<rect x="49.179" y="8.625" style="fill:#E01678;" width="9.643" height="6.428"/>
	<rect x="39.536" y="20.678" style="fill:#E01678;" width="28.929" height="4.018"/>
	<path style="fill:#E01678;" d="M78.107,43.958V30.322H29.893v13.637C36.235,39.61,45.644,34.339,54,34.339
		S71.765,39.61,78.107,43.958z"/>
	<path style="fill:#E01678;" d="M42,69c6,3,12,3,12,3s6,0,12-3c4.734-2.367,9.456-1.002,11.242-0.319l6.008-14.253
		c0,0-15.031-14.464-29.25-14.464S24.75,54.428,24.75,54.428l6.008,14.253C32.544,67.998,37.266,66.633,42,69z"/>
	<path style="fill:#E01678;" d="M90,78c-6,0-12-3-12-3s-1.638-0.811-4.05-1.166l0,0c0,0,0,0-0.001,0
		c-0.268-0.04-0.544-0.073-0.831-0.099c-0.032-0.003-0.065-0.005-0.097-0.008c-0.259-0.022-0.522-0.039-0.793-0.048
		c-0.069-0.002-0.14-0.001-0.209-0.002c-0.242-0.004-0.485-0.005-0.735,0.003c-0.109,0.004-0.22,0.014-0.33,0.02
		c-0.22,0.013-0.439,0.026-0.664,0.05c-0.146,0.016-0.296,0.042-0.444,0.063c-0.196,0.028-0.391,0.053-0.59,0.091
		c-0.184,0.035-0.371,0.084-0.557,0.128c-0.17,0.04-0.339,0.074-0.51,0.122c-0.228,0.064-0.458,0.147-0.688,0.226
		c-0.134,0.046-0.266,0.083-0.401,0.134c-0.366,0.141-0.733,0.3-1.1,0.484c-0.487,0.243-0.972,0.461-1.455,0.665
		c-0.094,0.04-0.187,0.078-0.281,0.116c-0.467,0.191-0.931,0.371-1.388,0.532h0C58.081,77.995,54,78,54,78s-4.081-0.005-8.876-1.686
		h0c-0.457-0.16-0.922-0.341-1.389-0.532c-0.093-0.038-0.186-0.076-0.279-0.116C42.972,75.461,42.487,75.243,42,75
		c-0.367-0.184-0.734-0.344-1.1-0.484c-0.134-0.051-0.266-0.088-0.399-0.134c-0.23-0.08-0.461-0.163-0.689-0.227
		c-0.172-0.049-0.342-0.082-0.512-0.123c-0.185-0.044-0.371-0.093-0.553-0.127c-0.2-0.038-0.395-0.063-0.593-0.091
		c-0.148-0.021-0.297-0.047-0.443-0.063c-0.226-0.025-0.446-0.037-0.667-0.05c-0.109-0.006-0.219-0.016-0.326-0.02
		c-0.251-0.009-0.494-0.008-0.737-0.003c-0.069,0.001-0.14,0-0.209,0.002c-0.271,0.009-0.535,0.026-0.793,0.048
		c-0.032,0.003-0.065,0.005-0.097,0.008c-0.286,0.026-0.563,0.06-0.831,0.099c0,0,0,0,0,0l0,0C31.638,74.189,30,75,30,75s-6,3-12,3
		c-0.715,0-1.43-0.045-2.135-0.12c0.012,0.019,0.024,0.037,0.035,0.055c1.32,2.097,2.806,4.077,4.444,5.922
		C25.468,83.263,30,81,30,81s6-3,12,0s12,3,12,3s6,0,12-3s12,0,12,0s4.532,2.263,9.656,2.857c1.655-1.865,3.156-3.867,4.487-5.989
		C91.469,77.951,90.758,78,90,78z"/>
	<path style="fill:#E01678;" d="M66,87c-6,3-12,3-12,3s-6,0-12-3s-12,0-12,0s-1.875,0.936-4.575,1.763
		c1.724,1.419,3.558,2.708,5.483,3.861C32.8,91.927,37.395,90.697,42,93c6,3,12,3,12,3s6,0,12-3c4.605-2.303,9.2-1.073,11.092-0.376
		c1.925-1.153,3.759-2.443,5.483-3.861C79.875,87.936,78,87,78,87S72,84,66,87z"/>
</g>
<g id="Layer_1">
</g>
</svg>
