<svg xmlns="http://www.w3.org/2000/svg" viewBox="0 0 108 108">
  <title>ferry</title>
  <g id="Layer_2" data-name="Layer 2">
    <g id="Icons">
      <g>
        <circle cx="54" cy="54" r="54" style="fill: #fff;opacity: 0"/>
        <path d="M15.86,77.88l0,.06c.66,0,1.35.06,2.1.06A20.18,20.18,0,0,1,15.86,77.88Z" style="fill: #e61066"/>
        <rect x="48" y="9" width="12" height="6" style="fill: #e61066"/>
        <rect x="39" y="19.5" width="30" height="6" style="fill: #e61066"/>
        <path d="M78,43.5V30H30V43.5c6.34-4.35,15.64-9,24-9S71.66,39.15,78,43.5Z" style="fill: #e61066"/>
        <path d="M42,70.5a29.9,29.9,0,0,0,12,3,29.9,29.9,0,0,0,12-3c4.73-2.37,10.21-.68,12,0L84,54S68.22,42,54,42,24,54,24,54l6,16.5C31.79,69.82,37.27,68.13,42,70.5Z" style="fill: #e61066"/>
        <path d="M90,79.33c-6,0-12-3-12-3s-6-3-12,0a29.9,29.9,0,0,1-12,3,29.9,29.9,0,0,1-12-3c-6-3-12,0-12,0s-6,3-12,3c-.75,0-1.44,0-2.1-.06a45.17,45.17,0,0,0,4.44,5.92A33,33,0,0,0,30,82.33s6-3,12,0a29.9,29.9,0,0,0,12,3,29.9,29.9,0,0,0,12-3c6-3,12,0,12,0a33,33,0,0,0,9.66,2.86,45.13,45.13,0,0,0,4.49-6A17.31,17.31,0,0,1,90,79.33Z" style="fill: #e61066"/>
        <path d="M66,88.33a29.9,29.9,0,0,1-12,3,29.9,29.9,0,0,1-12-3c-6-3-12,0-12,0a32.75,32.75,0,0,1-4.57,1.76A45.1,45.1,0,0,0,30.91,94,14.2,14.2,0,0,1,42,94.33a29.9,29.9,0,0,0,12,3,29.9,29.9,0,0,0,12-3A14.2,14.2,0,0,1,77.09,94a45.1,45.1,0,0,0,5.48-3.86A32.75,32.75,0,0,1,78,88.33S72,85.33,66,88.33Z" style="fill: #e61066"/>
      </g>
    </g>
  </g>
</svg>
