<?xml version="1.0" encoding="iso-8859-1"?>
<!-- Generator: Adobe Illustrator 20.1.0, SVG Export Plug-In . SVG Version: 6.00 Build 0)  -->
<svg version="1.1" xmlns="http://www.w3.org/2000/svg" xmlns:xlink="http://www.w3.org/1999/xlink" x="0px" y="0px"
	 viewBox="0 0 108 108" style="enable-background:new 0 0 108 108;" xml:space="preserve">
<g id="Fire_x5F_Extinguisher_x5F_Menu">
	<circle style="opacity:0;fill:#FFFFFF;" cx="54" cy="54" r="54"/>
	<path style="stroke:#000000;stroke-miterlimit:10;" d="M53.43,88.116"/>
	<path style="fill:#E62E2E;" d="M58.5,21.75v3H48v-3.418c0.914-0.824,1.5-2.005,1.5-3.332c0-2.485-2.015-4.5-4.5-4.5
		s-4.5,2.015-4.5,4.5c0,1.328,0.586,2.508,1.5,3.332v2.866C36.621,24.776,25.475,27.05,21,36v6c4.475-8.95,15.621-12.058,21-13.06
		v2.799C36.052,32.941,31.5,38.756,31.5,45v49.5h27V45c0-6.244-4.552-12.059-10.5-13.261V27.75h10.5v3l22.5,4.5v-18L58.5,21.75z"/>
</g>
<g id="Layer_1">
</g>
</svg>
