<svg xmlns="http://www.w3.org/2000/svg" viewBox="0 0 108 108">
  <title>fireplace</title>
  <g id="Layer_2" data-name="Layer 2">
    <g id="Icons">
      <g>
        <circle cx="54" cy="54" r="54" style="fill: #fff;opacity: 0"/>
        <g>
          <polygon points="51 78 46.5 87 48 90 60 90 61.5 87 57 78 51 78" style="fill: #6a17e6"/>
          <polygon points="60 78 66 75 78 78 78 81 72 87 69 87 60 78" style="fill: #6a17e6"/>
          <polygon points="48 78 42 75 30 78 30 81 36 87 39 87 48 78" style="fill: #6a17e6"/>
        </g>
        <path d="M81,21H27a9,9,0,0,0-9,9V81h6V31.5A4.5,4.5,0,0,1,28.5,27h51A4.5,4.5,0,0,1,84,31.5V81h6V30A9,9,0,0,0,81,21Z" style="fill: #6a17e6"/>
        <path d="M69,45s-.37,8.33-5.22,8.33c0,0-10.47-9.33-.78-23.33,0,0-18.6,4.67-18.6,23.33,0,0-5.4-.33-5.4-14.33,0,0-18.82,33,9,33h1.21c-1.15-1.16-2.42-5-2.42-7,0-4.51,4.26-9.33,7.27-9.33s7.27,7.16,7.27,11.67c0,1.9-1.32,3.52-2.42,4.67C65.09,71.47,85.5,68.84,69,45Z" style="fill: #6a17e6"/>
      </g>
    </g>
  </g>
</svg>
