<svg xmlns="http://www.w3.org/2000/svg" viewBox="0 0 108 108">
  <title>fire</title>
  <g id="Layer_2" data-name="Layer 2">
    <g id="Icons">
      <g>
        <rect width="108" height="108" style="fill: #fff;opacity: 0"/>
        <path d="M45,87a9,9,0,0,0,18,0Z" style="fill: #e62e2e"/>
        <path d="M79.39,54h0A33.85,33.85,0,0,0,81,45a27,27,0,0,0-54,0,30.27,30.27,0,0,0,1.2,9h0S29.32,67.5,15,73.5V81H93V73.5C78.68,67.5,79.39,54,79.39,54ZM59.32,63c1.06-1.11,2.34-2.66,2.34-4.5,0-4.35-4.1-11.25-7-11.25s-7,4.65-7,9c0,1.89,1.22,5.63,2.34,6.75H48.81C22,63,40.64,31.5,40.64,31.5,40.64,45,45.31,45,45.31,45,45.31,27,64,22.5,64,22.5,54.65,36,64,45,64,45c4.67,0,4.67-9,4.67-9C84.58,59,65.26,62.49,59.32,63Z" style="fill: #e62e2e"/>
      </g>
    </g>
  </g>
</svg>
