<?xml version="1.0" encoding="iso-8859-1"?>
<!-- Generator: Adobe Illustrator 20.0.0, SVG Export Plug-In . SVG Version: 6.00 Build 0)  -->
<svg version="1.1" xmlns="http://www.w3.org/2000/svg" xmlns:xlink="http://www.w3.org/1999/xlink" x="0px" y="0px"
	 viewBox="0 0 72 72" style="enable-background:new 0 0 72 72;" xml:space="preserve">
<g id="Fire">
	<path style="fill:#E62E2E;" d="M43.945,57c0,0-0.172,1.885-0.494,2.61C42.524,61.699,40.404,63,37.945,63
		c-2.463,0-4.512-1.31-5.437-3.403C32.189,58.873,31.945,57,31.945,57H43.945z"/>
	<path style="fill:#E62E2E;" d="M55.099,36L55.099,36c0.555-1.899,0.847-4.074,0.847-6c0-9.941-8.059-18-18-18s-18,8.059-18,18
		c0,1.918,0.413,4.1,1.025,6h-0.001c0,0,0.41,9-9.139,13H12v5h26h26v-5h0.17C54.621,45,55.099,36,55.099,36z M49.557,31.522
		c0,4.822-3.557,9.342-7.557,10.754v0.005c0,0-0.683,0.139-1.443,0.262c1.896-0.809,3.224-2.688,3.224-4.879
		c0-2.929-5.303-7.333-5.303-7.333s-5.302,4.404-5.302,7.333c0,2.136,1.269,3.965,3.087,4.805c-0.01-0.002-0.02-0.003-0.03-0.004
		c-4.72-0.956-8.543-4.366-10.092-8.838c-0.486-1.392-0.74-2.886-0.74-4.443c0-2.846,0.883-5.492,2.381-7.669
		c-0.123,0.47-0.187,0.961-0.187,1.468c0,1.114,0.317,2.151,0.858,3.039c1.221-3.713,4.047-6.704,7.662-8.143
		c1.51-0.602,3.158-0.935,4.886-0.935c0.751,0,1.485,0.065,2.202,0.189c0,0-0.004,0-0.004,0.004c-0.695,1.19-1.118,2.56-1.195,4.02
		c-0.008,0.158-0.012,0.316-0.012,0.475c0,0.141,0.004,0.276,0.012,0.418c0.013,0.371,0.052,0.737,0.115,1.097
		c0.115,0.678,0.304,1.331,0.563,1.946c0.812,1.94,2.283,3.538,4.14,4.502c0,0,0.265-0.461,0.328-0.603
		c0.073-0.157,0.137-0.319,0.188-0.485c0.166-0.491,0.252-1.013,0.252-1.555c0-0.286-0.022-0.559-0.069-0.832
		c-0.123-0.717-0.4-1.382-0.793-1.959c1.144,1.238,2.002,2.74,2.471,4.409c0.103,0.351,0.184,0.704,0.244,1.067
		c0.051,0.286,0.066,0.572,0.092,0.866C49.566,30.836,49.557,31.177,49.557,31.522z"/>
	<rect style="opacity:0;fill:#FFFFFF;" width="72" height="72"/>
</g>
<g id="Layer_1">
</g>
</svg>
