<?xml version="1.0" encoding="iso-8859-1"?>
<!-- Generator: Adobe Illustrator 20.1.0, SVG Export Plug-In . SVG Version: 6.00 Build 0)  -->
<svg version="1.1" xmlns="http://www.w3.org/2000/svg" xmlns:xlink="http://www.w3.org/1999/xlink" x="0px" y="0px"
	 viewBox="0 0 108 108" style="enable-background:new 0 0 108 108;" xml:space="preserve">
<g id="First_x5F_Aid_x5F_Menu">
	<circle style="opacity:0;fill:#FFFFFF;" cx="54" cy="54" r="54"/>
	<polygon style="fill:#1C77D4;" points="63,19.5 45,19.5 40.5,19.5 40.5,24 40.5,30 45,30 45,24 63,24 63,30 67.5,30 67.5,24 
		67.5,19.5 	"/>
	<g>
		<g>
			<path style="fill:#1C77D4;" d="M21,28.5c-1.65,0-3,1.35-3,3v48c0,1.65,1.35,3,3,3h66c1.65,0,3-1.35,3-3v-48c0-1.65-1.35-3-3-3H21
				z M54,78c-12.426,0-22.5-10.074-22.5-22.5C31.5,43.074,41.574,33,54,33s22.5,10.074,22.5,22.5C76.5,67.926,66.426,78,54,78z"/>
		</g>
	</g>
	<polygon style="fill:#E62E2E;" points="67.5,51 58.5,51 58.5,42 49.5,42 49.5,51 40.5,51 40.5,60 49.5,60 49.5,69 58.5,69 58.5,60 
		67.5,60 	"/>
</g>
<g id="Layer_1">
</g>
</svg>
