<?xml version="1.0" encoding="iso-8859-1"?>
<!-- Generator: Adobe Illustrator 20.1.0, SVG Export Plug-In . SVG Version: 6.00 Build 0)  -->
<svg version="1.1" xmlns="http://www.w3.org/2000/svg" xmlns:xlink="http://www.w3.org/1999/xlink" x="0px" y="0px"
	 viewBox="0 0 108 108" style="enable-background:new 0 0 108 108;" xml:space="preserve">
<g id="Fishing_x5F_Menu">
	<circle style="opacity:0;fill:#FFFFFF;" cx="54" cy="54" r="54"/>
	<path style="fill:#8C24F2;" d="M57,75h9v6c0,0,0,9-9,9s-9-9-9-9V32.12c4.396-1.781,7.5-6.085,7.5-11.12c0-6.627-5.373-12-12-12
		s-12,5.373-12,12c0,5.035,3.104,9.339,7.5,11.12V81c0,0,0,18,18,18s18-18,18-18V51L57,75z M43.5,15c3.314,0,6,2.686,6,6
		s-2.686,6-6,6s-6-2.686-6-6S40.186,15,43.5,15z"/>
</g>
<g id="Layer_1">
</g>
</svg>
