<svg xmlns="http://www.w3.org/2000/svg" viewBox="0 0 108 108">
  <title>florist</title>
  <g id="Layer_2" data-name="Layer 2">
    <g id="Icons">
      <g>
        <circle cx="54" cy="54" r="54" style="fill: #fff;opacity: 0"/>
        <polygon points="58.5 63 63 78 63 99 69 96 69 76.5 64.5 58.5 58.5 63" style="fill: #2e2ee6"/>
        <path d="M48.12,28.5a10.45,10.45,0,0,1,4.26.91A25.61,25.61,0,0,0,55.62,18c0-9-7.5-9-7.5-9s-7.5,0-7.5,9a25.61,25.61,0,0,0,3.24,11.41A10.45,10.45,0,0,1,48.12,28.5Z" style="fill: #2e2ee6"/>
        <path d="M48.12,49.5a10.45,10.45,0,0,1-4.26-.91A25.61,25.61,0,0,0,40.62,60c0,9,7.5,9,7.5,9s7.5,0,7.5-9a25.61,25.61,0,0,0-3.24-11.41A10.45,10.45,0,0,1,48.12,49.5Z" style="fill: #2e2ee6"/>
        <path d="M25.95,35a25.61,25.61,0,0,0,11.5,2.9,10.48,10.48,0,0,1,4.27-7.38A25.62,25.62,0,0,0,33.45,22c-7.79-4.5-11.54,2-11.54,2S18.15,30.5,25.95,35Z" style="fill: #2e2ee6"/>
        <path d="M70.05,43a25.61,25.61,0,0,0-11.5-2.9,10.48,10.48,0,0,1-4.27,7.38A25.62,25.62,0,0,0,62.55,56c7.79,4.5,11.54-2,11.54-2S77.85,47.5,70.05,43Z" style="fill: #2e2ee6"/>
        <path d="M37.44,40.1A25.61,25.61,0,0,0,25.95,43c-7.79,4.5-4,11-4,11s3.75,6.5,11.54,2a25.62,25.62,0,0,0,8.27-8.51A10.48,10.48,0,0,1,37.44,40.1Z" style="fill: #2e2ee6"/>
        <path d="M58.56,37.9A25.61,25.61,0,0,0,70.05,35c7.79-4.5,4-11,4-11s-3.75-6.5-11.54-2a25.62,25.62,0,0,0-8.27,8.51A10.48,10.48,0,0,1,58.56,37.9Z" style="fill: #2e2ee6"/>
        <path d="M51.82,34.31A6.35,6.35,0,1,0,54,38.13,6,6,0,0,0,51.82,34.31Z" style="fill: #2e2ee6"/>
      </g>
    </g>
  </g>
</svg>
