<?xml version="1.0" encoding="iso-8859-1"?>
<!-- Generator: Adobe Illustrator 20.1.0, SVG Export Plug-In . SVG Version: 6.00 Build 0)  -->
<svg version="1.1" xmlns="http://www.w3.org/2000/svg" xmlns:xlink="http://www.w3.org/1999/xlink" x="0px" y="0px"
	 viewBox="0 0 108 108" style="enable-background:new 0 0 108 108;" xml:space="preserve">
<g id="Florist_x5F_Menu">
	<circle style="opacity:0;fill:#FFFFFF;" cx="54" cy="54" r="54"/>
	<polygon style="fill:#CC1FCC;" points="58.5,63 63,75 63,99 69,96 69,75 64.5,60 	"/>
	<path style="fill:#CC1FCC;" d="M48.117,28.5c1.519,0,2.959,0.329,4.263,0.91c1.689-3.244,3.237-7.322,3.237-11.41c0-9-7.5-9-7.5-9
		s-7.5,0-7.5,9c0,4.088,1.548,8.165,3.237,11.41C45.158,28.829,46.598,28.5,48.117,28.5z"/>
	<path style="fill:#CC1FCC;" d="M48.117,49.5c-1.519,0-2.959-0.329-4.263-0.91c-1.689,3.244-3.237,7.322-3.237,11.41
		c0,9,7.5,9,7.5,9s7.5,0,7.5-9c0-4.088-1.548-8.165-3.237-11.41C51.077,49.171,49.637,49.5,48.117,49.5z"/>
	<path style="fill:#CC1FCC;" d="M26.181,34.995c3.537,2.042,7.843,2.745,11.495,2.905c0.316-3.036,1.932-5.679,4.274-7.385
		c-1.965-3.085-4.729-6.467-8.269-8.511C25.887,17.505,22.137,24,22.137,24S18.387,30.495,26.181,34.995z"/>
	<path style="fill:#CC1FCC;" d="M70.054,43.005c-3.536-2.042-7.843-2.745-11.495-2.905c-0.316,3.036-1.932,5.679-4.274,7.385
		c1.965,3.085,4.729,6.467,8.269,8.511C70.348,60.495,74.098,54,74.098,54S77.848,47.505,70.054,43.005z"/>
	<path style="fill:#CC1FCC;" d="M37.676,40.1c-3.652,0.161-7.958,0.863-11.495,2.905C18.387,47.505,22.137,54,22.137,54
		s3.75,6.495,11.544,1.995c3.54-2.044,6.303-5.426,8.269-8.511C39.607,45.779,37.992,43.136,37.676,40.1z"/>
	<path style="fill:#CC1FCC;" d="M58.559,37.9c3.652-0.161,7.958-0.863,11.495-2.905C77.848,30.495,74.098,24,74.098,24
		s-3.75-6.495-11.544-1.995c-3.54,2.044-6.303,5.426-8.269,8.511C56.628,32.221,58.243,34.864,58.559,37.9z"/>
	<path style="fill:#CC1FCC;" d="M52.76,33.116c-0.564-0.446-1.192-0.811-1.87-1.081c-0.858-0.342-1.792-0.535-2.772-0.535
		s-1.913,0.193-2.772,0.535c-0.678,0.27-1.307,0.636-1.87,1.081c-1.471,1.162-2.491,2.862-2.772,4.805
		c-0.051,0.353-0.086,0.711-0.086,1.078s0.035,0.725,0.086,1.078c0.281,1.943,1.301,3.643,2.772,4.805
		c0.564,0.445,1.192,0.811,1.87,1.081c0.858,0.342,1.792,0.535,2.772,0.535s1.913-0.193,2.772-0.535
		c0.678-0.27,1.307-0.636,1.87-1.081c1.471-1.162,2.491-2.862,2.772-4.805c0.051-0.353,0.086-0.711,0.086-1.078
		s-0.035-0.725-0.086-1.078C55.251,35.979,54.231,34.279,52.76,33.116z"/>
</g>
<g id="Layer_1">
</g>
</svg>
