<?xml version="1.0" encoding="iso-8859-1"?>
<!-- Generator: Adobe Illustrator 20.1.0, SVG Export Plug-In . SVG Version: 6.00 Build 0)  -->
<svg version="1.1" xmlns="http://www.w3.org/2000/svg" xmlns:xlink="http://www.w3.org/1999/xlink" x="0px" y="0px"
	 viewBox="0 0 108 108" style="enable-background:new 0 0 108 108;" xml:space="preserve">
<g id="FoodAndDrink_x5F_Menu">
	<path style="fill:#0E8A0E;" d="M55.5,33V12H51v24h-6.75V12h-4.5v24H33V12h-4.5v21c0,12,7.5,18,11.275,18L37.5,94.5
		c0,0.828,0.672,1.5,1.5,1.5l6,0c0.828,0,1.5-0.672,1.5-1.5L44.227,51C48,51,55.5,45,55.5,33z"/>
	<path style="fill:#0E8A0E;" d="M72,94.5v-78c0-1.5,0-4.5-1.5-4.5c-4.5,0-9,18-9,45h3L63,94.5c0,0.828,0.672,1.5,1.5,1.5l6,0
		C70.5,96,72,96,72,94.5z"/>
	<rect style="opacity:0.01;fill:#FFFFFF;" width="108" height="108"/>
</g>
<g id="Layer_1">
</g>
</svg>
