<?xml version="1.0" encoding="iso-8859-1"?>
<!-- Generator: Adobe Illustrator 20.1.0, SVG Export Plug-In . SVG Version: 6.00 Build 0)  -->
<svg version="1.1" xmlns="http://www.w3.org/2000/svg" xmlns:xlink="http://www.w3.org/1999/xlink" x="0px" y="0px"
	 viewBox="0 0 108 108" style="enable-background:new 0 0 108 108;" xml:space="preserve">
<g id="Football_x5F_Menu">
	<circle style="opacity:0;fill:#FFFFFF;" cx="54" cy="54" r="54"/>
	<circle style="fill:#8C24F2;" cx="52.5" cy="16.5" r="7.5"/>
	<circle style="fill:#8C24F2;" cx="42" cy="91.5" r="7.5"/>
	<path style="fill:#8C24F2;" d="M78,21c0-3-3-3-3-3l-9,6l-21,4.5L33,36l-3,13.993c2.266,2.266,4.25,0,4.25,0L39,39l7.5-3L51,51
		L40.5,66l3.621,2.069L43.5,69H27c0,0-3,0-3,3s3,3,3,3h19.5l2.925-3.9L51,72l4.5-6v9H60v21c0,0,0,3,3,3s3-3,3-3V75h1.5V51L63,33l6-3
		L78,21z"/>
</g>
<g id="Layer_1">
</g>
</svg>
