<svg xmlns="http://www.w3.org/2000/svg" viewBox="0 0 108 108">
  <title>lake_1</title>
  <g id="Layer_2" data-name="Layer 2">
    <g id="Icons">
      <g>
        <circle cx="54" cy="54" r="54" style="fill: #fff;opacity: 0"/>
        <path d="M78,77l3,7H78v3h6.58q1.25-1.16,2.42-2.42V75h6.8A44.78,44.78,0,0,0,96,70.06L90,60h6L87,45h6L82.5,24,73.38,42.23,75,45h3l-4.91,8.18L78,63H73.2l-.7,1.17L77.14,75Z" style="fill: #0e610e"/>
        <path d="M30.86,75,35.5,64.17,34.8,63H30l4.91-9.82L30,45h3l1.62-2.77L25.5,24,15,45h6L12,60h6L12,70.06A44.78,44.78,0,0,0,14.2,75H21v9.58q1.16,1.25,2.42,2.42H30V84H27l3-7Z" style="fill: #0e610e"/>
        <polygon points="69 60 60 42 66 42 54 18 42 42 48 42 39 60 45 60 36 81 48 81 48 93 60 93 60 81 72 81 63 60 69 60" style="fill: #0e610e"/>
      </g>
    </g>
  </g>
</svg>
