<?xml version="1.0" encoding="iso-8859-1"?>
<!-- Generator: Adobe Illustrator 20.1.0, SVG Export Plug-In . SVG Version: 6.00 Build 0)  -->
<svg version="1.1" xmlns="http://www.w3.org/2000/svg" xmlns:xlink="http://www.w3.org/1999/xlink" x="0px" y="0px"
	 viewBox="0 0 108 108" style="enable-background:new 0 0 108 108;" xml:space="preserve">
<g id="Forest_x5F_Menu">
	<circle style="opacity:0;fill:#FFFFFF;" cx="54" cy="54" r="54"/>
	<polygon style="fill:#006600;" points="36,63 34.8,63 35.5,64.167 	"/>
	<polygon style="fill:#006600;" points="72.5,64.167 73.2,63 72,63 	"/>
	<path style="fill:#0E610E;" d="M90,60h6l-9-15h6L82.5,24l-9.115,18.231L75,45h3l-4.909,8.182L78,63h-4.8l-0.7,1.167L77.143,75H78v2
		l3,7h-3v3h6.582c0.836-0.775,1.643-1.582,2.418-2.418V75h6.799c0.842-1.592,1.589-3.24,2.238-4.938L90,60z"/>
	<path style="fill:#0E610E;" d="M30,77v-2h0.857L35.5,64.167L34.8,63H30l4.909-9.818L30,45h3l1.615-2.769L25.5,24L15,45h6l-9,15h6
		l-6.037,10.062c0.649,1.698,1.396,3.346,2.238,4.938H21v9.582c0.775,0.836,1.582,1.643,2.418,2.418H30v-3h-3L30,77z"/>
	<polygon style="fill:#0E610E;" points="54,18 42,42 48,42 39,60 45,60 36,81 48,81 48,93 60,93 60,81 72,81 63,60 69,60 60,42 
		66,42 	"/>
</g>
<g id="Layer_1">
</g>
</svg>
