<?xml version="1.0" encoding="iso-8859-1"?>
<!-- Generator: Adobe Illustrator 20.1.0, SVG Export Plug-In . SVG Version: 6.00 Build 0)  -->
<svg version="1.1" xmlns="http://www.w3.org/2000/svg" xmlns:xlink="http://www.w3.org/1999/xlink" x="0px" y="0px"
	 viewBox="0 0 108 108" style="enable-background:new 0 0 108 108;" xml:space="preserve">
<g id="Fuel_x5F_Petrol_x5F_Gas_x5F_Station_x5F_Menu">
	<circle style="opacity:0;fill:#FFFFFF;" cx="54" cy="54" r="54"/>
	<path style="fill:#E01678;" d="M85.5,81L81,49.5v-8.25L85.5,36V22.5L63,9l-4.5,4.5l9,6.545c0,2.261,0,5.744,0,6.955
		c0,4.971,4.029,9,9,9v3.75v1.5v8.25c0,0,4.25,29.75,4.5,31.5c0.25,1.75-0.625,4.5-4.5,4.5c-3.938,0-4.448-2.395-4.5-4.5
		c0,0,0-25.125,0-29.25c0-3.516-3.188-6.75-6.75-6.75H58.5V22.5c0-2.475-2.025-4.5-4.5-4.5H31.5c-2.475,0-4.5,2.025-4.5,4.5v63
		c0,2.475,2.025,4.5,4.5,4.5H54c2.475,0,4.5-2.025,4.5-4.5v-36c1.386,0,2.952,0,4.5,0c4.41,0,4.5,4.5,4.5,4.5s0,25.736,0,27
		c0,3.188,0.553,9,9,9C86.906,90,85.5,81,85.5,81z M76.5,33.75c-3.728,0-6.75-3.022-6.75-6.75c0-0.727,0-3.163,0-5.319l1.136,0.826
		L76.5,27V33.75z M31.5,40.5V27H54v13.5H31.5z"/>
</g>
<g id="Layer_1">
</g>
</svg>
