<svg xmlns="http://www.w3.org/2000/svg" viewBox="0 0 108 108">
  <title>gallery</title>
  <g id="Layer_2" data-name="Layer 2">
    <g id="Icons">
      <g>
        <circle cx="54" cy="54" r="54" style="fill: #fff;opacity: 0"/>
        <path d="M78,63a9,9,0,0,0,4.5-16.75A8.91,8.91,0,0,0,78,45a9,9,0,0,0-9,9,9.1,9.1,0,0,0,9,9Z" style="fill: #068037"/>
        <path d="M63.35,57H43.72A14.71,14.71,0,0,1,45,63H66.08a14.87,14.87,0,0,1-2.73-6Z" style="fill: #068037"/>
        <path d="M27,21H81V39.35a14.87,14.87,0,0,1,6,2.73V15H21V51.07a14.86,14.86,0,0,1,6-2.77Z" style="fill: #068037"/>
        <path d="M66,27,54,39l-9-9L30,45v3a14.85,14.85,0,0,1,7.5,2.08A15.27,15.27,0,0,1,41.94,54H63A15,15,0,0,1,78,39V36Z" style="fill: #068037"/>
        <path d="M30,72a9,9,0,0,0,9-9,9,9,0,0,0-18,0A9,9,0,0,0,30,72Z" style="fill: #068037"/>
        <path d="M89.94,85.75c0-1.65.06-3.32.06-5.09v-5c0-3.93-6-8.16-13.5-8.16S63,71.35,63,75.66V97.5c0,1.23.05,2.43.13,3.61A47.88,47.88,0,0,0,89.94,85.75Z" style="fill: #068037"/>
        <path d="M45,85c0-3.26-3.95-6.67-9.39-7.93a19.15,19.15,0,0,0-4.35-.54,20.61,20.61,0,0,0-4.49.49c-4.31,1-7.62,3.25-8.77,5.95,0,1,0,1.9,0,2.79a47.88,47.88,0,0,0,27,15.4V85Z" style="fill: #068037"/>
      </g>
    </g>
  </g>
</svg>
