<?xml version="1.0" encoding="iso-8859-1"?>
<!-- Generator: Adobe Illustrator 20.1.0, SVG Export Plug-In . SVG Version: 6.00 Build 0)  -->
<svg version="1.1" xmlns="http://www.w3.org/2000/svg" xmlns:xlink="http://www.w3.org/1999/xlink" x="0px" y="0px"
	 viewBox="0 0 108 108" style="enable-background:new 0 0 108 108;" xml:space="preserve">
<g id="Gambling_x5F_Menu">
	<circle style="opacity:0;fill:#8C18FF;" cx="54" cy="54" r="54"/>
	<path style="fill:#386B05;" d="M37.445,54c0-2.186,1.772-4.456,3.055-6L51,36l10.5,12c1.283,1.544,2.945,3.814,2.945,6
		c0,9-10.445,6-10.445,6l3,9H45l3-9C48,60,37.445,63,37.445,54z"/>
	<path style="fill:#386B05;" d="M75,21c0-3.314-2.686-6-6-6H33c-3.314,0-6,2.686-6,6v60c0,3.314,2.686,6,6,6c0,3.314,2.686,6,6,6h36
		c3.314,0,6-2.686,6-6V27C81,23.686,78.314,21,75,21z M30,81V21c0-1.657,1.343-3,3-3h36c1.657,0,3,1.343,3,3v60c0,1.657-1.343,3-3,3
		H33C31.343,84,30,82.657,30,81z"/>
</g>
<g id="Layer_1">
</g>
</svg>
