<svg xmlns="http://www.w3.org/2000/svg" viewBox="0 0 108 108">
  <title>google +</title>
  <g id="Layer_2" data-name="Layer 2">
    <g id="Icons">
      <g>
        <circle cx="54" cy="54" r="54" style="fill: #fff;opacity: 0"/>
        <path d="M43.79,48.84h0a4,4,0,0,0,3.08-1.41,8.13,8.13,0,0,0,1.49-6.33c-.59-4.5-3.79-8.24-7.14-8.33h-.14a4,4,0,0,0-3,1.41,7.85,7.85,0,0,0-1.45,6.19c.59,4.49,3.86,8.38,7.14,8.48Z" style="fill: #ff3a21"/>
        <path d="M47.45,62.4l-1-.7a11.49,11.49,0,0,0-3.25-.5H43c-5.16,0-9.69,3.13-9.69,6.71,0,3.88,3.87,6.93,8.82,6.93,6.53,0,9.84-2.26,9.84-6.7a5.72,5.72,0,0,0-.15-1.29C51.42,65.11,49.84,64,47.45,62.4Z" style="fill: #ff3a21"/>
        <path d="M54.07,8.93a45,45,0,1,0,45,45A45,45,0,0,0,54.07,8.93ZM48.4,78.8a22.24,22.24,0,0,1-6.2.85,28.23,28.23,0,0,1-7-.84c-4.22-1.07-7.35-3.09-8.81-5.7a7.31,7.31,0,0,1-.94-3.58,9,9,0,0,1,.91-3.87c2.31-4.95,8.42-8.27,15.17-8.27h.2a6,6,0,0,1-.82-3,6.55,6.55,0,0,1,.21-1.61c-7.09-.16-12.39-5.36-12.39-12.22,0-4.85,3.86-9.56,9.39-11.47a15.32,15.32,0,0,1,5-.86H58.31a1.19,1.19,0,0,1,.7,2.16l-3.39,2.46a1.19,1.19,0,0,1-.7.22H53.71a11.8,11.8,0,0,1,2.49,7.58,11.32,11.32,0,0,1-4.74,8.87C49.1,51.36,49,51.86,49,52.92c0,.58,1.68,2.46,3.49,3.75,4.23,3,5.8,5.93,5.8,10.84C58.29,72.63,54.41,77.06,48.4,78.8ZM82.64,52.75a1.2,1.2,0,0,1-1.19,1.2H72.83v8.63a1.19,1.19,0,0,1-1.19,1.19H69.19A1.19,1.19,0,0,1,68,62.58V53.95H59.38a1.2,1.2,0,0,1-1.19-1.2V50.29a1.2,1.2,0,0,1,1.19-1.2H68V40.47a1.2,1.2,0,0,1,1.19-1.19h2.46a1.19,1.19,0,0,1,1.19,1.19V49.1h8.62a1.2,1.2,0,0,1,1.19,1.2Z" style="fill: #ff3a21"/>
      </g>
    </g>
  </g>
</svg>
