<?xml version="1.0" encoding="iso-8859-1"?>
<!-- Generator: Adobe Illustrator 20.1.0, SVG Export Plug-In . SVG Version: 6.00 Build 0)  -->
<svg version="1.1" xmlns="http://www.w3.org/2000/svg" xmlns:xlink="http://www.w3.org/1999/xlink" x="0px" y="0px"
	 viewBox="0 0 108 108" style="enable-background:new 0 0 108 108;" xml:space="preserve">
<g id="Health_x5F_Menu">
	<rect style="opacity:0.01;fill:#FFFFFF;" width="108" height="108"/>
	<path style="fill:#1575D6;" d="M93,44.977c0-11.65-9.444-21.094-21.094-21.094c-6.63,0-12.539,3.065-16.406,7.849
		c-3.867-4.784-9.776-7.849-16.406-7.849C27.444,23.884,18,33.328,18,44.977c0,5.589,2.189,10.656,5.737,14.43l-0.019,0.008
		l0.28,0.28c0.124,0.128,0.25,0.253,0.377,0.377L55.5,91.197l31.123-31.123c0.128-0.125,0.254-0.251,0.379-0.379l0.279-0.279
		l-0.019-0.008C90.811,55.633,93,50.566,93,44.977z M55.5,75C44.73,75,36,66.27,36,55.5C36,44.73,44.73,36,55.5,36S75,44.73,75,55.5
		C75,66.27,66.27,75,55.5,75z"/>
	<g>
		<rect x="51" y="42" style="fill:#E62E2E;" width="9" height="27"/>
		
			<rect x="51" y="42" transform="matrix(4.891003e-11 1 -1 4.891003e-11 111 -1.139835e-07)" style="fill:#E62E2E;" width="9" height="27"/>
	</g>
</g>
<g id="Layer_1">
</g>
</svg>
