<svg xmlns="http://www.w3.org/2000/svg" viewBox="0 0 108 108">
  <title>health</title>
  <g id="Layer_2" data-name="Layer 2">
    <g id="Icons">
      <g>
        <rect width="108" height="108" style="fill: #fff;opacity: 0"/>
        <g>
          <path d="M93,42.62C93,30.68,82.8,21,70.22,21A23.2,23.2,0,0,0,52.5,29a23.2,23.2,0,0,0-17.72-8C22.2,21,12,30.68,12,42.62a21,21,0,0,0,6.2,14.79h0l.3.29.41.38L52.5,93,86.11,58.1l.41-.38.3-.29h0A21,21,0,0,0,93,42.62ZM52.5,72A19.5,19.5,0,1,1,72,52.5,19.5,19.5,0,0,1,52.5,72Z" style="fill: #276ed9"/>
          <polygon points="66 48 57 48 57 39 48 39 48 48 39 48 39 57 48 57 48 66 57 66 57 57 66 57 66 48" style="fill: #e62e2e"/>
        </g>
      </g>
    </g>
  </g>
</svg>
