<svg xmlns="http://www.w3.org/2000/svg" viewBox="0 0 108 108">
  <title>homeware</title>
  <g id="Layer_2" data-name="Layer 2">
    <g id="Icons">
      <g>
        <circle cx="54" cy="54" r="54" style="fill: #fff;opacity: 0"/>
        <path d="M78,52.1V19.5a4.5,4.5,0,0,0-9,0V52.1c-5.23,2.48-9,9.07-9,16.9,0,9.94,6,18,13.5,18S87,78.94,87,69C87,61.17,83.23,54.58,78,52.1ZM73.5,24a3,3,0,1,1,3-3A3,3,0,0,1,73.5,24Z" style="fill: #2e2ee6"/>
        <path d="M46.5,51H42V19.5C42,17,37,15,34.5,15S27,17,27,19.5V51H22.5A4.5,4.5,0,0,0,18,55.5v27A4.5,4.5,0,0,0,22.5,87h24A4.5,4.5,0,0,0,51,82.5v-27A4.5,4.5,0,0,0,46.5,51ZM27,81a3,3,0,0,1-6,0V57a3,3,0,0,1,6,0Zm10.5,0a3,3,0,0,1-6,0V57a3,3,0,0,1,6,0Zm-3-57a3,3,0,1,1,3-3A3,3,0,0,1,34.5,24ZM48,81a3,3,0,0,1-6,0V57a3,3,0,0,1,6,0Z" style="fill: #2e2ee6"/>
      </g>
    </g>
  </g>
</svg>
