<?xml version="1.0" encoding="iso-8859-1"?>
<!-- Generator: Adobe Illustrator 20.1.0, SVG Export Plug-In . SVG Version: 6.00 Build 0)  -->
<svg version="1.1" xmlns="http://www.w3.org/2000/svg" xmlns:xlink="http://www.w3.org/1999/xlink" x="0px" y="0px"
	 viewBox="0 0 108 108" style="enable-background:new 0 0 108 108;" xml:space="preserve">
<g id="Hospital_x5F_Menu">
	<rect x="0" y="0" style="opacity:0;fill:#FFFFFF;" width="108" height="108"/>
	<path style="fill:#1575D6;" d="M78.48,18H29.52C23.158,18,18,23.158,18,29.52v48.96C18,84.842,23.158,90,29.52,90h48.96
		C84.842,90,90,84.842,90,78.48V29.52C90,23.158,84.842,18,78.48,18z M84,75.429C84,80.162,80.163,84,75.429,84H32.571
		C27.837,84,24,80.162,24,75.429V32.571C24,27.838,27.837,24,32.571,24h42.857C80.163,24,84,27.838,84,32.571V75.429z"/>
	<polygon style="fill:#E62E2E;" points="75,48 60,48 60,33 48,33 48,48 33,48 33,60 48,60 48,75 60,75 60,60 75,60 	"/>
</g>
<g id="Layer_1">
</g>
</svg>
