<svg xmlns="http://www.w3.org/2000/svg" viewBox="0 0 108 108">
  <title>hospital</title>
  <g id="Layer_2" data-name="Layer 2">
    <g id="Icons">
      <g>
        <circle cx="54" cy="54" r="54" style="fill: #fff;opacity: 0"/>
        <path d="M78,18H30A12,12,0,0,0,18,30V78A12,12,0,0,0,30,90H78A12,12,0,0,0,90,78V30A12,12,0,0,0,78,18Zm3,57.6A5.4,5.4,0,0,1,75.6,81H32.4A5.4,5.4,0,0,1,27,75.6V32.4A5.4,5.4,0,0,1,32.4,27H75.6A5.4,5.4,0,0,1,81,32.4Z" style="fill: #276ed9"/>
        <polygon points="75 48 60 48 60 33 48 33 48 48 33 48 33 60 48 60 48 75 60 75 60 60 75 60 75 48" style="fill: #e62e2e"/>
      </g>
    </g>
  </g>
</svg>
