<svg xmlns="http://www.w3.org/2000/svg" viewBox="0 0 108 108">
  <title>hotel</title>
  <g id="Layer_2" data-name="Layer 2">
    <g id="Icons">
      <g>
        <circle cx="54" cy="54" r="54" style="fill: #fff;opacity: 0"/>
        <path d="M63,69V84H93V33H12V84H42V69ZM75,42h9v9H75Zm0,13.5h9v9H75ZM75,69h9v9H75ZM57,42h9v9H57Zm0,13.5h9v9H57ZM39,42h9v9H39ZM30,78H21V69h9Zm0-13.5H21v-9h9ZM30,51H21V42h9Zm9,13.5v-9h9v9Z" style="fill: #d82121"/>
        <polygon points="42 84 42 88.5 36 88.5 36 93 30 93 36 97.5 69 97.5 75 93 69 93 69 88.5 63 88.5 63 84 42 84" style="fill: #d82121"/>
        <polygon points="63.93 28.5 68.29 25.32 72.66 28.5 71.07 23.34 75.44 20.16 69.88 20.16 68.29 15 66.71 20.16 61.15 20.16 65.52 23.34 63.93 28.5" style="fill: #d82121"/>
        <polygon points="78.22 28.5 82.59 25.32 86.96 28.5 85.37 23.34 89.73 20.16 84.18 20.16 82.59 15 81 20.16 75.44 20.16 79.81 23.34 78.22 28.5" style="fill: #d82121"/>
        <polygon points="49.63 28.5 54 25.32 58.37 28.5 56.78 23.34 61.15 20.16 55.59 20.16 54 15 52.41 20.16 46.85 20.16 51.22 23.34 49.63 28.5" style="fill: #d82121"/>
        <polygon points="35.34 28.5 39.71 25.32 44.07 28.5 42.48 23.34 46.85 20.16 41.29 20.16 39.71 15 38.12 20.16 32.56 20.16 36.93 23.34 35.34 28.5" style="fill: #d82121"/>
        <polygon points="21.04 28.5 25.41 25.32 29.78 28.5 28.19 23.34 32.56 20.16 27 20.16 25.41 15 23.82 20.16 18.27 20.16 22.63 23.34 21.04 28.5" style="fill: #d82121"/>
      </g>
    </g>
  </g>
</svg>
