<svg xmlns="http://www.w3.org/2000/svg" viewBox="0 0 108 108">
  <title>humidity</title>
  <g id="Layer_2" data-name="Layer 2">
    <g id="Icons">
      <g>
        <circle cx="54" cy="54" r="54" style="fill: #fff;opacity: 0"/>
        <path d="M80.19,58.91h0l-.65-1.3c-.15-.31-.29-.63-.46-.94L54,9,28,58.48h0a28.59,28.59,0,1,0,52.17.43Zm-43,9.85A11.43,11.43,0,0,1,35,61.44a11.24,11.24,0,0,1,2.13-7.25,7.2,7.2,0,0,1,11.14,0,11.24,11.24,0,0,1,2.13,7.25,11.42,11.42,0,0,1-2.13,7.29,6.74,6.74,0,0,1-5.55,2.69A6.85,6.85,0,0,1,37.15,68.76Zm10.25,16H43.56l17-32.5h3.84ZM70.85,82.1a6.83,6.83,0,0,1-5.59,2.67,6.76,6.76,0,0,1-5.55-2.69,11.45,11.45,0,0,1-2.13-7.3,11.24,11.24,0,0,1,2.13-7.25,7.2,7.2,0,0,1,11.14,0A11.24,11.24,0,0,1,73,74.78,11.39,11.39,0,0,1,70.85,82.1Zm-26-15.81a10.17,10.17,0,0,0,1-4.74,10.12,10.12,0,0,0-.67-4.73A2.52,2.52,0,0,0,43,55.25a2.57,2.57,0,0,0-2.31,1.41,9.77,9.77,0,0,0-1,4.67,10,10,0,0,0,.69,4.78,2.55,2.55,0,0,0,2.2,1.61A2.48,2.48,0,0,0,44.8,66.29Zm20.46,2.3A2.53,2.53,0,0,0,63,70.08a10,10,0,0,0-.84,4.7A10.26,10.26,0,0,0,63,79.53a2.51,2.51,0,0,0,2.24,1.54,2.55,2.55,0,0,0,2.25-1.54,10,10,0,0,0,.87-4.75,9.67,9.67,0,0,0-.87-4.7A2.56,2.56,0,0,0,65.26,68.59Z" style="fill: #378006"/>
      </g>
    </g>
  </g>
</svg>
