<svg xmlns="http://www.w3.org/2000/svg" viewBox="0 0 108 108">
  <title>hvac_unit</title>
  <g id="Layer_2" data-name="Layer 2">
    <g id="Icons">
      <g>
        <circle cx="54" cy="54" r="54" style="fill: #fff;opacity: 0"/>
        <circle cx="54" cy="54" r="9" style="fill: #378006"/>
        <g>
          <path d="M63.48,63.63A13.07,13.07,0,0,1,52,67.36l-3.2,21.23a9.09,9.09,0,0,0,10,10.36,44.77,44.77,0,0,0,17.79-5.78,9.09,9.09,0,0,0,2-14.25Z" style="fill: #378006"/>
          <path d="M56,40.64l3.2-21.23a9.09,9.09,0,0,0-10-10.36,44.77,44.77,0,0,0-17.79,5.78,9.09,9.09,0,0,0-2,14.25l15.07,15.3A13.08,13.08,0,0,1,56,40.64Z" style="fill: #378006"/>
          <path d="M97,40a44.65,44.65,0,0,0-3.83-8.59,9.09,9.09,0,0,0-14.25-2L63.63,44.52A13.08,13.08,0,0,1,67.36,56l21.23,3.2a9.09,9.09,0,0,0,10.36-10A44.65,44.65,0,0,0,97,40Z" style="fill: #378006"/>
          <path d="M40.64,52l-21.23-3.2a9.09,9.09,0,0,0-10.36,10,44.77,44.77,0,0,0,5.78,17.79,9.09,9.09,0,0,0,14.25,2l15.3-15.07A13.08,13.08,0,0,1,40.64,52Z" style="fill: #378006"/>
        </g>
      </g>
    </g>
  </g>
</svg>
