<svg xmlns="http://www.w3.org/2000/svg" viewBox="0 0 108 108">
  <title>indian</title>
  <g id="Layer_2" data-name="Layer 2">
    <g id="Icons">
      <g>
        <circle cx="54" cy="54" r="54" style="fill: #fff;opacity: 0"/>
        <path d="M61.52,19.5c-3.32-5.73,2.24-9,2.24-9S57,9.94,57,17.25C57,20.52,59.28,24,59.28,24s4.15,5.82-2.28,9c0,0,8.77.49,9-4.5C66.11,25.86,64,23.82,61.52,19.5Z" style="fill: #00856a"/>
        <path d="M46.48,25.2C49.79,20.62,44.24,18,44.24,18S51,17.55,51,23.4c0,2.62-2.28,5.39-2.28,5.39S44.57,33.45,51,36c0,0-8.77.4-9-3.6C41.89,30.29,44,28.65,46.48,25.2Z" style="fill: #00856a"/>
        <path d="M97.19,49.81c-3-3-8.66-2.19-12.65,1.81a12.59,12.59,0,0,0-2.73,4.09c-2.66-3.13-7-5.14-12.11-5.62C67.45,44.52,61.31,40.5,54,40.5s-13.46,4-15.7,9.58c-5.08.47-9.44,2.48-12.1,5.61a12.6,12.6,0,0,0-2.73-4.08c-4-4-9.66-4.8-12.65-1.81s-2.19,8.66,1.81,12.65a12.17,12.17,0,0,0,5.9,3.31C20.6,76.38,28.83,86,40.11,90l27.78,0c11.23-4,19.5-13.55,21.6-24.21a12.17,12.17,0,0,0,5.9-3.31C99.38,58.47,100.19,52.8,97.19,49.81ZM14.42,53.42c1.5-1.5,4.33-1.09,6.33.9s2.4,4.83.9,6.33-4.33,1.09-6.33-.9S12.93,54.92,14.42,53.42ZM79,63H27c0-5,6-9,13.5-9H43a8.4,8.4,0,0,1,1.15-3.61A11.41,11.41,0,0,1,54,45.21a11.4,11.4,0,0,1,9.87,5.18A8.4,8.4,0,0,1,65,54H67.5C75,54,81,58,81,63Zm13.68-3.25c-2,2-4.83,2.4-6.33.9s-1.09-4.33.9-6.33,4.83-2.4,6.33-.9S94.67,57.75,92.67,59.75Z" style="fill: #00856a"/>
      </g>
    </g>
  </g>
</svg>
