<?xml version="1.0" encoding="iso-8859-1"?>
<!-- Generator: Adobe Illustrator 20.0.0, SVG Export Plug-In . SVG Version: 6.00 Build 0)  -->
<svg version="1.1" xmlns="http://www.w3.org/2000/svg" xmlns:xlink="http://www.w3.org/1999/xlink" x="0px" y="0px"
	 viewBox="0 0 72 72" style="enable-background:new 0 0 72 72;" xml:space="preserve">
<g id="IndoorEscalator">
	<rect style="opacity:0;fill:#FFFFFF;" width="72" height="72"/>
	<path style="fill:#E9692D;" d="M39,28.833C38.678,26.648,36.801,24,34.527,24C32.027,24,30,26.025,30,28.526v6.457L39,28.833z"/>
	<path style="fill:#E9692D;" d="M57.951,24h-5.993c-1.334,0-2.63,0.473-3.684,1.291L20.925,45h-3.937c-3.313,0-6,2.686-6,6
		c0,3.313,2.688,6,6,6h5.994c1.335,0,2.631-0.444,3.685-1.264L54.017,36h3.935C61.266,36,64,33.342,64,30.028
		C64,26.714,61.266,24,57.951,24z M21,55.5L15,51l6-4.5V55.5z M54,34v-9l6,4.5L54,34z"/>
	<path style="fill:#E9692D;" d="M30,16.5c0-2.485,2.015-4.5,4.5-4.5c2.485,0,4.5,2.015,4.5,4.5c0,2.484-2.015,4.5-4.5,4.5
		C32.015,21,30,18.984,30,16.5"/>
</g>
<g id="Layer_1">
</g>
</svg>
