<?xml version="1.0" encoding="iso-8859-1"?>
<!-- Generator: Adobe Illustrator 20.0.0, SVG Export Plug-In . SVG Version: 6.00 Build 0)  -->
<svg version="1.1" xmlns="http://www.w3.org/2000/svg" xmlns:xlink="http://www.w3.org/1999/xlink" x="0px" y="0px"
	 viewBox="0 0 72 72" style="enable-background:new 0 0 72 72;" xml:space="preserve">
<g id="Indoors_x5F_Printer">
	<rect style="opacity:0;fill:#FFFFFF;" width="72" height="72"/>
	<g>
		<rect x="27" y="45" style="fill:#569AD5;" width="18" height="3"/>
		<rect x="27" y="51" style="fill:#569AD5;" width="18" height="3"/>
		<path style="fill:#569AD5;" d="M60,27h-9V15H29.996L21,23.997V27h-9v24h9v9h30v-9h9V27z M24,23.998l0.001-0.001h5.995v-5.995
			L29.998,18H48v9H24V23.998z M19.5,44.965c-0.828,0-1.5-0.672-1.5-1.5s0.672-1.5,1.5-1.5H21v3H19.5z M48,57H24v-6v-6.035v-3h24v3
			V51V57z M52.5,44.965H51v-3h1.5c0.828,0,1.5,0.672,1.5,1.5S53.328,44.965,52.5,44.965z M54,36c-1.657,0-3-1.343-3-3s1.343-3,3-3
			s3,1.343,3,3S55.657,36,54,36z"/>
	</g>
</g>
<g id="Layer_1">
</g>
</svg>
