<?xml version="1.0" encoding="iso-8859-1"?>
<!-- Generator: Adobe Illustrator 20.1.0, SVG Export Plug-In . SVG Version: 6.00 Build 0)  -->
<svg version="1.1" xmlns="http://www.w3.org/2000/svg" xmlns:xlink="http://www.w3.org/1999/xlink" x="0px" y="0px"
	 viewBox="0 0 108 108" style="enable-background:new 0 0 108 108;" xml:space="preserve">
<g id="Indoor_x5F_Bathroom_x5F_Menu">
	<circle style="opacity:0;fill:#FFFFFF;" cx="54" cy="54" r="54"/>
	<polygon style="fill:#15788C;" points="21,90 18,90 21,60 21,48 12,60 9,60 21,36 36,36 48,60 45,60 36,48 36,60 39,90 36,90 
		28.5,60.75 	"/>
	<path style="fill:#15788C;" d="M21,25.5c0-4.142,3.359-7.5,7.5-7.5c4.141,0,7.5,3.358,7.5,7.5S32.641,33,28.5,33
		C24.359,33,21,29.642,21,25.5"/>
	<polygon style="fill:#15788C;" points="93,75 87,75 87,90 84,90 81,75 78,75 75,90 72,90 72,75 66,75 73,54 72,45 63,57 60,57 
		72,36 87,36 99,57 96,57 87,45 85.5,54 	"/>
	<path style="fill:#15788C;" d="M72,25.5c0-4.142,3.359-7.5,7.5-7.5c4.141,0,7.5,3.358,7.5,7.5S83.641,33,79.5,33
		C75.359,33,72,29.642,72,25.5"/>
	<rect x="52.5" y="12" style="fill:#15788C;" width="3" height="84"/>
</g>
<g id="Layer_1">
</g>
</svg>
