<?xml version="1.0" encoding="iso-8859-1"?>
<!-- Generator: Adobe Illustrator 20.0.0, SVG Export Plug-In . SVG Version: 6.00 Build 0)  -->
<svg version="1.1" xmlns="http://www.w3.org/2000/svg" xmlns:xlink="http://www.w3.org/1999/xlink" x="0px" y="0px"
	 viewBox="0 0 72 72" style="enable-background:new 0 0 72 72;" xml:space="preserve">
<g id="Indoor_x5F_Defibrillator">
	<g>
		<path style="fill:#E62E2E;" d="M24.313,39c0.467,0,0.907,0.218,1.191,0.589l1.286,1.682l5.908-11.936
			c0.295-0.593,0.938-0.924,1.594-0.813c0.652,0.109,1.155,0.634,1.239,1.29l2.106,16.601l5.438-12.458
			c0.239-0.547,0.779-0.9,1.375-0.9c0.011,0,0.022,0,0.034,0c0.608,0.014,1.148,0.394,1.366,0.962L47.764,39h9.909
			C59.134,36.851,60,34.268,60,31.475C60,24.033,53.956,18,46.5,18c-4.244,0-8.025,1.958-10.5,5.014
			C33.525,19.958,29.744,18,25.5,18C18.044,18,12,24.033,12,31.475c0,2.793,0.866,5.376,2.327,7.525H24.313z"/>
		<path style="fill:#E62E2E;" d="M46.732,42c-0.621,0-1.178-0.383-1.4-0.962l-0.971-2.529L38.21,52.6
			c-0.241,0.552-0.785,0.9-1.374,0.9c-0.071,0-0.143-0.005-0.214-0.015c-0.669-0.096-1.19-0.626-1.275-1.296l-2.166-17.066
			l-4.771,9.641c-0.23,0.464-0.684,0.777-1.2,0.828c-0.515,0.046-1.021-0.171-1.336-0.582L23.571,42h-6.607L36,61l19.036-19H46.732z
			"/>
	</g>
	<rect style="opacity:0;fill:#FFFFFF;" width="72" height="72"/>
</g>
<g id="Layer_1">
</g>
</svg>
