<?xml version="1.0" encoding="iso-8859-1"?>
<!-- Generator: Adobe Illustrator 20.0.0, SVG Export Plug-In . SVG Version: 6.00 Build 0)  -->
<svg version="1.1" xmlns="http://www.w3.org/2000/svg" xmlns:xlink="http://www.w3.org/1999/xlink" x="0px" y="0px"
	 viewBox="0 0 72 72" style="enable-background:new 0 0 72 72;" xml:space="preserve">
<g id="Indoor_x5F_Elevator">
	<rect style="opacity:0;fill:#FFFFFF;" width="72" height="72"/>
	<polygon style="fill:#D81308;" points="42,12 30,12 36,6 	"/>
	<polygon style="fill:#D81308;" points="42,60 30,60 36,66 	"/>
	<path style="fill:#D81308;" d="M51,15H21c-1.657,0-3,1.343-3,3v36c0,1.657,1.343,3,3,3h30c1.657,0,3-1.343,3-3V18
		C54,16.343,52.657,15,51,15z M31.5,18h9c0.828,0,1.5,0.672,1.5,1.5c0,0.828-0.672,1.5-1.5,1.5h-9c-0.828,0-1.5-0.672-1.5-1.5
		C30,18.672,30.672,18,31.5,18z M34.5,54h-12V24h12V54z M49.5,54h-12V24h12V54z"/>
</g>
<g id="Layer_1">
</g>
</svg>
