<?xml version="1.0" encoding="iso-8859-1"?>
<!-- Generator: Adobe Illustrator 20.0.0, SVG Export Plug-In . SVG Version: 6.00 Build 0)  -->
<svg version="1.1" xmlns="http://www.w3.org/2000/svg" xmlns:xlink="http://www.w3.org/1999/xlink" x="0px" y="0px"
	 viewBox="0 0 72 72" style="enable-background:new 0 0 72 72;" xml:space="preserve">
<g id="Indoor_x5F_Accessible">
	<rect style="opacity:0;fill:#FFFFFF;" width="72" height="72"/>
	<path style="fill:#0D8585;" d="M32.984,16.5c0-2.485,2.015-4.5,4.5-4.5c2.485,0,4.5,2.015,4.5,4.5s-2.015,4.5-4.5,4.5
		C34.999,21,32.984,18.985,32.984,16.5"/>
	<polygon style="fill:#0D8585;" points="21.374,26.057 32.205,22.499 33.388,25.687 22.555,29.244 	"/>
	<polygon style="fill:#0D8585;" points="16.087,35.017 21.386,26.06 24.277,28.042 18.977,37 	"/>
	<polygon style="fill:#0D8585;" points="26.485,39.453 27.241,26.5 37.485,26.922 36.728,39.875 	"/>
	<path style="fill:#0D8585;" d="M37.478,27.5l-9.993-0.454c0.14-2.633,2.489-4.666,5.25-4.541
		C35.494,22.631,37.618,24.867,37.478,27.5"/>
	<polygon style="fill:#0D8585;" points="49.212,55 39.485,39 45.384,40.712 47.231,43.75 54.485,54.885 	"/>
	<path style="fill:#0D8585;" d="M45.975,43l-9.74-0.458c0.226-3.521-3.815-6.842,1.153-6.513c3.479,0.23,6.408,1.832,7.774,3.979
		C45.745,40.927,46.043,41.945,45.975,43"/>
	<path style="fill:#0D8585;" d="M41.513,44.683c-0.886-3.079-2.917-5.629-5.72-7.18c-1.832-1.015-3.897-1.523-5.988-1.501
		c-4.288,0.066-8.241,2.438-10.317,6.191c-1.551,2.803-1.917,6.043-1.031,9.125c0.886,3.081,2.918,5.63,5.72,7.18
		C25.953,59.482,27.958,60,29.985,60c0.059,0,0.118,0,0.178-0.001h0.002c4.289-0.066,8.242-2.439,10.316-6.191
		C42.032,51.004,42.399,47.764,41.513,44.683z M36.546,51.63c-2.005,3.624-6.568,4.937-10.192,2.932
		c-3.623-2.006-4.935-6.567-2.931-10.191c2.005-3.624,6.567-4.935,10.192-2.931C37.238,43.443,38.551,48.006,36.546,51.63z"/>
</g>
<g id="Layer_1">
</g>
</svg>
