<?xml version="1.0" encoding="iso-8859-1"?>
<!-- Generator: Adobe Illustrator 20.1.0, SVG Export Plug-In . SVG Version: 6.00 Build 0)  -->
<svg version="1.1" xmlns="http://www.w3.org/2000/svg" xmlns:xlink="http://www.w3.org/1999/xlink" x="0px" y="0px"
	 viewBox="0 0 108 108" style="enable-background:new 0 0 108 108;" xml:space="preserve">
<g id="Islam_x5F_Menu">
	<circle style="opacity:0;fill:#FFFFFF;" cx="54" cy="54" r="54"/>
	<path style="fill:#15788C;" d="M9.003,53.993C9.003,78.848,29.14,99,53.995,99c24.855,0,45.007-20.152,45.007-45.007
		c0-1.89-0.119-3.736-0.357-5.566c-0.045,20.688-16.818,37.432-37.506,37.432c-20.718,0-37.521-16.789-37.521-37.506
		s16.803-37.506,37.521-37.506c2.992,0,5.909,0.357,8.692,1.012C64.905,10.012,59.562,9,53.995,9C29.14,9,9.003,29.137,9.003,53.993
		z"/>
	<polygon style="fill:#15788C;" points="73.254,51.349 78.263,41.533 89.147,43.264 81.359,35.466 86.368,25.65 76.546,30.647 
		68.757,22.849 70.475,33.735 60.652,38.733 71.536,40.463 	"/>
</g>
<g id="Layer_1">
</g>
</svg>
