<svg xmlns="http://www.w3.org/2000/svg" viewBox="0 0 108 108">
  <title>islam</title>
  <g id="Layer_2" data-name="Layer 2">
    <g id="Icons">
      <g>
        <circle cx="54" cy="54" r="54" style="fill: #fff;opacity: 0"/>
        <path d="M9,54a45,45,0,1,0,90,0,43,43,0,0,0-.36-5.57A37.51,37.51,0,1,1,61.14,10.85a38,38,0,0,1,8.69,1A45,45,0,0,0,9,54Z" style="fill: #0081a1"/>
        <polygon points="73.25 51.35 78.26 41.53 89.15 43.26 81.36 35.47 86.37 25.65 76.55 30.65 68.76 22.85 70.47 33.73 60.65 38.73 71.54 40.46 73.25 51.35" style="fill: #0081a1"/>
      </g>
    </g>
  </g>
</svg>
