<svg xmlns="http://www.w3.org/2000/svg" viewBox="0 0 108 108">
  <title>judaism</title>
  <g id="Layer_2" data-name="Layer 2">
    <g id="Icons">
      <g>
        <circle cx="54" cy="54" r="54" style="fill: #fff;opacity: 0"/>
        <path d="M82,54,96,30H68L54,6,40,30H12L26,54,12,78H40l14,24L68,78H96Zm2-18L77.9,47,71.5,36ZM74,54,64,72H44L34,54,44,36H64ZM54,18l6.67,12H47.33ZM24,36H36.5L30.1,47Zm0,36,6.1-11,6.4,11ZM54,90,47.33,78H60.67ZM77.9,61,84,72H71.5Z" style="fill: #0081a1"/>
      </g>
    </g>
  </g>
</svg>
