<?xml version="1.0" encoding="iso-8859-1"?>
<!-- Generator: Adobe Illustrator 20.1.0, SVG Export Plug-In . SVG Version: 6.00 Build 0)  -->
<svg version="1.1" xmlns="http://www.w3.org/2000/svg" xmlns:xlink="http://www.w3.org/1999/xlink" x="0px" y="0px"
	 viewBox="0 0 108 108" style="enable-background:new 0 0 108 108;" xml:space="preserve">
<g id="judaism_x5F_Menu">
	<circle style="opacity:0;fill:#FFFFFF;" cx="54" cy="54" r="54"/>
	<path style="fill:#15788C;" d="M82,54l14-24H68L54,6L40,30H12l14,24L12,78h28l14,24l14-24h28L82,54z M84,36l-6.098,10.976L71.5,36
		H84z M74,54L64,72H44L34,54l10-18h20L74,54z M54,18l6.667,12H47.333L54,18z M24,36h12.5l-6.402,10.976L24,36z M24,72l6.098-10.976
		L36.5,72H24z M54,90l-6.667-12h13.333L54,90z M77.902,61.024L84,72H71.5L77.902,61.024z"/>
</g>
<g id="Layer_1">
</g>
</svg>
