<svg xmlns="http://www.w3.org/2000/svg" viewBox="0 0 108 108">
  <title>kitchen</title>
  <g id="Layer_2" data-name="Layer 2">
    <g id="Icons">
      <g>
        <circle cx="54" cy="54" r="54" style="fill: #fff;opacity: 0"/>
        <path d="M85.5,45H81V36H27v9H22.5a4.5,4.5,0,0,0,0,9H27V72a13.37,13.37,0,0,0,1.92,6.83c.13-.13.21-.28.35-.4,3.8-3.23,11.18-2.24,17.17,2,1.6-3.73,4.38-6.21,7.56-6.21s6,2.48,7.56,6.21c6-4.28,13.37-5.27,17.17-2,.14.12.22.28.35.4A13.37,13.37,0,0,0,81,72V54h4.5a4.5,4.5,0,0,0,0-9Z" style="fill: #6a17e6"/>
        <path d="M64.52,18.6A7,7,0,0,1,66.76,9S60,8.4,60,16.2c0,3.49,2.28,7.19,2.28,7.19S66.43,29.6,60,33c0,0,8.77.53,9-4.79C69.11,25.39,67,23.21,64.52,18.6Z" style="fill: #6a17e6"/>
        <path d="M54,23.4C54,17.55,47.24,18,47.24,18s5.55,2.61,2.24,7.19C47,28.65,44.89,30.29,45,32.39c.22,4,9,3.6,9,3.6-6.43-2.54-2.28-7.19-2.28-7.19S54,26,54,23.4Z" style="fill: #6a17e6"/>
        <path d="M39,99H69V94.08a9.33,9.33,0,0,0,3.38-2.14c2.7-2.64,3.43-6.2,1.63-8s-5.46-1-8.16,1.59A8.51,8.51,0,0,0,63.35,90h-5a9.48,9.48,0,0,0,.28-2.25C58.62,84,56.55,81,54,81s-4.62,3-4.62,6.75A9.48,9.48,0,0,0,49.67,90h-5a8.51,8.51,0,0,0-2.51-4.42C39.44,82.94,35.79,82.23,34,84s-1.07,5.32,1.63,8A9.33,9.33,0,0,0,39,94.08Z" style="fill: #6a17e6"/>
      </g>
    </g>
  </g>
</svg>
