<?xml version="1.0" encoding="iso-8859-1"?>
<!-- Generator: Adobe Illustrator 20.1.0, SVG Export Plug-In . SVG Version: 6.00 Build 0)  -->
<svg version="1.1" xmlns="http://www.w3.org/2000/svg" xmlns:xlink="http://www.w3.org/1999/xlink" x="0px" y="0px"
	 viewBox="0 0 108 108" style="enable-background:new 0 0 108 108;" xml:space="preserve">
<g id="Lake_x5F_Menu">
	<circle style="opacity:0;fill:#FFFFFF;" cx="54" cy="54" r="54"/>
	<polygon style="fill:#0E610E;" points="76.5,15 66,33 72,33 63,48 69,48 60,63 72,63 72,69 81,69 81,63 93,63 84,48 90,48 81,33 
		87,33 	"/>
	<polygon style="fill:#0E610E;" points="39,12 33,21 36,21 30,30 33,30 27,39 36,39 36,42 42,42 42,39 51,39 45,30 48,30 42,21 
		45,21 	"/>
	<path style="fill:#1C77D4;" d="M54,99c14.952,0,28.194-7.299,36.377-18.521c-2.944-2.185-6.869-4.019-11.371-5.403
		c-10.005-3.076-30-6-30-6S33,66,43.005,62.601c0,0,13.995-5.601,6-11.601c-5.624-4.221-22.965-7.63-38.739-7.597
		C9.446,46.802,9,50.348,9,54C9,78.853,29.147,99,54,99z"/>
</g>
<g id="Layer_1">
</g>
</svg>
