<svg xmlns="http://www.w3.org/2000/svg" viewBox="0 0 108 108">
  <title>lake</title>
  <g id="Layer_2" data-name="Layer 2">
    <g id="Icons">
      <g>
        <circle cx="54" cy="54" r="54" style="fill: #fff;opacity: 0"/>
        <polygon points="76.5 15 66 33 72 33 63 48 69 48 60 63 72 63 72 69 81 69 81 63 93 63 84 48 90 48 81 33 87 33 76.5 15" style="fill: #0e610e"/>
        <polygon points="39 9 33 21 36 21 30 30 33 30 27 39 36 39 36 42 42 42 42 39 51 39 45 30 48 30 42 21 45 21 39 9" style="fill: #0e610e"/>
        <path d="M54,99A44.93,44.93,0,0,0,90.38,80.48,38.06,38.06,0,0,0,79,75.08c-10-3.08-30-6-30-6S33,66,43,62.6c0,0,14-5.6,6-11.6-5.62-4.22-23-7.63-38.74-7.6A45,45,0,0,0,54,99Z" style="fill: #276ed9"/>
      </g>
    </g>
  </g>
</svg>
