<?xml version="1.0" encoding="iso-8859-1"?>
<!-- Generator: Adobe Illustrator 21.0.0, SVG Export Plug-In . SVG Version: 6.00 Build 0)  -->
<svg version="1.1" xmlns="http://www.w3.org/2000/svg" xmlns:xlink="http://www.w3.org/1999/xlink" x="0px" y="0px"
	 viewBox="0 0 108 108" style="enable-background:new 0 0 108 108;" xml:space="preserve">
<g id="Lamppost_x5F_Menu">
	<circle style="opacity:0;fill:#FFFFFF;" cx="54" cy="54" r="54"/>
	<path style="fill:#15788C;" d="M60,12h-6h-3c-6,0-9,3-9,9l0.167,51c-1.657,0-3,1.343-3,3v21h12V75c0-1.657-1.343-3-3-3L48,21
		c0-1.771,0.813-3,3-3v3c0,1.654,1.346,3,3,3h12c2.101,0.011,2.974-1.012,3-3c0,0,0-1.958,0-3h1.167H72v-6H60z M63.322,21h-6.645
		C55.261,21.096,54,21.325,54,18.867C54,18.042,54,15,54,15h12c0,0,0.021,2.903,0,3.728C65.96,20.324,65.204,21.053,63.322,21z"/>
	<path style="fill:#15788C;" d="M61.5,35.978L61.5,35.978c-0.828,0-1.5-0.672-1.5-1.5V28.5c0-0.828,0.672-1.5,1.5-1.5h0
		c0.828,0,1.5,0.672,1.5,1.5v5.978C63,35.306,62.328,35.978,61.5,35.978z"/>
	<path style="fill:#15788C;" d="M72.133,32.699L72.133,32.699c-0.717,0.414-1.635,0.168-2.049-0.549l-2.222-3.849
		c-0.414-0.717-0.168-1.635,0.549-2.049v0c0.717-0.414,1.635-0.168,2.049,0.549l2.222,3.849
		C73.096,31.367,72.85,32.285,72.133,32.699z"/>
	<path style="fill:#15788C;" d="M50.866,32.699L50.866,32.699c0.717,0.414,1.635,0.168,2.049-0.549l2.223-3.85
		c0.414-0.717,0.168-1.635-0.549-2.049l0,0c-0.717-0.414-1.635-0.168-2.049,0.549l-2.223,3.85
		C49.903,31.367,50.149,32.284,50.866,32.699z"/>
</g>
<g id="Layer_1">
</g>
</svg>
