<svg xmlns="http://www.w3.org/2000/svg" viewBox="0 0 108 108">
  <title>lifeguard</title>
  <g id="Layer_2" data-name="Layer 2">
    <g id="Icons">
      <g>
        <circle cx="54" cy="54" r="54" style="fill: #fff;opacity: 0"/>
        <path d="M53.94,9a45,45,0,1,0,45,45A45,45,0,0,0,53.94,9ZM54,12a41.86,41.86,0,0,1,16.41,3.33L64.55,29.12a27.06,27.06,0,0,0-21.1,0L37.59,15.31A41.86,41.86,0,0,1,54,12ZM15.33,70.39a42.09,42.09,0,0,1,0-32.83l13.81,5.86a27.06,27.06,0,0,0,0,21.1ZM54,96a41.86,41.86,0,0,1-16.41-3.33l5.86-13.81a27.06,27.06,0,0,0,21.1,0l5.86,13.81A41.86,41.86,0,0,1,54,96Zm0-18A24,24,0,1,1,78,54,24,24,0,0,1,54,78ZM78.86,64.53a27.06,27.06,0,0,0,0-21.1l13.81-5.86a42.09,42.09,0,0,1,0,32.83Z" style="fill: #276ed9"/>
      </g>
    </g>
  </g>
</svg>
