<?xml version="1.0" encoding="iso-8859-1"?>
<!-- Generator: Adobe Illustrator 20.1.0, SVG Export Plug-In . SVG Version: 6.00 Build 0)  -->
<svg version="1.1" xmlns="http://www.w3.org/2000/svg" xmlns:xlink="http://www.w3.org/1999/xlink" x="0px" y="0px"
	 viewBox="0 0 108 108" style="enable-background:new 0 0 108 108;" xml:space="preserve">
<g id="Lifeguard_x5F_Menu">
	<circle style="opacity:0;fill:#FFFFFF;" cx="54" cy="54" r="54"/>
	<path style="fill:#1C77D4;" d="M53.935,9.022c-24.853,0-45,20.147-45,45c0,24.853,20.147,45,45,45c24.853,0,45-20.147,45-45
		C98.935,29.169,78.788,9.022,53.935,9.022z M53.935,13.522c5.65,0,11.027,1.16,15.912,3.25l-5.171,12.484
		c-3.293-1.43-6.922-2.234-10.741-2.234c-3.777,0-7.369,0.781-10.633,2.182l-5.17-12.481C42.988,14.662,48.328,13.522,53.935,13.522
		z M16.896,70.4c-2.218-5.009-3.46-10.547-3.46-16.378c0-5.171,0.979-10.11,2.746-14.656l12.499,5.177
		c-1.109,2.953-1.744,6.138-1.744,9.479c0,4.002,0.894,7.787,2.456,11.203L16.896,70.4z M53.935,94.522
		c-5.334,0-10.422-1.041-15.085-2.915l5.173-12.488c3.072,1.214,6.409,1.903,9.913,1.903c3.546,0,6.923-0.702,10.025-1.945
		l5.172,12.486C64.438,93.465,59.311,94.522,53.935,94.522z M74.341,63.457c-2.413,5.208-6.745,9.333-12.103,11.464
		c-2.571,1.023-5.367,1.602-8.303,1.602c-2.893,0-5.65-0.566-8.191-1.56c-5.393-2.112-9.76-6.238-12.194-11.46
		c-1.344-2.884-2.116-6.088-2.116-9.48c0-2.73,0.511-5.335,1.402-7.757c2.13-5.79,6.552-10.468,12.188-12.902
		c2.733-1.181,5.744-1.841,8.91-1.841c3.209,0,6.256,0.683,9.018,1.893c5.598,2.454,9.987,7.122,12.097,12.896
		c0.88,2.408,1.385,4.997,1.385,7.71C76.435,57.396,75.672,60.584,74.341,63.457z M78.501,65.18
		c1.549-3.404,2.434-7.174,2.434-11.158c0-3.323-0.629-6.492-1.727-9.432l12.5-5.178c1.755,4.534,2.727,9.457,2.727,14.61
		c0,5.814-1.234,11.336-3.44,16.333L78.501,65.18z"/>
</g>
<g id="Layer_1">
</g>
</svg>
