<?xml version="1.0" encoding="iso-8859-1"?>
<!-- Generator: Adobe Illustrator 20.1.0, SVG Export Plug-In . SVG Version: 6.00 Build 0)  -->
<svg version="1.1" xmlns="http://www.w3.org/2000/svg" xmlns:xlink="http://www.w3.org/1999/xlink" x="0px" y="0px"
	 viewBox="0 0 108 108" style="enable-background:new 0 0 108 108;" xml:space="preserve">
<g id="Limo_x5F_Menu">
	<circle style="opacity:0;fill:#FFFFFF;" cx="54" cy="54" r="54"/>
	<circle style="fill:#E01678;" cx="28.5" cy="69" r="7.5"/>
	<path style="fill:#E01678;" d="M52.3,58.631"/>
	<path style="fill:#E01678;" d="M101.897,51H84V37.5h14.498c-0.624-1.541-1.322-4.543-2.096-6H36l-18,18H6.217
		C6.079,50.982,6,52.482,6,54c0,4.689,0.685,9.216,1.938,13.5H16.5C18,60,24,57,28.5,57s10.5,3,12,10.5h59.562
		C101.315,63.216,102,58.689,102,54C102,52.991,101.958,51.993,101.897,51z M78,51H30l12-13.5h36V51z"/>
</g>
<g id="Layer_1">
</g>
</svg>
