<svg xmlns="http://www.w3.org/2000/svg" viewBox="0 0 108 108">
  <title>link</title>
  <g id="Layer_2" data-name="Layer 2">
    <g id="Icons">
      <g>
        <circle cx="54" cy="54" r="54" style="fill: #fff;opacity: 0"/>
        <path d="M54,9A45,45,0,1,0,99,54,45,45,0,0,0,54,9Zm1.16,64.1-6.37,6.37a13.51,13.51,0,1,1-19.1-19.1L36.05,54a13.52,13.52,0,0,1,14.22-3.08l-6,6a6.7,6.7,0,0,0-3.42,1.83l-6.37,6.37A6.75,6.75,0,1,0,44,74.7l6.37-6.37a6.7,6.7,0,0,0,1.83-3.42l6-6A13.52,13.52,0,0,1,55.16,73.1Zm8-31.84A3.38,3.38,0,1,1,67.89,46L47.2,66.74A3.38,3.38,0,1,1,42.42,62Zm17.51,6.37L74.26,54A13.52,13.52,0,0,1,60,57.08l6-6a6.7,6.7,0,0,0,3.42-1.83l6.37-6.37A6.75,6.75,0,0,0,66.3,33.3l-6.37,6.37a6.7,6.7,0,0,0-1.83,3.42l-6,6A13.52,13.52,0,0,1,55.16,34.9l6.37-6.37a13.51,13.51,0,0,1,19.1,19.1Z" style="fill: #9e3f8f"/>
      </g>
    </g>
  </g>
</svg>
