<?xml version="1.0" encoding="iso-8859-1"?>
<!-- Generator: Adobe Illustrator 20.1.0, SVG Export Plug-In . SVG Version: 6.00 Build 0)  -->
<svg version="1.1" xmlns="http://www.w3.org/2000/svg" xmlns:xlink="http://www.w3.org/1999/xlink" x="0px" y="0px"
	 viewBox="0 0 108 108" style="enable-background:new 0 0 108 108;" xml:space="preserve">
<g id="Lodge_x5F_Menu">
	<circle style="opacity:0;fill:#FFFFFF;" cx="54" cy="54" r="54"/>
	<polygon style="fill:#D82121;" points="59,17.25 66,12 60,9 54,13.5 48,9 42,12 49,17.25 12,45 18,48 54,21 90,48 96,45 	"/>
	<path style="fill:#D82121;" d="M77.648,44.736L54,27L30.386,44.71C33.723,46.469,36,49.966,36,54c0,2.943-1.224,5.583-3.18,7.48
		C34.779,63.387,36,66.049,36,69c0,2.943-1.224,5.583-3.18,7.48C34.779,78.387,36,81.049,36,84c0,2.24-0.712,4.304-1.913,6h39.826
		C72.712,88.304,72,86.24,72,84c0-2.955,1.225-5.612,3.193-7.509C73.23,74.593,72,71.949,72,69c0-2.955,1.225-5.612,3.193-7.509
		C73.23,59.593,72,56.949,72,54C72,49.957,74.296,46.48,77.648,44.736z M63,81H45V54h18V81z"/>
	<path style="fill:#D82121;" d="M82.5,48c-0.307,0-0.601,0.046-0.895,0.09c-1.429,0.215-2.692,0.931-3.605,1.962
		c-0.932,1.051-1.5,2.429-1.5,3.948c0,1.515,0.57,2.888,1.5,3.939c0.379,0.428,0.82,0.799,1.306,1.106
		c0.193,0.122,0.388,0.24,0.594,0.34C80.689,59.767,81.564,60,82.5,60s1.811-0.233,2.6-0.615c0.224-0.108,0.437-0.234,0.644-0.368
		C87.397,57.951,88.5,56.112,88.5,54C88.5,50.686,85.814,48,82.5,48z"/>
	<path style="fill:#D82121;" d="M85.703,63.96c-0.195-0.124-0.394-0.243-0.603-0.345C84.311,63.233,83.436,63,82.5,63
		s-1.811,0.233-2.6,0.615c-0.209,0.101-0.408,0.221-0.603,0.345c-0.483,0.306-0.92,0.675-1.297,1.101
		c-0.93,1.051-1.5,2.424-1.5,3.939c0,1.515,0.57,2.888,1.5,3.939c0.379,0.428,0.82,0.799,1.306,1.106
		c0.193,0.122,0.388,0.24,0.594,0.34C80.689,74.767,81.564,75,82.5,75s1.811-0.233,2.6-0.615c0.224-0.108,0.437-0.234,0.644-0.368
		C87.397,72.951,88.5,71.112,88.5,69C88.5,66.871,87.378,65.022,85.703,63.96z"/>
	<path style="fill:#D82121;" d="M85.703,78.96c-0.195-0.124-0.394-0.243-0.603-0.345C84.311,78.233,83.436,78,82.5,78
		s-1.811,0.233-2.6,0.615c-0.209,0.101-0.408,0.221-0.603,0.345c-0.483,0.306-0.92,0.675-1.297,1.101
		c-0.93,1.051-1.5,2.424-1.5,3.939c0,1.519,0.569,2.902,1.5,3.959C79.1,89.208,80.706,90,82.5,90c3.314,0,6-2.687,6-6
		C88.5,81.871,87.378,80.022,85.703,78.96z"/>
	<path style="fill:#D82121;" d="M25.5,48c-0.307,0-0.601,0.046-0.895,0.09C21.719,48.525,19.5,50.993,19.5,54
		c0,2.133,1.127,3.984,2.806,5.045c0.193,0.122,0.388,0.24,0.594,0.34C23.689,59.767,24.564,60,25.5,60s1.811-0.233,2.6-0.615
		c0.224-0.108,0.437-0.234,0.644-0.368c0.467-0.301,0.889-0.663,1.256-1.077c0.93-1.051,1.5-2.424,1.5-3.939
		c0-1.519-0.569-2.903-1.5-3.96C28.901,48.792,27.295,48,25.5,48z"/>
	<path style="fill:#D82121;" d="M28.703,63.96c-0.195-0.124-0.394-0.243-0.603-0.345C27.311,63.233,26.436,63,25.5,63
		s-1.811,0.233-2.6,0.615c-0.209,0.101-0.408,0.221-0.603,0.345C20.623,65.022,19.5,66.871,19.5,69c0,2.133,1.127,3.984,2.806,5.045
		c0.193,0.122,0.388,0.24,0.594,0.34C23.689,74.767,24.564,75,25.5,75s1.811-0.233,2.6-0.615c0.224-0.108,0.437-0.234,0.644-0.368
		c0.467-0.301,0.889-0.663,1.256-1.077c0.93-1.051,1.5-2.424,1.5-3.939c0-1.515-0.57-2.889-1.5-3.939
		C29.623,64.635,29.186,64.266,28.703,63.96z"/>
	<path style="fill:#D82121;" d="M28.703,78.96c-0.195-0.124-0.394-0.243-0.603-0.345C27.311,78.233,26.436,78,25.5,78
		s-1.811,0.233-2.6,0.615c-0.209,0.101-0.408,0.221-0.603,0.345C20.623,80.022,19.5,81.871,19.5,84c0,3.313,2.687,6,6,6
		c1.795,0,3.401-0.792,4.5-2.04c0.931-1.057,1.5-2.44,1.5-3.96c0-1.515-0.57-2.889-1.5-3.939
		C29.623,79.635,29.186,79.266,28.703,78.96z"/>
</g>
<g id="Layer_1">
</g>
</svg>
