<svg xmlns="http://www.w3.org/2000/svg" viewBox="0 0 108 108">
  <title>lodge</title>
  <g id="Layer_2" data-name="Layer 2">
    <g id="Icons">
      <g>
        <circle cx="54" cy="54" r="54" style="fill: #fff;opacity: 0"/>
        <path d="M82.5,48a5.94,5.94,0,0,0-.89.09,6,6,0,0,0-3.61,2,5.93,5.93,0,0,0,0,7.89,6.54,6.54,0,0,0,1.9,1.45,5.8,5.8,0,0,0,5.2,0,6.09,6.09,0,0,0,.64-.37A6,6,0,0,0,82.5,48Z" style="fill: #d82121"/>
        <path d="M85.7,64a6.06,6.06,0,0,0-.6-.34,5.8,5.8,0,0,0-5.2,0A6.5,6.5,0,0,0,78,65.06a5.92,5.92,0,0,0,0,7.88,6.54,6.54,0,0,0,1.9,1.45,5.8,5.8,0,0,0,5.2,0,6.09,6.09,0,0,0,.64-.37A5.94,5.94,0,0,0,85.7,64Z" style="fill: #d82121"/>
        <path d="M85.7,79a6.06,6.06,0,0,0-.6-.34,5.8,5.8,0,0,0-5.2,0A6.5,6.5,0,0,0,78,80.06,6,6,0,0,0,82.5,90a6,6,0,0,0,3.2-11Z" style="fill: #d82121"/>
        <path d="M25.5,48a6,6,0,0,0-3.19,11,6.07,6.07,0,0,0,.59.34,5.8,5.8,0,0,0,5.2,0A6.33,6.33,0,0,0,30,57.94,6,6,0,0,0,25.5,48Z" style="fill: #d82121"/>
        <path d="M28.7,64a6.06,6.06,0,0,0-.6-.34,5.8,5.8,0,0,0-5.2,0,6.07,6.07,0,0,0-.6.34,5.94,5.94,0,0,0,0,10.09,6.07,6.07,0,0,0,.59.34,5.8,5.8,0,0,0,5.2,0A6.33,6.33,0,0,0,30,72.94a5.92,5.92,0,0,0,0-7.88A6.07,6.07,0,0,0,28.7,64Z" style="fill: #d82121"/>
        <path d="M28.7,79a6.06,6.06,0,0,0-.6-.34,5.8,5.8,0,0,0-5.2,0,6.07,6.07,0,0,0-.6.34,6,6,0,1,0,7.7,1.1A6.07,6.07,0,0,0,28.7,79Z" style="fill: #d82121"/>
        <polygon points="61.71 10.5 66 8 58.29 3.5 54 6 49.71 3.5 42 8 46.29 10.5 18 27 18 36 54 15 90 36 90 27 61.71 10.5" style="fill: #d82121"/>
        <path d="M72,54a9.72,9.72,0,0,1,.19-1.9A10.47,10.47,0,0,1,78,44.55V39L54,24,30,39v5.55a10.47,10.47,0,0,1,5.81,7.54A9.78,9.78,0,0,1,36,54a10.46,10.46,0,0,1-3.17,7.5,10.4,10.4,0,0,1,0,15A10.46,10.46,0,0,1,36,84a10.32,10.32,0,0,1-1.93,6H45V67.5H63V90H73.93A10.36,10.36,0,0,1,75.2,76.48a10.37,10.37,0,0,1,0-15A10.46,10.46,0,0,1,72,54Z" style="fill: #d82121"/>
      </g>
    </g>
  </g>
</svg>
