<svg xmlns="http://www.w3.org/2000/svg" viewBox="0 0 108 108">
  <title>message</title>
  <g id="Layer_2" data-name="Layer 2">
    <g id="Icons">
      <g>
        <circle cx="54" cy="54" r="54" style="fill: #fff;opacity: 0"/>
        <path d="M54,21C30.8,21,12,33.59,12,49.13c0,13.66,13.72,25,33,27.58A35,35,0,0,1,39,96s21.77-3.79,30-21c15.13-4.25,27-14.2,27-25.87C96,33.59,77.2,21,54,21ZM71.07,68.74a48,48,0,0,1-6.23,1.64c-4.93,13.27-15.5,16.25-15.5,16.25A42.58,42.58,0,0,0,52.41,72c-2.23-.09-4.89-.24-6.37-.46-15.49-2.27-28-11.63-28-22C18,37.36,34.67,27,54,27S90,37.36,90,49.5C90,57.74,81.76,65,71.07,68.74Z" style="fill: #202020"/>
        <rect x="27" y="42" width="12" height="12" style="fill: #202020"/>
        <rect x="48" y="42" width="12" height="12" style="fill: #202020"/>
        <rect x="69" y="42" width="12" height="12" style="fill: #202020"/>
      </g>
    </g>
  </g>
</svg>
