<?xml version="1.0" encoding="iso-8859-1"?>
<!-- Generator: Adobe Illustrator 21.0.0, SVG Export Plug-In . SVG Version: 6.00 Build 0)  -->
<svg version="1.1" xmlns="http://www.w3.org/2000/svg" xmlns:xlink="http://www.w3.org/1999/xlink" x="0px" y="0px"
	 viewBox="0 0 108 108" style="enable-background:new 0 0 108 108;" xml:space="preserve">
<g id="Meter_x5F_Menu">
	<circle style="opacity:0;fill:#FFFFFF;" cx="54" cy="54" r="54"/>
	<path style="fill:#1B1BB3;" d="M54,21l-9,36c0,4.971,4.029,9,9,9s9-4.029,9-9L54,21z M54,63c-3.314,0-6-2.686-6-6s2.686-6,6-6
		s6,2.686,6,6S57.314,63,54,63z"/>
	<path style="fill:#1B1BB3;" d="M95.661,77.794C99.686,70.775,102,62.655,102,54s-2.314-16.775-6.339-23.794
		c-0.033-0.068-0.054-0.139-0.093-0.206c-0.038-0.065-0.087-0.118-0.129-0.18c-4.175-7.128-10.132-13.085-17.261-17.26
		c-0.061-0.041-0.113-0.091-0.178-0.128c-0.067-0.039-0.138-0.06-0.207-0.093C70.774,8.314,62.655,6,54,6
		s-16.774,2.314-23.794,6.339c-0.068,0.033-0.139,0.054-0.206,0.093c-0.065,0.037-0.117,0.087-0.178,0.128
		c-7.129,4.175-13.086,10.133-17.262,17.262c-0.042,0.061-0.091,0.113-0.128,0.178c-0.039,0.067-0.06,0.138-0.093,0.206
		C8.314,37.225,6,45.345,6,54s2.314,16.775,6.339,23.794c0.033,0.068,0.054,0.139,0.093,0.206c0.028,0.049,0.07,0.084,0.101,0.131
		c4.177,7.15,10.145,13.125,17.289,17.309c0.061,0.041,0.113,0.091,0.178,0.128c0.051,0.03,0.107,0.04,0.159,0.066
		C37.189,99.675,45.326,102,54,102s16.811-2.325,23.841-6.366c0.052-0.026,0.108-0.036,0.159-0.066
		c0.065-0.037,0.117-0.087,0.178-0.128c7.145-4.185,13.113-10.159,17.289-17.309c0.031-0.047,0.073-0.082,0.101-0.131
		C95.607,77.933,95.628,77.862,95.661,77.794z M77.537,88.767l-1.439-2.492c-0.828-1.435-2.66-1.928-4.098-1.098
		c-1.435,0.828-1.927,2.663-1.098,4.098l1.443,2.498c-4.694,2.289-9.878,3.719-15.345,4.107V93c0-1.657-1.343-3-3-3s-3,1.343-3,3
		v2.881c-5.468-0.388-10.651-1.818-15.345-4.107l1.443-2.498c0.829-1.435,0.337-3.27-1.098-4.098
		c-1.436-0.83-3.27-0.337-4.098,1.098l-1.439,2.492c-4.416-2.999-8.232-6.815-11.231-11.231l2.492-1.439
		c1.435-0.828,1.927-2.663,1.098-4.098c-0.827-1.435-2.661-1.927-4.098-1.098l-2.499,1.443c-2.289-4.694-3.719-9.878-4.107-15.345
		H15c1.657,0,3-1.343,3-3s-1.343-3-3-3h-2.881c0.388-5.468,1.818-10.651,4.107-15.345l2.499,1.443
		c0.473,0.273,0.988,0.403,1.497,0.403c1.037,0,2.045-0.538,2.601-1.501c0.829-1.435,0.337-3.27-1.098-4.098l-2.492-1.439
		c2.999-4.415,6.815-8.232,11.231-11.231l1.439,2.492c0.556,0.963,1.563,1.501,2.601,1.501c0.509,0,1.024-0.13,1.497-0.403
		c1.435-0.828,1.927-2.663,1.098-4.098l-1.443-2.498c4.694-2.289,9.878-3.719,15.345-4.107V15c0,1.657,1.343,3,3,3s3-1.343,3-3
		v-2.881c5.468,0.388,10.651,1.818,15.345,4.107l-1.443,2.498c-0.829,1.435-0.337,3.27,1.098,4.098
		c0.473,0.273,0.988,0.403,1.497,0.403c1.037,0,2.045-0.538,2.601-1.501l1.439-2.492c4.416,2.999,8.232,6.815,11.231,11.231
		l-2.492,1.439c-1.435,0.828-1.927,2.663-1.098,4.098c0.556,0.963,1.563,1.501,2.601,1.501c0.509,0,1.024-0.13,1.497-0.403
		l2.499-1.443c2.289,4.694,3.719,9.878,4.107,15.345H93c-1.657,0-3,1.343-3,3s1.343,3,3,3h2.881
		c-0.388,5.468-1.818,10.651-4.107,15.345l-2.499-1.443c-1.436-0.829-3.269-0.337-4.098,1.098s-0.337,3.27,1.098,4.098l2.492,1.439
		C85.769,81.952,81.952,85.769,77.537,88.767z"/>
	<path style="fill:#1B1BB3;" d="M67.5,78h-27c-2.485,0-4.5-2.015-4.5-4.5v0c0-2.485,2.015-4.5,4.5-4.5h27c2.485,0,4.5,2.015,4.5,4.5
		v0C72,75.985,69.985,78,67.5,78z"/>
</g>
<g id="Layer_1">
</g>
</svg>
