<?xml version="1.0" encoding="iso-8859-1"?>
<!-- Generator: Adobe Illustrator 20.1.0, SVG Export Plug-In . SVG Version: 6.00 Build 0)  -->
<svg version="1.1" xmlns="http://www.w3.org/2000/svg" xmlns:xlink="http://www.w3.org/1999/xlink" x="0px" y="0px"
	 viewBox="0 0 108 108" style="enable-background:new 0 0 108 108;" xml:space="preserve">
<g id="Mountain_x5F_Menu">
	<circle style="opacity:0;fill:#FFFFFF;" cx="54" cy="54" r="54"/>
	<polygon style="fill:#0E610E;" points="14.475,75.525 14.475,75.527 14.475,75.525 	"/>
	<path style="fill:#0E610E;" d="M72,27L56.25,42.75L36,22.5L9.252,49.248C9.088,50.81,9,52.395,9,54c0,10.131,3.35,19.479,9,27v0
		c1.24,1.65,2.595,3.208,4.045,4.671c-0.625-0.632-1.231-1.282-1.818-1.95c0.632,0.718,1.278,1.423,1.954,2.099
		c0.58,0.58,1.179,1.14,1.79,1.687c-0.35-0.314-0.68-0.647-1.019-0.971c1.285,1.227,2.625,2.396,4.048,3.465
		c2.296,1.725,4.762,3.234,7.369,4.5C40.302,97.381,46.961,99,54,99s13.698-1.619,19.631-4.5c2.607-1.266,5.073-2.775,7.369-4.5
		c3.408-2.56,6.44-5.592,9-9c0.647-0.861,1.255-1.752,1.84-2.66C96.364,71.322,99,62.971,99,54L72,27z M40.5,49.5L36,54l-18-4.5
		l18-18L58.5,54L40.5,49.5z M76.5,54L72,58.5L60.75,47.25L72,36l22.5,22.5L76.5,54z"/>
</g>
<g id="Layer_1">
</g>
</svg>
