<svg xmlns="http://www.w3.org/2000/svg" viewBox="0 0 108 108">
  <title>mountain</title>
  <g id="Layer_2" data-name="Layer 2">
    <g id="Icons">
      <g>
        <path d="M24.52,88,24,87.51Z" style="fill: #060"/>
        <path d="M20.23,83.72l-.46-.53Z" style="fill: #060"/>
        <path d="M26.5,89.61l-.62-.49Z" style="fill: #060"/>
        <path d="M16.3,78.56,16,78Z" style="fill: #060"/>
        <path d="M20.23,83.72A45.28,45.28,0,0,0,24,87.51c-.61-.55-1.21-1.11-1.79-1.69S20.86,84.44,20.23,83.72Z" style="fill: #060"/>
        <path d="M16,78c-.52-.82-1-1.65-1.48-2.5C14.94,76.38,15.44,77.21,16,78Z" style="fill: #060"/>
        <path d="M19.76,83.19a45.16,45.16,0,0,1-3.47-4.63A45.13,45.13,0,0,0,19.76,83.19Z" style="fill: #060"/>
        <path d="M25.88,89.12q-.69-.56-1.36-1.14Q25.19,88.56,25.88,89.12Z" style="fill: #060"/>
        <circle cx="54" cy="54" r="54" style="fill: #fff;opacity: 0"/>
        <polygon points="18 81 18 81 18 81 18 81" style="fill: #060"/>
        <polygon points="18 81 18 81 18 81 18 81" style="fill: #060"/>
        <path d="M72,27,56.25,42.75,36,22.5,9.25,49.25A45.46,45.46,0,0,0,9,54a44.8,44.8,0,0,0,9,27h0A45.15,45.15,0,0,0,34.37,94.5,45,45,0,0,0,90,81c.65-.86,1.25-1.75,1.84-2.66A44.77,44.77,0,0,0,99,54ZM40.5,49.5,36,54,18,49.5l18-18L58.5,54Zm36,4.5L72,58.5,60.75,47.25,72,36,94.5,58.5Z" style="fill: #0e610e"/>
      </g>
    </g>
  </g>
</svg>
