<?xml version="1.0" encoding="iso-8859-1"?>
<!-- Generator: Adobe Illustrator 20.1.0, SVG Export Plug-In . SVG Version: 6.00 Build 0)  -->
<svg version="1.1" xmlns="http://www.w3.org/2000/svg" xmlns:xlink="http://www.w3.org/1999/xlink" x="0px" y="0px"
	 viewBox="0 0 108 108" style="enable-background:new 0 0 108 108;" xml:space="preserve">
<g id="Music_x5F_Menu">
	<circle style="opacity:0;fill:#FFFFFF;" cx="54" cy="54" r="54"/>
	<path style="fill:#386B05;" d="M33,27v6v6v30.295C32.04,69.109,31.038,69,30,69c-6.627,0-12,4.029-12,9s5.373,9,12,9s12-4.029,12-9
		v0l0,0V37.412l33-5.823v28.707C74.04,60.109,73.038,60,72,60c-6.627,0-12,4.029-12,9s5.373,9,12,9s12-4.029,12-9v0l0,0V30v-6v-6
		L33,27z"/>
</g>
<g id="Layer_1">
</g>
</svg>
