<?xml version="1.0" encoding="iso-8859-1"?>
<!-- Generator: Adobe Illustrator 20.1.0, SVG Export Plug-In . SVG Version: 6.00 Build 0)  -->
<svg version="1.1" xmlns="http://www.w3.org/2000/svg" xmlns:xlink="http://www.w3.org/1999/xlink" x="0px" y="0px"
	 viewBox="0 0 108 108" style="enable-background:new 0 0 108 108;" xml:space="preserve">
<g id="MyLocationsPIN_x5F_Menu">
	<rect style="opacity:0.01;fill:#FFFFFF;" width="108" height="108"/>
	<polygon style="fill:#0C8046;" points="54,95.82 54,95.82 31.728,44.944 76.047,45.483 	"/>
	<path style="fill:#0C8046;" d="M54,60c-13.233,0-24-10.767-24-24s10.767-24,24-24s24,10.767,24,24S67.233,60,54,60z M54,18
		c-9.926,0-18,8.074-18,18s8.074,18,18,18s18-8.074,18-18S63.926,18,54,18z"/>
	<path style="fill:#FFFF33;" d="M54,18c-9.926,0-18,8.074-18,18s8.074,18,18,18s18-8.074,18-18S63.926,18,54,18z"/>
	<polygon style="fill:#0C8046;" points="54,19.187 57.476,30.174 69,30.085 59.625,36.787 63.271,47.719 54,40.874 44.729,47.719 
		48.375,36.787 39,30.085 50.524,30.174 	"/>
</g>
<g id="Layer_1">
</g>
</svg>
