<svg xmlns="http://www.w3.org/2000/svg" viewBox="0 0 108 108">
  <title>night_time</title>
  <g id="Layer_2" data-name="Layer 2">
    <g id="Icons">
      <g>
        <circle cx="54" cy="54" r="54" style="fill: #fff;opacity: 0"/>
        <path d="M84,84.86,75,27H68.94c-.65-8.07-6.54-15-16.44-15S36.71,18.93,36.06,27H30L21,84.86A4.5,4.5,0,0,0,25.5,90h54A4.5,4.5,0,0,0,84,84.86ZM52.5,18c6.75,0,9.83,4.48,10.39,9H42.11C42.67,22.48,45.75,18,52.5,18ZM38.91,47.38,41,40.5l2.12,6.88h7.41l-5.82,4.24,2.12,6.88L41,54.26,35.21,58.5l2.12-6.88L31.5,47.38ZM54,81A20.24,20.24,0,0,1,34.26,65.14,15.74,15.74,0,1,0,50.52,40.85,20.23,20.23,0,1,1,54,81Z" style="fill: #2e2ee6"/>
      </g>
    </g>
  </g>
</svg>
