<svg xmlns="http://www.w3.org/2000/svg" viewBox="0 0 108 108">
  <title>observatory</title>
  <g id="Layer_2" data-name="Layer 2">
    <g id="Icons">
      <g>
        <circle cx="54" cy="54" r="54" style="fill: #fff;opacity: 0"/>
        <g>
          <path d="M74.52,51.45A33.88,33.88,0,0,1,78,66h9a33,33,0,0,0-9.29-23,10.47,10.47,0,0,1-2.84,8.18C74.76,51.27,74.63,51.35,74.52,51.45Z" style="fill: #068037"/>
          <path d="M54.11,33a34.22,34.22,0,0,0-3.91.31,32,32,0,0,1,3.4.7A9.81,9.81,0,0,1,54.11,33Z" style="fill: #068037"/>
          <path d="M52.57,37.88a14.55,14.55,0,0,0,4.54,11.62A15.15,15.15,0,0,0,66.35,54,34.39,34.39,0,0,1,69,66H18c0-16.22,10.63-30.76,24-33A15.84,15.84,0,0,1,52.57,37.88Z" style="fill: #068037"/>
          <rect x="18" y="72" width="69" height="12" style="fill: #068037"/>
          <path d="M88,18.49c-3.85-3.85-9.31-4.63-12.2-1.74L63.66,28.9l-4.41,4.41c-.12.12-.2.27-.31.4a5.87,5.87,0,0,0-1.18,2.17,9.21,9.21,0,0,0,1.15,6.86A12.7,12.7,0,0,0,61,45.5a13,13,0,0,0,1.22,1.05c3.35,2.61,7.45,3.15,10.13,1.34a5.57,5.57,0,0,0,.85-.65l4.34-4.34.08.08c0-.05,0-.1,0-.15L89.76,30.68C92.64,27.8,91.86,22.33,88,18.49Zm-.65,9.71c-1.91,1.91-5.51,1.39-8-1.15s-3.06-6.14-1.15-8,5.51-1.39,8,1.15S89.27,26.29,87.36,28.2Z" style="fill: #068037"/>
        </g>
      </g>
    </g>
  </g>
</svg>
