<?xml version="1.0" encoding="iso-8859-1"?>
<!-- Generator: Adobe Illustrator 20.1.0, SVG Export Plug-In . SVG Version: 6.00 Build 0)  -->
<svg version="1.1" xmlns="http://www.w3.org/2000/svg" xmlns:xlink="http://www.w3.org/1999/xlink" x="0px" y="0px"
	 viewBox="0 0 108 108" style="enable-background:new 0 0 108 108;" xml:space="preserve">
<g id="TownHall_x5F_Menu">
	<circle style="opacity:0;fill:#FFFFFF;" cx="54" cy="54" r="54"/>
	<path style="fill:#15788C;" d="M81,85.5V45H63V13.5H27v72h-4.5V90H54h27h4.5v-4.5H81z M58.5,63H63h13.5v9H63h-4.5V63z M76.5,49.5v9
		H63h-4.5v-9H63H76.5z M31.5,22.5h27v9h-27V22.5z M31.5,36h27v9H54H31.5V36z M31.5,49.5H54v9H31.5V49.5z M31.5,63H54v9H31.5V63z
		 M40.5,85.5v-9h9v9H40.5z M63,85.5v-9h9v9H63z"/>
</g>
<g id="Layer_1">
</g>
</svg>
