<?xml version="1.0" encoding="iso-8859-1"?>
<!-- Generator: Adobe Illustrator 20.1.0, SVG Export Plug-In . SVG Version: 6.00 Build 0)  -->
<svg version="1.1" xmlns="http://www.w3.org/2000/svg" xmlns:xlink="http://www.w3.org/1999/xlink" x="0px" y="0px"
	 viewBox="0 0 108 108" style="enable-background:new 0 0 108 108;" xml:space="preserve">
<g id="Park_x5F_Menu">
	<circle style="opacity:0;fill:#FFFFFF;" cx="54" cy="54" r="54"/>
	<path style="fill:#0E610E;" d="M92.094,48.917C92.668,47.731,93,46.406,93,45c0-4.971-4.029-9-9-9c0-4.971-4.029-9-9-9
		c0-4.97-4.03-9-9-9c-1.353,0-2.631,0.307-3.782,0.842C60.815,15.696,57.667,13.5,54,13.5s-6.815,2.196-8.218,5.342
		C44.631,18.307,43.353,18,42,18c-4.97,0-9,4.03-9,9c-4.971,0-9,4.029-9,9c-4.971,0-9,4.029-9,9c0,1.406,0.332,2.731,0.906,3.917
		C13.579,50.19,12,52.66,12,55.5c0,4.142,3.358,7.5,7.5,7.5c2.254,0,4.27-0.999,5.645-2.572c1.435,2.434,4.076,4.072,7.105,4.072
		c1.508,0,2.916-0.411,4.133-1.117L48,75v12h-9v6h30v-6h-9V75l12.916-12.916c1.493,1.493,3.555,2.416,5.834,2.416
		c2.34,0,4.447-0.978,5.948-2.543C85.814,62.615,87.111,63,88.5,63c4.142,0,7.5-3.358,7.5-7.5C96,52.66,94.421,50.19,92.094,48.917z
		 M54,70.579l-6.898-7.624C47.397,62.984,47.697,63,48,63c2.308,0,4.407-0.876,6-2.305C55.593,62.124,57.691,63,60,63
		c0.303,0,0.603-0.016,0.898-0.045L54,70.579z"/>
</g>
<g id="Layer_1">
</g>
</svg>
