<svg xmlns="http://www.w3.org/2000/svg" viewBox="0 0 108 108">
  <title>park</title>
  <g id="Layer_2" data-name="Layer 2">
    <g id="Icons">
      <g>
        <circle cx="54" cy="54" r="54" style="fill: #fff;opacity: 0"/>
        <path d="M92.08,47.45A9,9,0,0,0,84,34.5a9,9,0,0,0-9-9,9,9,0,0,0-12.78-8.16,9,9,0,0,0-16.44,0A9,9,0,0,0,33,25.5a9,9,0,0,0-9,9,9,9,0,0,0-8.08,12.95,7.47,7.47,0,1,0,9.21,11.46,8.22,8.22,0,0,0,11.25,3L47.25,72.75v13.5H39V93H69V86.25H60.75V72.75L72.92,60.58a8.24,8.24,0,0,0,11.8-.14,7.47,7.47,0,1,0,7.36-13Zm-45,14c.3,0,.6,0,.9,0a9,9,0,0,0,6-2.31,9,9,0,0,0,6,2.31c.3,0,.6,0,.9,0L54,69.08Z" style="fill: #0e610e"/>
      </g>
    </g>
  </g>
</svg>
