<svg xmlns="http://www.w3.org/2000/svg" viewBox="0 0 108 108">
  <title>payphone</title>
  <g id="Layer_2" data-name="Layer 2">
    <g id="Icons">
      <g>
        <circle cx="54" cy="54" r="54" style="fill: #fff;opacity: 0"/>
        <path d="M27.18,18.85c2.22-1.13,7.41-1,10.58-.33,3.53.78,4.52,7.3,4.76,10.78.38,5.54.95,10.17-1.43,11.87a27.38,27.38,0,0,1-4.51,2.71c-2.29,1-3.62,2.54-2.39,5.23A78.61,78.61,0,0,0,48,69.6c2.52,2.6,6,3.85,8.87,1.32,1.64-1.43,2.38-3,5.3-3.25,2.7-.23,6.78,1.66,10.3,3.42S81,75.16,81,78.85a11.59,11.59,0,0,1-2.44,6.71C77,87.83,76.07,89.88,72.44,90c-6.94.19-15.65-1.5-25.38-7.52-13.2-8.17-23-24.6-24.62-33C18.64,30.13,23.11,20.87,27.18,18.85Z" style="fill: #0081a1"/>
      </g>
    </g>
  </g>
</svg>
