<?xml version="1.0" encoding="iso-8859-1"?>
<!-- Generator: Adobe Illustrator 20.1.0, SVG Export Plug-In . SVG Version: 6.00 Build 0)  -->
<svg version="1.1" xmlns="http://www.w3.org/2000/svg" xmlns:xlink="http://www.w3.org/1999/xlink" x="0px" y="0px"
	 viewBox="0 0 108 108" style="enable-background:new 0 0 108 108;" xml:space="preserve">
<g id="Payphone_x5F_Menu">
	<circle style="opacity:0;fill:#FFFFFF;" cx="54" cy="54" r="54"/>
	<path style="fill:#15788C;" d="M31.371,18.837c2.107-1.109,7.039-1.009,10.05-0.319c3.352,0.768,4.295,7.143,4.521,10.551
		c0.36,5.426,0.899,9.963-1.359,11.619c-1.564,1.147-2.937,2.022-4.284,2.65c-2.174,1.015-3.436,2.489-2.272,5.118
		c3.418,7.719,8.725,15.348,13.161,20.069c2.396,2.55,5.671,3.769,8.426,1.293c1.562-1.404,2.258-2.943,5.037-3.186
		c2.564-0.224,6.443,1.623,9.788,3.349c3.457,1.784,8.063,3.988,8.06,7.601c-0.002,2.295-0.828,4.352-2.317,6.569
		c-1.498,2.23-2.366,4.236-5.816,4.336c-6.589,0.191-14.872-1.467-24.106-7.36c-12.537-7.999-21.815-24.09-23.387-32.311
		C23.253,29.876,27.503,20.811,31.371,18.837z"/>
</g>
<g id="Layer_1">
</g>
</svg>
