<svg xmlns="http://www.w3.org/2000/svg" viewBox="0 0 108 108">
  <title>petrol_station</title>
  <g id="Layer_2" data-name="Layer 2">
    <g id="Icons">
      <g>
        <circle cx="54" cy="54" r="54" style="fill: #fff;opacity: 0"/>
        <path d="M87,84,82.5,49.5V41.25L87,36V22.5L64.5,9,60,13.5,69,20v7a9,9,0,0,0,9,9V49.5S82.25,82.25,82.5,84s-.63,4.5-4.5,4.5-4.45-2.4-4.5-4.5V51.75A7,7,0,0,0,66.75,45H60V22.5A4.51,4.51,0,0,0,55.5,18h-27A4.51,4.51,0,0,0,24,22.5v66A4.51,4.51,0,0,0,28.5,93h27A4.51,4.51,0,0,0,60,88.5v-39h4.5C68.91,49.5,69,54,69,54V84c0,3.19.55,9,9,9C88.41,93,87,84,87,84ZM78,33.75A6.75,6.75,0,0,1,71.25,27V21.68l1.14.83L78,27ZM54,42H30V27H54Z" style="fill: #e61066"/>
      </g>
    </g>
  </g>
</svg>
