<svg xmlns="http://www.w3.org/2000/svg" viewBox="0 0 108 108">
  <title>picasa</title>
  <g id="Layer_2" data-name="Layer 2">
    <g id="Icons">
      <g>
        <circle cx="54" cy="54" r="54" style="fill: #fff;opacity: 0"/>
        <path d="M54,9A45,45,0,1,0,99,54,45,45,0,0,0,54,9Zm-.11,16.35a28.26,28.26,0,0,1,11.77,2.57V47L43.92,27.21A28.25,28.25,0,0,1,53.89,25.35ZM25.35,54A28.47,28.47,0,0,1,40.88,28.52l10.81,9.83-25.3,23A28.53,28.53,0,0,1,25.35,54ZM39.2,78.39A28.69,28.69,0,0,1,27.4,64.53L39.2,53.79Zm17.3,4.05H51.26A28.37,28.37,0,0,1,42.2,80V66.39H79.53A28.67,28.67,0,0,1,56.49,82.44ZM80.82,63.37H68.67V29.55A28.44,28.44,0,0,1,80.82,63.37Z" style="fill: #bf39b6"/>
      </g>
    </g>
  </g>
</svg>
