<svg xmlns="http://www.w3.org/2000/svg" viewBox="0 0 108 108">
  <title>pin_1</title>
  <g id="Layer_2" data-name="Layer 2">
    <g id="Icons">
      <g>
        <rect width="108" height="108" style="fill: #fff;opacity: 0"/>
        <g>
          <path d="M54,12A42,42,0,1,0,96,54,42,42,0,0,0,54,12Zm0,78A36,36,0,1,1,90,54,36,36,0,0,1,54,90Z" style="fill: #0e8c4d"/>
          <path d="M54,24A30,30,0,1,0,84,54,30,30,0,0,0,54,24Zm0,51A21,21,0,1,1,75,54,21,21,0,0,1,54,75Z" style="fill: #0e8c4d"/>
          <circle cx="54" cy="54" r="12" style="fill: #0e8c4d"/>
        </g>
      </g>
    </g>
  </g>
</svg>
