<?xml version="1.0" encoding="iso-8859-1"?>
<!-- Generator: Adobe Illustrator 20.1.0, SVG Export Plug-In . SVG Version: 6.00 Build 0)  -->
<svg version="1.1" xmlns="http://www.w3.org/2000/svg" xmlns:xlink="http://www.w3.org/1999/xlink" x="0px" y="0px"
	 viewBox="0 0 108 108" style="enable-background:new 0 0 108 108;" xml:space="preserve">
<g id="PIN_x5F_Menu">
	<rect style="opacity:0.01;fill:#FFFFFF;" width="108" height="108"/>
	<path style="fill:#0D8549;" d="M69.321,45.401C66.15,50.549,60.478,54,54,54c-6.635,0-12.427-3.617-15.549-8.974l-6.723-0.082
		L54,95.82l22.047-50.338L69.321,45.401z"/>
	<path style="fill:#0D8549;" d="M54,12c-13.233,0-24,10.767-24,24s10.767,24,24,24s24-10.767,24-24S67.233,12,54,12z M54,54
		c-9.926,0-18-8.074-18-18s8.074-18,18-18s18,8.074,18,18S63.926,54,54,54z"/>
	<circle style="fill:#0D8549;" cx="54" cy="36" r="9"/>
</g>
<g id="Layer_1">
</g>
</svg>
