<?xml version="1.0" encoding="iso-8859-1"?>
<!-- Generator: Adobe Illustrator 20.1.0, SVG Export Plug-In . SVG Version: 6.00 Build 0)  -->
<svg version="1.1" xmlns="http://www.w3.org/2000/svg" xmlns:xlink="http://www.w3.org/1999/xlink" x="0px" y="0px"
	 viewBox="0 0 108 108" style="enable-background:new 0 0 108 108;" xml:space="preserve">
<g id="Pizza_x5F_Menu">
	<circle style="opacity:0;fill:#FFFFFF;" cx="54" cy="54" r="54"/>
	<path style="fill:#99581F;" d="M96,57.074C81,30,60,16.5,30,16.5V27c27,0,45.028,12.185,57,35l9-5V57.074z"/>
	<path style="fill:#99581F;" d="M82.5,64.259c-0.008-0.015-0.018-0.03-0.026-0.045l-0.001,0L82.5,64.259z"/>
	<path style="fill:#99581F;" d="M82.5,64.5C72.026,45.286,54,31.5,30,31.5V93L82.5,64.5z M42,57c-3.314,0-6-2.686-6-6s2.686-6,6-6
		s6,2.686,6,6S45.314,57,42,57z M63,66c-3.314,0-6-2.686-6-6s2.686-6,6-6s6,2.686,6,6S66.314,66,63,66z M45,78c-3.314,0-6-2.686-6-6
		s2.686-6,6-6s6,2.686,6,6S48.314,78,45,78z"/>
</g>
<g id="Layer_1">
</g>
</svg>
