<?xml version="1.0" encoding="iso-8859-1"?>
<!-- Generator: Adobe Illustrator 20.1.0, SVG Export Plug-In . SVG Version: 6.00 Build 0)  -->
<svg version="1.1" xmlns="http://www.w3.org/2000/svg" xmlns:xlink="http://www.w3.org/1999/xlink" x="0px" y="0px"
	 viewBox="0 0 108 108" style="enable-background:new 0 0 108 108;" xml:space="preserve">
<g id="PlaceOfWorship_x5F_Menu">
	<circle style="opacity:0;fill:#FFFFFF;" cx="54" cy="54" r="54"/>
	<circle style="fill:#15788C;" cx="54" cy="24" r="9"/>
	<path style="fill:#15788C;" d="M36,45l-6,15c0,0-3,6,3,9s15,9,15,9H27c0,0-3,0-3,3s0,3,0,3s0,3,3,3s33,0,33,0s6,0,6-6c0-3-3-6-3-6
		L45,63l12-18l18-3l3-15v-6c0,0,0-3-3-3s-3,3-3,3v3l-4.5,12H54h-6C48,36,39,36,36,45z"/>
</g>
<g id="Layer_1">
</g>
</svg>
