<?xml version="1.0" encoding="iso-8859-1"?>
<!-- Generator: Adobe Illustrator 20.1.0, SVG Export Plug-In . SVG Version: 6.00 Build 0)  -->
<svg version="1.1" xmlns="http://www.w3.org/2000/svg" xmlns:xlink="http://www.w3.org/1999/xlink" x="0px" y="0px"
	 viewBox="0 0 108 108" style="enable-background:new 0 0 108 108;" xml:space="preserve">
<g id="Playing_x5F_Field_x5F_Menu">
	<circle style="opacity:0;fill:#FFFFFF;" cx="54" cy="54" r="54"/>
	<path style="fill:#0E8A0E;" d="M39.656,54c0-7.105,5.172-12.988,11.953-14.129l0-14.559l-35.859,0l0,9.563l19.125,0l0,38.25
		l-19.125,0l0,9.563l35.859,0l0-14.559C44.828,66.988,39.656,61.105,39.656,54z"/>
	<path style="fill:#0E8A0E;" d="M56.391,25.313l0,14.559c6.781,1.14,11.953,7.023,11.953,14.129c0,7.105-5.172,12.988-11.953,14.129
		l0,14.559l35.859,0v-9.562l-19.125,0l0-38.25l19.125,0v-9.563L56.391,25.313z"/>
	<rect x="15.75" y="39.656" style="fill:#0E8A0E;" width="14.344" height="28.688"/>
	<rect x="77.906" y="39.656" style="fill:#0E8A0E;" width="14.344" height="28.688"/>
	<path style="fill:#0E8A0E;" d="M44.438,54c0,4.454,3.05,8.186,7.172,9.249l0-18.498C47.487,45.814,44.438,49.546,44.438,54z"/>
	<path style="fill:#0E8A0E;" d="M63.563,54c0-4.454-3.05-8.186-7.172-9.249l0,18.498C60.513,62.186,63.563,58.454,63.563,54z"/>
</g>
<g id="Layer_1">
</g>
</svg>
