<svg xmlns="http://www.w3.org/2000/svg" viewBox="0 0 108 108">
  <title>playing_field</title>
  <g id="Layer_2" data-name="Layer 2">
    <g id="Icons">
      <g>
        <circle cx="54" cy="54" r="54" style="fill: #fff;opacity: 0"/>
        <rect x="12" y="39" width="18" height="30" style="fill: #068037"/>
        <rect x="78" y="39" width="18" height="30" style="fill: #068037"/>
        <path d="M39,54A15,15,0,0,1,51.75,39.23V27H12v9H33V72H12v9H51.75V68.77A15,15,0,0,1,39,54Z" style="fill: #068037"/>
        <path d="M56.25,27V39.23a14.93,14.93,0,0,1,0,29.55V81H96V72H75V36H96V27Z" style="fill: #068037"/>
        <path d="M42.75,54a11.25,11.25,0,0,0,9,11V43A11.25,11.25,0,0,0,42.75,54Z" style="fill: #068037"/>
        <path d="M65.25,54a11.25,11.25,0,0,0-9-11V65A11.25,11.25,0,0,0,65.25,54Z" style="fill: #068037"/>
      </g>
    </g>
  </g>
</svg>
