<?xml version="1.0" encoding="iso-8859-1"?>
<!-- Generator: Adobe Illustrator 20.1.0, SVG Export Plug-In . SVG Version: 6.00 Build 0)  -->
<svg version="1.1" xmlns="http://www.w3.org/2000/svg" xmlns:xlink="http://www.w3.org/1999/xlink" x="0px" y="0px"
	 viewBox="0 0 108 108" style="enable-background:new 0 0 108 108;" xml:space="preserve">
<g id="Police_x5F_Menu">
	<circle style="opacity:0;fill:#FFFFFF;" cx="54" cy="54" r="54"/>
	<line style="fill:#404040;" x1="89.599" y1="67.645" x2="20.595" y2="67.645"/>
	<path style="fill:#404040;" d="M81,22.5l-27-9l-27,9L13.5,36L18,49.5l9,0l0,9l9,0v-9h9v9l9,0v-9l9,0v9h9v-9l9,0v9l9,0v-9L94.5,36
		L81,22.5z M62.284,44.225L54,39.87l-8.284,4.355l1.582-9.224l-6.702-6.533l9.262-1.346L54,18.73l4.142,8.393l9.262,1.346
		l-6.702,6.533L62.284,44.225z"/>
	<path style="fill:#404040;" d="M81,67.5l0-9l-9,0l0,9l-9,0l0-9l-9,0l0,9h-9l0-9h-9l0,9h-9l0-9l-9,0l0,9C18,80.206,34.115,90,54,90
		s36-9.794,36-22.5H81z"/>
</g>
<g id="Layer_1">
</g>
</svg>
