<svg xmlns="http://www.w3.org/2000/svg" viewBox="0 0 108 108">
  <title>positioning_beacon</title>
  <g id="Layer_2" data-name="Layer 2">
    <g id="Icons">
      <g>
        <circle cx="54" cy="54" r="54" style="fill: #fff;opacity: 0"/>
        <g>
          <path d="M52.5,45A9,9,0,0,0,48,61.79V99h9V61.79A9,9,0,0,0,52.5,45Z" style="fill: #378006"/>
          <path d="M25.36,25.36l-3.18-3.18a45,45,0,0,0,0,63.64l3.18-3.18a40.5,40.5,0,0,1,0-57.28Z" style="fill: #378006"/>
          <path d="M82.82,22.18l-3.18,3.18a40.5,40.5,0,0,1,0,57.28l3.18,3.18a45,45,0,0,0,0-63.64Z" style="fill: #378006"/>
          <path d="M33.32,33.32l-3.18-3.18a33.75,33.75,0,0,0,0,47.73l3.18-3.18a29.25,29.25,0,0,1,0-41.37Z" style="fill: #378006"/>
          <path d="M74.86,30.14l-3.18,3.18a29.25,29.25,0,0,1,0,41.37l3.18,3.18a33.75,33.75,0,0,0,0-47.73Z" style="fill: #378006"/>
          <path d="M38.09,38.09a22.5,22.5,0,0,0,0,31.82l3.18-3.18a18,18,0,0,1,0-25.46Z" style="fill: #378006"/>
          <path d="M66.91,38.09l-3.18,3.18a18,18,0,0,1,0,25.46l3.18,3.18a22.5,22.5,0,0,0,0-31.82Z" style="fill: #378006"/>
        </g>
      </g>
    </g>
  </g>
</svg>
