<?xml version="1.0" encoding="iso-8859-1"?>
<!-- Generator: Adobe Illustrator 20.1.0, SVG Export Plug-In . SVG Version: 6.00 Build 0)  -->
<svg version="1.1" xmlns="http://www.w3.org/2000/svg" xmlns:xlink="http://www.w3.org/1999/xlink" x="0px" y="0px"
	 viewBox="0 0 108 108" style="enable-background:new 0 0 108 108;" xml:space="preserve">
<g id="post_x5F_office_x5F_post_x5F_box_x5F_Menu">
	<circle style="opacity:0;fill:#FFFFFF;" cx="54" cy="54" r="54"/>
	<path style="fill:#15788C;" d="M13.5,28.5v51h81v-51H13.5z M90,39l-3-3v4.5l3,3V48l-3-3v4.5l3,3V57l-3-3v4.5l3,3V66l-3-3v4.5l3,3
		V72v3h-3l3-3h-4.5l-3,3H78l3-3h-4.5l-3,3H69l3-3h-4.5l-3,3H60l3-3h-4.5l-3,3H51l3-3h-4.5l-3,3H42l3-3h-4.5l-3,3H33l3-3h-4.5l-3,3
		H24l3-3h-4.5l-3,3H18v-6l3,3v-4.5l-3-3V60l3,3v-4.5l-3-3V51l3,3v-4.5l-3-3V42l3,3v-4.5l-3-3V36v-3h3l-3,3h4.5l3-3H30l-3,3h4.5l3-3
		H39l-3,3h4.5l3-3H48l-3,3h4.5l3-3H57l-3,3h4.5l3-3H66l-3,3h4.5l3-3H75l-3,3h4.5l3-3H84l-3,3h4.5l3-3H90V39z"/>
	<rect x="75" y="39" style="fill:#15788C;" width="9" height="15"/>
	<rect x="27" y="45" style="fill:#15788C;" width="36" height="4.5"/>
	<rect x="27" y="54" style="fill:#15788C;" width="36" height="4.5"/>
</g>
<g id="Layer_1">
</g>
</svg>
