<svg xmlns="http://www.w3.org/2000/svg" viewBox="0 0 108 108">
  <title>race_track</title>
  <g id="Layer_2" data-name="Layer 2">
    <g id="Icons">
      <g>
        <circle cx="54" cy="54" r="54" style="fill: #fff;opacity: 0"/>
        <path d="M96.44,57.15A10.62,10.62,0,0,0,78.09,51L64.5,46.5l-1.86-1.86A9,9,0,0,0,56.27,42H51V36H43.1a6.8,6.8,0,0,0-2.15.35L27,42V37.5L18,33H9V46.5A4.5,4.5,0,0,0,13.5,51h3.8A11.21,11.21,0,1,0,35.2,64.5h42a10.64,10.64,0,0,0,17.37,0H105V60ZM26.25,64.5A6.75,6.75,0,1,1,33,57.75,6.75,6.75,0,0,1,26.25,64.5Zm59.63-.56a5.63,5.63,0,1,1,5.63-5.62A5.63,5.63,0,0,1,85.88,63.94Z" style="fill: #068037"/>
      </g>
    </g>
  </g>
</svg>
