<?xml version="1.0" encoding="iso-8859-1"?>
<!-- Generator: Adobe Illustrator 20.1.0, SVG Export Plug-In . SVG Version: 6.00 Build 0)  -->
<svg version="1.1" xmlns="http://www.w3.org/2000/svg" xmlns:xlink="http://www.w3.org/1999/xlink" x="0px" y="0px"
	 viewBox="0 0 108 108" style="enable-background:new 0 0 108 108;" xml:space="preserve">
<g id="Race_x5F_Track_x5F_Menu">
	<circle style="opacity:0;fill:#FFFFFF;" cx="54" cy="54" r="54"/>
	<path style="fill:#0E8A0E;" d="M94.753,56.613c-1.13-4.224-4.973-7.338-9.553-7.338c-2.853,0-5.416,1.214-7.223,3.144L65.4,49.275
		H60c0-4.275-3-6.6-6.975-6.6c-0.872,0-1.247,0.158-2.025,0.404V39c-1.964,0.106-10.5,0-10.5,0L24,46.5v-6l-16.5-6V54H12
		c-0.844,1.457-1.05,3.37-1.05,5.175c0,5.468,4.432,9.9,9.9,9.9c3.662,0,6.852-1.994,8.565-4.95h47.22
		c1.713,2.956,4.902,4.95,8.565,4.95c3.662,0,6.852-1.994,8.565-4.95H102v-4.95L94.753,56.613z M15.9,59.175
		c0-1.617,0.787-3.039,1.986-3.943c0.828-0.624,1.848-1.008,2.964-1.008c2.734,0,4.95,2.216,4.95,4.95c0,2.734-2.216,4.95-4.95,4.95
		C18.116,64.125,15.9,61.909,15.9,59.175z M80.25,59.175c0-2.734,2.216-4.95,4.95-4.95h0c0.812,0,1.567,0.214,2.243,0.561
		c1.6,0.82,2.706,2.467,2.706,4.389c0,2.734-2.216,4.95-4.95,4.95S80.25,61.909,80.25,59.175z"/>
</g>
<g id="Layer_1">
</g>
</svg>
