<svg xmlns="http://www.w3.org/2000/svg" viewBox="0 0 108 108">
  <title>remote_control</title>
  <g id="Layer_2" data-name="Layer 2">
    <g id="Icons">
      <g>
        <circle cx="54" cy="54" r="54" style="fill: #fff;opacity: 0"/>
        <path d="M54,5.85A35.89,35.89,0,0,0,28.54,16.4l4.36,4.36a31.36,31.36,0,0,1,42.19,0l4.36-4.36A35.89,35.89,0,0,0,54,5.85Z" style="fill: #668000"/>
        <path d="M54,19.35a24.63,24.63,0,0,0-16.32,6.18L42.15,30a20,20,0,0,1,23.71,0l4.47-4.47A24.63,24.63,0,0,0,54,19.35Z" style="fill: #668000"/>
        <path d="M67.5,36h-27A4.5,4.5,0,0,0,36,40.5v54A4.5,4.5,0,0,0,40.5,99h27A4.5,4.5,0,0,0,72,94.5v-54A4.5,4.5,0,0,0,67.5,36ZM42,42h9v9H42Zm0,15h9v9H42Zm0,15h9v9H42ZM54,96a6,6,0,1,1,6-6A6,6,0,0,1,54,96ZM66,81H57V72h9Zm0-15H57V57h9Zm0-15H57V42h9Z" style="fill: #668000"/>
      </g>
    </g>
  </g>
</svg>
