<?xml version="1.0" encoding="iso-8859-1"?>
<!-- Generator: Adobe Illustrator 20.1.0, SVG Export Plug-In . SVG Version: 6.00 Build 0)  -->
<svg version="1.1" xmlns="http://www.w3.org/2000/svg" xmlns:xlink="http://www.w3.org/1999/xlink" x="0px" y="0px"
	 viewBox="0 0 108 108" style="enable-background:new 0 0 108 108;" xml:space="preserve">
<g id="River_x5F_Menu">
	<circle style="opacity:0;fill:#FFFFFF;" cx="54" cy="54" r="54"/>
	<path style="fill:#0E610E;" d="M24,48h51l3-6L54,30l-12,6L27,24L12.31,37.058C10.905,40.512,9.919,44.18,9.41,48H24z"/>
	<path style="fill:#1C77D4;" d="M54,99c16.791,0,31.424-9.203,39.157-22.834C80.567,75.871,67.603,73.841,63,72c-15-6,0-9,0-15
		s-39-9-39-9H9.41c-0.032,0.239-0.063,0.479-0.091,0.719C34.695,54.227,41.14,55.93,33,60c-5.652,2.826-13.963,5.655-19.924,12.71
		C20.179,88.219,35.825,99,54,99z"/>
	<path style="fill:#0E610E;" d="M96,48l-6.037-12H93l-6-12l-6,12h3l-6,12h3l-6,12h9v9h5.963v-9h8.627
		c0.029-0.216,0.057-0.433,0.083-0.651L92.963,48H96z"/>
</g>
<g id="Layer_1">
</g>
</svg>
