<svg xmlns="http://www.w3.org/2000/svg" viewBox="0 0 108 108">
  <title>river</title>
  <g id="Layer_2" data-name="Layer 2">
    <g id="Icons">
      <g>
        <circle cx="54" cy="54" r="54" style="fill: #fff;opacity: 0"/>
        <path d="M24,48H75l3-7.5-24-12-12,6L27,21,12.31,35.56A57.1,57.1,0,0,0,9.41,48Z" style="fill: #0e610e"/>
        <path d="M54,99A45,45,0,0,0,93.16,76.17C80.57,75.87,67.6,73.84,63,72c-15-6,0-9,0-15s-39-9-39-9H9.41c0,.24-.06-.24-.09,0C34.69,53.51,41.14,55.93,33,60c-5.65,2.83-14,5.66-19.92,12.71A45,45,0,0,0,54,99Z" style="fill: #276ed9"/>
        <path d="M96,48,90,36h3L87,24,81,36h3L78,48h3L75,60h9v9h6V60h8.63c0-.22.06-.43.08-.65L93,48Z" style="fill: #0e610e"/>
      </g>
    </g>
  </g>
</svg>
