<?xml version="1.0" encoding="iso-8859-1"?>
<!-- Generator: Adobe Illustrator 20.1.0, SVG Export Plug-In . SVG Version: 6.00 Build 0)  -->
<svg version="1.1" xmlns="http://www.w3.org/2000/svg" xmlns:xlink="http://www.w3.org/1999/xlink" x="0px" y="0px"
	 viewBox="0 0 108 108" style="enable-background:new 0 0 108 108;" xml:space="preserve">
<g id="S_x5F_Menu_x5F_WorkingGroup">
	<rect style="opacity:0.01;fill:#FFFFFF;" width="108" height="108"/>
	<rect style="opacity:0;fill:#FFFFFF;" width="108" height="108"/>
	<g>
		<path style="fill:#008A00;" d="M21,51c-6.627,0-12,3.284-12,6.955V68.56c0,2.098,5.373,3.478,12,3.478s12-1.159,12-3.478V57.955
			C33,54.606,27.627,51,21,51z"/>
		<circle style="fill:#008A00;" cx="21" cy="39" r="9"/>
		<path style="fill:#008A00;" d="M87,51c-6.627,0-12,3.284-12,6.955V68.56c0,2.098,5.373,3.478,12,3.478s12-1.159,12-3.478V57.955
			C99,54.606,93.627,51,87,51z"/>
		<circle style="fill:#008A00;" cx="87" cy="39" r="9"/>
		<path style="fill:#008A00;" d="M54,33.958c4.974,0,9.007-0.869,9.007-2.608v-4.991c0-2.512-4.032-5.216-9.007-5.216
			s-9.007,2.463-9.007,5.216v4.991C44.993,32.923,49.026,33.958,54,33.958z"/>
		<circle style="fill:#008A00;" cx="54.042" cy="12" r="6"/>
		<path style="fill:#008A00;" d="M54,69.242c-7.456,0-13.5,4.105-13.5,8.694v16.717C40.5,97.275,46.544,99,54,99
			s13.5-1.449,13.5-4.347V77.936C67.5,73.75,61.456,69.242,54,69.242z"/>
		<circle style="fill:#008A00;" cx="54" cy="55.5" r="10.5"/>
	</g>
</g>
<g id="Layer_1">
</g>
</svg>
