<?xml version="1.0" encoding="iso-8859-1"?>
<!-- Generator: Adobe Illustrator 20.1.0, SVG Export Plug-In . SVG Version: 6.00 Build 0)  -->
<svg version="1.1" xmlns="http://www.w3.org/2000/svg" xmlns:xlink="http://www.w3.org/1999/xlink" x="0px" y="0px"
	 viewBox="0 0 108 108" style="enable-background:new 0 0 108 108;" xml:space="preserve">
<g id="S_x5F_Menu_x5F_Offices">
	<rect style="opacity:0.01;fill:#FFFFFF;" width="108" height="108"/>
	<path style="fill:#555569;" d="M87,90V45H60V12H21v75h-3v3h18v-9h9v9v3h18v-9h9v9h18v-3H87z M24,21h33v9H24V21z M24,36h33v9h-9H24
		V36z M24,51h24v9H24V51z M24,75v-9h24v9H24z M84,76.5H60h-9V75v-7.5h33V76.5z M84,63H51v-3v-6h6h3h24V63z"/>
</g>
<g id="Layer_1">
</g>
</svg>
