<?xml version="1.0" encoding="iso-8859-1"?>
<!-- Generator: Adobe Illustrator 20.1.0, SVG Export Plug-In . SVG Version: 6.00 Build 0)  -->
<svg version="1.1" xmlns="http://www.w3.org/2000/svg" xmlns:xlink="http://www.w3.org/1999/xlink" x="0px" y="0px"
	 viewBox="0 0 108 108" style="enable-background:new 0 0 108 108;" xml:space="preserve">
<g id="S_x5F_Menu_x5F_MeetingRoomGeneric">
	<rect style="opacity:0;fill:#FFFFFF;" width="108" height="108"/>
	<linearGradient id="SVGID_1_" gradientUnits="userSpaceOnUse" x1="54" y1="24.1375" x2="54" y2="70.9852">
		<stop  offset="0" style="stop-color:#5B02FF"/>
		<stop  offset="1" style="stop-color:#4A02D1"/>
	</linearGradient>
	<circle style="fill:url(#SVGID_1_);" cx="54" cy="33" r="9"/>
	<linearGradient id="SVGID_2_" gradientUnits="userSpaceOnUse" x1="24" y1="24.1375" x2="24" y2="70.9852">
		<stop  offset="0" style="stop-color:#5B02FF"/>
		<stop  offset="1" style="stop-color:#4A02D1"/>
	</linearGradient>
	<circle style="fill:url(#SVGID_2_);" cx="24" cy="33" r="9"/>
	<linearGradient id="SVGID_3_" gradientUnits="userSpaceOnUse" x1="22.5" y1="22.9313" x2="22.5" y2="76.4927">
		<stop  offset="0" style="stop-color:#5B02FF"/>
		<stop  offset="1" style="stop-color:#4A02D1"/>
	</linearGradient>
	<path style="fill:url(#SVGID_3_);" d="M24.765,76.704l8.251-18.664v-5.905c0-3.567-4.708-7.409-10.516-7.409
		s-10.516,3.499-10.516,7.409V73.07c0,2.234,4.708,3.704,10.516,3.704C23.28,76.774,24.034,76.748,24.765,76.704z"/>
	
		<linearGradient id="SVGID_4_" gradientUnits="userSpaceOnUse" x1="3045" y1="24.1375" x2="3045" y2="70.9852" gradientTransform="matrix(-1 0 0 1 3129 0)">
		<stop  offset="0" style="stop-color:#5B02FF"/>
		<stop  offset="1" style="stop-color:#4A02D1"/>
	</linearGradient>
	<circle style="fill:url(#SVGID_4_);" cx="84" cy="33" r="9"/>
	
		<linearGradient id="SVGID_5_" gradientUnits="userSpaceOnUse" x1="3043.5" y1="22.9312" x2="3043.5" y2="76.4926" gradientTransform="matrix(-1 0 0 1 3129 0)">
		<stop  offset="0" style="stop-color:#5B02FF"/>
		<stop  offset="1" style="stop-color:#4A02D1"/>
	</linearGradient>
	<path style="fill:url(#SVGID_5_);" d="M83.244,76.703L75.025,58.04v-5.905c0-3.567,4.69-7.409,10.475-7.409
		s10.475,3.499,10.475,7.409V73.07c0,2.234-4.69,3.704-10.475,3.704C84.723,76.774,83.972,76.748,83.244,76.703z"/>
	<linearGradient id="SVGID_6_" gradientUnits="userSpaceOnUse" x1="54" y1="34.0628" x2="54" y2="92.523">
		<stop  offset="0" style="stop-color:#5B02FF"/>
		<stop  offset="1" style="stop-color:#4A02D1"/>
	</linearGradient>
	<polygon style="fill:url(#SVGID_6_);" points="83.25,93 24.75,93 38.33,66 69.67,66 	"/>
	<g>
		<linearGradient id="SVGID_7_" gradientUnits="userSpaceOnUse" x1="46.4637" y1="34.733" x2="46.4637" y2="56.8835">
			<stop  offset="0" style="stop-color:#5B02FF"/>
			<stop  offset="1" style="stop-color:#4A02D1"/>
		</linearGradient>
		<path style="fill:url(#SVGID_7_);" d="M38.927,51.012V57H54l-3.68-13.254C43.778,44.603,38.927,47.653,38.927,51.012z"/>
		<linearGradient id="SVGID_8_" gradientUnits="userSpaceOnUse" x1="61.5363" y1="34.7671" x2="61.5363" y2="56.8837">
			<stop  offset="0" style="stop-color:#5B02FF"/>
			<stop  offset="1" style="stop-color:#4A02D1"/>
		</linearGradient>
		<path style="fill:url(#SVGID_8_);" d="M57.674,43.766L54,57h15.073v-5.988C69.073,47.947,64.219,44.691,57.674,43.766z"/>
	</g>
</g>
<g id="Layer_1">
</g>
</svg>
