<?xml version="1.0" encoding="iso-8859-1"?>
<!-- Generator: Adobe Illustrator 20.1.0, SVG Export Plug-In . SVG Version: 6.00 Build 0)  -->
<svg version="1.1" xmlns="http://www.w3.org/2000/svg" xmlns:xlink="http://www.w3.org/1999/xlink" x="0px" y="0px"
	 viewBox="0 0 108 108" style="enable-background:new 0 0 108 108;" xml:space="preserve">
<g id="S_x5F_Menu_x5F_MeetingRoomAvailable">
	<rect style="opacity:0;fill:#FFFFFF;" width="108" height="108"/>
	<path style="fill:#009934;" d="M81,27l-0.133-12.051L63.04,15.051v12.051L48,27V15H30v12H15v63h81V27H81z M69,21h6v12h-6V21z
		 M36,21h6v12h-6V21z M36,54H21V42h15V54z M54,54H39V42h15V54z M72,54H57V42h15V54z M90,54H75V42h15V54z M36,69H21V57h15V69z M54,69
		H39V57h15V69z M72,69H57V57h15V69z M90,69H75V57h15V69z M36,84H21V72h15V84z M54,84H39V72h15V84z M72,84H57V72h15V84z M90,84H75V72
		h15V84z"/>
</g>
<g id="Layer_1">
</g>
</svg>
