<?xml version="1.0" encoding="iso-8859-1"?>
<!-- Generator: Adobe Illustrator 20.1.0, SVG Export Plug-In . SVG Version: 6.00 Build 0)  -->
<svg version="1.1" xmlns="http://www.w3.org/2000/svg" xmlns:xlink="http://www.w3.org/1999/xlink" x="0px" y="0px"
	 viewBox="0 0 108 108" style="enable-background:new 0 0 108 108;" xml:space="preserve">
<g id="S_x5F_Menu_x5F_MeetingRoomUnavailable">
	<rect style="opacity:0.01;fill:#FFFFFF;" width="108" height="108"/>
	<path style="fill:#D1021A;" d="M75.913,36H72v-9.007C72,16.118,65.25,9,54,9c-11.937,0-17.993,7.368-17.993,17.993L36.004,36
		h-3.917C27.628,36,24,40.541,24,45v36.891c0,4.459,3.628,8.087,8.087,8.087h43.677c5.531,0,8.236-3.642,8.236-8.087V45
		C84,40.541,80.372,36,75.913,36z M60.75,75h-13.5l2.065-10.326C46.731,63.092,45,60.252,45,57c0-4.971,4.029-9,9-9s9,4.029,9,9
		c0,3.252-1.731,6.092-4.315,7.674L60.75,75z M63,36H44.993v-9.007c0-6.75,3.07-9.007,9.007-9.007c5.125,0,9.125,3.32,9,9.007V36z"
		/>
</g>
<g id="Layer_1">
</g>
</svg>
