<?xml version="1.0" encoding="iso-8859-1"?>
<!-- Generator: Adobe Illustrator 20.1.0, SVG Export Plug-In . SVG Version: 6.00 Build 0)  -->
<svg version="1.1" xmlns="http://www.w3.org/2000/svg" xmlns:xlink="http://www.w3.org/1999/xlink" x="0px" y="0px"
	 viewBox="0 0 108 108" style="enable-background:new 0 0 108 108;" xml:space="preserve">
<g id="Sailing_x5F_Menu">
	<circle style="opacity:0;fill:#FFFFFF;" cx="54" cy="54" r="54"/>
	<path style="fill:#8C24F2;" d="M87,60c3-24-12-48-12-48L45,60C45,60,85.884,68.93,87,60z"/>
	<path style="fill:#8C24F2;" d="M24.63,76.994C27.748,76.122,30,75,30,75s6-3,12,0s12,3,12,3s6,0,12-3s12,0,12,0
		s2.708,1.35,6.301,2.239C85.694,75.447,87,73.399,87,72L12,57C12.673,60.282,17.859,72.997,24.63,76.994z"/>
	<path style="fill:#8C24F2;" d="M78,81c0,0-0.162-0.078-0.433-0.191h0l-0.001,0c-0.076-0.032-0.157-0.064-0.252-0.101
		c-0.033-0.013-0.07-0.026-0.105-0.04c-0.141-0.054-0.299-0.109-0.474-0.169c-0.064-0.021-0.124-0.043-0.192-0.064
		c-0.1-0.032-0.206-0.064-0.315-0.097c-0.065-0.02-0.131-0.039-0.199-0.058c-0.126-0.036-0.252-0.071-0.388-0.106
		c-0.024-0.006-0.049-0.012-0.073-0.018c-0.33-0.084-0.687-0.163-1.068-0.232c-0.001,0-0.001,0-0.001,0
		c-0.196-0.036-0.398-0.067-0.605-0.097c-0.016-0.002-0.032-0.004-0.048-0.007C71.647,79.51,68.828,79.586,66,81c-6,3-12,3-12,3
		s-6,0-12-3s-12,0-12,0s-4.532,2.263-9.656,2.857c1.565,1.763,3.26,3.407,5.082,4.906C28.125,87.936,30,87,30,87s6-3,12,0s12,3,12,3
		s6,0,12-3s12,0,12,0s1.875,0.936,4.575,1.763c1.821-1.499,3.517-3.143,5.082-4.906C82.532,83.263,78,81,78,81z"/>
	<path style="fill:#8C24F2;" d="M66,93c-6,3-12,3-12,3s-6,0-12-3c-4.605-2.303-9.2-1.073-11.092-0.376C37.66,96.67,45.557,99,54,99
		s16.34-2.33,23.092-6.376C75.2,91.927,70.605,90.697,66,93z"/>
</g>
<g id="Layer_1">
</g>
</svg>
