<svg xmlns="http://www.w3.org/2000/svg" viewBox="0 0 108 108">
  <title>seafood</title>
  <g id="Layer_2" data-name="Layer 2">
    <g id="Icons">
      <g>
        <circle cx="54" cy="54" r="54" style="fill: #fff;opacity: 0"/>
        <path d="M82.5,45S87,40.5,87,31.5s-9-18-9-18V33l-6-9c-4.5,11.25,1.5,21,1.5,21L63,54c-.15-3.51-1-6.27-1.5-9A8.12,8.12,0,0,0,63,45c2.49,0,3-2,3-4.5S65.49,36,63,36a7.49,7.49,0,0,0-3,.69l3-25.44a2.25,2.25,0,0,0-4.5,0l-3,21c-.72-.47-.72-.79-1.5-.79s-.78.32-1.5.79l-3-21a2.25,2.25,0,0,0-4.5,0l3,25.44A7.49,7.49,0,0,0,45,36c-2.49,0-3,2-3,4.5s.51,4.5,3,4.5a8.12,8.12,0,0,0,1.5,0c-.48,2.73-1.35,5.49-1.5,9L34.5,45s6-9.75,1.5-21l-6,9.75V13.5s-9,9-9,18S25.5,45,25.5,45L45,60c0,1.69-.09,2.79,0,4.48l-5.16-5.32a2.25,2.25,0,1,0-3.18,3.18l9,9c.22,2,.48,4,.79,5.84l-4.56-4.56a2.25,2.25,0,1,0-3.18,3.18l8.52,8.52L36,90s8.06,9,18,9,18-9,18-9L60.73,84.36l8.52-8.52a2.25,2.25,0,0,0-3.18-3.18l-4.56,4.56c.31-1.87.57-3.82.79-5.84l9-9a2.25,2.25,0,0,0-3.18-3.18L63,64.48c.09-1.69,0-2.79,0-4.48Z" style="fill: #00856a"/>
      </g>
    </g>
  </g>
</svg>
