<svg xmlns="http://www.w3.org/2000/svg" viewBox="0 0 108 108">
  <title>shopping</title>
  <g id="Layer_2" data-name="Layer 2">
    <g id="Icons">
      <g>
        <rect width="108" height="108" style="fill: #fff;opacity: 0"/>
        <path d="M84,84.86,75,27H68.94c-.65-8.07-6.54-15-16.44-15S36.71,18.93,36.06,27H30L21,84.86A4.5,4.5,0,0,0,25.5,90h54A4.5,4.5,0,0,0,84,84.86ZM52.5,18c6.75,0,9.83,4.48,10.39,9H42.11C42.67,22.48,45.75,18,52.5,18Zm0,33c-9.89,0-15.79-6.93-16.44-15h6c.55,4.52,3.63,9,10.39,9s9.83-4.48,10.39-9h6C68.29,44.07,62.39,51,52.5,51Z" style="fill: #2e2ee6"/>
      </g>
    </g>
  </g>
</svg>
