<?xml version="1.0" encoding="iso-8859-1"?>
<!-- Generator: Adobe Illustrator 20.1.0, SVG Export Plug-In . SVG Version: 6.00 Build 0)  -->
<svg version="1.1" xmlns="http://www.w3.org/2000/svg" xmlns:xlink="http://www.w3.org/1999/xlink" x="0px" y="0px"
	 viewBox="0 0 108 108" style="enable-background:new 0 0 108 108;" xml:space="preserve">
<g id="Shopping_x5F_Menu">
	<rect style="opacity:0.01;fill:#FFFFFF;" width="108" height="108"/>
	<path style="fill:#1B1BB3;" d="M75,33H64.5c0-5.775-4.725-10.5-10.5-10.5c-5.775,0-10.5,4.725-10.5,10.5H33l-4.5,54h51L75,33z
		 M54,27c3.314,0,6,2.686,6,6H48C48,29.686,50.686,27,54,27z M64.491,43.671C64.398,49.367,59.718,54,54,54
		c-5.717,0-10.398-4.633-10.491-10.329C43.188,43.193,43,42.619,43,42c0-1.657,1.343-3,3-3s3,1.343,3,3
		c0,0.865-0.372,1.639-0.958,2.187C48.383,47.177,50.919,49.5,54,49.5s5.617-2.323,5.958-5.313C59.372,43.639,59,42.865,59,42
		c0-1.657,1.343-3,3-3s3,1.343,3,3C65,42.619,64.812,43.193,64.491,43.671z"/>
</g>
<g id="Layer_1">
</g>
</svg>
