<svg xmlns="http://www.w3.org/2000/svg" viewBox="0 0 108 108">
  <title>skiing</title>
  <g id="Layer_2" data-name="Layer 2">
    <g id="Icons">
      <g>
        <circle cx="54" cy="54" r="54" style="fill: #fff;opacity: 0"/>
        <circle cx="70.5" cy="19.5" r="7.5" style="fill: #a714cc"/>
        <polygon points="60 39 67.5 51 81 55.5 81 51 72 46.5 67.5 33 54 24 31.5 33 51.75 42 60 39" style="fill: #a714cc"/>
        <path d="M89,74.08c-.83-1.25-5-.58-5-.58L58.5,66.75,63,55.5V51L18.67,31.08,21,27H18l-1.73,2.88L13.5,28.5,12,30l3.13,1.78L13.5,34.5l1.5,3,2.5-4.38L27,38.5v8L37.38,60,27,55.5H20.25l15.54,7.24-4,6.4L15,60H8.25L67.5,96s5.06.83,9-4.5C79.78,87.05,72,87,72,87L39.07,72.77l4.54-7L76.5,79.5S79.5,81,81,81C84,81,90.42,76.15,89,74.08ZM51.17,64.5l-5.56-2,2.2-3.25L42,49.5,54,57Z" style="fill: #a714cc"/>
      </g>
    </g>
  </g>
</svg>
