<?xml version="1.0" encoding="iso-8859-1"?>
<!-- Generator: Adobe Illustrator 20.1.0, SVG Export Plug-In . SVG Version: 6.00 Build 0)  -->
<svg version="1.1" xmlns="http://www.w3.org/2000/svg" xmlns:xlink="http://www.w3.org/1999/xlink" x="0px" y="0px"
	 viewBox="0 0 108 108" style="enable-background:new 0 0 108 108;" xml:space="preserve">
<g id="Skying_x5F_Menu">
	<circle style="opacity:0;fill:#FFFFFF;" cx="54" cy="54" r="54"/>
	<circle style="fill:#8C24F2;" cx="70.5" cy="22.5" r="7.5"/>
	<path style="fill:#8C24F2;" d="M60,39l6,12l12,6c0,0,3,0,3-3s-3-3-3-3l-9-6l-3-12l-6-5.997c0,0-3-3.003-9-0.119L33,34.5l18,9L60,39
		z"/>
	<path style="fill:#8C24F2;" d="M84,75l-28.244-9.16L61.5,55.5v-3L18.667,31.083L21,27h-3l-1.731,2.885L13.5,28.5
		c0,0-4.5-1.5-1.5,1.5l3.134,1.776L13.5,34.5l1.5,3l2.504-4.381L27,38.5V45l12,12l-1.206,3.014L28.5,57H21l15.488,6.279
		l-2.627,6.567L15,60H9l57.469,36c0,0,4.5,0,7.5-3s-1.5-3-1.5-3l-31.41-16.397l2.916-7.289L76.5,79.5c0,0,3,1.5,4.5,1.5
		c3,0,6-3.07,6-4.5C87,75,84,75,84,75z M42,49.5L52.5,57l-3.349,6.698l-3.656-1.186L46.5,60v-2.851L42,49.5z"/>
</g>
<g id="Layer_1">
</g>
</svg>
