<svg xmlns="http://www.w3.org/2000/svg" viewBox="0 0 108 108">
  <title>smoke_detector</title>
  <g id="Layer_2" data-name="Layer 2">
    <g id="Icons">
      <g>
        <circle cx="54" cy="54" r="54" style="fill: #fff;opacity: 0"/>
        <path d="M24,18v4.14a4.5,4.5,0,0,0,1.32,3.18L42,42H66L82.68,25.32A4.5,4.5,0,0,0,84,22.14V18ZM49.5,36H45l-9-9H49.5ZM63,36H58.5V27H72Z" style="fill: #378006"/>
        <path d="M56.65,70.7h0c-3.28-6.55-3.35-14-.85-21.2-6.07,7.35-8.17,16.38-4.45,23.8h0c3.28,6.55,3.35,14,.85,21.2C58.27,87.15,60.37,78.12,56.65,70.7Z" style="fill: #378006"/>
        <path d="M74.65,75.46h0c-3.28-5.24-3.35-11.2-.85-17-6.07,5.88-8.17,13.1-4.45,19h0c3.28,5.24,3.35,11.2.85,17C76.27,88.62,78.37,81.4,74.65,75.46Z" style="fill: #378006"/>
        <path d="M38.65,75.46h0c-3.28-5.24-3.35-11.2-.85-17-6.07,5.88-8.17,13.1-4.45,19h0c3.28,5.24,3.35,11.2.85,17C40.27,88.62,42.37,81.4,38.65,75.46Z" style="fill: #378006"/>
      </g>
    </g>
  </g>
</svg>
