<svg xmlns="http://www.w3.org/2000/svg" viewBox="0 0 108 108">
  <title>solar_panels</title>
  <g id="Layer_2" data-name="Layer 2">
    <g id="Icons">
      <g>
        <circle cx="54" cy="54" r="54" style="fill: #fff;opacity: 0"/>
        <path d="M81.5,21h-55A5.5,5.5,0,0,0,21,26.5v55A5.5,5.5,0,0,0,26.5,87h55A5.5,5.5,0,0,0,87,81.5v-55A5.5,5.5,0,0,0,81.5,21ZM84,81a3,3,0,0,1-3,3H27a3,3,0,0,1-3-3V27a3,3,0,0,1,3-3H81a3,3,0,0,1,3,3Z" style="fill: #006e00"/>
        <rect x="27" y="27" width="15" height="15" style="fill: #006e00"/>
        <rect x="45" y="27" width="18" height="15" style="fill: #006e00"/>
        <rect x="66" y="27" width="15" height="15" style="fill: #006e00"/>
        <rect x="27" y="45" width="15" height="18" style="fill: #006e00"/>
        <rect x="45" y="45" width="18" height="18" style="fill: #006e00"/>
        <rect x="66" y="45" width="15" height="18" style="fill: #006e00"/>
        <rect x="27" y="66" width="15" height="15" style="fill: #006e00"/>
        <rect x="45" y="66" width="18" height="15" style="fill: #006e00"/>
        <rect x="66" y="66" width="15" height="15" style="fill: #006e00"/>
      </g>
    </g>
  </g>
</svg>
