<?xml version="1.0" encoding="iso-8859-1"?>
<!-- Generator: Adobe Illustrator 20.1.0, SVG Export Plug-In . SVG Version: 6.00 Build 0)  -->
<svg version="1.1" xmlns="http://www.w3.org/2000/svg" xmlns:xlink="http://www.w3.org/1999/xlink" x="0px" y="0px"
	 viewBox="0 0 108 108" style="enable-background:new 0 0 108 108;" xml:space="preserve">
<g id="Spa_x5F_Menu">
	<circle style="opacity:0;fill:#FFFFFF;" cx="54" cy="54" r="54"/>
	<path style="fill:#8C24F2;" d="M22.5,67.5c-2.485,0-4.5,2.015-4.5,4.5v4.5h9V90h4.5L36,76.5h9v-9H22.5z"/>
	<path style="fill:#8C24F2;" d="M63,66v10.5h13.5L81,90h4.5V72L99,45l-3-1.5c-2.152-1.243-4.757-0.652-6,1.5l-6.75,13.5H67.5L63,66z
		 M78.75,67.5H66l3-4.5h12L78.75,67.5z"/>
	<path style="fill:#8C24F2;" d="M85.5,31.5c2.485,0,4.5-2.015,4.5-4.5L54,13.5L18,27c0,2.485,2.015,4.5,4.5,4.5h27V90h9V31.5H85.5z"
		/>
</g>
<g id="Layer_1">
</g>
</svg>
