<?xml version="1.0" encoding="iso-8859-1"?>
<!-- Generator: Adobe Illustrator 20.1.0, SVG Export Plug-In . SVG Version: 6.00 Build 0)  -->
<svg version="1.1" xmlns="http://www.w3.org/2000/svg" xmlns:xlink="http://www.w3.org/1999/xlink" x="0px" y="0px"
	 viewBox="0 0 108 108" style="enable-background:new 0 0 108 108;" xml:space="preserve">
<g id="Sport_x5F_Menu">
	<rect style="opacity:0.01;fill:#FFFFFF;" width="108" height="108"/>
	<path style="fill:#8C24F2;" d="M54,18c-19.882,0-36,16.118-36,36c0,19.882,16.118,36,36,36s36-16.118,36-36
		C90,34.118,73.882,18,54,18z M69.614,73.526l-4.927-6.781l4.59-14.127l6.42-2.086l1.998-0.649c1.956,1.534,5.177,4.068,8.208,6.48
		c-0.457,6.252-2.701,12.008-6.237,16.749C76.237,73.193,72.176,73.39,69.614,73.526z M38.417,73.536
		c-2.51-0.134-6.604-0.335-10.081-0.42c-3.75-5.026-6.051-11.193-6.305-17.884c2.703-2.147,5.446-4.305,7.226-5.701l3.083,1.002
		l6.378,2.072l4.606,14.177L38.417,73.536z M79.658,34.875c-1.095,3.524-2.409,8.346-3.169,11.194l-2.046,0.665l-6.553,2.129
		L56,40.224v-8.354v-2.593c2.11-1.367,5.511-3.592,8.356-5.554C70.519,25.831,75.838,29.758,79.658,34.875z M43.722,23.697
		c3.09,2.045,6.285,4.185,8.278,5.524v2.631v8.373l-11.879,8.63l-6.527-2.121l-2.955-0.96c-0.671-2.517-1.81-6.711-2.84-10.135
		C31.667,30.13,37.225,25.9,43.722,23.697z M44.796,84.65c-1.215-3.257-2.427-6.555-3.205-8.678l4.916-6.767H61.53l4.79,6.593
		c-0.777,2.123-2.032,5.539-3.286,8.9C60.168,85.54,57.138,86,54,86C50.8,86,47.712,85.524,44.796,84.65z"/>
</g>
<g id="Layer_1">
</g>
</svg>
