<?xml version="1.0" encoding="iso-8859-1"?>
<!-- Generator: Adobe Illustrator 20.1.0, SVG Export Plug-In . SVG Version: 6.00 Build 0)  -->
<svg version="1.1" xmlns="http://www.w3.org/2000/svg" xmlns:xlink="http://www.w3.org/1999/xlink" x="0px" y="0px"
	 viewBox="0 0 108 108" style="enable-background:new 0 0 108 108;" xml:space="preserve">
<g id="Sports_x5F_Field_x5F_Menu">
	<circle style="opacity:0;fill:#FFFFFF;" cx="54" cy="54" r="54"/>
	<path style="fill:#8C24F2;" d="M87.909,57.064C89.253,53.291,90,49.235,90,45C90,25.118,73.882,9,54,9C34.118,9,18,25.118,18,45
		c0,4.235,0.745,8.292,2.089,12.066c1.13-0.917,2.355-1.817,3.67-2.687c-0.963-2.851-1.551-5.875-1.669-9.026
		c2.693-2.139,5.423-4.286,7.196-5.677l3.083,1.002l6.378,2.072l1.141,4.283C44.392,45.759,49.168,45,54,45
		c4.848,0,9.639,0.765,14.156,2.045l1.15-4.282l6.42-2.086l1.998-0.649c1.951,1.53,5.162,4.055,8.186,6.462
		c-0.2,2.756-0.771,5.402-1.625,7.916C85.583,55.268,86.792,56.158,87.909,57.064z M52.029,21.996v8.373L40.15,39l-6.527-2.121
		l-2.955-0.96c-0.67-2.513-1.806-6.697-2.835-10.119c3.87-5.516,9.432-9.742,15.938-11.945c3.083,2.041,6.269,4.175,8.257,5.51
		V21.996z M76.518,36.214l-2.046,0.665l-6.553,2.129l-11.891-8.639v-8.354v-2.594c2.104-1.363,5.493-3.581,8.334-5.539
		c6.177,2.109,11.487,6.049,15.311,11.18C78.581,28.584,77.275,33.377,76.518,36.214z"/>
	<path style="fill:#8C24F2;" d="M12,75c0,3.961,3.965,9.082,10.238,13.577c2.55-10.983,1.136-21.402-0.082-27.097
		C15.929,65.961,12,71.056,12,75z"/>
	<path style="fill:#8C24F2;" d="M54,51c-10.243,0-20.237,3.395-27.908,7.921c3.973,13.818,1.24,27.25-0.036,32.136
		C33.732,95.594,43.741,99,54,99c10.225,0,20.202-3.383,27.867-7.897c-3.943-12.804-1.148-27.031,0.108-32.142
		C74.296,54.415,64.274,51,54,51z M73.5,77.25h-5.25v5.25h-4.5v-5.25h-7.5v5.25h-4.5v-5.25h-7.5v5.25h-4.5v-5.25H34.5v-4.5h5.25
		V67.5h4.5v5.25h7.5V67.5h4.5v5.25h7.5V67.5h4.5v5.25h5.25V77.25z"/>
	<path style="fill:#8C24F2;" d="M85.884,61.508c-2.432,11.559-1.185,21.539-0.042,27.014C92.07,84.04,96,78.944,96,75
		C96,71.065,92.088,65.982,85.884,61.508z"/>
</g>
<g id="Layer_1">
</g>
</svg>
