<svg xmlns="http://www.w3.org/2000/svg" viewBox="0 0 108 108">
  <title>sports</title>
  <g id="Layer_2" data-name="Layer 2">
    <g id="Icons">
      <g>
        <rect width="108" height="108" style="fill: #fff;opacity: 0"/>
        <path d="M54,12A42,42,0,1,0,96,54,42,42,0,0,0,54,12ZM72,76.78,66,69l5.82-16.61L79.31,50l2.33-.76c2.28,1.79,6,4.75,9.58,7.56A37.14,37.14,0,0,1,83.94,76.3C79.94,76.39,75,76.62,72,76.78Zm-36,0c-2.93-.16-7.89-.39-11.94-.49A37.15,37.15,0,0,1,16.7,55.44c3.15-2.5,6.35-5,8.43-6.65L28.73,50,36,52.37,41.54,69Zm47.93-45.1c-1.28,4.11-2.81,9.74-3.7,13.06l-2.39.78L70.21,48,57,39V25.16c2.46-1.59,5.76-4.19,9.08-6.48A37.41,37.41,0,0,1,83.93,31.69ZM42,18.65c3.6,2.39,6.67,4.88,9,6.44V39L37.81,48l-7.61-2.48L26.75,44.4c-.78-2.94-2.11-7.83-3.31-11.82A37.41,37.41,0,0,1,42,18.65Zm1.25,71.11c-1.42-3.8-2.83-7.65-3.74-10.12L45,72H63l5.37,7.43c-.91,2.48-2.37,6.46-3.83,10.38a37.36,37.36,0,0,1-21.28-.06Z" style="fill: #a714cc"/>
      </g>
    </g>
  </g>
</svg>
