<svg xmlns="http://www.w3.org/2000/svg" viewBox="0 0 108 108">
  <title>sports_field</title>
  <g id="Layer_2" data-name="Layer 2">
    <g id="Icons">
      <g>
        <circle cx="54" cy="54" r="54" style="fill: #fff;opacity: 0"/>
        <path d="M87.91,57.06a36,36,0,1,0-67.82,0c1.13-.92,2.36-1.82,3.67-2.69a31.86,31.86,0,0,1-1.67-9c2.69-2.14,5.42-4.29,7.2-5.68l3.08,1,6.38,2.07L39.89,47A52.11,52.11,0,0,1,54,45a52.13,52.13,0,0,1,14.16,2l1.15-4.28,6.42-2.09,2-.65c2,1.53,5.16,4.06,8.19,6.46a31.71,31.71,0,0,1-1.63,7.92C85.58,55.27,86.79,56.16,87.91,57.06ZM52,22v8.37L40.15,39l-6.53-2.12-3-1c-.67-2.51-1.81-6.7-2.83-10.12A32,32,0,0,1,43.77,13.86C46.85,15.9,50,18,52,19.37ZM76.52,36.21l-2,.66L67.92,39,56,30.37V19.42c2.1-1.36,5.49-3.58,8.33-5.54A32,32,0,0,1,79.67,25.06C78.58,28.58,77.28,33.38,76.52,36.21Z" style="fill: #a714cc"/>
        <path d="M12,75c0,4,4,9.08,10.24,13.58a64,64,0,0,0-.08-27.1C15.93,66,12,71.06,12,75Z" style="fill: #a714cc"/>
        <path d="M85.88,61.51a67,67,0,0,0,0,27C92.07,84,96,78.94,96,75S92.09,66,85.88,61.51Z" style="fill: #a714cc"/>
        <path d="M82,59a56.38,56.38,0,0,0-28-8,56.37,56.37,0,0,0-27.91,7.92c4,13.82,1.24,27.25,0,32.14A56.38,56.38,0,0,0,54,99a56.37,56.37,0,0,0,27.87-7.9C77.92,78.3,80.72,64.07,82,59ZM75,78H69v6H63V78H57v6H51V78H45v6H39V78H33V72h6V66h6v6h6V66h6v6h6V66h6v6h6Z" style="fill: #a714cc"/>
      </g>
    </g>
  </g>
</svg>
