<svg xmlns="http://www.w3.org/2000/svg" xmlns:xlink="http://www.w3.org/1999/xlink" viewBox="0 0 108 108">
  <defs>
    <clipPath id="clip-path">
      <path d="M19.73,41.38c10.19-3,33.11-9.71,37.89-11a27.25,27.25,0,0,0,10.9-5.79,23.63,23.63,0,0,0,8.65,7l10.47,4.95L37.78,52.3ZM67.06,19.66S63.87,23.91,56.45,26C50.26,27.73,14,38.39,13.6,38.5a2.27,2.27,0,0,0-.52,4.1L36.37,56.68a2.18,2.18,0,0,0,1.79.22L94.45,39.08a2.26,2.26,0,0,0,.27-4.19L79,27.49A18.85,18.85,0,0,1,70.82,20,2.21,2.21,0,0,0,69,18.73h-.17a2.2,2.2,0,0,0-1.79.93" style="fill: none"/>
    </clipPath>
    <linearGradient id="linear-gradient" x1="-685.88" y1="1297.96" x2="-684.37" y2="1297.96" gradientTransform="matrix(0, 43.25, 43.25, 0, -56082.83, 29683.15)" gradientUnits="userSpaceOnUse">
      <stop offset="0" stop-color="#0d5fb0"/>
      <stop offset="1" stop-color="#0d5fb0"/>
    </linearGradient>
  </defs>
  <title>stationery</title>
  <g id="Layer_2" data-name="Layer 2">
    <g id="Icons">
      <g>
        <rect width="108" height="108" style="fill: #fff;opacity: 0"/>
        <g style="clip-path: url(#clip-path)">
          <rect x="11.91" y="18.73" width="84.15" height="38.27" style="fill: url(#linear-gradient)"/>
        </g>
        <path d="M37.5,66a2.18,2.18,0,0,1-1.13-.32L13.08,51.59a2.27,2.27,0,0,1-.77-3.08,2.18,2.18,0,0,1,3-.78L37.78,61.3,93.13,43.78a2.2,2.2,0,0,1,2.77,1.48,2.26,2.26,0,0,1-1.45,2.82L38.15,65.9a2.14,2.14,0,0,1-.65.1" style="fill: #0d5fb0"/>
        <path d="M37.53,75a2.18,2.18,0,0,1-1.13-.31l-23.32-14a2.27,2.27,0,0,1-.78-3.08,2.19,2.19,0,0,1,3-.79L37.81,70.3,93.12,52.65a2.2,2.2,0,0,1,2.77,1.47,2.26,2.26,0,0,1-1.45,2.82l-56.25,18a2.14,2.14,0,0,1-.66.1" style="fill: #0d5fb0"/>
        <path d="M37.5,84a2.18,2.18,0,0,1-1.13-.32L13.08,69.59a2.27,2.27,0,0,1-.77-3.08,2.19,2.19,0,0,1,3-.78L37.78,79.3,93.13,61.78a2.21,2.21,0,0,1,2.77,1.48,2.26,2.26,0,0,1-1.45,2.82L38.15,83.9a2.14,2.14,0,0,1-.65.1" style="fill: #0d5fb0"/>
      </g>
    </g>
  </g>
</svg>
