<svg xmlns="http://www.w3.org/2000/svg" viewBox="0 0 108 108">
  <title>steak</title>
  <g id="Layer_2" data-name="Layer 2">
    <g id="Icons">
      <g>
        <circle cx="54" cy="54" r="54" style="fill: #fff;opacity: 0"/>
        <g>
          <path d="M94.75,41A32.18,32.18,0,0,0,82.49,24.17C72.71,17.31,61.11,18,61.11,18c-17.17.36-27.43,11.43-34.73,20S15,56.82,15,65.18s3.94,16.65,6.71,18.94,8.32,3.57,12.84,2.5,19-8.22,20.65-8.72,4,.79,5,1.07,10.51,3.64,19.7,2.29S91.83,74.9,93.63,71,95.84,57.25,96,51.39A36.65,36.65,0,0,0,94.75,41ZM86.2,63.09s-3.63,5.11-7.42,5.49S69,67.5,65.33,66.45a29.91,29.91,0,0,0-8.52-1.37,21.1,21.1,0,0,0-5.6,1.67c-1.26.59-3.5,1.87-9.88,5.37s-15,8.7-19.46,1.24-1-17.84,1.92-22.85,6.15-10.61,11.81-16.15S49.39,22.58,61.43,22.64c0,0,23.24-1.78,29.23,21.2C93.51,54.81,86.2,63.09,86.2,63.09Z" style="fill: #00856a"/>
          <path d="M79.28,34.09,71.42,44.72l2.42-14.31a34.65,34.65,0,0,0-16.48-1.78,19.12,19.12,0,0,0-9.06,4.12c-2.17,1.78-7,7.69-6.7,11.84s2.69,10.17,5.05,12.32,5.6,2.21,9.28,2.29a29.16,29.16,0,0,1,7.53,1.21c1.21.32,8.35,2.42,9,2.64a7.28,7.28,0,0,0,6.65-1.4c3.13-2.37,4.78-5.7,6.1-8.55s.72-6.83-.55-10.71S79.28,34.09,79.28,34.09Z" style="fill: #00856a"/>
          <path d="M39.32,47.85a6.26,6.26,0,0,0-2.93-1.74,5.32,5.32,0,0,0-3,.27c-.92.5-2.05,1.51-3.81,4.26a32.81,32.81,0,0,0-2.93,6.27c-.93,2-1.52,7.68-1.35,9.4a8.46,8.46,0,0,0,1.57,4.21,4,4,0,0,0,3.28,1.17c1.06,0,5.13-1.76,6.76-2.91a35.84,35.84,0,0,0,5.49-5.45c.77-1.08,1.61-3.51.7-7.4A22.62,22.62,0,0,0,39.32,47.85Z" style="fill: #00856a"/>
        </g>
      </g>
    </g>
  </g>
</svg>
