<?xml version="1.0" encoding="iso-8859-1"?>
<!-- Generator: Adobe Illustrator 20.1.0, SVG Export Plug-In . SVG Version: 6.00 Build 0)  -->
<svg version="1.1" xmlns="http://www.w3.org/2000/svg" xmlns:xlink="http://www.w3.org/1999/xlink" x="0px" y="0px"
	 viewBox="0 0 108 108" style="enable-background:new 0 0 108 108;" xml:space="preserve">
<g id="Subway_x5F_Underground_x5F_Menu">
	<circle style="opacity:0;fill:#FFFFFF;" cx="54" cy="54" r="54"/>
	<path style="fill:#333333;" d="M54,6.107c-18.642,0-33.75,11.545-33.75,25.792v58.188L54,90l33.75,0.087V31.899
		C87.75,17.652,72.642,6.107,54,6.107z M82.929,78.428H68.464l9.643,9.643h-9.643l-4.821-9.643H45.161l-5.625,9.643h-9.643
		l10.446-9.643H25.071V35.036c0-9.619,8.77-19.286,19.286-19.286h19.286c10.515,0,19.286,9.667,19.286,19.286V78.428z"/>
	<path style="fill:#E01678;" d="M62.241,20.583H45.759c-8.763,0-15.866,7.711-15.866,15.726v37.31h48.214v-37.31
		C78.107,28.294,71.004,20.583,62.241,20.583z M45,24h18v6H45V24z M42,69c-3.314,0-6-2.687-6-6s2.686-6,6-6c3.314,0,6,2.687,6,6
		S45.314,69,42,69z M66,69c-3.314,0-6-2.687-6-6c0-3.314,2.686-6,6-6c3.314,0,6,2.687,6,6C72,66.314,69.314,69,66,69z
		 M73.286,49.822c0,2.485-2.015,4.5-4.5,4.5H39.214c-2.485,0-4.5-2.015-4.5-4.5V39.536c0-2.485,2.015-4.5,4.5-4.5h29.571
		c2.485,0,4.5,2.015,4.5,4.5V49.822z"/>
</g>
<g id="Layer_1">
</g>
</svg>
