<svg xmlns="http://www.w3.org/2000/svg" viewBox="0 0 108 108">
  <title>subway</title>
  <g id="Layer_2" data-name="Layer 2">
    <g id="Icons">
      <g>
        <circle cx="54" cy="54" r="54" style="fill: #fff;opacity: 0"/>
        <path d="M54,9C36,9,21,18,21,31.5V90H87V31.5C87,18,72,9,54,9ZM81,78H69l9,9H66l-3-9H45.16L42,87H30l9-9H27V36c0-13.5,10.5-20.25,24-20.25h6c13.5,0,24,6.75,24,20.25Z" style="fill: #404040"/>
        <path d="M60,21H48A15.13,15.13,0,0,0,33,36.31V72H75V36A14.86,14.86,0,0,0,60,21ZM45,27H63v3H45ZM42,69a6,6,0,1,1,6-6A6,6,0,0,1,42,69Zm24,0a6,6,0,1,1,6-6A6,6,0,0,1,66,69Zm6-19.5A4.5,4.5,0,0,1,67.5,54h-27A4.5,4.5,0,0,1,36,49.5v-12A4.5,4.5,0,0,1,40.5,33h27A4.5,4.5,0,0,1,72,37.5Z" style="fill: #e61066"/>
      </g>
    </g>
  </g>
</svg>
