<?xml version="1.0" encoding="iso-8859-1"?>
<!-- Generator: Adobe Illustrator 20.1.0, SVG Export Plug-In . SVG Version: 6.00 Build 0)  -->
<svg version="1.1" xmlns="http://www.w3.org/2000/svg" xmlns:xlink="http://www.w3.org/1999/xlink" x="0px" y="0px"
	 viewBox="0 0 108 108" style="enable-background:new 0 0 108 108;" xml:space="preserve">
<g id="Taxi_x5F_Menu">
	<circle style="opacity:0;fill:#FFFFFF;" cx="54" cy="54" r="54"/>
	<path style="fill:#15788C;" d="M87,51c-0.33,0-1.385,0-3,0c0,0-2.924-11.694-4.5-18C78,27,75,27,75,27s-1.124,0-3,0
		c0-3.76,0-9.96,0-12c0-3-3-3-3-3s-27,0-30,0s-3,3-3,3v12c-1.581,0-2.651,0-3,0c0,0-3,0-4.5,6L24,51c-1.901,0-3,0-3,0s-3,0-3,3
		s0,24,0,24s0,3,3,3h3c0,3.789,0,7.636,0,9h9v-9h42c0,3.789,0,7.636,0,9h9v-9h3c0,0,3,0,3-3s0-24,0-24S90,51,87,51z M39,21h6v-6h6v6
		h6v-6h6v6h6v6h-6v-6h-6v6h-6v-6h-6v6h-6V21z M33,36c0,0,0-3,3-3c0,0,33.5,0,36,0s3,3,3,3l3,15c-12.653,0-35.405,0-48,0L33,36z
		 M30,69c-3.314,0-6-2.686-6-6s2.686-6,6-6s6,2.686,6,6S33.314,69,30,69z M64.5,75h-21v-4.5h21V75z M67.5,66h-27v-6h27V66z M78,69
		c-3.314,0-6-2.686-6-6s2.686-6,6-6s6,2.686,6,6S81.314,69,78,69z"/>
</g>
<g id="Layer_1">
</g>
</svg>
