<svg xmlns="http://www.w3.org/2000/svg" viewBox="0 0 108 108">
  <title>taxi</title>
  <g id="Layer_2" data-name="Layer 2">
    <g id="Icons">
      <g>
        <circle cx="54" cy="54" r="54" style="fill: #fff;opacity: 0"/>
        <path d="M85.5,51H83.89L79.32,33.11C77.79,27,74.74,27,74.74,27H72V15a3,3,0,0,0-3-3H39a3,3,0,0,0-3,3V27H33.26s-3.05,0-4.58,6.11L24.11,51H22.5A4.5,4.5,0,0,0,18,55.5V78a3,3,0,0,0,3.05,3.05H24V90h9V81.05H75V90h9V81.05h2.95A3,3,0,0,0,90,78V55.5A4.5,4.5,0,0,0,85.5,51ZM39,21h6V15h6v6h6V15h6v6h6v6H63V21H57v6H51V21H45v6H39ZM33.49,35.39a3.07,3.07,0,0,1,2.83-2.29H71.68a3.07,3.07,0,0,1,2.83,2.29L77.79,51H30.21Zm2.06,29.86A6,6,0,0,1,24,63a6,6,0,0,1,12,0A6,6,0,0,1,35.55,65.25Zm27.45,9V75H45V70.5H63Zm3-9V66H42V60H66Zm17.55,0A6,6,0,0,1,72,63a6,6,0,0,1,12,0A6,6,0,0,1,83.55,65.25Z" style="fill: #e61066"/>
      </g>
    </g>
  </g>
</svg>
