<svg xmlns="http://www.w3.org/2000/svg" viewBox="0 0 108 108">
  <title>telephone_booth</title>
  <g id="Layer_2" data-name="Layer 2">
    <g id="Icons">
      <g>
        <circle cx="54" cy="54" r="54" style="fill: #fff;opacity: 0"/>
        <path d="M76.5,21H81C81,15,68.91,9,54,9S27,15,27,21h4.5V87H27v6H81V87H76.5Zm-6,57.22c-.95,1.42-1.49,2.7-3.67,2.77-4.16.12-9.39-.94-15.23-4.7-7.92-5.11-13.78-15.38-14.77-20.62-2.29-12.09.4-17.87,2.84-19.13,1.33-.71,4.45-.64,6.35-.2,2.12.49,2.71,4.56,2.86,6.73.23,3.46.57,6.36-.86,7.42a16.3,16.3,0,0,1-2.71,1.69c-1.37.65-2.17,1.59-1.44,3.27a49.28,49.28,0,0,0,8.31,12.81c1.51,1.63,3.58,2.41,5.32.82,1-.9,1.43-1.88,3.18-2s4.07,1,6.18,2.14S72,71.72,72,74A7.43,7.43,0,0,1,70.54,78.22ZM72,27H36V21H72Z" style="fill: #0081a1"/>
      </g>
    </g>
  </g>
</svg>
