<svg xmlns="http://www.w3.org/2000/svg" viewBox="0 0 108 108">
  <title>thermostat</title>
  <g id="Layer_2" data-name="Layer 2">
    <g id="Icons">
      <g>
        <circle cx="54" cy="54" r="54" style="fill: #fff;opacity: 0"/>
        <path d="M93,49.5H83.64a31.26,31.26,0,0,0-1.91-7.18l8.09-4.67a4.5,4.5,0,1,0-4.5-7.79l-8.1,4.67A31.63,31.63,0,0,0,72,29.27l4.67-8.1a4.5,4.5,0,0,0-7.79-4.5l-4.67,8.09A31.26,31.26,0,0,0,57,22.86V13.5a4.5,4.5,0,0,0-9,0v9l-6.75-6.75a3.18,3.18,0,0,0-4.5,4.5L48,31.5V46.21L35.26,38.85,31.15,23.48A3.18,3.18,0,0,0,25,25.13l2.47,9.22-7.79-4.5a4.5,4.5,0,1,0-4.5,7.79L23,42.15l-9.22,2.47a3.18,3.18,0,1,0,1.65,6.15l15.37-4.12L43.5,54,30.76,61.35,15.4,57.23a3.18,3.18,0,1,0-1.65,6.15L23,65.85l-7.79,4.5a4.5,4.5,0,0,0,4.5,7.79l7.79-4.5L25,82.87a3.18,3.18,0,0,0,6.15,1.65l4.12-15.37L48,61.79V76.5L36.75,87.75a3.18,3.18,0,0,0,4.5,4.5L48,85.5v9a4.5,4.5,0,0,0,9,0V85.14a31.26,31.26,0,0,0,7.18-1.91l4.67,8.09a4.5,4.5,0,0,0,7.79-4.5L72,78.73a31.63,31.63,0,0,0,5.26-5.26l8.1,4.67a4.5,4.5,0,1,0,4.5-7.79l-8.09-4.67a31.26,31.26,0,0,0,1.91-7.18H93a4.5,4.5,0,0,0,0-9Z" style="fill: #006e00"/>
      </g>
    </g>
  </g>
</svg>
