<svg xmlns="http://www.w3.org/2000/svg" viewBox="0 0 108 108">
  <title>toilet_ladies</title>
  <g id="Layer_2" data-name="Layer 2">
    <g id="Icons">
      <g>
        <circle cx="54" cy="54" r="54" style="fill: #fff;opacity: 0"/>
        <polygon points="51.75 81 49.5 99 45 99 45 81 36 81 45 54 45 45 34.5 60 30 60 45 30 63 30 78 60 73.5 60 63 45 63 54 72 81 63 81 63 99 58.5 99 56.25 81 51.75 81" style="fill: #0081a1"/>
        <path d="M45,18a9,9,0,1,1,9,9,9,9,0,0,1-9-9" style="fill: #0081a1"/>
      </g>
    </g>
  </g>
</svg>
