<svg xmlns="http://www.w3.org/2000/svg" viewBox="0 0 108 108">
  <title>tourist_info</title>
  <g id="Layer_2" data-name="Layer 2">
    <g id="Icons">
      <g>
        <rect width="108" height="108" style="fill: #fff;opacity: 0"/>
        <g>
          <path d="M55.57,39a9.94,9.94,0,0,0,7.37-3.13A10.28,10.28,0,0,0,66,28.43a10.16,10.16,0,0,0-3-7.37A10,10,0,0,0,55.57,18a10.19,10.19,0,0,0-7.5,3.07A10,10,0,0,0,45,28.43a10.16,10.16,0,0,0,3.13,7.43A10.16,10.16,0,0,0,55.57,39Z" style="fill: #cc14a6"/>
          <polygon points="66 84 66 45 45 45 36 45 36 51 45 51 45 84 36 84 36 90 45 90 67.5 90 75 90 75 84 66 84" style="fill: #cc14a6"/>
        </g>
      </g>
    </g>
  </g>
</svg>
