<?xml version="1.0" encoding="iso-8859-1"?>
<!-- Generator: Adobe Illustrator 20.1.0, SVG Export Plug-In . SVG Version: 6.00 Build 0)  -->
<svg version="1.1" xmlns="http://www.w3.org/2000/svg" xmlns:xlink="http://www.w3.org/1999/xlink" x="0px" y="0px"
	 viewBox="0 0 108 108" style="enable-background:new 0 0 108 108;" xml:space="preserve">
<g id="TouristInfo_x5F_Menu">
	<rect style="opacity:0.01;fill:#FFFFFF;" width="108" height="108"/>
	<g>
		<path style="fill:#CC14CC;" d="M55.565,39c2.87,0,5.326-1.044,7.37-3.13C64.974,33.783,66,31.304,66,28.435s-1-5.326-3-7.37
			C60.996,19.022,58.517,18,55.565,18c-2.957,0-5.461,1.022-7.5,3.065c-2.043,2.044-3.065,4.5-3.065,7.37s1.043,5.348,3.13,7.435
			C50.217,37.956,52.696,39,55.565,39z"/>
		<polygon style="fill:#CC14CC;" points="66,84 66,51 66,45 45,45 36,45 36,51 45,51 45,84 36,84 36,90 45,90 66,90 75,90 75,84 		
			"/>
	</g>
</g>
<g id="Layer_1">
</g>
</svg>
