<?xml version="1.0" encoding="iso-8859-1"?>
<!-- Generator: Adobe Illustrator 20.1.0, SVG Export Plug-In . SVG Version: 6.00 Build 0)  -->
<svg version="1.1" xmlns="http://www.w3.org/2000/svg" xmlns:xlink="http://www.w3.org/1999/xlink" x="0px" y="0px"
	 viewBox="0 0 108 108" style="enable-background:new 0 0 108 108;" xml:space="preserve">
<g id="Education_x5F_Menu">
	<circle style="opacity:0;fill:#FFFFFF;" cx="54" cy="54" r="54"/>
	<polygon style="fill:#15788C;" points="40.5,54 40.5,49.5 27,63 81,63 67.5,49.5 67.5,54 	"/>
	<polygon style="fill:#15788C;" points="27,67.5 27,94.5 31.5,94.5 31.5,76.5 36,76.5 36,94.5 40.5,94.5 40.5,76.5 45,76.5 45,94.5 
		63,94.5 63,76.5 67.5,76.5 67.5,94.5 72,94.5 72,76.5 76.5,76.5 76.5,94.5 81,94.5 81,67.5 	"/>
	<path style="fill:#15788C;" d="M63,31.5l-7.824-7.824v-1.18L67.47,22.46l-3.82-4.43l3.849-4.386l-12.324-0.133V12.41
		c0.642-0.396,1.074-1.1,1.074-1.91c0-1.243-1.007-2.25-2.25-2.25s-2.25,1.007-2.25,2.25c0,0.81,0.432,1.514,1.074,1.91v11.266
		L45,31.5v18h18V31.5z M54,45c-2.485,0-4.5-2.015-4.5-4.5S51.515,36,54,36s4.5,2.015,4.5,4.5S56.485,45,54,45z"/>
</g>
<g id="Layer_1">
</g>
</svg>
