<svg xmlns="http://www.w3.org/2000/svg" viewBox="0 0 108 108">
  <title>traffic_counter</title>
  <g id="Layer_2" data-name="Layer 2">
    <g id="Icons">
      <g>
        <circle cx="54" cy="54" r="54" style="fill: #fff;opacity: 0"/>
        <path d="M38,12s-3.05,0-4.58,6.11l-.76,3.05H38a3,3,0,0,1,3.05-3.05H77.68c2.54,0,3.05,3.05,3.05,3.05L83.79,36H73.87c1.21,4.84,2.29,9,2.29,9h2.46l.09.22a6,6,0,1,1,3.55,8.49V71.95a2.75,2.75,0,0,1-1.53,2.67V75H90V66h2.95A3.18,3.18,0,0,0,96,62.79V39.05A3,3,0,0,0,92.95,36H89.89L85.66,18c-.24-.21-.47-.44-.72-.65l-.6-.52c-.67-.55-1.38-1-2.08-1.55A49.3,49.3,0,0,0,76.15,12Z" style="fill: #378006"/>
        <path d="M71.95,54H68.89L64.32,36.11C62.79,30,59.74,30,59.74,30H18.26s-3.05,0-4.58,6.11L9.11,54H6A47.76,47.76,0,0,0,18,85.68V84.05H60V93h9V84.05h2.95A3,3,0,0,0,75,81V57.05A3,3,0,0,0,71.95,54ZM18.49,38.39a3.07,3.07,0,0,1,2.83-2.29H56.68a3.07,3.07,0,0,1,2.83,2.29L62.79,54H15.21Zm2.06,29.86A6,6,0,0,1,9,66a5.89,5.89,0,0,1,1.43-3.75A6,6,0,0,1,21,66,6,6,0,0,1,20.55,68.25Zm27.45,9V78H30V73.5H48Zm3-9V69H27V63H51Zm17.55,0A6,6,0,0,1,57,66a6,6,0,0,1,12,0A6,6,0,0,1,68.55,68.25Z" style="fill: #378006"/>
      </g>
    </g>
  </g>
</svg>
