<svg xmlns="http://www.w3.org/2000/svg" viewBox="0 0 108 108">
  <title>train</title>
  <g id="Layer_2" data-name="Layer 2">
    <g id="Icons">
      <g>
        <circle cx="54" cy="54" r="54" style="fill: #fff;opacity: 0"/>
        <polygon points="81 96 68.63 96 63 87 69 87 81 96" style="fill: #e61066"/>
        <polygon points="27 96 39 96 45 87 39 87 27 96" style="fill: #e61066"/>
        <path d="M67.5,18h-27A13.5,13.5,0,0,0,27,31.5v36A13.5,13.5,0,0,0,40.5,81h27A13.5,13.5,0,0,0,81,67.5v-36A13.5,13.5,0,0,0,67.5,18ZM45,24H63v3H45ZM39,75a6,6,0,1,1,6-6A6,6,0,0,1,39,75Zm30,0a6,6,0,1,1,6-6A6,6,0,0,1,69,75Zm6-19.5A4.5,4.5,0,0,1,70.5,60h-33A4.5,4.5,0,0,1,33,55.5v-21A4.5,4.5,0,0,1,37.5,30h33A4.5,4.5,0,0,1,75,34.5Z" style="fill: #e61066"/>
      </g>
    </g>
  </g>
</svg>
