<?xml version="1.0" encoding="iso-8859-1"?>
<!-- Generator: Adobe Illustrator 20.1.0, SVG Export Plug-In . SVG Version: 6.00 Build 0)  -->
<svg version="1.1" xmlns="http://www.w3.org/2000/svg" xmlns:xlink="http://www.w3.org/1999/xlink" x="0px" y="0px"
	 viewBox="0 0 108 108" style="enable-background:new 0 0 108 108;" xml:space="preserve">
<g id="Train_x5F_Menu">
	<circle style="opacity:0;fill:#FFFFFF;" cx="54" cy="54" r="54"/>
	<polygon style="fill:#E01678;" points="81,93 68.625,93 63,84 69,84 	"/>
	<polygon style="fill:#E01678;" points="27,93 39,93 45,84 39,84 	"/>
	<path style="fill:#E01678;" d="M69.055,12H38.945c-7.84,0-14.195,6.355-14.195,14.195v40.609C24.75,74.644,31.105,81,38.945,81
		h30.109c7.84,0,14.195-6.356,14.195-14.195V26.195C83.25,18.355,76.895,12,69.055,12z M39,18h30v6H39V18z M36,75
		c-3.314,0-6-2.686-6-6s2.686-6,6-6s6,2.686,6,6S39.314,75,36,75z M72,75c-3.314,0-6-2.686-6-6c0-3.314,2.686-6,6-6
		c3.314,0,6,2.686,6,6C78,72.314,75.314,75,72,75z M78.375,54.188c0,2.485-2.015,4.5-4.5,4.5h-39.75c-2.485,0-4.5-2.015-4.5-4.5
		v-20.25c0-2.485,2.015-4.5,4.5-4.5h39.75c2.485,0,4.5,2.015,4.5,4.5V54.188z"/>
</g>
<g id="Layer_1">
</g>
</svg>
