<?xml version="1.0" encoding="iso-8859-1"?>
<!-- Generator: Adobe Illustrator 20.1.0, SVG Export Plug-In . SVG Version: 6.00 Build 0)  -->
<svg version="1.1" xmlns="http://www.w3.org/2000/svg" xmlns:xlink="http://www.w3.org/1999/xlink" x="0px" y="0px"
	 viewBox="0 0 108 108" style="enable-background:new 0 0 108 108;" xml:space="preserve">
<g id="Transport_x5F_Menu">
	<rect style="opacity:0.01;fill:#FFFFFF;" width="108" height="108"/>
	<path style="fill:#E01678;" d="M81.762,15H26.238C23.345,15,21,17.345,21,20.238v55.524c0,2.089,1.231,3.877,3,4.718v8.77
		c0,2.071,1.679,3.75,3.75,3.75h4.5c2.071,0,3.75-1.679,3.75-3.75V81h36v8.25c0,2.071,1.679,3.75,3.75,3.75h4.5
		c2.071,0,3.75-1.679,3.75-3.75v-8.77c1.769-0.841,3-2.63,3-4.718V20.238C87,17.345,84.655,15,81.762,15z M39.857,22.5
		c0-0.828,0.703-1.5,1.571-1.5h25.457c0.694,0,1.257,0.537,1.257,1.2v3.3c0,0.828-0.703,1.5-1.571,1.5H41.429
		c-0.868,0-1.571-0.672-1.571-1.5V22.5z M28.5,75c-2.485,0-4.5-2.015-4.5-4.5s2.015-4.5,4.5-4.5s4.5,2.015,4.5,4.5
		S30.985,75,28.5,75z M69,75H39v-3h30V75z M69,69H39v-3h30V69z M79.5,75c-2.485,0-4.5-2.015-4.5-4.5s2.015-4.5,4.5-4.5
		s4.5,2.015,4.5,4.5S81.985,75,79.5,75z M84,57c0,1.657-1.492,3-3.333,3H27.333C25.492,60,24,58.657,24,57V36
		c0-1.657,1.492-3,3.333-3h53.333C82.508,33,84,34.343,84,36V57z"/>
</g>
<g id="Layer_1">
</g>
</svg>
