<?xml version="1.0" encoding="iso-8859-1"?>
<!-- Generator: Adobe Illustrator 21.0.0, SVG Export Plug-In . SVG Version: 6.00 Build 0)  -->
<svg version="1.1" xmlns="http://www.w3.org/2000/svg" xmlns:xlink="http://www.w3.org/1999/xlink" x="0px" y="0px"
	 viewBox="0 0 108 108" style="enable-background:new 0 0 108 108;" xml:space="preserve">
<g id="Trash_x5F_Full_x5F_Menu">
	<circle style="opacity:0;fill:#FFFFFF;" cx="54" cy="54" r="54"/>
	<g>
		<path style="fill:#D1021A;" d="M71.272,99H36.728C31.363,99,27,94.637,27,89.272V27h54v62.272C81,94.637,76.637,99,71.272,99z
			 M33,33v56.272C33,91.328,34.672,93,36.728,93h34.545C73.328,93,75,91.328,75,89.272V33H33z"/>
		<path style="fill:#D1021A;" d="M54,87L54,87c-1.657,0-3-1.343-3-3V42c0-1.657,1.343-3,3-3H54c1.657,0,3,1.343,3,3V84
			C57,85.657,55.657,87,54,87z"/>
		<path style="fill:#D1021A;" d="M42,87L42,87c-1.657,0-3-1.343-3-3V42c0-1.657,1.343-3,3-3H42c1.657,0,3,1.343,3,3V84
			C45,85.657,43.657,87,42,87z"/>
		<path style="fill:#D1021A;" d="M66,87L66,87c-1.657,0-3-1.343-3-3V42c0-1.657,1.343-3,3-3H66c1.657,0,3,1.343,3,3V84
			C69,85.657,67.657,87,66,87z"/>
		<path style="fill:#D1021A;" d="M81,15H63v-3c0-1.657-1.343-3-3-3H48c-1.657,0-3,1.343-3,3v3H27c-1.657,0-3,1.343-3,3v6h60v-6
			C84,16.343,82.657,15,81,15z"/>
	</g>
</g>
<g id="Layer_1">
</g>
</svg>
