<svg xmlns="http://www.w3.org/2000/svg" viewBox="0 0 108 108">
  <title>twitter</title>
  <g id="Layer_2" data-name="Layer 2">
    <g id="Icons">
      <g>
        <circle cx="54" cy="54" r="54" style="fill: #fff;opacity: 0"/>
        <path d="M54,9A45,45,0,1,0,99,54,45,45,0,0,0,54,9ZM74.18,43.55l0,1.36c0,13.89-10.48,29.9-29.64,29.9a29.26,29.26,0,0,1-16-4.73,21.69,21.69,0,0,0,2.48.15A20.79,20.79,0,0,0,44,65.73a10.43,10.43,0,0,1-9.73-7.3,9.87,9.87,0,0,0,2,.2A10.55,10.55,0,0,0,39,58.26,10.5,10.5,0,0,1,30.65,48v-.13a10.33,10.33,0,0,0,4.72,1.32,10.58,10.58,0,0,1-3.23-14,29.5,29.5,0,0,0,21.47,11,10.61,10.61,0,0,1-.27-2.39A10.46,10.46,0,0,1,63.77,33.19a10.35,10.35,0,0,1,7.61,3.32A20.91,20.91,0,0,0,78,34a10.54,10.54,0,0,1-4.58,5.81,20.68,20.68,0,0,0,6-1.66A20.91,20.91,0,0,1,74.18,43.55Z" style="fill: #55acee"/>
      </g>
    </g>
  </g>
</svg>
