<svg xmlns="http://www.w3.org/2000/svg" viewBox="0 0 108 108">
  <title>vegan</title>
  <g id="Layer_2" data-name="Layer 2">
    <g id="Icons">
      <g>
        <circle cx="54" cy="54" r="54" style="fill: #fff;opacity: 0"/>
        <path d="M83.35,31l-.15,0,.15-.13c3.46-3.46,4.86-7.67,3.13-9.4s-5.94-.33-9.4,3.13l-.13.15c0-.05,0-.09,0-.15C77,21,75,18,72.55,18s-4.43,3-4.43,6.65,2,6.65,4.43,6.65a3,3,0,0,0,.77-.23,5.46,5.46,0,0,0-.06.55l-2.53,2.53c-4.32-3.47-10.15-5.51-12.44-3.22L21.76,80.11a4.43,4.43,0,0,0,6.13,6.13l49.2-36.53c2.29-2.29.25-8.12-3.22-12.44l2.53-2.53a5.46,5.46,0,0,0,.55-.06,3,3,0,0,0-.23.77c0,2.45,3,4.43,6.65,4.43S90,37.9,90,35.45,87,31,83.35,31Z" style="fill: #00856a"/>
      </g>
    </g>
  </g>
</svg>
