<svg xmlns="http://www.w3.org/2000/svg" viewBox="0 0 108 108">
  <title>vegetarian</title>
  <g id="Layer_2" data-name="Layer 2">
    <g id="Icons">
      <g>
        <circle cx="54" cy="54" r="54" style="fill: #fff;opacity: 0"/>
        <g>
          <path d="M57.88,77.77s9.18-23.08-13.76-36.92A42.73,42.73,0,0,0,12,36.23s4.59,4.62,9.18,18.46c0,0,4.59,23.08,32.12,27.69,0,0,0-18.46-13.76-32.31C39.53,50.08,53.29,54.69,57.88,77.77Z" style="fill: #00856a"/>
          <path d="M67.06,40.85c-9.18,9.23-4.59,27.69-4.59,27.69,0-9.23,13.76-23.08,13.76-23.08a55.22,55.22,0,0,0-9.18,27.69s13.76-4.62,18.35-13.85S90,27,90,27,76.24,31.62,67.06,40.85Z" style="fill: #00856a"/>
          <path d="M71.65,73.15C62.47,73.15,57.88,87,57.88,87c4.59-4.62,9.18-4.62,9.18-4.62C71.65,87,80.82,87,80.82,87S80.82,73.15,71.65,73.15Z" style="fill: #00856a"/>
        </g>
      </g>
    </g>
  </g>
</svg>
