<svg xmlns="http://www.w3.org/2000/svg" viewBox="0 0 108 108">
  <title>vet</title>
  <g id="Layer_2" data-name="Layer 2">
    <g id="Icons">
      <g>
        <circle cx="54" cy="54" r="54" style="fill: #fff;opacity: 0"/>
        <path d="M79.39,70a16.66,16.66,0,0,1-.46,15.2C75.86,90.49,69,96,54,96S32.14,90.49,29.07,85.16A16.66,16.66,0,0,1,28.61,70c4-8.83,13.83-25,25.39-25S75.39,61.13,79.39,70Z" style="fill: #cc14a6"/>
        <path d="M90.9,36.54c-4.48-2-9.86,1.57-12,7.9s-.27,13.05,4.21,15,9.86-1.57,12-7.9S95.38,38.51,90.9,36.54Z" style="fill: #cc14a6"/>
        <path d="M29.11,44.44c-2.15-6.33-7.53-9.86-12-7.9s-6.36,8.69-4.21,15,7.53,9.86,12,7.9S31.26,50.77,29.11,44.44Z" style="fill: #cc14a6"/>
        <ellipse cx="67.5" cy="24" rx="10.5" ry="15" style="fill: #cc14a6"/>
        <ellipse cx="40.5" cy="24" rx="10.5" ry="15" style="fill: #cc14a6"/>
      </g>
    </g>
  </g>
</svg>
