<?xml version="1.0" encoding="iso-8859-1"?>
<!-- Generator: Adobe Illustrator 20.1.0, SVG Export Plug-In . SVG Version: 6.00 Build 0)  -->
<svg version="1.1" xmlns="http://www.w3.org/2000/svg" xmlns:xlink="http://www.w3.org/1999/xlink" x="0px" y="0px"
	 viewBox="0 0 108 108" style="enable-background:new 0 0 108 108;" xml:space="preserve">
<g id="Vet_x5F_Menu">
	<circle style="opacity:0;fill:#FFFFFF;" cx="54" cy="54" r="54"/>
	<path style="fill:#CC1FCC;" d="M77.348,69.493c2.062,4.601,2.065,9.956-0.431,14.341c-2.863,5.031-9.226,9.956-23.224,9.956
		s-20.361-4.926-23.224-9.956c-2.496-4.386-2.494-9.741-0.431-14.341c3.733-8.328,12.887-23.388,23.656-23.388
		S73.615,61.165,77.348,69.493z"/>
	<path style="fill:#CC1FCC;" d="M88.266,39.707c-4.172-1.832-9.181,1.461-11.187,7.355c-2.007,5.894-0.251,12.158,3.921,13.99
		c4.172,1.832,9.181-1.461,11.187-7.355C94.193,47.803,92.438,41.539,88.266,39.707z"/>
	<path style="fill:#CC1FCC;" d="M30.307,47.062c-2.006-5.894-7.015-9.187-11.187-7.355c-4.172,1.832-5.927,8.096-3.921,13.99
		c2.006,5.894,7.015,9.187,11.187,7.355C30.558,59.22,32.314,52.956,30.307,47.062z"/>
	<ellipse style="fill:#CC1FCC;" cx="67.527" cy="28.498" rx="9.223" ry="13.175"/>
	<ellipse style="fill:#CC1FCC;" cx="39.858" cy="28.498" rx="9.223" ry="13.175"/>
</g>
<g id="Layer_1">
</g>
</svg>
