<svg xmlns="http://www.w3.org/2000/svg" viewBox="0 0 108 108">
  <title>vimeo</title>
  <g id="Layer_2" data-name="Layer 2">
    <g id="Icons">
      <g>
        <circle cx="54" cy="54" r="54" style="fill: #fff;opacity: 0"/>
        <path d="M54,8.87a45,45,0,1,0,45,45A45,45,0,0,0,54,8.87ZM82.21,41C79,58.85,61.21,74,55.85,77.41s-10.25-1.38-12-5c-2-4.17-8.11-26.75-9.7-28.63s-6.37,1.87-6.37,1.87l-2.31-3s9.7-11.51,17.09-13c7.83-1.53,7.82,11.94,9.7,19.42,1.82,7.23,3,11.37,4.64,11.37s4.64-4,8-10.21-.14-11.66-6.66-7.77C60.77,26.91,85.39,23.18,82.21,41Z" style="fill: #00b2de"/>
      </g>
    </g>
  </g>
</svg>
