<svg xmlns="http://www.w3.org/2000/svg" viewBox="0 0 108 108">
  <title>vr_experience</title>
  <g id="Layer_2" data-name="Layer 2">
    <g id="Icons">
      <g>
        <circle cx="54" cy="54" r="54" style="fill: #fff;opacity: 0"/>
        <g>
          <path d="M67.5,52.5H63V45h4.5C72,45,72,48.75,72,48.75S72,52.5,67.5,52.5Z" style="fill: #668000"/>
          <path d="M102,57,99,42H94c-3-8.82-9.27-16.65-19.21-20.24A69.62,69.62,0,0,0,60,18V15H48v3c-5.3.53-11.47,2.64-14.58,3.76C23.47,25.35,18,33.18,15,42H9L6,57h6a54.25,54.25,0,0,0,2,15c2,8,6.64,15,19,15,11.55,0,13.75-7.49,15-9a8.3,8.3,0,0,1,6-3,8.3,8.3,0,0,1,6,3c1.25,1.51,3.45,9,15,9,12.39,0,18.18-6.94,20.16-15a54.2,54.2,0,0,0,1.5-15ZM40.5,63,48,39h6L45,69H36L27,39h6Zm32.41-6c4.74,7.08,8.34,9.93,9.77,12H74.77L67.5,58.5H63V69H57V39H69c9,0,9,9.75,9,9.75A10.21,10.21,0,0,1,72.91,57ZM92.53,69.4c-1.24,5-3.55,8.84-6.86,11.37A1.76,1.76,0,1,1,83.51,78c2.66-2,4.54-5.2,5.58-9.42,1.66-6.74,1.59-18,.36-22.45-1.8-6.57-6.11-15.18-16.37-18.88-3.87-1.39-12.7-2.33-18.52-2.33S39.91,25.84,36,27.23c-10.26,3.7-14.56,12.31-16.37,18.88-1.23,4.47-1.3,15.71.36,22.45,1,4.21,2.92,7.38,5.58,9.42a1.76,1.76,0,1,1-2.15,2.8c-3.32-2.54-5.63-6.36-6.86-11.37-1.86-7.55-1.71-19.22-.34-24.23,2-7.37,6.89-17,18.57-21.26,4.35-1.57,13.63-2.54,19.72-2.54s15.37,1,19.72,2.54C86,28.12,90.84,37.8,92.87,45.17,94.24,50.18,94.39,61.85,92.53,69.4Z" style="fill: #668000"/>
        </g>
      </g>
    </g>
  </g>
</svg>
