<svg xmlns="http://www.w3.org/2000/svg" viewBox="0 0 108 108">
  <title>warning</title>
  <g id="Layer_2" data-name="Layer 2">
    <g id="Icons">
      <g>
        <circle cx="54" cy="54" r="54" style="fill: #fff;opacity: 0"/>
        <path d="M94.43,64.61,63.85,14.41a11.67,11.67,0,0,0-19.7,0L13.57,64.61a10.38,10.38,0,0,0,0,10.92A11.38,11.38,0,0,0,23.42,81H84.58a11.38,11.38,0,0,0,9.88-5.47A10.38,10.38,0,0,0,94.43,64.61ZM84.58,75H23.42a4.84,4.84,0,0,1-4.22-7.25l30.58-50.2a5,5,0,0,1,8.44,0L88.8,67.75A4.84,4.84,0,0,1,84.58,75Z" style="fill: #202020"/>
        <circle cx="54" cy="63" r="6" style="fill: #202020"/>
        <rect x="49.5" y="30" width="9" height="24" style="fill: #202020"/>
      </g>
    </g>
  </g>
</svg>
