<?xml version="1.0" encoding="iso-8859-1"?>
<!-- Generator: Adobe Illustrator 20.1.0, SVG Export Plug-In . SVG Version: 6.00 Build 0)  -->
<svg version="1.1" xmlns="http://www.w3.org/2000/svg" xmlns:xlink="http://www.w3.org/1999/xlink" x="0px" y="0px"
	 viewBox="0 0 108 108" style="enable-background:new 0 0 108 108;" xml:space="preserve">
<g id="Weather_x5F_Sun">
	<rect style="opacity:0.01;fill:#FFFFFF;" width="108" height="108"/>
	<path style="fill:#156CE6;" d="M9,9v90h90V9H9z M64.5,51C73.613,51,81,58.387,81,67.5c0,2.423-0.535,4.718-1.474,6.79
		c-0.312,0.689-0.672,1.352-1.072,1.987c-0.019,0.03-0.036,0.061-0.055,0.09c-0.181,0.283-0.373,0.558-0.57,0.83
		c-0.063,0.086-0.127,0.171-0.191,0.256c-0.595,0.786-1.261,1.514-1.984,2.181c-0.123,0.113-0.245,0.228-0.372,0.338
		c-0.2,0.174-0.406,0.342-0.615,0.506c-0.167,0.131-0.339,0.258-0.511,0.382c-0.193,0.14-0.384,0.283-0.582,0.414
		c-0.348,0.23-0.705,0.447-1.07,0.65c-0.166,0.093-0.338,0.175-0.508,0.262c-0.261,0.134-0.525,0.263-0.794,0.383
		c-0.171,0.077-0.344,0.151-0.518,0.222c-0.332,0.135-0.671,0.258-1.013,0.371c-0.109,0.036-0.215,0.078-0.326,0.112
		c-0.451,0.138-0.911,0.254-1.377,0.354c-0.139,0.03-0.28,0.053-0.42,0.079c-0.361,0.068-0.726,0.123-1.095,0.167
		c-0.146,0.017-0.292,0.036-0.44,0.049C65.513,83.969,65.01,84,64.5,84h-33C22.387,84,15,76.613,15,67.5
		c0-0.54,0.03-1.072,0.081-1.599c0.017-0.176,0.048-0.347,0.07-0.521c0.045-0.347,0.092-0.692,0.157-1.032
		c0.04-0.206,0.091-0.408,0.139-0.611c0.07-0.299,0.143-0.597,0.229-0.89c0.063-0.214,0.134-0.425,0.205-0.636
		c0.092-0.271,0.189-0.539,0.294-0.803c0.086-0.216,0.176-0.431,0.271-0.643c0.11-0.246,0.228-0.487,0.35-0.727
		c0.11-0.216,0.22-0.431,0.339-0.641c0.124-0.219,0.258-0.432,0.392-0.645c0.136-0.216,0.269-0.435,0.414-0.644
		c0.126-0.182,0.264-0.355,0.397-0.531c0.17-0.225,0.336-0.455,0.518-0.671c0.044-0.052,0.093-0.099,0.137-0.15
		c0.538-0.624,1.12-1.209,1.744-1.746c0.039-0.034,0.075-0.071,0.114-0.104c0.282-0.238,0.578-0.46,0.875-0.679
		c0.097-0.071,0.19-0.146,0.289-0.216c0.293-0.206,0.596-0.398,0.902-0.585c0.111-0.068,0.22-0.137,0.333-0.202
		c0.311-0.18,0.63-0.348,0.954-0.508c0.113-0.056,0.227-0.111,0.342-0.165c0.334-0.155,0.673-0.301,1.019-0.434
		c0.107-0.041,0.216-0.079,0.324-0.118c0.362-0.131,0.728-0.254,1.101-0.36c0.084-0.024,0.169-0.043,0.253-0.065
		c0.405-0.108,0.813-0.207,1.229-0.285C29.456,51.107,30.465,51,31.5,51c0.006,0,0.011,0.001,0.017,0.001
		c-0.002-0.115-0.017-0.227-0.017-0.343c0-1.573,0.234-3.089,0.645-4.53c0.094-0.329,0.201-0.651,0.314-0.971
		c0.033-0.092,0.066-0.183,0.1-0.274c0.364-0.972,0.817-1.9,1.349-2.775c0.047-0.078,0.093-0.157,0.142-0.234
		c0.173-0.275,0.354-0.545,0.543-0.808c0.05-0.07,0.103-0.137,0.154-0.206c0.389-0.525,0.807-1.028,1.254-1.503
		c0.03-0.031,0.057-0.065,0.087-0.096c0.216-0.226,0.441-0.442,0.67-0.656c0.092-0.086,0.186-0.17,0.28-0.254
		c0.728-0.649,1.515-1.234,2.35-1.747c0.111-0.068,0.221-0.137,0.334-0.203c0.262-0.152,0.527-0.298,0.798-0.436
		c0.109-0.056,0.221-0.106,0.331-0.16c0.534-0.258,1.084-0.488,1.648-0.687c0.086-0.03,0.17-0.065,0.257-0.094
		c0.289-0.097,0.584-0.182,0.88-0.263c0.142-0.039,0.284-0.075,0.427-0.11c0.3-0.074,0.602-0.145,0.908-0.202
		c0.983-0.182,1.992-0.29,3.027-0.29c9.113,0,16.5,7.387,16.5,16.5c0,0.116-0.015,0.228-0.017,0.343
		C64.489,51.001,64.494,51,64.5,51z M83.158,73.153C83.701,71.362,84,69.466,84,67.5c0-9.786-7.245-17.911-16.653-19.293
		C66.137,38.608,57.922,31.158,48,31.158c-0.363,0-0.719,0.031-1.078,0.05c3.013-3.93,7.743-6.472,13.078-6.472
		c9.113,0,16.5,7.387,16.5,16.5c0,0.116-0.015,0.228-0.017,0.343c0.006,0,0.011-0.001,0.017-0.001c9.113,0,16.5,7.387,16.5,16.5
		C93,64.819,88.95,70.594,83.158,73.153z"/>
</g>
<g id="Layer_1">
</g>
</svg>
