<?xml version="1.0" encoding="iso-8859-1"?>
<!-- Generator: Adobe Illustrator 20.1.0, SVG Export Plug-In . SVG Version: 6.00 Build 0)  -->
<svg version="1.1" xmlns="http://www.w3.org/2000/svg" xmlns:xlink="http://www.w3.org/1999/xlink" x="0px" y="0px"
	 viewBox="0 0 108 108" style="enable-background:new 0 0 108 108;" xml:space="preserve">
<g id="Weather_Spring">
	<rect style="opacity:0.01;fill:#FFFFFF;" width="108" height="108"/>
	<circle style="fill:#32CC13;" cx="54" cy="54" r="9"/>
	<path style="fill:#32CC13;" d="M81,63c4.971,0,9-4.029,9-9s-4.029-9-9-9c-2.961,0-8.782,1.431-13.004,3.638
		c-0.096-0.251-0.194-0.5-0.303-0.744c4.546-1.426,9.67-4.529,11.763-6.622c3.515-3.515,3.515-9.213,0-12.728
		c-3.515-3.515-9.213-3.515-12.728,0c-2.093,2.093-5.196,7.218-6.622,11.763c-0.244-0.109-0.493-0.207-0.744-0.303
		C61.569,35.782,63,29.961,63,27c0-4.971-4.029-9-9-9c-4.971,0-9,4.029-9,9c0,2.961,1.431,8.782,3.638,13.004
		c-0.251,0.096-0.5,0.194-0.744,0.303c-1.426-4.546-4.529-9.67-6.622-11.763c-3.515-3.515-9.213-3.515-12.728,0
		c-3.515,3.515-3.515,9.213,0,12.728c2.093,2.093,7.218,5.196,11.763,6.622c-0.109,0.244-0.207,0.493-0.303,0.744
		C35.782,46.431,29.961,45,27,45c-4.971,0-9,4.029-9,9s4.029,9,9,9c2.961,0,8.782-1.431,13.004-3.638
		c0.096,0.251,0.194,0.5,0.303,0.744c-4.546,1.426-9.67,4.529-11.763,6.622c-3.515,3.515-3.515,9.213,0,12.728
		c3.515,3.515,9.213,3.515,12.728,0c2.093-2.093,5.196-7.218,6.622-11.763c0.244,0.109,0.493,0.207,0.744,0.303
		C46.431,72.218,45,78.039,45,81c0,4.971,4.029,9,9,9c4.971,0,9-4.029,9-9c0-2.961-1.431-8.782-3.638-13.004
		c0.251-0.096,0.5-0.194,0.744-0.303c1.426,4.546,4.529,9.67,6.622,11.763c3.515,3.515,9.213,3.515,12.728,0
		c3.515-3.515,3.515-9.213,0-12.728c-2.093-2.093-7.218-5.196-11.763-6.622c0.109-0.244,0.207-0.493,0.303-0.744
		C72.218,61.569,78.039,63,81,63z M66,57c-0.131,0-0.256-0.022-0.383-0.039c-0.286,1.126-0.729,2.186-1.308,3.159
		c0.101,0.078,0.205,0.151,0.298,0.244c1.172,1.172,1.172,3.071,0,4.243s-3.071,1.172-4.243,0c-0.093-0.093-0.165-0.197-0.244-0.298
		c-0.973,0.579-2.035,1.022-3.159,1.311C56.978,65.746,57,65.87,57,66c0,1.657-1.343,3-3,3s-3-1.343-3-3
		c0-0.13,0.022-0.254,0.038-0.38c-1.123-0.289-2.186-0.732-3.159-1.311c-0.078,0.101-0.151,0.205-0.244,0.298
		c-1.172,1.172-3.071,1.172-4.243,0s-1.172-3.071,0-4.243c0.093-0.093,0.197-0.165,0.298-0.244
		c-0.579-0.973-1.022-2.033-1.308-3.159C42.256,56.978,42.131,57,42,57c-1.657,0-3-1.343-3-3s1.343-3,3-3
		c0.131,0,0.256,0.022,0.383,0.039c0.286-1.126,0.729-2.186,1.308-3.159c-0.101-0.078-0.205-0.151-0.298-0.244
		c-1.172-1.172-1.172-3.071,0-4.243s3.071-1.172,4.243,0c0.093,0.093,0.165,0.197,0.244,0.298c0.973-0.579,2.033-1.022,3.159-1.308
		C51.022,42.256,51,42.131,51,42c0-1.657,1.343-3,3-3s3,1.343,3,3c0,0.131-0.022,0.256-0.039,0.383
		c1.126,0.286,2.186,0.729,3.159,1.308c0.078-0.101,0.151-0.205,0.244-0.298c1.172-1.172,3.071-1.172,4.243,0s1.172,3.071,0,4.243
		c-0.093,0.093-0.197,0.165-0.298,0.244c0.579,0.973,1.022,2.033,1.308,3.159C65.744,51.022,65.869,51,66,51c1.657,0,3,1.343,3,3
		S67.657,57,66,57z"/>
</g>
<g id="Layer_1">
</g>
</svg>
