<?xml version="1.0" encoding="iso-8859-1"?>
<!-- Generator: Adobe Illustrator 20.1.0, SVG Export Plug-In . SVG Version: 6.00 Build 0)  -->
<svg version="1.1" xmlns="http://www.w3.org/2000/svg" xmlns:xlink="http://www.w3.org/1999/xlink" x="0px" y="0px"
	 viewBox="0 0 108 108" style="enable-background:new 0 0 108 108;" xml:space="preserve">
<g id="Weather_x5F_Night">
	<rect style="opacity:0.01;fill:#FFFFFF;" width="108" height="108"/>
	<rect x="9" y="90" style="fill:#3616D9;" width="90" height="3"/>
	<rect x="9" y="93" style="opacity:0.5;fill:#3616D9;" width="90" height="3"/>
	<rect x="9" y="96" style="opacity:0.25;fill:#3616D9;" width="90" height="3"/>
	<polygon style="fill:#3616D9;" points="49.4,18 46.4,18 47.9,11 47.9,11 	"/>
	<polygon style="fill:#3616D9;" points="49.4,18 46.4,18 47.9,25 47.9,25 	"/>
	<polygon style="fill:#3616D9;" points="48,16.5 48,19.5 42,18 42,18 	"/>
	<polygon style="fill:#3616D9;" points="48,16.5 48,19.5 54,18 54,18 	"/>
	<polygon style="fill:#3616D9;" points="91.4,45 88.4,45 89.9,38 89.9,38 	"/>
	<polygon style="fill:#3616D9;" points="91.4,45 88.4,45 89.9,52 89.9,52 	"/>
	<polygon style="fill:#3616D9;" points="89.9,43.5 89.9,46.5 83.9,45 83.9,45 	"/>
	<polygon style="fill:#3616D9;" points="89.9,43.5 89.9,46.5 95.9,45 95.9,45 	"/>
	<polygon style="fill:#3616D9;" points="20.9,65 14.9,65 17.9,55 17.9,55 	"/>
	<polygon style="fill:#3616D9;" points="20.9,65 14.9,65 17.9,75 17.9,75 	"/>
	<polygon style="fill:#3616D9;" points="18,62 18,68 9,65 9,65 	"/>
	<polygon style="fill:#3616D9;" points="18,62 18,68 27,65 27,65 	"/>
	<path style="fill:#3512E6;" d="M64.162,32.257c1.34,2.992,2.092,6.306,2.092,9.797c0,13.255-10.745,24-24,24
		c-3.633,0-7.076-0.812-10.162-2.257C35.84,72.166,44.236,78,54,78c13.255,0,24-10.745,24-24C78,44.379,72.336,36.084,64.162,32.257
		z"/>
</g>
<g id="Layer_1">
</g>
</svg>
