<?xml version="1.0" encoding="iso-8859-1"?>
<!-- Generator: Adobe Illustrator 20.1.0, SVG Export Plug-In . SVG Version: 6.00 Build 0)  -->
<svg version="1.1" xmlns="http://www.w3.org/2000/svg" xmlns:xlink="http://www.w3.org/1999/xlink" x="0px" y="0px"
	 viewBox="0 0 108 108" style="enable-background:new 0 0 108 108;" xml:space="preserve">
<g id="Weather_x5F_Dawn">
	<rect y="0" style="opacity:0.01;fill:#FFFFFF;" width="108" height="108"/>
	<rect x="9" y="90" style="fill:#E81A5F;" width="90" height="3"/>
	<rect x="9" y="93" style="opacity:0.5;fill:#E81A5F;" width="90" height="3"/>
	<rect x="9" y="96" style="opacity:0.25;fill:#E81A5F;" width="90" height="3"/>
	<g>
		<defs>
			<rect id="SVGID_1_" x="25.5" y="48" width="73.4" height="39.037"/>
		</defs>
		<clipPath id="SVGID_2_">
			<use xlink:href="#SVGID_1_"  style="overflow:visible;"/>
		</clipPath>
		<g style="clip-path:url(#SVGID_2_);">
			<g>
				<path style="fill:#E84E1A;" d="M43.392,72.31L31.823,69l8.648,8.362C41.245,75.556,42.228,73.861,43.392,72.31z"/>
			</g>
			<g>
				<path style="fill:#E84E1A;" d="M77.691,67.392L81,55.823l-8.362,8.648C74.444,65.245,76.139,66.228,77.691,67.392z"/>
			</g>
			<g>
				<path style="fill:#E84E1A;" d="M82.608,72.309c1.164,1.552,2.147,3.247,2.921,5.053L94.177,69L82.608,72.309z"/>
			</g>
			<g>
				<path style="fill:#E84E1A;" d="M53.362,64.471L45,55.823l3.309,11.569C49.861,66.228,51.556,65.245,53.362,64.471z"/>
			</g>
			<g>
				<path style="fill:#E84E1A;" d="M63,62.5c1.527,0,3.018,0.147,4.468,0.414L63,51l-4.468,11.915
					C59.981,62.648,61.473,62.5,63,62.5z"/>
			</g>
			<g>
				<path style="fill:#E84E1A;" d="M99,87l-11.914-4.468C87.353,83.982,87.5,85.473,87.5,87s-0.147,3.018-0.414,4.468L99,87z"/>
			</g>
			<g>
				<path style="fill:#E84E1A;" d="M38.5,87c0-1.525,0.141-3.017,0.408-4.465L27,87l11.914,4.468C38.647,90.018,38.5,88.527,38.5,87
					z"/>
			</g>
		</g>
		<circle style="clip-path:url(#SVGID_2_);fill:#E66C15;" cx="63" cy="87" r="21"/>
	</g>
</g>
<g id="Layer_1">
</g>
</svg>
