<?xml version="1.0" encoding="iso-8859-1"?>
<!-- Generator: Adobe Illustrator 20.1.0, SVG Export Plug-In . SVG Version: 6.00 Build 0)  -->
<svg version="1.1" xmlns="http://www.w3.org/2000/svg" xmlns:xlink="http://www.w3.org/1999/xlink" x="0px" y="0px"
	 viewBox="0 0 108 108" style="enable-background:new 0 0 108 108;" xml:space="preserve">
<g id="Weather_x5F_Fog">
	<rect style="opacity:0.01;fill:#FFFFFF;" width="108" height="108"/>
	<g>
		<path style="fill:#156CE6;" d="M22.74,57H9v6h12.068C21.241,60.856,21.826,58.834,22.74,57z"/>
		<path style="fill:#156CE6;" d="M21.678,69H9v6h15.915C23.448,73.269,22.335,71.234,21.678,69z"/>
		<rect x="9" y="81" style="fill:#156CE6;" width="90" height="6"/>
		<rect x="9" y="93" style="fill:#156CE6;" width="90" height="6"/>
		<path style="fill:#156CE6;" d="M37.5,47.842c0.006,0,0.011,0.001,0.017,0.001C37.515,47.728,37.5,47.616,37.5,47.5
			c0-0.852,0.085-1.683,0.209-2.5H9v6h18.82C30.541,49.022,33.879,47.842,37.5,47.842z"/>
		<path style="fill:#156CE6;" d="M46.121,33H9v6h30.877C41.392,36.49,43.54,34.405,46.121,33z"/>
		<rect x="9" y="21" style="fill:#156CE6;" width="90" height="6"/>
		<path style="fill:#156CE6;" d="M68.123,39H99v-6H61.879C64.46,34.405,66.608,36.49,68.123,39z"/>
		<rect x="9" y="9" style="fill:#156CE6;" width="90" height="6"/>
		<path style="fill:#156CE6;" d="M86.932,63H99v-6H85.26C86.174,58.834,86.759,60.856,86.932,63z"/>
		<path style="fill:#156CE6;" d="M83.085,75H99v-6H86.322C85.665,71.234,84.552,73.269,83.085,75z"/>
		<path style="fill:#156CE6;" d="M70.5,47.5c0,0.116-0.015,0.228-0.017,0.343c0.006,0,0.011-0.001,0.017-0.001
			c3.621,0,6.959,1.18,9.68,3.158H99v-6H70.291C70.415,45.817,70.5,46.648,70.5,47.5z"/>
	</g>
</g>
<g id="Layer_1">
</g>
</svg>
