<?xml version="1.0" encoding="iso-8859-1"?>
<!-- Generator: Adobe Illustrator 20.1.0, SVG Export Plug-In . SVG Version: 6.00 Build 0)  -->
<svg version="1.1" xmlns="http://www.w3.org/2000/svg" xmlns:xlink="http://www.w3.org/1999/xlink" x="0px" y="0px"
	 viewBox="0 0 108 108" style="enable-background:new 0 0 108 108;" xml:space="preserve">
<g id="Weather_x5F_Clear">
	<rect style="opacity:0.01;fill:#FFFFFF;" width="108" height="108"/>
	<path style="fill:#156CE6;" d="M9,9v90h90V9H9z M77.369,40.475l-6.773,6.548c-0.599-1.422-1.389-2.74-2.315-3.949L77.369,40.475z
		 M69,54c0,8.284-6.716,15-15,15c-8.284,0-15-6.716-15-15s6.716-15,15-15C62.284,39,69,45.716,69,54z M67.537,30.643l-2.599,9.085
		c-1.207-0.927-2.523-1.718-3.944-2.318L67.537,30.643z M54,27l3.505,9.347C56.371,36.123,55.2,36,54,36s-2.371,0.123-3.505,0.347
		L54,27z M47.024,37.403c-1.414,0.595-2.725,1.38-3.928,2.299l-2.584-9.034L47.024,37.403z M39.671,43.138
		c-0.917,1.208-1.697,2.524-2.289,3.943l-6.754-6.53L39.671,43.138z M36.347,50.495C36.123,51.629,36,52.8,36,54
		s0.123,2.371,0.347,3.505L27,54L36.347,50.495z M30.654,67.525l6.755-6.532c0.599,1.418,1.389,2.732,2.313,3.938L30.654,67.525z
		 M40.537,77.408l2.598-9.081c1.213,0.921,2.536,1.704,3.962,2.297L40.537,77.408z M54,81l-3.505-9.347C51.629,71.877,52.8,72,54,72
		s2.371-0.123,3.505-0.347L54,81z M60.994,70.59c1.427-0.602,2.748-1.397,3.959-2.329l2.609,9.122L60.994,70.59z M68.27,64.941
		c0.931-1.212,1.725-2.535,2.326-3.963l6.798,6.573L68.27,64.941z M71.653,57.505C71.877,56.371,72,55.2,72,54
		s-0.123-2.371-0.347-3.505L81,54L71.653,57.505z"/>
</g>
<g id="Layer_1">
</g>
</svg>
