<?xml version="1.0" encoding="iso-8859-1"?>
<!-- Generator: Adobe Illustrator 20.1.0, SVG Export Plug-In . SVG Version: 6.00 Build 0)  -->
<svg version="1.1" xmlns="http://www.w3.org/2000/svg" xmlns:xlink="http://www.w3.org/1999/xlink" x="0px" y="0px"
	 viewBox="0 0 108 108" style="enable-background:new 0 0 108 108;" xml:space="preserve">
<g id="Weather_x5F_Snow">
	<rect style="opacity:0.01;fill:#FFFFFF;" width="108" height="108"/>
	<g>
		<polygon style="fill:#156CE6;" points="67.319,87.583 67.319,89.833 69.267,90.958 71.216,89.833 71.216,87.583 69.267,86.458 		
			"/>
		<polygon style="fill:#156CE6;" points="27.79,73.583 27.79,75.833 29.739,76.958 31.688,75.833 31.688,73.583 29.739,72.458 		"/>
		<path style="fill:#156CE6;" d="M9,9v90h90V9H9z M34.92,81.417l-0.776-2.898c-0.036-0.136-0.021-0.268,0.015-0.394l-1.921-1.109
			l-1.748,1.009v2.218c0.127,0.032,0.249,0.085,0.348,0.184l2.121,2.121c0.293,0.293,0.293,0.768,0,1.061
			c-0.293,0.293-0.768,0.293-1.061,0l-1.409-1.409v1.257c0,0.414-0.336,0.75-0.75,0.75c-0.414,0-0.75-0.336-0.75-0.75v-1.257
			L27.58,83.61c-0.293,0.293-0.768,0.293-1.061,0c-0.293-0.293-0.293-0.768,0-1.061l2.121-2.121
			c0.099-0.099,0.221-0.152,0.348-0.184v-2.218l-1.748-1.009l-1.921,1.109c0.036,0.126,0.051,0.258,0.015,0.394l-0.776,2.898
			c-0.107,0.4-0.518,0.638-0.919,0.53c-0.4-0.107-0.638-0.518-0.53-0.919l0.516-1.925l-1.089,0.629
			c-0.359,0.207-0.817,0.084-1.025-0.275c-0.207-0.359-0.084-0.817,0.275-1.025l1.089-0.629l-1.925-0.516
			c-0.4-0.107-0.638-0.518-0.53-0.919c0.107-0.4,0.518-0.638,0.919-0.53l2.898,0.776c0.136,0.036,0.243,0.116,0.334,0.21
			l1.921-1.109v-2.018L24.57,72.59c-0.091,0.094-0.198,0.173-0.334,0.21l-2.898,0.776c-0.4,0.107-0.811-0.13-0.919-0.53
			c-0.107-0.4,0.13-0.811,0.53-0.919l1.925-0.516l-1.089-0.629c-0.359-0.207-0.482-0.666-0.275-1.025
			c0.207-0.359,0.666-0.482,1.025-0.275l1.089,0.629l-0.516-1.925c-0.107-0.4,0.13-0.811,0.53-0.919
			c0.4-0.107,0.811,0.13,0.919,0.53l0.776,2.898c0.036,0.136,0.021,0.268-0.015,0.394l1.921,1.109l1.748-1.009v-2.218
			c-0.127-0.032-0.249-0.085-0.348-0.184l-2.121-2.121c-0.293-0.293-0.293-0.768,0-1.061c0.293-0.293,0.768-0.293,1.061,0
			l1.409,1.409v-1.257c0-0.414,0.336-0.75,0.75-0.75c0.414,0,0.75,0.336,0.75,0.75v1.257l1.409-1.409
			c0.293-0.293,0.768-0.293,1.061,0h0c0.293,0.293,0.293,0.768,0,1.061l-2.121,2.121c-0.099,0.099-0.221,0.152-0.348,0.184v2.218
			l1.748,1.009l1.921-1.109c-0.036-0.126-0.051-0.258-0.015-0.394L34.92,68c0.107-0.4,0.518-0.638,0.919-0.53
			c0.4,0.107,0.638,0.518,0.53,0.919l-0.516,1.925l1.089-0.629c0.359-0.207,0.817-0.084,1.025,0.275
			c0.207,0.359,0.084,0.817-0.275,1.025l-1.089,0.629l1.925,0.516c0.4,0.107,0.638,0.518,0.53,0.919
			c-0.107,0.4-0.518,0.638-0.919,0.53L35.241,72.8c-0.136-0.036-0.243-0.116-0.334-0.21l-1.921,1.109v2.018l1.921,1.109
			c0.091-0.094,0.198-0.173,0.334-0.21l2.898-0.776c0.4-0.107,0.811,0.13,0.919,0.53c0.107,0.4-0.13,0.811-0.53,0.919l-1.925,0.516
			l1.089,0.629c0.359,0.207,0.482,0.666,0.275,1.025c-0.207,0.359-0.666,0.482-1.025,0.275l-1.089-0.629l0.516,1.925
			c0.107,0.4-0.13,0.811-0.53,0.919C35.438,82.055,35.027,81.817,34.92,81.417z M44.668,91.672l3.181-0.852
			c0.267-0.071,0.541,0.087,0.612,0.354s-0.087,0.541-0.354,0.612l-2.215,0.593l1.12,0.646c0.239,0.138,0.321,0.444,0.183,0.683
			c-0.138,0.239-0.444,0.321-0.683,0.183l-1.12-0.646l0.593,2.215c0.071,0.267-0.087,0.541-0.354,0.612s-0.541-0.087-0.612-0.354
			l-0.852-3.181L42.5,91.574v1.927l2.328,2.328c0.195,0.195,0.195,0.512,0,0.707s-0.512,0.195-0.707,0L42.5,94.915v1.293
			c0,0.276-0.224,0.5-0.5,0.5s-0.5-0.224-0.5-0.5v-1.293l-1.621,1.621c-0.195,0.195-0.512,0.195-0.707,0s-0.195-0.512,0-0.707
			l2.328-2.328v-1.938l-1.687,0.974l-0.852,3.181c-0.071,0.267-0.346,0.425-0.612,0.354s-0.425-0.346-0.354-0.612l0.593-2.215
			l-1.101,0.635c-0.239,0.138-0.545,0.056-0.683-0.183s-0.056-0.545,0.183-0.683l1.098-0.634l-2.215-0.593
			c-0.267-0.071-0.425-0.346-0.354-0.612s0.346-0.425,0.612-0.354l3.181,0.852l1.68-0.97l-1.678-0.969l-3.181,0.852
			c-0.267,0.071-0.541-0.087-0.612-0.354s0.087-0.541,0.354-0.612l2.215-0.593l-1.101-0.635c-0.239-0.138-0.321-0.444-0.183-0.683
			s0.444-0.321,0.683-0.183l1.098,0.634l-0.593-2.215c-0.071-0.267,0.087-0.541,0.354-0.612c0.267-0.071,0.541,0.087,0.612,0.354
			l0.852,3.181l1.69,0.976v-1.949l-2.328-2.328c-0.195-0.195-0.195-0.512,0-0.707c0.195-0.195,0.512-0.195,0.707,0l1.621,1.621
			v-1.271c0-0.276,0.224-0.5,0.5-0.5s0.5,0.224,0.5,0.5v1.268l1.621-1.621c0.195-0.195,0.512-0.195,0.707,0
			c0.195,0.195,0.195,0.512,0,0.707L42.5,87.89v1.941l1.669-0.964l0.852-3.181c0.071-0.267,0.346-0.425,0.612-0.354
			c0.267,0.071,0.425,0.346,0.354,0.612l-0.593,2.215l1.12-0.646c0.239-0.138,0.545-0.056,0.683,0.183
			c0.138,0.239,0.056,0.545-0.183,0.683l-1.12,0.646l2.215,0.593c0.267,0.071,0.425,0.346,0.354,0.612s-0.346,0.425-0.612,0.354
			l-3.181-0.852l-1.679,0.969L44.668,91.672z M55.158,78.672l3.181-0.852c0.267-0.071,0.541,0.087,0.612,0.354
			s-0.087,0.541-0.354,0.612l-2.215,0.593l1.12,0.646c0.239,0.138,0.321,0.444,0.183,0.683c-0.138,0.239-0.444,0.321-0.683,0.183
			l-1.12-0.646l0.593,2.215c0.071,0.267-0.087,0.541-0.354,0.612s-0.541-0.087-0.612-0.354l-0.852-3.181l-1.669-0.963v1.927
			l2.328,2.328c0.195,0.195,0.195,0.512,0,0.707s-0.512,0.195-0.707,0l-1.621-1.621v1.293c0,0.276-0.224,0.5-0.5,0.5
			s-0.5-0.224-0.5-0.5v-1.293l-1.621,1.621c-0.195,0.195-0.512,0.195-0.707,0s-0.195-0.512,0-0.707l2.328-2.328v-1.938l-1.687,0.974
			l-0.852,3.181c-0.071,0.267-0.346,0.425-0.612,0.354s-0.425-0.346-0.354-0.612l0.593-2.215l-1.101,0.635
			c-0.239,0.138-0.545,0.056-0.683-0.183s-0.056-0.545,0.183-0.683l1.098-0.634l-2.215-0.593c-0.267-0.071-0.425-0.346-0.354-0.612
			s0.346-0.425,0.612-0.354l3.181,0.852l1.68-0.97l-1.678-0.969l-3.181,0.852c-0.267,0.071-0.541-0.087-0.612-0.354
			s0.087-0.541,0.354-0.612l2.215-0.593l-1.101-0.635c-0.239-0.138-0.321-0.444-0.183-0.683s0.444-0.321,0.683-0.183l1.098,0.634
			l-0.593-2.215c-0.071-0.267,0.087-0.541,0.354-0.612c0.267-0.071,0.541,0.087,0.612,0.354l0.852,3.181l1.69,0.976v-1.949
			l-2.328-2.328c-0.195-0.195-0.195-0.512,0-0.707c0.195-0.195,0.512-0.195,0.707,0l1.621,1.621v-1.271c0-0.276,0.224-0.5,0.5-0.5
			s0.5,0.224,0.5,0.5v1.268l1.621-1.621c0.195-0.195,0.512-0.195,0.707,0c0.195,0.195,0.195,0.512,0,0.707L52.99,74.89v1.941
			l1.669-0.964l0.852-3.181c0.071-0.267,0.346-0.425,0.612-0.354c0.267,0.071,0.425,0.346,0.354,0.612l-0.593,2.215l1.12-0.646
			c0.239-0.138,0.545-0.056,0.683,0.183c0.138,0.239,0.056,0.545-0.183,0.683l-1.12,0.646l2.215,0.593
			c0.267,0.071,0.425,0.346,0.354,0.612s-0.346,0.425-0.612,0.354l-3.181-0.852l-1.679,0.969L55.158,78.672z M73.937,90.538
			c0.091-0.094,0.198-0.173,0.334-0.21l2.898-0.776c0.4-0.107,0.811,0.13,0.919,0.53c0.107,0.4-0.13,0.811-0.53,0.919l-1.925,0.516
			l1.155,0.667c0.359,0.207,0.482,0.666,0.274,1.025c-0.207,0.359-0.666,0.482-1.024,0.275l-1.155-0.667l0.516,1.925
			c0.107,0.4-0.13,0.811-0.53,0.919c-0.4,0.107-0.811-0.13-0.919-0.53l-0.776-2.898c-0.036-0.136-0.021-0.268,0.015-0.394
			l-1.422-0.821l-1.748,1.009v1.642c0.127,0.032,0.249,0.085,0.348,0.184l2.121,2.121c0.293,0.293,0.293,0.768,0,1.061
			s-0.768,0.293-1.061,0l-1.409-1.409v1.334c0,0.414-0.336,0.75-0.75,0.75c-0.414,0-0.75-0.336-0.75-0.75v-1.334l-1.409,1.409
			c-0.293,0.293-0.768,0.293-1.061,0c-0.293-0.293-0.293-0.768,0-1.061l2.121-2.121c0.099-0.099,0.221-0.152,0.348-0.184v-1.642
			l-1.761-1.017l-1.436,0.829c0.036,0.126,0.051,0.258,0.015,0.394l-0.776,2.898c-0.107,0.4-0.518,0.638-0.919,0.53
			c-0.4-0.107-0.638-0.518-0.53-0.919l0.516-1.925l-1.128,0.651c-0.359,0.207-0.817,0.084-1.025-0.275s-0.084-0.817,0.275-1.025
			l1.128-0.651l-1.925-0.516c-0.4-0.107-0.638-0.518-0.53-0.919c0.107-0.4,0.518-0.638,0.919-0.53l2.898,0.776
			c0.136,0.036,0.243,0.116,0.334,0.21l1.449-0.837v-2.002l-1.449-0.837c-0.091,0.094-0.198,0.173-0.334,0.21l-2.898,0.776
			c-0.4,0.107-0.811-0.13-0.919-0.53c-0.107-0.4,0.13-0.811,0.53-0.919l1.925-0.516l-1.128-0.651
			c-0.359-0.207-0.482-0.666-0.275-1.025s0.666-0.482,1.025-0.275l1.128,0.651L63.11,82.66c-0.107-0.4,0.13-0.811,0.53-0.919
			c0.4-0.107,0.811,0.13,0.919,0.53l0.776,2.898c0.036,0.136,0.021,0.268-0.015,0.394L66.77,86.4l1.748-1.009v-1.673
			c-0.127-0.032-0.249-0.085-0.348-0.184l-2.121-2.121c-0.293-0.293-0.293-0.768,0-1.061c0.293-0.293,0.768-0.293,1.061,0
			l1.409,1.409v-1.302c0-0.414,0.336-0.75,0.75-0.75c0.414,0,0.75,0.336,0.75,0.75v1.302l1.409-1.409
			c0.293-0.293,0.768-0.293,1.061,0s0.293,0.768,0,1.061l-2.121,2.121c-0.099,0.099-0.221,0.152-0.348,0.184v1.673l1.734,1.001
			l1.436-0.829c-0.036-0.126-0.051-0.258-0.015-0.394l0.776-2.898c0.107-0.4,0.518-0.638,0.919-0.53
			c0.4,0.107,0.638,0.518,0.53,0.919l-0.516,1.925l1.155-0.667c0.359-0.207,0.817-0.084,1.024,0.275
			c0.207,0.359,0.084,0.817-0.274,1.025l-1.155,0.667l1.925,0.516c0.4,0.107,0.638,0.518,0.53,0.919
			c-0.107,0.4-0.518,0.638-0.919,0.53l-2.898-0.776c-0.136-0.036-0.243-0.116-0.334-0.21l-1.422,0.821v2.033L73.937,90.538z
			 M80.158,72.469l3.181-0.852c0.267-0.071,0.541,0.087,0.612,0.354s-0.087,0.541-0.354,0.612l-2.215,0.593l1.12,0.646
			c0.239,0.138,0.321,0.444,0.183,0.683c-0.138,0.239-0.444,0.321-0.683,0.183l-1.12-0.646l0.593,2.215
			c0.071,0.267-0.087,0.541-0.354,0.612s-0.541-0.087-0.612-0.354l-0.852-3.181l-1.669-0.963v1.927l2.328,2.328
			c0.195,0.195,0.195,0.512,0,0.707s-0.512,0.195-0.707,0l-1.621-1.621v1.293c0,0.276-0.224,0.5-0.5,0.5s-0.5-0.224-0.5-0.5v-1.293
			l-1.621,1.621c-0.195,0.195-0.512,0.195-0.707,0s-0.195-0.512,0-0.707l2.328-2.328V72.36l-1.687,0.974l-0.852,3.181
			c-0.071,0.267-0.346,0.425-0.612,0.354s-0.425-0.346-0.354-0.612l0.593-2.215l-1.101,0.635c-0.239,0.138-0.545,0.056-0.683-0.183
			s-0.056-0.545,0.183-0.683l1.098-0.634l-2.215-0.593c-0.267-0.071-0.425-0.346-0.354-0.612s0.346-0.425,0.612-0.354L74.8,72.47
			l1.68-0.97l-1.678-0.969l-3.181,0.852c-0.267,0.071-0.541-0.087-0.612-0.354c-0.071-0.267,0.087-0.541,0.354-0.612l2.215-0.593
			l-1.101-0.635c-0.239-0.138-0.321-0.444-0.183-0.683s0.444-0.321,0.683-0.183l1.098,0.634l-0.593-2.215
			c-0.071-0.267,0.087-0.541,0.354-0.612c0.267-0.071,0.541,0.087,0.612,0.354l0.852,3.181l1.69,0.976V68.69l-2.328-2.328
			c-0.195-0.195-0.195-0.512,0-0.707s0.512-0.195,0.707,0l1.621,1.621v-1.271c0-0.276,0.224-0.5,0.5-0.5s0.5,0.224,0.5,0.5v1.268
			l1.621-1.621c0.195-0.195,0.512-0.195,0.707,0c0.195,0.195,0.195,0.512,0,0.707l-2.328,2.328v1.941l1.669-0.964l0.852-3.181
			c0.071-0.267,0.346-0.425,0.612-0.354c0.267,0.071,0.425,0.346,0.354,0.612l-0.593,2.215l1.12-0.646
			c0.239-0.138,0.545-0.056,0.683,0.183c0.138,0.239,0.056,0.545-0.183,0.683l-1.12,0.646l2.215,0.593
			c0.267,0.071,0.425,0.346,0.354,0.612s-0.346,0.425-0.612,0.354l-3.181-0.852L78.48,71.5L80.158,72.469z M70.49,65.708h-33
			c-9.113,0-16.5-7.387-16.5-16.5c0-9.113,7.387-16.5,16.5-16.5c0.006,0,0.011,0.001,0.017,0.001
			c-0.002-0.115-0.017-0.227-0.017-0.343c0-9.113,7.387-16.5,16.5-16.5c9.113,0,16.5,7.387,16.5,16.5
			c0,0.116-0.015,0.228-0.017,0.343c0.006,0,0.011-0.001,0.017-0.001c9.113,0,16.5,7.387,16.5,16.5
			C86.99,58.321,79.602,65.708,70.49,65.708z"/>
	</g>
</g>
<g id="Layer_1">
</g>
</svg>
