<?xml version="1.0" encoding="iso-8859-1"?>
<!-- Generator: Adobe Illustrator 20.1.0, SVG Export Plug-In . SVG Version: 6.00 Build 0)  -->
<svg version="1.1" xmlns="http://www.w3.org/2000/svg" xmlns:xlink="http://www.w3.org/1999/xlink" x="0px" y="0px"
	 viewBox="0 0 108 108" style="enable-background:new 0 0 108 108;" xml:space="preserve">
<g id="Weather_x5F_Rain">
	<rect style="opacity:0.01;fill:#FFFFFF;" width="108" height="108"/>
	<path style="fill:#156CE6;" d="M9,9v90h24v-7.5c0-0.828,0.672-1.5,1.5-1.5s1.5,0.672,1.5,1.5V99h15v-7.5c0-0.828,0.672-1.5,1.5-1.5
		s1.5,0.672,1.5,1.5V99h15v-7.5c0-0.828,0.672-1.5,1.5-1.5s1.5,0.672,1.5,1.5V99h27V9H9z M27,94.5c0,0.828-0.672,1.5-1.5,1.5
		S24,95.328,24,94.5v-9c0-0.828,0.672-1.5,1.5-1.5s1.5,0.672,1.5,1.5V94.5z M27,76.5c0,0.828-0.672,1.5-1.5,1.5S24,77.328,24,76.5
		v-9c0-0.828,0.672-1.5,1.5-1.5s1.5,0.672,1.5,1.5V76.5z M36,82.5c0,0.828-0.672,1.5-1.5,1.5S33,83.328,33,82.5v-9
		c0-0.828,0.672-1.5,1.5-1.5s1.5,0.672,1.5,1.5V82.5z M45,94.5c0,0.828-0.672,1.5-1.5,1.5S42,95.328,42,94.5v-9
		c0-0.828,0.672-1.5,1.5-1.5s1.5,0.672,1.5,1.5V94.5z M54,82.5c0,0.828-0.672,1.5-1.5,1.5S51,83.328,51,82.5v-9
		c0-0.828,0.672-1.5,1.5-1.5s1.5,0.672,1.5,1.5V82.5z M63,94.813c0,0.828-0.672,1.5-1.5,1.5s-1.5-0.672-1.5-1.5v-9
		c0-0.828,0.672-1.5,1.5-1.5s1.5,0.672,1.5,1.5V94.813z M72,82.5c0,0.828-0.672,1.5-1.5,1.5S69,83.328,69,82.5v-9
		c0-0.828,0.672-1.5,1.5-1.5s1.5,0.672,1.5,1.5V82.5z M81,94.813c0,0.828-0.672,1.5-1.5,1.5s-1.5-0.672-1.5-1.5v-9
		c0-0.828,0.672-1.5,1.5-1.5s1.5,0.672,1.5,1.5V94.813z M81,76.5c0,0.828-0.672,1.5-1.5,1.5S78,77.328,78,76.5v-9
		c0-0.828,0.672-1.5,1.5-1.5s1.5,0.672,1.5,1.5V76.5z M70.5,66h-9c0.828,0,1.5,0.672,1.5,1.5v9c0,0.828-0.672,1.5-1.5,1.5
		S60,77.328,60,76.5v-9c0-0.828,0.672-1.5,1.5-1.5h-18c0.828,0,1.5,0.672,1.5,1.5v9c0,0.828-0.672,1.5-1.5,1.5S42,77.328,42,76.5v-9
		c0-0.828,0.672-1.5,1.5-1.5h-6C28.387,66,21,58.613,21,49.5C21,40.387,28.387,33,37.5,33c0.006,0,0.011,0.001,0.017,0.001
		c-0.002-0.115-0.017-0.227-0.017-0.343c0-9.113,7.387-16.5,16.5-16.5c9.113,0,16.5,7.387,16.5,16.5
		c0,0.116-0.015,0.228-0.017,0.343c0.006,0,0.011-0.001,0.017-0.001C79.613,33,87,40.387,87,49.5C87,58.613,79.613,66,70.5,66z"/>
</g>
<g id="Layer_1">
</g>
</svg>
