<?xml version="1.0" encoding="iso-8859-1"?>
<!-- Generator: Adobe Illustrator 20.1.0, SVG Export Plug-In . SVG Version: 6.00 Build 0)  -->
<svg version="1.1" xmlns="http://www.w3.org/2000/svg" xmlns:xlink="http://www.w3.org/1999/xlink" x="0px" y="0px"
	 viewBox="0 0 108 108" style="enable-background:new 0 0 108 108;" xml:space="preserve">
<g id="Weather_x5F_Summer">
	<rect style="opacity:0.01;fill:#FFFFFF;" width="108" height="108"/>
	<g>
		<g>
			<path style="fill:#F28816;" d="M34.392,39.31L22.823,36l8.648,8.362C32.245,42.556,33.228,40.861,34.392,39.31z"/>
		</g>
		<g>
			<path style="fill:#F28816;" d="M68.691,34.392L72,22.823l-8.362,8.648C65.444,32.245,67.139,33.228,68.691,34.392z"/>
		</g>
		<g>
			<path style="fill:#F28816;" d="M73.608,39.309c1.164,1.552,2.147,3.247,2.921,5.053L85.177,36L73.608,39.309z"/>
		</g>
		<g>
			<path style="fill:#F28816;" d="M44.362,31.471L36,22.823l3.309,11.569C40.861,33.228,42.556,32.245,44.362,31.471z"/>
		</g>
		<g>
			<path style="fill:#F28816;" d="M54,29.5c1.527,0,3.018,0.147,4.468,0.414L54,18l-4.468,11.915C50.981,29.648,52.473,29.5,54,29.5
				z"/>
		</g>
		<g>
			<path style="fill:#F28816;" d="M90,54l-11.914-4.468C78.353,50.982,78.5,52.473,78.5,54s-0.147,3.018-0.414,4.468L90,54z"/>
		</g>
		<g>
			<path style="fill:#F28816;" d="M76.529,63.638c-0.774,1.806-1.757,3.501-2.921,5.053L85.177,72L76.529,63.638z"/>
		</g>
		<g>
			<path style="fill:#F28816;" d="M63.638,76.529L72,85.177l-3.309-11.569C67.139,74.772,65.444,75.755,63.638,76.529z"/>
		</g>
		<g>
			<path style="fill:#F28816;" d="M54,78.5c-1.527,0-3.018-0.147-4.468-0.414L54,90l4.468-11.914C57.018,78.353,55.527,78.5,54,78.5
				z"/>
		</g>
		<g>
			<path style="fill:#F28816;" d="M39.309,73.608L36,85.177l8.362-8.648C42.556,75.755,40.861,74.772,39.309,73.608z"/>
		</g>
		<g>
			<path style="fill:#F28816;" d="M31.471,63.638L22.823,72l11.569-3.31C33.228,67.139,32.245,65.444,31.471,63.638z"/>
		</g>
		<g>
			<path style="fill:#F28816;" d="M29.5,54c0-1.525,0.141-3.017,0.408-4.465L18,54l11.914,4.468C29.647,57.018,29.5,55.527,29.5,54z
				"/>
		</g>
	</g>
	<circle style="fill:#E66C15;" cx="54" cy="54" r="21"/>
</g>
<g id="Layer_1">
</g>
</svg>
