<?xml version="1.0" encoding="iso-8859-1"?>
<!-- Generator: Adobe Illustrator 20.1.0, SVG Export Plug-In . SVG Version: 6.00 Build 0)  -->
<svg version="1.1" xmlns="http://www.w3.org/2000/svg" xmlns:xlink="http://www.w3.org/1999/xlink" x="0px" y="0px"
	 viewBox="0 0 108 108" style="enable-background:new 0 0 108 108;" xml:space="preserve">
<g id="Weather_x5F_Winter">
	<rect style="opacity:0.01;fill:#FFFFFF;" width="108" height="108"/>
	<g>
		
			<rect x="21.081" y="62.438" transform="matrix(-0.866 0.5 -0.5 -0.866 96.3155 105.0673)" style="fill:#106BCC;" width="26" height="6"/>
		
			<rect x="24.821" y="70.111" transform="matrix(-0.2588 0.9659 -0.9659 -0.2588 113.1934 59.365)" style="fill:#106BCC;" width="18" height="6"/>
		
			<rect x="18.306" y="58.827" transform="matrix(0.9659 0.2588 -0.2588 0.9659 16.9324 -4.9606)" style="fill:#106BCC;" width="18" height="6"/>
		
			<rect x="71.586" y="43.111" transform="matrix(0.9659 0.2588 -0.2588 0.9659 14.6802 -19.286)" style="fill:#106BCC;" width="18" height="6"/>
		
			<rect x="65.071" y="31.827" transform="matrix(-0.2588 0.9659 -0.9659 -0.2588 126.8824 -27.7066)" style="fill:#106BCC;" width="18" height="6"/>
		
			<rect x="60.919" y="39.438" transform="matrix(-0.866 0.5 -0.5 -0.866 159.1527 42.2302)" style="fill:#106BCC;" width="26" height="6"/>
	</g>
	<g>
		<rect x="41" y="28" transform="matrix(-3.717737e-10 -1 1 -3.717737e-10 23 85)" style="fill:#106BCC;" width="26" height="6"/>
		
			<rect x="38.485" y="23.938" transform="matrix(-0.7071 -0.7071 0.7071 -0.7071 62.0148 79.5624)" style="fill:#106BCC;" width="18" height="6"/>
		
			<rect x="51.515" y="23.938" transform="matrix(-0.7071 0.7071 -0.7071 -0.7071 122.3528 3.1948)" style="fill:#106BCC;" width="18" height="6"/>
		
			<rect x="38.485" y="77.938" transform="matrix(-0.7071 0.7071 -0.7071 -0.7071 138.2939 104.5918)" style="fill:#106BCC;" width="18" height="6"/>
		
			<rect x="51.515" y="77.938" transform="matrix(-0.7071 -0.7071 0.7071 -0.7071 46.0736 180.9593)" style="fill:#106BCC;" width="18" height="6"/>
		<rect x="41" y="74" transform="matrix(1.140017e-09 -1 1 1.140017e-09 -23 131)" style="fill:#106BCC;" width="26" height="6"/>
	</g>
	<g>
		
			<rect x="21.081" y="39.5" transform="matrix(-0.866 -0.5 0.5 -0.866 42.3468 96.3468)" style="fill:#106BCC;" width="26" height="6"/>
		
			<rect x="18.306" y="43.111" transform="matrix(-0.9659 0.2588 -0.2588 -0.9659 65.6155 83.5829)" style="fill:#106BCC;" width="18" height="6"/>
		
			<rect x="24.821" y="31.827" transform="matrix(0.2588 0.9659 -0.9659 0.2588 58.7073 -6.8551)" style="fill:#106BCC;" width="18" height="6"/>
		
			<rect x="65.071" y="70.111" transform="matrix(0.2588 0.9659 -0.9659 0.2588 125.5196 -17.3591)" style="fill:#106BCC;" width="18" height="6"/>
		
			<rect x="71.586" y="58.827" transform="matrix(-0.9659 0.2588 -0.2588 -0.9659 174.4279 100.6898)" style="fill:#106BCC;" width="18" height="6"/>
		
			<rect x="60.919" y="62.5" transform="matrix(-0.866 -0.5 0.5 -0.866 105.184 159.184)" style="fill:#106BCC;" width="26" height="6"/>
	</g>
	<path style="fill:#106BCC;" d="M54,39l-12.99,7.5v15L54,69l12.99-7.5v-15L54,39z M61.794,58.5L54,63l-7.794-4.5v-9L54,45l7.794,4.5
		V58.5z"/>
</g>
<g id="Layer_1">
</g>
</svg>
