<?xml version="1.0" encoding="iso-8859-1"?>
<!-- Generator: Adobe Illustrator 20.1.0, SVG Export Plug-In . SVG Version: 6.00 Build 0)  -->
<svg version="1.1" xmlns="http://www.w3.org/2000/svg" xmlns:xlink="http://www.w3.org/1999/xlink" x="0px" y="0px"
	 viewBox="0 0 108 108" style="enable-background:new 0 0 108 108;" xml:space="preserve">
<g id="Weather_x5F_Autumn">
	<rect style="opacity:0.01;fill:#FFFFFF;" width="108" height="108"/>
	<polygon style="fill:#CC4B13;" points="94,65.434 82.066,60.957 55.5,75 85.5,75 	"/>
	<path style="fill:#CC4B13;" d="M55.45,73.666L70.669,40.11c0,0,10.547-3.436,14.833-4.609L85.5,35.5c-0.135,4.441-1,15.5-1,15.5
		L55.452,73.667L55.45,73.666z"/>
	<polygon style="fill:#CC4B13;" points="14,65.434 25.934,60.957 52.5,75 22.5,75 	"/>
	<path style="fill:#CC4B13;" d="M52.55,73.666L37.331,40.11c0,0-10.547-3.436-14.833-4.609L22.5,35.5c0.135,4.441,1,15.5,1,15.5
		l29.048,22.667L52.55,73.666z"/>
	<path style="fill:#CC4B13;" d="M54,73.438c-1.441-7.018-10.262-42.843-10.262-42.843L54,15.861l10.262,14.734
		C64.262,30.595,55.441,66.419,54,73.438z"/>
	<path style="fill:#CC4B13;" d="M61.281,84.816c-1.485,1.618-3.141,3.422-4.844,5.184C52.313,87.131,52.5,75,52.5,75h3
		C55.5,75,55.75,82.984,61.281,84.816z"/>
</g>
<g id="Layer_1">
</g>
</svg>
