<?xml version="1.0" encoding="iso-8859-1"?>
<!-- Generator: Adobe Illustrator 20.1.0, SVG Export Plug-In . SVG Version: 6.00 Build 0)  -->
<svg version="1.1" xmlns="http://www.w3.org/2000/svg" xmlns:xlink="http://www.w3.org/1999/xlink" x="0px" y="0px"
	 viewBox="0 0 108 108" style="enable-background:new 0 0 108 108;" xml:space="preserve">
<g id="Weather_x5F_Day">
	<rect style="opacity:0.01;fill:#FFFFFF;" width="108" height="108"/>
	<rect x="9" y="90" style="fill:#E66C15;" width="90" height="3"/>
	<rect x="9" y="93" style="opacity:0.5;fill:#E66C15;" width="90" height="3"/>
	<rect x="9" y="96" style="opacity:0.25;fill:#E66C15;" width="90" height="3"/>
	<g>
		<g>
			<path style="fill:#F28816;" d="M34.392,24.31L22.823,21l8.648,8.362C32.245,27.556,33.228,25.861,34.392,24.31z"/>
		</g>
		<g>
			<path style="fill:#F28816;" d="M68.691,19.392L72,7.823l-8.362,8.648C65.444,17.245,67.139,18.228,68.691,19.392z"/>
		</g>
		<g>
			<path style="fill:#F28816;" d="M73.608,24.309c1.164,1.552,2.147,3.247,2.921,5.053L85.177,21L73.608,24.309z"/>
		</g>
		<g>
			<path style="fill:#F28816;" d="M44.362,16.471L36,7.823l3.309,11.569C40.861,18.228,42.556,17.245,44.362,16.471z"/>
		</g>
		<g>
			<path style="fill:#F28816;" d="M54,14.5c1.527,0,3.018,0.147,4.468,0.414L54,3l-4.468,11.915C50.981,14.648,52.473,14.5,54,14.5z
				"/>
		</g>
		<g>
			<path style="fill:#F28816;" d="M90,39l-11.914-4.468C78.353,35.982,78.5,37.473,78.5,39s-0.147,3.018-0.414,4.468L90,39z"/>
		</g>
		<g>
			<path style="fill:#F28816;" d="M76.529,48.638c-0.774,1.806-1.757,3.501-2.921,5.053L85.177,57L76.529,48.638z"/>
		</g>
		<g>
			<path style="fill:#F28816;" d="M63.638,61.529L72,70.177l-3.309-11.569C67.139,59.772,65.444,60.755,63.638,61.529z"/>
		</g>
		<g>
			<path style="fill:#F28816;" d="M54,63.5c-1.527,0-3.018-0.147-4.468-0.414L54,75l4.468-11.914C57.018,63.353,55.527,63.5,54,63.5
				z"/>
		</g>
		<g>
			<path style="fill:#F28816;" d="M39.309,58.608L36,70.177l8.362-8.648C42.556,60.755,40.861,59.772,39.309,58.608z"/>
		</g>
		<g>
			<path style="fill:#F28816;" d="M31.471,48.638L22.823,57l11.569-3.31C33.228,52.139,32.245,50.444,31.471,48.638z"/>
		</g>
		<g>
			<path style="fill:#F28816;" d="M29.5,39c0-1.525,0.141-3.017,0.408-4.465L18,39l11.914,4.468C29.647,42.018,29.5,40.527,29.5,39z
				"/>
		</g>
	</g>
	<circle style="fill:#E66C15;" cx="54" cy="39" r="21"/>
</g>
<g id="Layer_1">
</g>
</svg>
