<svg xmlns="http://www.w3.org/2000/svg" viewBox="0 0 108 108">
  <title>wi_fi_point</title>
  <g id="Layer_2" data-name="Layer 2">
    <g id="Icons">
      <g>
        <circle cx="54" cy="54" r="54" style="fill: #fff;opacity: 0"/>
        <g>
          <circle cx="54" cy="81" r="9" style="fill: #378006"/>
          <path d="M54,27A53.83,53.83,0,0,1,92.18,42.82l6.36-6.36a63,63,0,0,0-89.1,0l6.36,6.36A53.83,53.83,0,0,1,54,27Z" style="fill: #378006"/>
          <path d="M54,45A35.89,35.89,0,0,1,79.46,55.54l6.36-6.36a45,45,0,0,0-63.64,0l6.36,6.36A35.89,35.89,0,0,1,54,45Z" style="fill: #378006"/>
          <path d="M54,63a17.94,17.94,0,0,1,12.73,5.27l6.36-6.36a27,27,0,0,0-38.18,0l6.36,6.36A17.94,17.94,0,0,1,54,63Z" style="fill: #378006"/>
        </g>
      </g>
    </g>
  </g>
</svg>
