<svg xmlns="http://www.w3.org/2000/svg" viewBox="0 0 108 108">
  <title>wikipedia</title>
  <g id="Layer_2" data-name="Layer 2">
    <g id="Icons">
      <g>
        <circle cx="54" cy="54" r="54" style="fill: #fff;opacity: 0"/>
        <path d="M54,9A45,45,0,1,0,99,54,45,45,0,0,0,54,9ZM82.61,40c0,.29-.12.44-.44.44a5.53,5.53,0,0,0-3.4,1.06A6.13,6.13,0,0,0,77,44.12S67.4,67.33,64.11,75c-1.26,2.53-2.5,2.3-3.59-.07-1.37-3-4.2-9.49-6.29-14.32C52,65.49,49,72,47.45,75c-1.47,2.69-2.69,2.34-3.65.07C40.45,66.75,33.58,52.15,30.34,44a8.89,8.89,0,0,0-1.48-2.85,4.78,4.78,0,0,0-2.69-.69c-.49-.05-.78-.18-.78-.38V38.91l.36-.11c2.2,0,13.1,0,13.1,0l.53.11V40c0,.3-.59.44-.95.44l-1.75.06c-1.15,0-1.73.41-1.73,1.08a4.51,4.51,0,0,0,.39,1.5c2.58,6.61,11.48,26.36,11.48,26.36l.32.09,5.73-12-1.15-2.67-3.95-8.16s-.76-1.63-1-2.18c-1.73-3.61-1.7-3.81-3.45-4.05-.49-.07-.75-.14-.75-.39V38.9l0-.11h10.1l0,.09V40c0,.26.06.39-.3.39l-.5.11c-1.87.15-1.56,1-.32,3.56l3.78,8.15,4.19-8.79c.7-1.61.56-2,.27-2.38a2.65,2.65,0,0,0-1.92-.6l-.44-.05c-.12,0-.17,0-.28-.13s0-.19,0-.32v-1.2c3,0,9.46,0,9.46,0l.08.12V40c0,.3-.12.45-.44.45-1.55.07-1.83.24-2.39,1.1C63.58,42,63,43,62.33,44.12L56.89,54.84l-.15.34,6.64,14.32.4.12L74.24,43.44c.36-1.05.29-1.8-.18-2.25A2.67,2.67,0,0,0,72,40.47l-1.07-.05a1.06,1.06,0,0,1-.52-.14c-.11-.08-.51-.19-.51-.31V38.88l.85-.14H82.57l0,.14Z" style="fill: #313131"/>
      </g>
    </g>
  </g>
</svg>
