<svg xmlns="http://www.w3.org/2000/svg" viewBox="0 0 108 108">
  <title>wind_turbine</title>
  <g id="Layer_2" data-name="Layer 2">
    <g id="Icons">
      <g>
        <circle cx="54" cy="54" r="54" style="fill: #fff;opacity: 0"/>
        <path d="M53.2,61.46c-1.62,2.11-3,5.13-5.2,7.54L45,99H60L57,60A8.49,8.49,0,0,1,53.2,61.46Z" style="fill: #006e00"/>
        <path d="M73.23,53.64A118.34,118.34,0,0,0,61.34,51a9.43,9.43,0,0,1,.16,1.73,9.28,9.28,0,0,1-2.2,6A118.74,118.74,0,0,0,70.9,62.53C84.1,66.15,95.33,67.09,96,64.63S86.43,57.26,73.23,53.64Z" style="fill: #006e00"/>
        <path d="M46.35,45.7a9.46,9.46,0,0,1,6.09-2.2,9.66,9.66,0,0,1,1.75.16,117.08,117.08,0,0,0-2.67-11.89C47.85,18.57,42.87,8.39,40.38,9S38.85,20.9,42.51,34.1A117.63,117.63,0,0,0,46.35,45.7Z" style="fill: #006e00"/>
        <path d="M49.55,60.88a8.76,8.76,0,0,1-5.42-5.43,118.1,118.1,0,0,0-8.82,8c-9.46,9.47-15.74,18.54-14,20.26.39.39,1.17.35,2.22,0,3.63-1.27,10.7-6.67,18-14,2.27-2.27,4.34-4.51,6.18-6.63Q48.68,61.95,49.55,60.88Z" style="fill: #006e00"/>
        <circle cx="52.5" cy="52.5" r="4.5" style="fill: #006e00"/>
      </g>
    </g>
  </g>
</svg>
