<svg xmlns="http://www.w3.org/2000/svg" viewBox="0 0 108 108">
  <title>working_group</title>
  <g id="Layer_2" data-name="Layer 2">
    <g id="Icons">
      <g>
        <rect width="108" height="108" style="fill: #fff;opacity: 0"/>
        <path d="M21,48c-6.63,0-12,3.28-12,6.94V65.53C9,67.62,14.37,69,21,69s12-1.16,12-3.47V54.94C33,51.6,27.63,48,21,48Z" style="fill: #008a00"/>
        <circle cx="21" cy="36" r="9" style="fill: #008a00"/>
        <path d="M54,36c5,0,9-1,9-3.05V27.11C63,24.17,59,21,54,21s-9,2.88-9,6.11v5.84C45,34.79,49,36,54,36Z" style="fill: #008a00"/>
        <circle cx="54" cy="12" r="6" style="fill: #008a00"/>
        <path d="M54,72c-8.28,0-15,3.72-15,7.89V95.06C39,97.44,45.72,99,54,99s15-1.31,15-3.94V79.89C69,76.09,62.28,72,54,72Z" style="fill: #008a00"/>
        <circle cx="54" cy="57" r="12" style="fill: #008a00"/>
        <path d="M87,48c-6.63,0-12,3.28-12,6.94V65.53C75,67.62,80.37,69,87,69s12-1.16,12-3.47V54.94C99,51.6,93.63,48,87,48Z" style="fill: #008a00"/>
        <circle cx="87" cy="36" r="9" style="fill: #008a00"/>
      </g>
    </g>
  </g>
</svg>
