<svg xmlns="http://www.w3.org/2000/svg" viewBox="0 0 108 108">
  <title>youtube</title>
  <g id="Layer_2" data-name="Layer 2">
    <g id="Icons">
      <g>
        <circle cx="54" cy="54" r="54" style="fill: #fff;opacity: 0"/>
        <path d="M60.77,61.58a2.8,2.8,0,0,0-1.35.36,4.6,4.6,0,0,0-1.25,1V56.44h-3V76.73h3V75.59a3.79,3.79,0,0,0,1.25,1,3.43,3.43,0,0,0,1.53.33,2.41,2.41,0,0,0,2-.85,3.79,3.79,0,0,0,.69-2.44V65.33a4.54,4.54,0,0,0-.73-2.8A2.5,2.5,0,0,0,60.77,61.58ZM60.6,73.23a1.68,1.68,0,0,1-.25,1,1,1,0,0,1-.79.32,1.7,1.7,0,0,1-.71-.16,2.59,2.59,0,0,1-.69-.53V64.56a2.14,2.14,0,0,1,.6-.46,1.42,1.42,0,0,1,.62-.14,1.12,1.12,0,0,1,.92.39,1.85,1.85,0,0,1,.31,1.15Z" style="fill: #ff4d3f"/>
        <path d="M50.07,73.13a4,4,0,0,1-.9.8,1.66,1.66,0,0,1-.82.31.71.71,0,0,1-.6-.24,1.3,1.3,0,0,1-.18-.77V61.76H44.64V74.28a3.28,3.28,0,0,0,.52,2,1.79,1.79,0,0,0,1.53.67,3.47,3.47,0,0,0,1.7-.48,6.21,6.21,0,0,0,1.69-1.38v1.64H53v-15H50.07Z" style="fill: #ff4d3f"/>
        <path d="M53.49,45a1.48,1.48,0,0,0,1.07-.38,1.4,1.4,0,0,0,.4-1v-9a1.09,1.09,0,0,0-.41-.87,1.6,1.6,0,0,0-1.05-.33,1.44,1.44,0,0,0-1,.33,1.14,1.14,0,0,0-.37.87v9a1.47,1.47,0,0,0,.35,1A1.29,1.29,0,0,0,53.49,45Z" style="fill: #ff4d3f"/>
        <path d="M54,9A45,45,0,1,0,99,54,45,45,0,0,0,54,9Zm7,21.94h3.29V43.58a1.37,1.37,0,0,0,.21.84.79.79,0,0,0,.67.27,1.91,1.91,0,0,0,.92-.35,4.51,4.51,0,0,0,1-.89V30.94h3.3V47.43h-3.3V45.6a7,7,0,0,1-1.9,1.54,4.05,4.05,0,0,1-1.91.53,2.05,2.05,0,0,1-1.72-.74,3.52,3.52,0,0,1-.58-2.2ZM48.75,34.71a3.82,3.82,0,0,1,1.33-3.05,5.35,5.35,0,0,1,3.58-1.13A4.79,4.79,0,0,1,57,31.72a4,4,0,0,1,1.3,3.09v8.52A4.36,4.36,0,0,1,57,46.64a5,5,0,0,1-3.53,1.21A4.82,4.82,0,0,1,50,46.6a4.44,4.44,0,0,1-1.29-3.34Zm-9-9.64L42.18,34h.23l2.29-8.94h3.77L44.16,38.15v9.28H40.45V38.57L36,25.07ZM82.93,72.12A10.69,10.69,0,0,1,72.36,82.93H35.64A10.69,10.69,0,0,1,25.07,72.12V63.44c0-6,4.73-11.37,10.57-11.37H72.36c5.84,0,10.57,5.4,10.57,11.37Z" style="fill: #ff4d3f"/>
        <polygon points="33.23 59.39 36.64 59.39 36.64 76.73 39.94 76.73 39.94 59.39 43.35 59.39 43.35 56.44 33.23 56.44 33.23 59.39" style="fill: #ff4d3f"/>
        <path d="M69.6,61.39a4.35,4.35,0,0,0-3.2,1.22,4.26,4.26,0,0,0-1.25,3.17v6.73a4.83,4.83,0,0,0,1.13,3.39,4,4,0,0,0,3.1,1.23A4.3,4.3,0,0,0,72.66,76a4.85,4.85,0,0,0,1.1-3.47v-.77h-3v.68a3.3,3.3,0,0,1-.29,1.71,1.2,1.2,0,0,1-1,.39,1.08,1.08,0,0,1-1-.45,3.32,3.32,0,0,1-.29-1.64V69.61h5.6V65.79a4.56,4.56,0,0,0-1.08-3.26A4.06,4.06,0,0,0,69.6,61.39Zm1.16,5.89H68.17V65.76a2.23,2.23,0,0,1,.31-1.34,1.15,1.15,0,0,1,1-.41,1.12,1.12,0,0,1,1,.41,2.25,2.25,0,0,1,.31,1.34Z" style="fill: #ff4d3f"/>
      </g>
    </g>
  </g>
</svg>
