<svg xmlns="http://www.w3.org/2000/svg" viewBox="0 0 108 108">
  <title>zoo</title>
  <g id="Layer_2" data-name="Layer 2">
    <g id="Icons">
      <g>
        <circle cx="54" cy="54" r="54" style="fill: #fff;opacity: 0"/>
        <path d="M57,99s0-.07,0-.11C56,99,55,99,54,99Z" style="fill: #cc14a6"/>
        <path d="M30,84v8.06a44.8,44.8,0,0,0,9,4.37V81S33,84,30,84Z" style="fill: #cc14a6"/>
        <path d="M81,57V54c15,0,15-6,15-6-9,3-15,0-15,0a65.4,65.4,0,0,0-3-18S72,15,63,15s-12,6-12,6C27,9,27,21,27,21a22.92,22.92,0,0,0,6,15c3,3,0,3,0,3L10.69,41.79A45,45,0,0,0,17,79.57,45.75,45.75,0,0,0,42,78V97.37A45,45,0,0,0,54,99c1,0,2,0,3-.11C57,72,63,54,63,54a15.06,15.06,0,0,0,9,7.5C66,88.5,84,90,84,90a9.29,9.29,0,0,0,3-6c-9,0-9-12-9-12s0-6,1.5-9C93,63,96,57,96,57,84,60,81,57,81,57ZM72,42a3,3,0,1,1,3-3A3,3,0,0,1,72,42Z" style="fill: #cc14a6"/>
      </g>
    </g>
  </g>
</svg>
