<?xml version="1.0" encoding="iso-8859-1"?>
<!-- Generator: Adobe Illustrator 20.1.0, SVG Export Plug-In . SVG Version: 6.00 Build 0)  -->
<svg version="1.1" xmlns="http://www.w3.org/2000/svg" xmlns:xlink="http://www.w3.org/1999/xlink" x="0px" y="0px"
	 viewBox="0 0 108 108" style="enable-background:new 0 0 108 108;" xml:space="preserve">
<g id="Zoo_x5F_Menu">
	<circle style="opacity:0;fill:#FFFFFF;" cx="54" cy="54" r="54"/>
	<path style="fill:#CC1FCC;" d="M57,99c0-0.037,0.001-0.073,0.001-0.111C56.008,98.955,55.009,99,54,99H57z"/>
	<path style="fill:#CC1FCC;" d="M42,99h12c-4.157,0-8.178-0.576-12-1.631V99z"/>
	<path style="fill:#CC1FCC;" d="M30,84v8.058c2.807,1.774,5.82,3.247,9,4.371V81C39,81,33,84,30,84z"/>
	<path style="fill:#CC1FCC;" d="M81,57v-3c15,0,15-6,15-6c-9,3-15,0-15,0c0-9-3-18-3-18s-6-15-15-15s-12,6-12,6c-24-12-24,0-24,0
		c0,6,3,12,6,15s0,3,0,3l-22.309,2.789C9.598,45.673,9,49.766,9,54c0,9.502,2.952,18.31,7.979,25.573C30.147,82.733,42,78,42,78
		v19.369C45.822,98.424,49.843,99,54,99c1.01,0,2.008-0.045,3.001-0.111C57.017,71.952,63,54,63,54c3,6,9,7.5,9,7.5
		C66,88.5,84,90,84,90c3-3,3-6,3-6c-9,0-9-12-9-12s0-6,1.5-9C93,63,96,57,96,57C84,60,81,57,81,57z M72,42c-1.657,0-3-1.343-3-3
		s1.343-3,3-3s3,1.343,3,3S73.657,42,72,42z"/>
</g>
<g id="Layer_1">
</g>
</svg>
