<svg xmlns="http://www.w3.org/2000/svg" viewBox="0 0 32 32"><defs><style>.cls-1{fill:#fff;opacity:0;}.cls-2{fill:#002b63;}</style></defs><title>MapPin_Enter</title><g id="Layer_2" data-name="Layer 2"><g id="Layer_71" data-name="Layer 71"><rect class="cls-1" width="32" height="32" rx="16" ry="16"/><rect class="cls-2" x="5" y="8.5" width="8" height="3" rx="1.5" ry="1.5"/><rect class="cls-2" x="5" y="8.5" width="3" height="15" rx="1.5" ry="1.5"/><rect class="cls-2" x="5" y="20.5" width="8" height="3" rx="1.5" ry="1.5"/><path class="cls-2" d="M25.51,17.53H15v-3H25.51A1.5,1.5,0,0,1,27,16h0A1.5,1.5,0,0,1,25.51,17.53Z"/><rect class="cls-2" x="14.12" y="9.41" width="3" height="9" rx="1.5" ry="1.5" transform="translate(14.41 -6.97) rotate(45)"/><rect class="cls-2" x="11.12" y="16.65" width="9" height="3" rx="1.5" ry="1.5" transform="translate(17.41 -5.73) rotate(45)"/></g></g></svg>