<svg xmlns="http://www.w3.org/2000/svg" viewBox="0 0 32 32"><defs><style>.cls-1{opacity:0;}.cls-2{fill:#fff;}.cls-3{fill:#002b63;}</style></defs><title>MapPin_Start</title><g id="Layer_2" data-name="Layer 2"><g id="Layer_71" data-name="Layer 71"><g id="_LocationIcon" data-name="#LocationIcon"><g class="cls-1"><rect class="cls-2" width="32" height="32" rx="16" ry="16"/></g><path class="cls-3" d="M22,13a6,6,0,1,0-11.2,3h0l4.32,8.3a1,1,0,0,0,1.78,0L21.21,16h0A5.93,5.93,0,0,0,22,13ZM16,9a4,4,0,0,1,2.65,7,4.65,4.65,0,0,1-.57.42h0a4.25,4.25,0,0,1-.6.31,1.39,1.39,0,0,0-.19.06,4.25,4.25,0,0,1-.51.14,3.65,3.65,0,0,1-1.52,0,4.25,4.25,0,0,1-.51-.14,1.06,1.06,0,0,0-.19-.06,4.25,4.25,0,0,1-.6-.31h0a3.8,3.8,0,0,1-.57-.42A4,4,0,0,1,16,9Z"/><circle class="cls-3" cx="16" cy="13" r="2"/></g></g></g></svg>