<svg xmlns="http://www.w3.org/2000/svg" viewBox="0 0 32 32"><defs><style>.cls-1{fill:#fff;opacity:0;}.cls-2{fill:#002b63;}</style></defs><title>MapPin_Exit</title><g id="Layer_2" data-name="Layer 2"><g id="Layer_71" data-name="Layer 71"><rect class="cls-1" width="32" height="32" rx="16" ry="16"/><rect class="cls-2" x="5" y="8.5" width="10" height="3" rx="1.5" ry="1.5"/><rect class="cls-2" x="5" y="8.5" width="3" height="15" rx="1.5" ry="1.5"/><rect class="cls-2" x="5" y="20.5" width="10" height="3" rx="1.5" ry="1.5"/><path class="cls-2" d="M13.49,17.53H24v-3H13.49A1.5,1.5,0,0,0,12,16h0A1.5,1.5,0,0,0,13.49,17.53Z"/><rect class="cls-2" x="21.88" y="9.41" width="3" height="9" rx="1.5" ry="1.5" transform="translate(49.74 7.21) rotate(135)"/><rect class="cls-2" x="18.88" y="16.65" width="9" height="3" rx="1.5" ry="1.5" transform="translate(52.74 14.45) rotate(135)"/></g></g></svg>