<svg xmlns="http://www.w3.org/2000/svg" viewBox="0 0 32 32"><defs><style>.cls-1{fill:#fff;opacity:0;}.cls-2{fill:#002b63;}</style></defs><title>MapPin_Finish</title><g id="Layer_2" data-name="Layer 2"><g id="Layer_71" data-name="Layer 71"><rect class="cls-1" width="32" height="32" rx="16" ry="16" transform="translate(32 32) rotate(180)"/><path class="cls-2" d="M22.5,10a.5.5,0,0,1,.5.5v6a.5.5,0,0,1-.5.5H10V10H22.5m0-1H9v9H22.5A1.5,1.5,0,0,0,24,16.5v-6A1.5,1.5,0,0,0,22.5,9Z"/><circle class="cls-2" cx="10" cy="7" r="2"/><path class="cls-2" d="M10,27h0a1,1,0,0,0,1-1V8H9V26A1,1,0,0,0,10,27Z"/><rect class="cls-2" x="10" y="9" width="3" height="3"/><rect class="cls-2" x="13" y="12" width="3" height="3"/><rect class="cls-2" x="10" y="15" width="3" height="3"/><rect class="cls-2" x="16" y="15" width="3" height="3"/><rect class="cls-2" x="19" y="12" width="3" height="3"/><rect class="cls-2" x="16" y="9" width="3" height="3"/><rect class="cls-2" x="22" y="10" width="1" height="2"/><rect class="cls-2" x="22" y="15" width="1" height="2"/></g></g></svg>