<svg xmlns="http://www.w3.org/2000/svg" viewBox="0 0 32 32"><defs><style>.cls-1{fill:#fff;opacity:0;}.cls-2{fill:none;stroke:#002b63;stroke-linecap:round;stroke-linejoin:round;}.cls-3{fill:#002b63;}</style></defs><title>MapPin_StairsDown</title><g id="Layer_2" data-name="Layer 2"><g id="Layer_71" data-name="Layer 71"><rect class="cls-1" width="32" height="32" rx="16" ry="16"/><polyline class="cls-2" points="12.36 11.5 9.5 11.5 9.5 8.64"/><line class="cls-2" x1="13.5" y1="7.5" x2="10.07" y2="10.93"/><path class="cls-3" d="M8,22.5a.5.5,0,0,1-.5-.5V19a.5.5,0,0,1,.5-.5h3.5V16a.5.5,0,0,1,.5-.5h3.5V13a.5.5,0,0,1,.5-.5h3.5V10a.5.5,0,0,1,.5-.5h4a.5.5,0,0,1,.5.5V22a.5.5,0,0,1-.5.5Z"/><path class="cls-3" d="M24,10V22H8V19h4V16h4V13h4V10h4m0-1H20a1,1,0,0,0-1,1v2H16a1,1,0,0,0-1,1v2H12a1,1,0,0,0-1,1v2H8a1,1,0,0,0-1,1v3a1,1,0,0,0,1,1H24a1,1,0,0,0,1-1V10a1,1,0,0,0-1-1Z"/></g></g></svg>