<svg xmlns="http://www.w3.org/2000/svg" viewBox="0 0 32 32"><defs><style>.cls-1{fill:#fff;opacity:0;}.cls-2{fill:#002b63;}</style></defs><title>MapPin_Lift</title><g id="Layer_2" data-name="Layer 2"><g id="Layer_71" data-name="Layer 71"><rect class="cls-1" width="32" height="32" rx="16" ry="16" transform="translate(32 32) rotate(-180)"/><path class="cls-2" d="M23.66,6H8.34A1.38,1.38,0,0,0,7,7.41V24.59A1.38,1.38,0,0,0,8.34,26H23.66A1.38,1.38,0,0,0,25,24.59V7.41A1.38,1.38,0,0,0,23.66,6ZM14.5,7h3a1,1,0,0,1,1,.67A1,1,0,0,1,17.5,9h-3a1,1,0,0,1-1-.67A1,1,0,0,1,14.5,7Zm1,17h-6a.5.5,0,0,1-.5-.5v-13a.5.5,0,0,1,.5-.5h6Zm7.5-.5a.5.5,0,0,1-.5.5h-6V10h6a.5.5,0,0,1,.5.5Z"/></g></g></svg>