<svg xmlns="http://www.w3.org/2000/svg" viewBox="0 0 32 32"><defs><style>.cls-1{fill:#fff;opacity:0;}.cls-2{fill:none;stroke:#002b63;stroke-linecap:round;stroke-linejoin:round;}.cls-3{fill:#002b63;}</style></defs><title>MapPin_EscDown</title><g id="Layer_2" data-name="Layer 2"><g id="Layer_71" data-name="Layer 71"><rect class="cls-1" width="32" height="32" rx="16" ry="16"/><polyline class="cls-2" points="22.5 23.5 19.5 23.5 19.5 20.5"/><line class="cls-2" x1="23.5" y1="19.5" x2="20" y2="23"/><path class="cls-3" d="M12.56,14.19a2,2,0,0,1-2.12,0A1,1,0,0,0,10,15v3l3-3A1,1,0,0,0,12.56,14.19Z"/><circle class="cls-3" cx="11.5" cy="12.5" r="1.5"/><path class="cls-3" d="M16.56,10.19a2,2,0,0,1-2.12,0A1,1,0,0,0,14,11v3l3-3A1,1,0,0,0,16.56,10.19Z"/><circle class="cls-3" cx="15.5" cy="8.5" r="1.5"/><path class="cls-3" d="M24.5,9h-3a2.49,2.49,0,0,0-1.78.74L9.44,20,7.5,20a2.5,2.5,0,0,0,0,5h3a2.41,2.41,0,0,0,1.77-.73L22.5,14h2a2.5,2.5,0,0,0,0-5Zm0,2H21.42L10.73,21.71A1,1,0,0,1,10,22H7.5a.5.5,0,0,1-.5-.5.5.5,0,0,1,.5-.5H10L20.71,10.29a1,1,0,0,1,.7-.29H24.5a.5.5,0,0,1,.5.5A.5.5,0,0,1,24.5,11Z"/></g></g></svg>