<svg xmlns="http://www.w3.org/2000/svg" viewBox="0 0 32 32"><defs><style>.cls-1{opacity:0;}.cls-2{fill:#fff;}.cls-3{fill:#002b63;}</style></defs><title>MapPin_CrossLights</title><g id="Layer_2" data-name="Layer 2"><g id="Layer_71" data-name="Layer 71"><g id="_LocationIcon" data-name="#LocationIcon" class="cls-1"><rect class="cls-2" width="32" height="32" rx="16" ry="16"/></g><rect class="cls-3" x="15" y="16" width="1" height="11" rx="0.5" ry="0.5"/><path class="cls-3" d="M21,10H19V9l2-2H19V6a1,1,0,0,0-1-1H13a1,1,0,0,0-1,1V16a1,1,0,0,0,1,1h5a1,1,0,0,0,1-1V15l2-2H19V12Zm-5.5,5A1.5,1.5,0,1,1,17,13.5,1.5,1.5,0,0,1,15.5,15Zm0-5A1.5,1.5,0,1,1,17,8.5,1.5,1.5,0,0,1,15.5,10Z"/></g></g></svg>